<svg width="85" height="143" viewBox="0 0 85 143" fill="none" xmlns="http://www.w3.org/2000/svg">
<path d="M84.2296 100.682C84.2296 123.929 65.3622 142.797 42.1148 142.797C18.8674 142.797 0 123.93 0 100.682C0 81.7169 12.5569 65.6666 29.8049 60.3972V71.712C18.5443 76.5067 10.6432 87.6773 10.6432 100.682C10.6432 118.054 24.7425 132.154 42.1148 132.154C59.4871 132.154 73.5864 118.054 73.5864 100.682C73.5864 87.6773 65.6853 76.5067 54.4247 71.712V60.3972C71.6726 65.6666 84.2296 81.7168 84.2296 100.682Z" fill="#913DCE"/>
<path d="M28.9323 26.0269L39.2253 24.212L50.4583 87.9177L40.1653 89.7327L28.9323 26.0269Z" fill="#913DCE"/>
<path d="M42.1147 0C46.4081 0 49.8925 3.48446 49.8925 7.77781C49.8925 12.0712 46.4081 15.5556 42.1147 15.5556C37.8214 15.5556 34.3369 12.0712 34.3369 7.77781C34.3369 3.48446 37.8214 0 42.1147 0Z" fill="#913DCE"/>
</svg>
