<svg xmlns="http://www.w3.org/2000/svg" xmlns:xlink="http://www.w3.org/1999/xlink" width="500" zoomAndPan="magnify" viewBox="0 0 375 374.999991" height="500" preserveAspectRatio="xMidYMid meet" version="1.0"><defs><clipPath id="79da566b7a"><path d="M 156 84.304688 L 250 84.304688 L 250 185 L 156 185 Z M 156 84.304688 " clip-rule="nonzero"/></clipPath><clipPath id="e9ab09001d"><path d="M 115.265625 184 L 290.765625 184 L 290.765625 277.054688 L 115.265625 277.054688 Z M 115.265625 184 " clip-rule="nonzero"/></clipPath><clipPath id="834734d3d6"><path d="M 84.125 133.773438 L 153 133.773438 L 153 202.773438 L 84.125 202.773438 Z M 84.125 133.773438 " clip-rule="nonzero"/></clipPath></defs><g clip-path="url(#79da566b7a)"><path fill="#FFFFFF" d="M 203.015625 184.289062 C 228.796875 184.289062 249.765625 156.902344 249.765625 131.101562 C 249.765625 105.300781 228.796875 84.304688 203.015625 84.304688 C 177.234375 84.304688 156.261719 105.300781 156.261719 131.101562 C 156.265625 156.898438 177.234375 184.289062 203.015625 184.289062 Z M 203.015625 184.289062 " fill-opacity="1" fill-rule="nonzero"/></g><g clip-path="url(#e9ab09001d)"><path fill="#FFFFFF" d="M 238.113281 184.769531 C 229.042969 191.683594 217.730469 195.796875 205.476562 195.796875 L 200.554688 195.796875 C 188.296875 195.796875 176.980469 191.679688 167.914062 184.769531 C 138.304688 189.558594 115.691406 215.246094 115.691406 246.230469 C 115.691406 263.253906 154.785156 277.054688 203.015625 277.054688 C 251.242188 277.054688 290.339844 263.253906 290.339844 246.230469 C 290.339844 215.246094 267.722656 189.558594 238.113281 184.769531 Z M 238.113281 184.769531 " fill-opacity="1" fill-rule="nonzero"/></g><g clip-path="url(#834734d3d6)"><path fill="#FFFFFF" d="M 118.542969 133.695312 C 118.167969 133.699219 117.800781 133.742188 117.433594 133.820312 C 117.066406 133.898438 116.710938 134.011719 116.367188 134.160156 C 116.023438 134.308594 115.699219 134.488281 115.390625 134.699219 C 115.082031 134.914062 114.796875 135.152344 114.539062 135.421875 C 114.277344 135.691406 114.042969 135.980469 113.839844 136.296875 C 113.636719 136.609375 113.464844 136.941406 113.328125 137.289062 C 113.191406 137.636719 113.085938 137.992188 113.019531 138.363281 C 112.949219 138.730469 112.917969 139.101562 112.925781 139.476562 L 112.925781 162.285156 L 90.113281 162.285156 C 89.738281 162.28125 89.363281 162.3125 88.992188 162.378906 C 88.617188 162.449219 88.257812 162.554688 87.90625 162.695312 C 87.558594 162.835938 87.222656 163.011719 86.90625 163.21875 C 86.589844 163.425781 86.300781 163.660156 86.03125 163.925781 C 85.761719 164.191406 85.519531 164.480469 85.308594 164.792969 C 85.097656 165.105469 84.917969 165.4375 84.773438 165.785156 C 84.625 166.136719 84.515625 166.496094 84.441406 166.863281 C 84.367188 167.234375 84.332031 167.609375 84.332031 167.988281 C 84.332031 168.367188 84.367188 168.738281 84.441406 169.109375 C 84.515625 169.480469 84.625 169.839844 84.773438 170.1875 C 84.917969 170.539062 85.097656 170.867188 85.308594 171.179688 C 85.519531 171.492188 85.761719 171.785156 86.03125 172.046875 C 86.300781 172.3125 86.589844 172.550781 86.90625 172.757812 C 87.222656 172.964844 87.558594 173.136719 87.90625 173.277344 C 88.257812 173.421875 88.617188 173.523438 88.992188 173.59375 C 89.363281 173.664062 89.738281 173.695312 90.113281 173.691406 L 112.925781 173.691406 L 112.925781 196.5 C 112.917969 196.878906 112.949219 197.253906 113.019531 197.625 C 113.089844 197.996094 113.195312 198.355469 113.335938 198.707031 C 113.476562 199.058594 113.648438 199.390625 113.855469 199.707031 C 114.0625 200.023438 114.300781 200.316406 114.566406 200.585938 C 114.832031 200.855469 115.121094 201.09375 115.433594 201.304688 C 115.746094 201.515625 116.078125 201.695312 116.425781 201.839844 C 116.773438 201.988281 117.132812 202.097656 117.503906 202.171875 C 117.875 202.246094 118.25 202.285156 118.625 202.285156 C 119.003906 202.285156 119.378906 202.246094 119.75 202.171875 C 120.121094 202.097656 120.480469 201.988281 120.828125 201.839844 C 121.175781 201.695312 121.507812 201.515625 121.820312 201.304688 C 122.132812 201.09375 122.421875 200.855469 122.6875 200.585938 C 122.953125 200.316406 123.191406 200.023438 123.398438 199.707031 C 123.605469 199.390625 123.777344 199.058594 123.917969 198.707031 C 124.058594 198.355469 124.164062 197.996094 124.234375 197.625 C 124.304688 197.253906 124.335938 196.878906 124.328125 196.5 L 124.328125 173.691406 L 147.140625 173.691406 C 147.515625 173.695312 147.890625 173.664062 148.261719 173.59375 C 148.632812 173.523438 148.996094 173.421875 149.347656 173.277344 C 149.695312 173.136719 150.03125 172.964844 150.347656 172.757812 C 150.664062 172.550781 150.953125 172.3125 151.222656 172.046875 C 151.492188 171.785156 151.734375 171.492188 151.945312 171.179688 C 152.15625 170.867188 152.335938 170.539062 152.480469 170.1875 C 152.625 169.839844 152.738281 169.480469 152.8125 169.109375 C 152.886719 168.738281 152.921875 168.367188 152.921875 167.988281 C 152.921875 167.609375 152.886719 167.234375 152.8125 166.863281 C 152.738281 166.496094 152.625 166.136719 152.480469 165.785156 C 152.335938 165.4375 152.15625 165.105469 151.945312 164.792969 C 151.734375 164.480469 151.492188 164.191406 151.222656 163.925781 C 150.953125 163.660156 150.664062 163.425781 150.347656 163.21875 C 150.03125 163.011719 149.695312 162.835938 149.347656 162.695312 C 148.996094 162.554688 148.632812 162.449219 148.261719 162.378906 C 147.890625 162.3125 147.515625 162.28125 147.140625 162.285156 L 124.328125 162.285156 L 124.328125 139.476562 C 124.335938 139.09375 124.300781 138.714844 124.230469 138.339844 C 124.160156 137.964844 124.054688 137.601562 123.910156 137.25 C 123.765625 136.894531 123.589844 136.5625 123.378906 136.242188 C 123.167969 135.925781 122.925781 135.632812 122.65625 135.363281 C 122.386719 135.09375 122.09375 134.851562 121.777344 134.640625 C 121.457031 134.433594 121.121094 134.253906 120.769531 134.113281 C 120.417969 133.96875 120.050781 133.863281 119.675781 133.792969 C 119.300781 133.722656 118.925781 133.6875 118.542969 133.695312 Z M 118.542969 133.695312 " fill-opacity="1" fill-rule="nonzero"/></g></svg>
