<svg width="1538" height="958" viewBox="0 0 1538 958" fill="none" xmlns="http://www.w3.org/2000/svg">
<path d="M1463.08 426H1457.61V791.328L1356.57 905.453H184.187L83.1459 791.328V593.365H77.6823V673.253L52 702.245V819.333L172.276 955.113H351.625L390.151 911.621H416.817L378.291 955.113H415.177L453.703 911.621H481.682L443.156 955.113H480.041L518.567 911.621H546.547L508.02 955.113H544.906L583.432 911.621H611.411L572.885 955.113H609.77L648.297 911.621H676.276L637.75 955.113H674.64L713.161 911.621H829.234L867.755 955.113H904.645L866.119 911.621H894.099L932.625 955.113H969.51L930.984 911.621H958.963L997.489 955.113H1034.38L995.849 911.621H1023.83L1062.36 955.113H1099.24L1060.72 911.621H1088.7L1127.22 955.113H1164.11L1125.58 911.621H1152.25L1190.77 955.113H1370.12L1490.4 819.333V702.245L1463.08 671.401V426Z" fill="#442D6A"/>
<mask id="mask0_2828_1224" style="mask-type:luminance" maskUnits="userSpaceOnUse" x="51" y="21" width="602" height="524">
<path d="M51 21H652.333V544.886H51V21Z" fill="white"/>
</mask>
<g mask="url(#mask0_2828_1224)">
<path d="M77.6823 544.192H83.1458V184.79L184.187 70.6598H651.687V64.492H598.406L559.88 21H172.276L52 156.78V273.868L77.6823 302.866V544.192Z" fill="#442D6A"/>
</g>
<mask id="mask1_2828_1224" style="mask-type:luminance" maskUnits="userSpaceOnUse" x="884" y="21" width="607" height="345">
<path d="M884.333 21H1491V365.767H884.333V21Z" fill="white"/>
</mask>
<g mask="url(#mask1_2828_1224)">
<path d="M1369.92 20.7534H982.317L943.791 64.2454H885.265V70.4132H1356.37L1457.41 184.544V365.356H1462.87V304.466L1490.2 273.621V156.533L1369.92 20.7534Z" fill="#442D6A"/>
</g>
<path d="M407.197 312.818L392.612 288.247H273.197V314.247V347.247V374.247H392.612L407.197 348.14V330.479V312.818Z" stroke="#FFF5F5" stroke-opacity="0.68"/>
<path d="M407.197 331.747H257.197" stroke="#B9A9B8"/>
<path d="M303.197 297.247H286.197C283.435 297.247 281.197 299.486 281.197 302.247V319.247C281.197 322.008 283.435 324.247 286.197 324.247H303.197C305.958 324.247 308.197 322.008 308.197 319.247V302.247C308.197 299.486 305.958 297.247 303.197 297.247Z" fill="#D9D9D9" fill-opacity="0.09"/>
<path d="M303.197 339.247H286.197C283.435 339.247 281.197 341.486 281.197 344.247V361.247C281.197 364.008 283.435 366.247 286.197 366.247H303.197C305.958 366.247 308.197 364.008 308.197 361.247V344.247C308.197 341.486 305.958 339.247 303.197 339.247Z" fill="#D9D9D9" fill-opacity="0.09"/>
<path d="M563.197 418.675L548.83 399.247H431.197V419.805V445.898V467.247H548.83L563.197 446.604V432.64V418.675Z" stroke="#FFF5F5" stroke-opacity="0.68"/>
<path d="M473.197 414.247H445.197C442.435 414.247 440.197 416.486 440.197 419.247V447.247C440.197 450.008 442.435 452.247 445.197 452.247H473.197C475.958 452.247 478.197 450.008 478.197 447.247V419.247C478.197 416.486 475.958 414.247 473.197 414.247Z" fill="#D9D9D9" fill-opacity="0.09"/>
<path d="M563.197 520.675L548.83 501.247H431.197V521.805V547.898V569.247H548.83L563.197 548.604V534.64V520.675Z" stroke="#FFF5F5" stroke-opacity="0.68"/>
<path d="M440.197 521.247C440.197 518.485 442.436 516.247 445.197 516.247H473.197C475.959 516.247 478.197 518.485 478.197 521.247V549.247C478.197 552.008 475.959 554.247 473.197 554.247H445.197C442.436 554.247 440.197 552.008 440.197 549.247V521.247Z" fill="#D9D9D9" fill-opacity="0.09"/>
<path d="M762 475.39L747.523 462.247H629V476.154V493.805V508.247H747.523L762 494.283V484.836V475.39Z" stroke="#FFF5F5" stroke-opacity="0.68"/>
<path d="M664.197 471.247H645.197C642.436 471.247 640.197 473.486 640.197 476.247V495.247C640.197 498.008 642.436 500.247 645.197 500.247H664.197C666.959 500.247 669.197 498.008 669.197 495.247V476.247C669.197 473.486 666.959 471.247 664.197 471.247Z" fill="#D9D9D9" fill-opacity="0.09"/>
<path d="M755 348H736C733.239 348 731 350.239 731 353V372C731 374.761 733.239 377 736 377H755C757.761 377 760 374.761 760 372V353C760 350.239 757.761 348 755 348Z" fill="#D9D9D9" fill-opacity="0.09"/>
<path d="M407.197 616.818L392.612 592.247H273.197V618.247V651.247V678.247H392.612L407.197 652.14V634.479V616.818Z" stroke="#FFF5F5" stroke-opacity="0.68"/>
<path d="M407.197 635.747H257.197" stroke="#B9A9B8"/>
<path d="M303.197 601.247H286.197C283.435 601.247 281.197 603.486 281.197 606.247V623.247C281.197 626.008 283.435 628.247 286.197 628.247H303.197C305.958 628.247 308.197 626.008 308.197 623.247V606.247C308.197 603.486 305.958 601.247 303.197 601.247Z" fill="#D9D9D9" fill-opacity="0.09"/>
<path d="M303.197 643.247H286.197C283.435 643.247 281.197 645.486 281.197 648.247V665.247C281.197 668.008 283.435 670.247 286.197 670.247H303.197C305.958 670.247 308.197 668.008 308.197 665.247V648.247C308.197 645.486 305.958 643.247 303.197 643.247Z" fill="#D9D9D9" fill-opacity="0.09"/>
<path d="M249.197 388.818L234.612 364.247H115.197V390.247V423.247V450.247H234.612L249.197 424.14V406.479V388.818Z" stroke="#FFF5F5" stroke-opacity="0.68"/>
<path d="M249.197 407.747H115.197" stroke="#B9A9B8"/>
<path d="M145.197 373.247H128.197C125.435 373.247 123.197 375.486 123.197 378.247V395.247C123.197 398.008 125.435 400.247 128.197 400.247H145.197C147.958 400.247 150.197 398.008 150.197 395.247V378.247C150.197 375.486 147.958 373.247 145.197 373.247Z" fill="#D9D9D9" fill-opacity="0.09"/>
<path d="M145.197 415.247H128.197C125.435 415.247 123.197 417.486 123.197 420.247V437.247C123.197 440.008 125.435 442.247 128.197 442.247H145.197C147.958 442.247 150.197 440.008 150.197 437.247V420.247C150.197 417.486 147.958 415.247 145.197 415.247Z" fill="#D9D9D9" fill-opacity="0.09"/>
<path d="M249.197 407.747H115.197" stroke="#B9A9B8"/>
<path d="M159.697 364.247V449.247" stroke="white"/>
<path d="M249.197 540.818L234.612 516.247H115.197V542.247V575.247V602.247H234.612L249.197 576.14V558.479V540.818Z" stroke="#FFF5F5" stroke-opacity="0.68"/>
<path d="M249.197 559.747H115.197" stroke="#B9A9B8"/>
<path d="M145.197 525.247H128.197C125.435 525.247 123.197 527.486 123.197 530.247V547.247C123.197 550.008 125.435 552.247 128.197 552.247H145.197C147.958 552.247 150.197 550.008 150.197 547.247V530.247C150.197 527.486 147.958 525.247 145.197 525.247Z" fill="#D9D9D9" fill-opacity="0.09"/>
<path d="M145.197 567.247H128.197C125.435 567.247 123.197 569.486 123.197 572.247V589.247C123.197 592.008 125.435 594.247 128.197 594.247H145.197C147.958 594.247 150.197 592.008 150.197 589.247V572.247C150.197 569.486 147.958 567.247 145.197 567.247Z" fill="#D9D9D9" fill-opacity="0.09"/>
<path d="M249.197 692.818L234.612 668.247H115.197V694.247V727.247V754.247H234.612L249.197 728.14V710.479V692.818Z" stroke="#FFF5F5" stroke-opacity="0.68"/>
<path d="M249.197 711.747H115.197" stroke="#B9A9B8"/>
<path d="M145.197 677.247H128.197C125.435 677.247 123.197 679.486 123.197 682.247V699.247C123.197 702.008 125.435 704.247 128.197 704.247H145.197C147.958 704.247 150.197 702.008 150.197 699.247V682.247C150.197 679.486 147.958 677.247 145.197 677.247Z" fill="#D9D9D9" fill-opacity="0.09"/>
<path d="M145.197 719.247H128.197C125.435 719.247 123.197 721.486 123.197 724.247V741.247C123.197 744.008 125.435 746.247 128.197 746.247H145.197C147.958 746.247 150.197 744.008 150.197 741.247V724.247C150.197 721.486 147.958 719.247 145.197 719.247Z" fill="#D9D9D9" fill-opacity="0.09"/>
<path d="M249.197 236.818L234.612 212.247H115.197V238.247V271.247V298.247H234.612L249.197 272.14V254.479V236.818Z" stroke="#FFF5F5" stroke-opacity="0.68"/>
<path d="M249.197 255.747H115.197" stroke="#B9A9B8"/>
<path d="M145 221H128C125.239 221 123 223.239 123 226V243C123 245.761 125.239 248 128 248H145C147.761 248 150 245.761 150 243V226C150 223.239 147.761 221 145 221Z" fill="#D9D9D9" fill-opacity="0.09"/>
<path d="M145 263H128C125.239 263 123 265.239 123 268V285C123 287.761 125.239 290 128 290H145C147.761 290 150 287.761 150 285V268C150 265.239 147.761 263 145 263Z" fill="#D9D9D9" fill-opacity="0.09"/>
<path d="M256 255.5H249" stroke="#B9A9B8"/>
<path d="M257 559.5H250" stroke="#B9A9B8"/>
<path d="M257 407.5H249" stroke="#B9A9B8"/>
<path d="M258 711.5H250" stroke="#B9A9B8"/>
<path d="M256.5 255V407" stroke="#B9A9B8"/>
<path d="M586 432.5H563" stroke="#B9A9B8"/>
<path d="M629 485L586 485.5" stroke="#B9A9B8"/>
<path d="M587 535.5H563" stroke="#B9A9B8"/>
<path d="M586.5 432V535" stroke="#B9A9B8"/>
<path d="M415 331.5H408" stroke="#B9A9B8"/>
<path d="M415 635.5H407" stroke="#B9A9B8"/>
<path d="M430 432.5H415" stroke="#B9A9B8"/>
<path d="M431 535.5H416" stroke="#B9A9B8"/>
<path d="M415.5 331V433" stroke="#B9A9B8"/>
<path d="M415.5 535V636" stroke="#B9A9B8"/>
<path d="M257.5 559V711" stroke="#B9A9B8"/>
<path d="M1135 313.571L1149.59 289H1269V315V348V375H1149.59L1135 348.893V331.232V313.571Z" stroke="#FFF5F5" stroke-opacity="0.68"/>
<path d="M1135 332.5L1285 332.5" stroke="#B9A9B8"/>
<path d="M1239 298H1256C1258.76 298 1261 300.239 1261 303V320C1261 322.761 1258.76 325 1256 325H1239C1236.24 325 1234 322.761 1234 320V303C1234 300.239 1236.24 298 1239 298Z" fill="#D9D9D9" fill-opacity="0.09"/>
<path d="M1239 340H1256C1258.76 340 1261 342.239 1261 345V362C1261 364.761 1258.76 367 1256 367H1239C1236.24 367 1234 364.761 1234 362V345C1234 342.239 1236.24 340 1239 340Z" fill="#D9D9D9" fill-opacity="0.09"/>
<path d="M979 419.429L993.367 400H1111V420.558V446.651V468H993.367L979 447.357V433.393V419.429Z" stroke="#FFF5F5" stroke-opacity="0.68"/>
<path d="M1069 415H1097C1099.76 415 1102 417.239 1102 420V448C1102 450.761 1099.76 453 1097 453H1069C1066.24 453 1064 450.761 1064 448V420C1064 417.239 1066.24 415 1069 415Z" fill="#D9D9D9" fill-opacity="0.09"/>
<path d="M979 521.429L993.367 502H1111V522.558V548.651V570H993.367L979 549.357V535.393V521.429Z" stroke="#FFF5F5" stroke-opacity="0.68"/>
<path d="M1102 522C1102 519.239 1099.76 517 1097 517H1069C1066.24 517 1064 519.239 1064 522V550C1064 552.761 1066.24 555 1069 555H1097C1099.76 555 1102 552.761 1102 550V522Z" fill="#D9D9D9" fill-opacity="0.09"/>
<path d="M778 475.143L792.367 462H910V475.907V493.558V508H792.367L778 494.036V484.589V475.143Z" stroke="#FFF5F5" stroke-opacity="0.68"/>
<path d="M878 471H897C899.761 471 902 473.239 902 476V495C902 497.761 899.761 500 897 500H878C875.239 500 873 497.761 873 495V476C873 473.239 875.239 471 878 471Z" fill="#D9D9D9" fill-opacity="0.09"/>
<path d="M1135 617.571L1149.59 593H1269V619V652V679H1149.59L1135 652.893V635.232V617.571Z" stroke="#FFF5F5" stroke-opacity="0.68"/>
<path d="M1135 636.5L1285 636.5" stroke="#B9A9B8"/>
<path d="M1239 602H1256C1258.76 602 1261 604.239 1261 607V624C1261 626.761 1258.76 629 1256 629H1239C1236.24 629 1234 626.761 1234 624V607C1234 604.239 1236.24 602 1239 602Z" fill="#D9D9D9" fill-opacity="0.09"/>
<path d="M1239 644H1256C1258.76 644 1261 646.239 1261 649V666C1261 668.761 1258.76 671 1256 671H1239C1236.24 671 1234 668.761 1234 666V649C1234 646.239 1236.24 644 1239 644Z" fill="#D9D9D9" fill-opacity="0.09"/>
<path d="M1293 389.571L1307.59 365H1427V391V424V451H1307.59L1293 424.893V407.232V389.571Z" stroke="#FFF5F5" stroke-opacity="0.68"/>
<path d="M1293 408.5L1427 408.5" stroke="#B9A9B8"/>
<path d="M1397 374H1414C1416.76 374 1419 376.239 1419 379V396C1419 398.761 1416.76 401 1414 401H1397C1394.24 401 1392 398.761 1392 396V379C1392 376.239 1394.24 374 1397 374Z" fill="#D9D9D9" fill-opacity="0.09"/>
<path d="M1397 416H1414C1416.76 416 1419 418.239 1419 421V438C1419 440.761 1416.76 443 1414 443H1397C1394.24 443 1392 440.761 1392 438V421C1392 418.239 1394.24 416 1397 416Z" fill="#D9D9D9" fill-opacity="0.09"/>
<path d="M1293 408.5L1427 408.5" stroke="#B9A9B8"/>
<path d="M1382.5 365L1382.5 450" stroke="white"/>
<path d="M1293 541.571L1307.59 517H1427V543V576V603H1307.59L1293 576.893V559.232V541.571Z" stroke="#FFF5F5" stroke-opacity="0.68"/>
<path d="M1293 560.5L1427 560.5" stroke="#B9A9B8"/>
<path d="M1397 526H1414C1416.76 526 1419 528.239 1419 531V548C1419 550.761 1416.76 553 1414 553H1397C1394.24 553 1392 550.761 1392 548V531C1392 528.239 1394.24 526 1397 526Z" fill="#D9D9D9" fill-opacity="0.09"/>
<path d="M1397 568H1414C1416.76 568 1419 570.239 1419 573V590C1419 592.761 1416.76 595 1414 595H1397C1394.24 595 1392 592.761 1392 590V573C1392 570.239 1394.24 568 1397 568Z" fill="#D9D9D9" fill-opacity="0.09"/>
<path d="M1293 693.571L1307.59 669H1427V695V728V755H1307.59L1293 728.893V711.232V693.571Z" stroke="#FFF5F5" stroke-opacity="0.68"/>
<path d="M1293 712.5L1427 712.5" stroke="#B9A9B8"/>
<path d="M1397 678H1414C1416.76 678 1419 680.239 1419 683V700C1419 702.761 1416.76 705 1414 705H1397C1394.24 705 1392 702.761 1392 700V683C1392 680.239 1394.24 678 1397 678Z" fill="#D9D9D9" fill-opacity="0.09"/>
<path d="M1397 720H1414C1416.76 720 1419 722.239 1419 725V742C1419 744.761 1416.76 747 1414 747H1397C1394.24 747 1392 744.761 1392 742V725C1392 722.239 1394.24 720 1397 720Z" fill="#D9D9D9" fill-opacity="0.09"/>
<path d="M1293 237.571L1307.59 213H1427V239V272V299H1307.59L1293 272.893V255.232V237.571Z" stroke="#FFF5F5" stroke-opacity="0.68"/>
<path d="M1293 256.5L1427 256.5" stroke="#B9A9B8"/>
<path d="M1397.2 221.753H1414.2C1416.96 221.753 1419.2 223.992 1419.2 226.753V243.753C1419.2 246.514 1416.96 248.753 1414.2 248.753H1397.2C1394.44 248.753 1392.2 246.514 1392.2 243.753V226.753C1392.2 223.992 1394.44 221.753 1397.2 221.753Z" fill="#D9D9D9" fill-opacity="0.09"/>
<path d="M1397.2 263.753H1414.2C1416.96 263.753 1419.2 265.992 1419.2 268.753V285.753C1419.2 288.514 1416.96 290.753 1414.2 290.753H1397.2C1394.44 290.753 1392.2 288.514 1392.2 285.753V268.753C1392.2 265.992 1394.44 263.753 1397.2 263.753Z" fill="#D9D9D9" fill-opacity="0.09"/>
<path d="M1286.2 256.253H1293.2" stroke="#B9A9B8"/>
<path d="M1285.2 560.253H1292.2" stroke="#B9A9B8"/>
<path d="M1285.2 408.253H1293.2" stroke="#B9A9B8"/>
<path d="M1284.2 712.253H1292.2" stroke="#B9A9B8"/>
<path d="M1285.7 255.753L1285.7 407.753" stroke="#B9A9B8"/>
<path d="M956.198 433.253H979.198" stroke="#B9A9B8"/>
<path d="M910.198 486.253H956.198" stroke="#B9A9B8"/>
<path d="M955.198 536.253H979.198" stroke="#B9A9B8"/>
<path d="M955.698 432.753L955.698 535.753" stroke="#B9A9B8"/>
<path d="M1127.2 332.253H1134.2" stroke="#B9A9B8"/>
<path d="M1127.2 636.253H1135.2" stroke="#B9A9B8"/>
<path d="M1112.2 433.253H1127.2" stroke="#B9A9B8"/>
<path d="M1111.2 536.253H1126.2" stroke="#B9A9B8"/>
<path d="M1126.7 331.753L1126.7 433.753" stroke="#B9A9B8"/>
<path d="M1126.7 535.753L1126.7 636.753" stroke="#B9A9B8"/>
<path d="M1284.7 559.753L1284.7 711.753" stroke="#B9A9B8"/>
<path d="M722.5 338H816.5C819.538 338 822 340.462 822 343.5V353.75V370V381.5C822 384.538 819.538 387 816.5 387H722.5C719.462 387 717 384.538 717 381.5V370V353.75V343.5C717 340.462 719.462 338 722.5 338Z" stroke="#B9A9B8"/>
<path d="M716.735 98.1631H685.152C685.152 98.1631 678.504 196.89 753.027 196.89" stroke="#FFD700" stroke-width="7"/>
<path d="M820.901 98.1631H850.821C850.821 98.1631 857.747 196.89 785.44 196.89" stroke="#FFD700" stroke-width="7"/>
<path d="M738.068 265.998V259.416C738.068 255.796 740.561 252.835 743.885 252.835L755.244 249.544C760.785 233.089 761.893 223.546 761.062 210.053H758.291C754.967 210.053 752.474 207.091 752.474 203.142V192.941C721.722 177.144 715.351 119.225 715.351 85H823.395C823.395 119.554 817.023 177.474 786.272 192.941V203.142C786.272 207.091 783.502 210.053 780.454 210.053H778.238C777.407 223.546 778.238 233.418 783.779 249.544L797.908 252.835C800.955 252.835 803.726 255.796 803.726 259.416V265.998" stroke="#FFD700" stroke-width="7"/>
<path d="M728.647 98.8223C728.647 98.8223 730.033 157.728 747.763 173.853" stroke="#FFD700" stroke-width="7"/>
<path d="M792.92 265.998H809.82C812.867 265.998 820.625 282.452 820.625 282.452C820.625 286.072 818.131 289.034 815.36 289.034H726.432C723.385 289.034 721.167 286.072 721.167 282.452C721.167 282.452 728.925 265.998 731.972 265.998H748.871" stroke="#FFD700" stroke-width="7"/>
</svg>
