<svg width="1148" height="334" viewBox="0 0 1148 334" fill="none" xmlns="http://www.w3.org/2000/svg">
<path fill-rule="evenodd" clip-rule="evenodd" d="M997.053 189.15C991.553 190.184 987.736 193.017 983.7 195.185C891.027 245.154 794.053 283.81 691.079 306.639C532.713 341.743 378.905 325.671 230.006 263.025C170.082 237.804 116.827 201.147 70.4982 155.438C37.0653 122.441 12.7766 83.3546 2.26015 36.8263C0.280616 28.0696 -1.08776 19.0938 1.16852 10.091C2.2909 5.56273 4.10899 1.38042 9.22502 0.238739C14.491 -0.933693 17.5429 2.39524 20.295 6.22391C28.8973 18.1981 38.1146 29.761 46.1173 42.1195C84.1166 100.772 136.419 143.018 197.584 175.246C275.939 216.539 359.817 237.973 447.647 246.042C562.075 256.559 672.226 237.608 779.943 200.044C835.274 180.747 889.444 158.951 940.454 129.871C943.053 128.384 945.551 126.731 948.049 125.089C948.357 124.893 948.345 124.221 948.522 123.621C945.797 121.741 942.757 122.814 939.924 122.864C888.421 123.848 836.957 123.948 785.751 117.109C772.317 115.318 759.241 112.07 746.733 106.753C740.96 104.305 735.486 101.295 730.97 96.8356C721.141 87.1025 723.659 76.2585 736.981 72.5989C758.514 66.7022 780.554 63.6423 802.84 62.8543C847.793 61.2706 892.769 60.1404 937.717 58.5067C992.518 56.5078 1046.78 49.7577 1100.6 39.2788C1103.29 38.756 1106.01 38.2448 1108.74 37.968C1133.44 35.4501 1151.33 54.4435 1147.39 78.9954C1146.06 87.2601 1142.56 94.7291 1138.75 102.06C1131.12 116.725 1122.34 130.686 1113.23 144.425C1093.61 174.009 1073.89 203.508 1054.07 232.953C1043.56 248.529 1031.56 262.917 1017.84 275.81C1007.95 285.078 999.752 295.807 991.268 306.305C985.933 312.917 980.602 319.552 974.983 325.917C968.448 333.317 960.922 335.454 953.65 332.491C946.397 329.531 941.753 321.639 942.049 312.317C942.314 303.914 944.725 295.915 948.799 288.73C966.442 257.624 975.859 222.482 996.05 192.656C996.531 191.937 996.561 190.922 997.053 189.15Z" fill="white"/>
</svg>
