<svg width="1148" height="334" viewBox="0 0 1148 334" fill="none" xmlns="http://www.w3.org/2000/svg">
<path fill-rule="evenodd" clip-rule="evenodd" d="M150.88 144.628C156.381 143.594 160.197 140.761 164.233 138.593C256.906 88.6244 353.88 49.9687 456.854 27.1389C615.221 -7.96483 769.028 8.10708 917.927 70.7534C977.851 95.9741 1031.11 132.631 1077.44 178.34C1110.87 211.338 1135.16 250.424 1145.67 296.952C1147.65 305.709 1149.02 314.685 1146.77 323.687C1145.64 328.216 1143.82 332.398 1138.71 333.54C1133.44 334.712 1130.39 331.383 1127.64 327.554C1119.04 315.58 1109.82 304.017 1101.82 291.659C1063.82 233.006 1011.52 190.76 950.349 158.532C871.995 117.239 788.116 95.805 700.287 87.7364C585.858 77.2191 475.708 96.1702 367.991 133.734C312.66 153.031 258.49 174.827 207.479 203.907C204.881 205.395 202.383 207.048 199.884 208.689C199.577 208.885 199.588 209.558 199.411 210.158C202.137 212.037 205.177 210.965 208.01 210.915C259.512 209.931 310.976 209.831 362.183 216.669C375.617 218.461 388.693 221.709 401.201 227.025C406.974 229.474 412.447 232.484 416.964 236.943C426.792 246.676 424.275 257.52 410.952 261.179C389.42 267.076 367.379 270.136 345.093 270.924C300.141 272.508 255.165 273.638 210.216 275.272C155.416 277.271 101.15 284.021 47.3335 294.5C44.6467 295.022 41.9215 295.534 39.1963 295.81C14.4886 298.328 -3.3925 279.335 0.5435 254.783C1.87344 246.518 5.37509 239.049 9.18425 231.719C16.8102 217.054 25.5971 203.092 34.7067 189.354C54.3214 159.77 74.0475 130.271 93.8659 100.825C104.375 85.2493 116.371 70.8611 130.097 57.9682C139.987 48.7002 148.182 37.9715 156.665 27.4734C162 20.8617 167.331 14.2268 172.951 7.86111C179.485 0.461337 187.011 -1.67595 194.284 1.28781C201.537 4.24771 206.18 12.1395 205.884 21.4613C205.619 29.8644 203.209 37.8638 199.135 45.0483C181.492 76.1543 172.075 111.297 151.883 141.122C151.403 141.841 151.372 142.856 150.88 144.628Z" fill="white"/>
</svg>
