<svg width="35" height="35" viewBox="0 0 35 35" fill="none" xmlns="http://www.w3.org/2000/svg">
<path d="M34.6596 14.0726H33.2499V14H17.5V21H27.3901C25.9472 25.0748 22.0701 27.9999 17.5 27.9999C11.7014 27.9999 6.99999 23.2986 6.99999 17.5C6.99999 11.7014 11.7014 6.99999 17.5 6.99999C20.1766 6.99999 22.6117 8.00973 24.4658 9.65911L29.4157 4.70924C26.2902 1.79637 22.1095 0 17.5 0C7.83561 0 0 7.83561 0 17.5C0 27.1643 7.83561 34.9999 17.5 34.9999C27.1643 34.9999 34.9999 27.1643 34.9999 17.5C34.9999 16.3266 34.8792 15.1812 34.6596 14.0726Z" fill="#FFC107"/>
<path d="M2.01782 9.35461L7.76744 13.5712C9.32318 9.71948 13.0909 6.99999 17.5 6.99999C20.1767 6.99999 22.6118 8.00973 24.4659 9.65911L29.4158 4.70924C26.2903 1.79637 22.1095 0 17.5 0C10.7783 0 4.94907 3.79487 2.01782 9.35461Z" fill="#FF3D00"/>
<path d="M17.5001 35C22.0203 35 26.1275 33.2701 29.2329 30.457L23.8167 25.8737C22.0597 27.2046 19.8757 28 17.5001 28C12.9483 28 9.08345 25.0976 7.62745 21.0472L1.92072 25.4441C4.81696 31.1115 10.6987 35 17.5001 35Z" fill="#4CAF50"/>
<path d="M34.6596 14.0727H33.25V14.0001H17.5V21.0001H27.3901C26.6971 22.9575 25.438 24.6454 23.814 25.8747L23.8166 25.873L29.2329 30.4562C28.8496 30.8045 35 26.2501 35 17.5001C35 16.3267 34.8792 15.1814 34.6596 14.0727Z" fill="#1976D2"/>
</svg>
