<svg width="290" height="197" viewBox="0 0 290 197" fill="none" xmlns="http://www.w3.org/2000/svg">
<path d="M7.68 94V26.8H33.408C37.44 26.8 41.024 27.6 44.16 29.2C47.36 30.736 49.888 32.944 51.744 35.824C53.6 38.704 54.528 42.192 54.528 46.288V47.536C54.528 51.568 53.568 55.056 51.648 58C49.792 60.88 47.264 63.088 44.064 64.624C40.864 66.16 37.312 66.928 33.408 66.928H15.744V94H7.68ZM15.744 59.632H32.544C36.832 59.632 40.224 58.576 42.72 56.464C45.216 54.288 46.464 51.248 46.464 47.344V46.384C46.464 42.48 45.216 39.472 42.72 37.36C40.288 35.184 36.896 34.096 32.544 34.096H15.744V59.632Z" fill="white"/>
<path d="M175.68 94V26.8H191.328L214.752 88.912H216V26.8H223.968V94H208.32L184.992 31.792H183.648V94H175.68Z" fill="white"/>
<path d="M257.104 95.344C252.112 95.344 247.696 94.32 243.856 92.272C240.08 90.16 237.104 87.088 234.928 83.056C232.816 79.024 231.76 74.032 231.76 68.08V52.72C231.76 43.824 234.128 37.072 238.864 32.464C243.6 27.792 249.968 25.456 257.968 25.456C265.904 25.456 271.952 27.632 276.112 31.984C280.272 36.336 282.352 42.16 282.352 49.456V49.936H274.384V49.264C274.384 46.064 273.808 43.216 272.656 40.72C271.504 38.224 269.712 36.272 267.28 34.864C264.848 33.392 261.744 32.656 257.968 32.656C252.272 32.656 247.824 34.416 244.624 37.936C241.424 41.392 239.824 46.256 239.824 52.528V68.272C239.824 74.544 241.424 79.44 244.624 82.96C247.824 86.416 252.304 88.144 258.064 88.144C263.696 88.144 267.824 86.544 270.448 83.344C273.136 80.144 274.48 75.888 274.48 70.576V68.944H254.128V62.032H282.352V94H275.056V86.704H273.712C273.008 88.112 272.016 89.488 270.736 90.832C269.456 92.176 267.728 93.264 265.552 94.096C263.376 94.928 260.56 95.344 257.104 95.344Z" fill="white"/>
<path d="M7.68 169V101.8H33.408C37.44 101.8 41.024 102.6 44.16 104.2C47.36 105.736 49.888 107.944 51.744 110.824C53.6 113.704 54.528 117.192 54.528 121.288V122.536C54.528 126.568 53.568 130.056 51.648 133C49.792 135.88 47.264 138.088 44.064 139.624C40.864 141.16 37.312 141.928 33.408 141.928H15.744V169H7.68ZM15.744 134.632H32.544C36.832 134.632 40.224 133.576 42.72 131.464C45.216 129.288 46.464 126.248 46.464 122.344V121.384C46.464 117.48 45.216 114.472 42.72 112.36C40.288 110.184 36.896 109.096 32.544 109.096H15.744V134.632Z" fill="white"/>
<path d="M175.68 169V101.8H191.328L214.752 163.912H216V101.8H223.968V169H208.32L184.992 106.792H183.648V169H175.68Z" fill="white"/>
<path d="M257.104 170.344C252.112 170.344 247.696 169.32 243.856 167.272C240.08 165.16 237.104 162.088 234.928 158.056C232.816 154.024 231.76 149.032 231.76 143.08V127.72C231.76 118.824 234.128 112.072 238.864 107.464C243.6 102.792 249.968 100.456 257.968 100.456C265.904 100.456 271.952 102.632 276.112 106.984C280.272 111.336 282.352 117.16 282.352 124.456V124.936H274.384V124.264C274.384 121.064 273.808 118.216 272.656 115.72C271.504 113.224 269.712 111.272 267.28 109.864C264.848 108.392 261.744 107.656 257.968 107.656C252.272 107.656 247.824 109.416 244.624 112.936C241.424 116.392 239.824 121.256 239.824 127.528V143.272C239.824 149.544 241.424 154.44 244.624 157.96C247.824 161.416 252.304 163.144 258.064 163.144C263.696 163.144 267.824 161.544 270.448 158.344C273.136 155.144 274.48 150.888 274.48 145.576V143.944H254.128V137.032H282.352V169H275.056V161.704H273.712C273.008 163.112 272.016 164.488 270.736 165.832C269.456 167.176 267.728 168.264 265.552 169.096C263.376 169.928 260.56 170.344 257.104 170.344Z" fill="white"/>
<path d="M155.04 126.682C155.04 149.929 136.173 168.797 112.925 168.797C89.6779 168.797 70.8105 149.93 70.8105 126.682C70.8105 107.717 83.3674 91.6666 100.615 86.3972V97.712C89.3548 102.507 81.4537 113.677 81.4537 126.682C81.4537 144.054 95.553 158.154 112.925 158.154C130.298 158.154 144.397 144.054 144.397 126.682C144.397 113.677 136.496 102.507 125.235 97.712V86.3972C142.483 91.6666 155.04 107.717 155.04 126.682Z" fill="#913DCE"/>
<path d="M99.7428 52.0269L110.036 50.212L121.269 113.918L110.976 115.733L99.7428 52.0269Z" fill="#913DCE"/>
<path d="M112.925 26C117.219 26 120.703 29.4845 120.703 33.7778C120.703 38.0712 117.219 41.5556 112.925 41.5556C108.632 41.5556 105.147 38.0712 105.147 33.7778C105.147 29.4845 108.632 26 112.925 26Z" fill="#913DCE"/>
</svg>
