<svg width="40" height="40" viewBox="0 0 40 40" fill="none" xmlns="http://www.w3.org/2000/svg">
<path d="M40 20C40 8.95238 31.0417 0 20 0C8.95833 0 0 8.95238 0 20C0 31.0417 8.95238 40 19.994 40C31.0357 40 40 31.0476 40 20ZM17.9167 9.16071C13.875 9.93452 10.5357 12.9881 9.39286 16.9464C9.1131 17.9286 8.22024 18.5655 7.24405 18.5655C7.04762 18.5655 6.83929 18.5357 6.625 18.4762C5.44048 18.1369 4.75595 16.8988 5.09524 15.7083C6.69048 10.1488 11.3929 5.85714 17.0714 4.76786C18.2976 4.54167 19.4643 5.33333 19.6905 6.54762C19.9226 7.75595 19.125 8.93452 17.9167 9.16071Z" fill="white"/>
</svg>
