<svg width="40" height="40" viewBox="0 0 40 40" fill="none" xmlns="http://www.w3.org/2000/svg">
<path d="M6.34964 19.4375L6.34963 19.4376L6.35736 19.4397C6.64889 19.5207 6.94743 19.5655 7.24405 19.5655C8.6522 19.5655 9.94756 18.6465 10.3541 17.2221C11.3933 13.6255 14.4336 10.8465 18.1027 10.1433C19.8574 9.81364 21.0071 8.10886 20.6731 6.3618C20.3428 4.59671 18.6476 3.46023 16.89 3.78445L16.89 3.78442L16.883 3.78576C10.8349 4.94594 5.83335 9.51024 4.13402 15.4325L4.13353 15.4342C3.64412 17.1515 4.6308 18.9452 6.34964 19.4375ZM20 1C30.4896 1 39 9.50486 39 20C39 30.4948 30.484 39 19.994 39C9.50505 39 1 30.4898 1 20C1 9.50486 9.51042 1 20 1Z" stroke="white" stroke-width="2"/>
</svg>
