<svg width="33" height="33" viewBox="0 0 33 33" fill="none" xmlns="http://www.w3.org/2000/svg">
<path d="M6.87481 16.51C8.02381 15.6465 9.45221 15.1348 11.0001 15.1348C14.7964 15.1348 17.8739 18.2128 17.8739 22.0098C17.8739 23.5575 17.3625 24.9857 16.4996 26.1348M6.87481 16.51C5.20584 17.7644 4.12634 19.761 4.12634 22.0098C4.12634 22.72 4.23402 23.4051 4.43393 24.0495C4.80895 25.2585 4.53822 26.6061 4.29876 27.8767C4.20833 28.3565 4.64134 28.747 5.11227 28.6181C6.27768 28.299 7.43791 28.0268 8.62805 28.4644C9.36742 28.7363 10.1664 28.8848 11.0001 28.8848C13.249 28.8848 15.2456 27.8046 16.4996 26.1348M6.87481 16.51C6.87481 10.0677 10.8282 4.13477 17.8739 4.13477C23.9485 4.13477 28.873 9.05963 28.873 15.1348C28.873 16.4374 28.6466 17.6871 28.231 18.8467C27.5774 20.6705 28.2817 23.1121 28.6948 25.1278C28.7929 25.6061 28.3587 25.9967 27.8926 25.8512C26.0884 25.288 23.9707 24.4958 22.2755 25.2104C20.4409 25.9838 18.5132 26.1348 16.4996 26.1348" stroke="#EAD3D6" stroke-width="1.5" stroke-linecap="round" stroke-linejoin="round"/>
</svg>
