<svg width="32" height="27" viewBox="0 0 32 27" fill="none" xmlns="http://www.w3.org/2000/svg">
<path d="M8.71293 12.915V17.5428M6.39905 15.2289L11.0268 15.2289" stroke="#EAD3D6" stroke-width="1.5" stroke-linecap="round" stroke-linejoin="round"/>
<path d="M15.6546 8.05168C18.7481 8.05168 21.3631 5.13927 24.5804 6.18121C28.0722 7.31199 30.474 11.4459 30.3003 20.8228C30.2653 22.7121 29.7811 24.8001 27.9143 25.6153C23.6009 27.4988 21.1322 22.0236 17.1183 22.0236H14.1908C10.1729 22.0236 7.69204 27.4918 3.39489 25.6153C1.528 24.8001 1.04385 22.7121 1.00885 20.8228C0.835119 11.4459 3.23695 7.312 6.72869 6.18121C9.9461 5.13927 12.5611 8.05168 15.6546 8.05168Z" stroke="#EAD3D6" stroke-width="1.5" stroke-linecap="round" stroke-linejoin="round"/>
<path d="M15.6546 1.00977L15.6546 7.70652" stroke="#EAD3D6" stroke-width="1.5" stroke-linecap="round" stroke-linejoin="round"/>
<path d="M20.0886 15.2288H24.7163" stroke="#EAD3D6" stroke-width="1.5" stroke-linecap="round" stroke-linejoin="round"/>
</svg>
