<svg width="27" height="26" viewBox="0 0 27 26" fill="none" xmlns="http://www.w3.org/2000/svg">
<path d="M1.00002 6.00008C1.00002 3.64302 1.00002 2.46449 1.76276 1.73225C2.5255 1 3.75312 1 6.20835 1C8.66358 1 9.8912 1 10.6539 1.73225C11.4167 2.46449 11.4167 3.64302 11.4167 6.00008C11.4167 8.35714 11.4167 9.53568 10.6539 10.2679C9.8912 11.0002 8.66358 11.0002 6.20835 11.0002C3.75312 11.0002 2.5255 11.0002 1.76276 10.2679C1.00002 9.53568 1.00002 8.35714 1.00002 6.00008Z" stroke="#EAD3D6" stroke-width="1.5" stroke-linecap="round" stroke-linejoin="round"/>
<path d="M1.00002 20.0098C1.00002 17.6528 1.00002 16.4743 1.76276 15.742C2.5255 15.0098 3.75312 15.0098 6.20835 15.0098C8.66358 15.0098 9.8912 15.0098 10.6539 15.742C11.4167 16.4743 11.4167 17.6528 11.4167 20.0098C11.4167 22.3669 11.4167 23.5454 10.6539 24.2777C9.8912 25.0099 8.66358 25.0099 6.20835 25.0099C3.75312 25.0099 2.5255 25.0099 1.76276 24.2777C1.00002 23.5454 1.00002 22.3669 1.00002 20.0098Z" stroke="#EAD3D6" stroke-width="1.5" stroke-linecap="round" stroke-linejoin="round"/>
<path d="M15.5833 6.00008C15.5833 3.64302 15.5833 2.46449 16.3461 1.73225C17.1088 1 18.3364 1 20.7917 1C23.2469 1 24.4745 1 25.2373 1.73225C26 2.46449 26 3.64302 26 6.00008C26 8.35714 26 9.53567 25.2373 10.2679C24.4745 11.0002 23.2469 11.0002 20.7917 11.0002C18.3364 11.0002 17.1088 11.0002 16.3461 10.2679C15.5833 9.53567 15.5833 8.35714 15.5833 6.00008Z" stroke="#EAD3D6" stroke-width="1.5" stroke-linecap="round" stroke-linejoin="round"/>
<path d="M15.5833 20.0098C15.5833 17.6528 15.5833 16.4743 16.3461 15.742C17.1088 15.0098 18.3364 15.0098 20.7917 15.0098C23.2469 15.0098 24.4745 15.0098 25.2373 15.742C26 16.4743 26 17.6528 26 20.0098C26 22.3669 26 23.5454 25.2373 24.2777C24.4745 25.0099 23.2469 25.0099 20.7917 25.0099C18.3364 25.0099 17.1088 25.0099 16.3461 24.2777C15.5833 23.5454 15.5833 22.3669 15.5833 20.0098Z" stroke="#EAD3D6" stroke-width="1.5" stroke-linecap="round" stroke-linejoin="round"/>
</svg>
