<svg width="27" height="26" viewBox="0 0 27 26" fill="none" xmlns="http://www.w3.org/2000/svg">
<ellipse cx="13.4999" cy="9.14315" rx="3.47222" ry="3.33333" stroke="#EAD3D6" stroke-width="1.5" stroke-linecap="round" stroke-linejoin="round"/>
<path d="M1 13.0098C1 7.35291 1 4.52448 2.83058 2.76713C4.66117 1.00977 7.60744 1.00977 13.5 1.00977C19.3926 1.00977 22.3388 1.00977 24.1694 2.76713C26 4.52448 26 7.35291 26 13.0098C26 18.6666 26 21.495 24.1694 23.2524C22.3388 25.0098 19.3926 25.0098 13.5 25.0098C7.60744 25.0098 4.66117 25.0098 2.83058 23.2524C1 21.495 1 18.6666 1 13.0098Z" stroke="#EAD3D6" stroke-width="1.5" stroke-linecap="round" stroke-linejoin="round"/>
<path d="M6.55556 24.3429V22.6096C6.99572 14.3606 20.0043 14.3606 20.4444 22.6096V24.3429" stroke="#EAD3D6" stroke-width="1.5" stroke-linecap="round" stroke-linejoin="round"/>
</svg>
