<svg width="516" height="500" viewBox="0 0 516 500" fill="none" xmlns="http://www.w3.org/2000/svg">
<g clip-path="url(#clip0_2679_488)">
<path d="M361.84 150.35C348.252 128.879 329.37 105.558 299.179 80.3197C201.826 -1.06134 103.709 -25.4003 32.9791 31.6437C32.1691 32.3557 31.3821 33.0787 30.6091 33.8057C-22.0079 83.3367 10.4291 167.656 59.7051 222.186C109.705 277.519 148.881 308.937 205.555 323.886C264.874 339.533 295.805 301.323 343.115 350.087C350.832 358.041 359.171 367.074 367.719 376.615C352.588 358.96 339.796 344.414 333.454 338.072C310.802 315.42 292.97 293.251 292.97 293.251C292.97 293.251 314.176 279.033 336.346 266.502C345.245 271.993 350.034 278.019 366.7 297.085C360.778 284.189 363.263 274.88 368.403 266.938C388.191 236.726 392.061 198.113 361.836 150.348L361.84 150.35Z" fill="#502D16"/>
<path d="M367.72 376.61C406.633 422.016 461.024 488 461.024 488C461.024 488 411.58 425.559 367.72 376.61Z" fill="white" stroke="black" stroke-miterlimit="10" stroke-linecap="round" stroke-linejoin="round"/>
<path d="M336.36 266.5C314.19 279.031 292.985 293.25 292.985 293.25C292.985 293.25 310.802 315.41 333.454 338.062C339.796 344.404 352.604 358.968 367.735 376.624C411.595 425.577 461.016 488.004 461.016 488.004L514.891 444.348C514.891 444.348 470.796 405.451 432.797 368.348C430.496 366.101 428.23 364.146 426.016 362.035L498.047 434.379L497.672 434.629L423.672 360.318C405.965 342.419 391.123 325.382 381.453 314.443C375.109 307.267 369.778 301.26 365.203 296.036L366.703 297.099C350.037 278.033 345.258 271.996 336.359 266.505L336.36 266.5Z" fill="#803300"/>
<path d="M337.69 357.08C331.294 350.55 325.193 345.598 319.278 341.859C336.501 357.873 358.889 384.441 380.698 410.231C417.259 453.464 451.201 498.919 451.201 498.919L454.435 495.325C454.435 495.325 361.308 381.625 337.695 357.085L337.69 357.08Z" fill="#2C2F38"/>
<path d="M423.81 359.85H423.808L460.932 397.114L498.056 434.379L470.836 453.016L331.076 305.296L308.957 291.06L336.311 275.381L366.699 297.093C350.033 278.027 345.244 271.998 336.345 266.507C314.175 279.038 292.969 293.252 292.969 293.252C292.969 293.252 310.801 315.42 333.453 338.072C339.795 344.414 352.587 358.958 367.718 376.614C411.578 425.567 461.022 488.004 461.022 488.004L514.881 444.334C514.881 444.334 470.782 405.449 432.783 368.346C429.715 365.35 426.727 362.844 423.81 359.844V359.85Z" fill="#502D16"/>
<path d="M367.72 376.61C359.171 367.069 350.832 358.036 343.116 350.082C295.806 301.318 264.875 339.528 205.556 323.881C148.877 308.929 109.701 277.511 59.7059 222.181C10.4299 167.649 -22.0071 83.3308 30.6089 33.8008C30.4719 33.9078 30.3419 34.0048 30.2019 34.1178C-25.7381 83.3258 5.70594 173.848 55.7059 229.178C105.706 284.511 142.882 315.929 199.556 330.878C250.894 344.42 281.223 317.804 319.276 341.858C325.191 345.596 331.292 350.548 337.688 357.079C361.306 381.629 454.428 495.319 454.428 495.319L461.019 487.996C461.019 487.996 406.629 422.009 367.716 376.606L367.72 376.61Z" fill="#502D16"/>
<path d="M461.02 488.01L454.429 495.333L451.195 498.927C451.195 498.927 471.936 486.918 501.778 461.08C507.238 455.621 514.88 444.34 514.88 444.34L461.02 488.01Z" fill="#AD8B75"/>
<path d="M366.7 297.09C360.805 284.219 363.27 274.801 368.403 266.868C388.19 236.656 392.06 198.08 361.835 150.318C348.247 128.847 329.365 105.545 299.174 80.3072C201.821 -1.07384 103.704 -25.4029 32.9739 31.6401C32.1639 32.3521 31.3769 33.0792 30.6039 33.8072C30.6019 33.8082 30.6009 33.8122 30.5989 33.8142C30.4639 33.9192 30.3349 34.0162 30.1969 34.1282C-25.7431 83.3282 5.69686 173.848 55.6969 229.178C105.697 284.512 142.873 315.93 199.547 330.878C250.885 344.42 281.214 317.804 319.267 341.858C336.49 357.872 358.878 384.44 380.687 410.23C417.248 453.463 451.19 498.918 451.19 498.918C451.19 498.918 471.931 486.909 501.773 461.071C507.233 455.612 514.875 444.331 514.875 444.331C514.875 444.331 470.776 405.446 432.777 368.343C429.727 365.363 426.737 362.853 423.817 359.853C406.997 342.853 392.887 326.663 383.707 316.273C377.187 308.893 371.557 302.523 367.017 297.333L366.707 297.093L366.7 297.09ZM367.7 376.6C367.272 376.101 366.853 375.613 366.429 375.119C366.86 375.62 367.284 376.114 367.718 376.621C367.713 376.614 367.706 376.607 367.7 376.6Z" stroke="#B19474" stroke-miterlimit="10"/>
<g opacity="0.5">
<path d="M367.72 376.62C359.17 367.08 350.83 358.04 343.12 350.09C295.8 301.33 264.87 339.53 205.56 323.89C148.88 308.94 109.7 277.52 59.7002 222.18C10.4202 167.65 -22.0098 83.3396 30.6002 33.8096C30.4632 33.9166 30.3332 34.0136 30.1932 34.1266C-25.7368 83.3266 5.70321 173.847 55.7032 229.177C105.703 284.51 142.879 315.928 199.553 330.877C250.891 344.419 281.22 317.803 319.273 341.857C325.188 345.595 331.289 350.547 337.685 357.078C361.303 381.628 454.425 495.318 454.425 495.318L461.016 487.995C461.016 487.995 406.626 422.008 367.713 376.605L367.72 376.62ZM338.408 356.398C332.145 350.004 326.063 344.978 319.809 341.025C308.116 333.633 296.374 330.337 281.74 330.337C274.255 330.337 266.758 331.161 258.82 332.035C250.188 332.984 241.262 333.966 231.573 333.966C220.515 333.966 210.125 332.644 199.81 329.923C142.708 314.86 105.37 282.662 56.4402 228.513C39.6342 209.915 25.5972 188.197 15.8452 165.707C5.36921 141.549 0.471206 117.641 1.67921 96.5656C2.15521 88.2616 3.54221 80.4366 5.83021 73.1146C1.57521 89.0176 1.58021 106.913 5.96421 126.339C13.2032 158.417 32.5172 193.596 58.9562 222.854C106.591 275.571 145.808 309.161 205.296 324.854C215.724 327.605 226.206 328.942 237.341 328.942C247.194 328.941 256.201 327.929 264.911 326.951C272.788 326.066 280.228 325.23 287.594 325.23C302.433 325.23 320.547 328.266 342.394 350.785C349.633 358.247 357.902 367.162 366.971 377.284C403.342 419.723 453.885 480.934 459.7 487.984L454.464 493.801C445.104 482.351 360.804 379.651 338.424 356.381L338.408 356.398Z" fill="#28170B"/>
</g>
<path opacity="0.6" d="M122.22 5.36426C91.145 5.76616 62.31 15.5863 37.019 35.9823C36.2218 36.683 35.4485 37.4116 34.6877 38.1271C-17.0993 86.8761 15.3177 169.837 63.8157 223.507C113.027 277.967 152.578 307.412 208.366 322.128C230.014 327.838 247.826 326.259 264.037 324.459L296.913 302.954C294.597 299.884 292.781 297.313 290.466 294.242C289.922 293.521 289.814 292.889 289.953 292.202C290.074 291.599 291.06 290.725 291.06 290.725L333.628 264.873C333.628 264.873 334.937 264.05 335.651 264.128C336.307 264.199 337.318 265.197 337.318 265.197L345.44 272.205L374.874 253.44C386.984 226.1 385.904 192.72 360.674 152.85C347.304 131.71 328.724 108.74 299.004 83.9019C239.124 33.8409 178.924 5.73387 125.214 5.38387C124.207 5.37687 123.201 5.37097 122.199 5.38387L122.22 5.36426Z" fill="#784421"/>
<path d="M120.33 2.50317C89.0853 2.90727 60.0953 12.7792 34.6703 33.2842C33.8688 33.9887 33.0914 34.7211 32.3265 35.4404C-19.7365 84.4504 12.3505 167.86 61.1075 221.82C110.581 276.571 149.338 307.682 205.417 322.48C227.181 328.221 245.088 326.633 261.386 324.824L296.448 302.199L289.464 292.938C288.917 292.212 288.809 291.578 288.948 290.887C289.071 290.28 290.062 289.402 290.062 289.402L332.857 263.412C332.857 263.412 334.173 262.584 334.891 262.663C335.551 262.735 336.567 263.738 336.567 263.738L344.732 270.783L374.323 251.918C386.524 224.406 385.441 190.85 360.073 150.758C346.628 129.513 327.946 106.418 298.073 81.4449C237.863 31.1069 177.343 2.8499 123.353 2.4979C122.34 2.4909 121.329 2.4849 120.322 2.4979L120.33 2.50317Z" fill="#00A006"/>
</g>
<defs>
<clipPath id="clip0_2679_488">
<rect width="515.888" height="499.423" fill="white"/>
</clipPath>
</defs>
</svg>
