<svg width="85" height="86" viewBox="0 0 85 86" fill="none" xmlns="http://www.w3.org/2000/svg">
<path d="M26.0495 53.837L58.7849 53.8284C56.7369 55.8114 54.3723 57.4708 51.7167 58.6133C50.8109 59.2315 47.2494 61.8003 47.2489 64.1389C47.2478 69.4906 48.4551 75.5886 48.4546 78.2662C48.454 80.9403 45.9987 82.2831 42.4103 82.2838C38.8185 82.2846 36.3672 80.8641 36.3678 78.2687C36.3683 75.6733 37.58 69.4944 37.5811 64.1392C37.5799 61.6859 33.5505 58.9304 32.9736 58.5487C30.375 57.4125 28.0607 55.7797 26.0495 53.837ZM42.4237 10.6549C26.5037 10.6565 18.826 23.904 18.8249 36.9307C18.8205 41.7517 20.2679 46.2301 22.7478 49.96L62.0745 49.9534C64.556 46.2224 66.0104 41.7452 66.0097 36.9259C66.0125 23.894 58.3506 10.6498 42.4237 10.6549Z" fill="white"/>
</svg>
