<svg width="116" height="89" viewBox="0 0 116 89" fill="none" xmlns="http://www.w3.org/2000/svg">
<g filter="url(#filter0_d_2230_1193)">
<path d="M61.426 23.2017C63.2869 20.2612 65.8728 17.0673 70.0075 13.6109C83.3401 2.46567 96.7774 -0.867594 106.464 6.94467C106.575 7.04218 106.683 7.1412 106.789 7.24076C113.995 14.0241 109.552 25.5717 102.804 33.0397C95.9563 40.6177 90.5911 44.9204 82.8295 46.9677C74.7056 49.1106 70.4696 43.8777 63.9904 50.556C62.9335 51.6453 61.7915 52.8824 60.6208 54.189C62.693 51.7711 64.4449 49.779 65.3135 48.9105C68.4157 45.8083 70.8578 42.7722 70.8578 42.7722C70.8578 42.7722 67.9536 40.825 64.9174 39.1089C63.6987 39.8609 63.0428 40.6861 60.7604 43.2973C61.5714 41.5311 61.2311 40.2562 60.5272 39.1686C57.8172 35.031 57.2872 29.7429 61.4265 23.2014L61.426 23.2017Z" fill="#F4EFFA"/>
<path d="M60.6207 54.1895C55.2915 60.4079 47.8426 69.4445 47.8426 69.4445C47.8426 69.4445 54.614 60.8931 60.6207 54.1895Z" fill="#F4EFFA"/>
<path d="M64.9156 39.1094C67.9518 40.8255 70.8558 42.7728 70.8558 42.7728C70.8558 42.7728 68.4158 45.8077 65.3135 48.9099C64.445 49.7785 62.6909 51.773 60.6187 54.191C54.612 60.8952 47.8437 69.4447 47.8437 69.4447L40.4654 63.4659C40.4654 63.4659 46.5043 58.1389 51.7084 53.0576C52.0235 52.7499 52.3337 52.4822 52.637 52.1931L42.7723 62.1007L42.8236 62.135L52.9581 51.9578C55.3831 49.5065 57.4157 47.1733 58.74 45.6752C59.6088 44.6924 60.3389 43.8699 60.9655 43.1544L60.7601 43.3C63.0425 40.6888 63.697 39.8621 64.9157 39.1101L64.9156 39.1094Z" fill="#F4EFFA"/>
<path d="M64.7333 51.5142C65.6093 50.6199 66.4448 49.9417 67.2549 49.4297C64.8962 51.6228 61.8301 55.2614 58.8433 58.7933C53.8362 64.7142 49.1878 70.9393 49.1878 70.9393L48.7449 70.4471C48.7449 70.4471 61.4988 54.8757 64.7326 51.5149L64.7333 51.5142Z" fill="#2C2F38"/>
<path d="M60.6207 54.1885C61.7915 52.8818 62.9335 51.6447 63.9902 50.5554C70.4694 43.8771 74.7055 49.11 82.8293 46.9672C90.5916 44.9195 95.9568 40.6167 102.804 33.0392C109.552 25.5709 113.994 14.0234 106.789 7.24023C106.807 7.25489 106.825 7.26817 106.844 7.28365C114.505 14.0228 110.199 26.4199 103.352 33.9974C96.5039 41.5754 91.4126 45.8781 83.651 47.9254C76.6202 49.78 72.4666 46.1349 67.2552 49.4291C66.4451 49.9411 65.6096 50.6192 64.7336 51.5137C61.4991 54.8758 48.7459 70.4459 48.7459 70.4459L47.8432 69.443C47.8432 69.443 55.2915 60.4065 60.6207 54.1885Z" fill="#898C8D"/>
<path d="M51.7106 53.0582C52.1296 52.6487 52.5391 52.305 52.939 51.8941L42.7709 62.101L46.4987 64.6534L65.6391 44.4229L65.8281 44.3009C67.1649 44.0305 68.8096 43.4737 70.858 42.7734C70.858 42.7734 68.4159 45.8094 65.3137 48.9116C64.4451 49.7802 62.6932 51.772 60.621 54.19C54.6143 60.8942 47.8429 69.445 47.8429 69.445L40.4668 63.4644C40.4668 63.4644 46.5065 58.1395 51.7106 53.0582Z" fill="url(#paint0_linear_2230_1193)"/>
<path d="M60.7604 43.2978C61.5677 41.5351 61.2301 40.2453 60.5271 39.1589C57.8173 35.0213 57.2873 29.7382 61.4266 23.1972C63.2875 20.2567 65.8735 17.0654 70.0082 13.609C83.3408 2.46379 96.7781 -0.86811 106.465 6.94402C106.576 7.04153 106.683 7.14109 106.789 7.2408L106.79 7.24175C106.808 7.25613 106.826 7.26942 106.845 7.28476C114.506 14.0228 110.2 26.4196 103.353 33.9972C96.5052 41.5753 91.4138 45.878 83.6522 47.9252C76.6214 49.7798 72.4678 46.1346 67.2564 49.4289C64.8977 51.622 61.8316 55.2606 58.8448 58.7925C53.8377 64.7134 49.1893 70.9385 49.1893 70.9385C49.1893 70.9385 46.3488 69.2939 42.2619 65.7553C41.5141 65.0077 40.4676 63.4627 40.4676 63.4627C40.4676 63.4627 46.507 58.1374 51.711 53.056C52.1287 52.6479 52.5382 52.3042 52.9381 51.8933C55.2416 49.5651 57.174 47.3479 58.4312 45.925C59.3242 44.9143 60.0952 44.0419 60.717 43.3311L60.7594 43.2982L60.7604 43.2978ZM60.6234 54.1869C60.682 54.1185 60.7394 54.0517 60.7975 53.984C60.7385 54.0526 60.6804 54.1203 60.621 54.1897L60.6234 54.1869Z" stroke="#F4EFFA" stroke-miterlimit="10"/>
<path opacity="0.8" d="M53.8142 50.9385C53.6946 51.7687 53.5461 52.612 53.3648 53.4678C52.1267 59.3124 49.6519 64.6251 46.6157 68.5626L40.3288 63.4654C40.3288 63.4654 46.3677 58.1384 51.5717 53.0571C51.8868 52.7494 52.1971 52.4817 52.5004 52.1926L42.6357 62.1002L42.687 62.1345L52.8214 51.9573C53.161 51.6141 53.4909 51.2751 53.8142 50.9385Z" fill="url(#paint1_linear_2230_1193)"/>
<path opacity="0.6" d="M94.2422 3.34668C98.498 3.40172 102.447 4.7466 105.911 7.53986C106.02 7.63584 106.126 7.73561 106.23 7.8336C113.322 14.5099 108.883 25.8715 102.241 33.2217C95.5013 40.6801 90.0847 44.7126 82.4444 46.728C79.4797 47.51 77.0403 47.2937 74.8202 47.0473L70.3178 44.1021C70.6349 43.6816 70.8836 43.3295 71.2007 42.909C71.2752 42.8102 71.2899 42.7237 71.271 42.6296C71.2544 42.5469 71.1193 42.4273 71.1193 42.4273L65.2895 38.8868C65.2895 38.8868 65.1103 38.7741 65.0125 38.7848C64.9226 38.7946 64.7842 38.9312 64.7842 38.9312L63.6719 39.8909L59.6409 37.321C57.9824 33.5768 58.1303 29.0053 61.5856 23.5451C63.4166 20.6499 65.9612 17.5041 70.0314 14.1025C78.2321 7.2466 86.4766 3.3973 93.8322 3.34937C93.9701 3.34841 94.1079 3.3476 94.2452 3.34937L94.2422 3.34668Z" fill="#F4EFFA"/>
<path d="M94.5011 2.95392C98.7802 3.00926 102.75 4.36123 106.232 7.16943C106.342 7.26591 106.449 7.36621 106.553 7.46472C113.684 14.1767 109.289 25.5999 102.612 32.9898C95.8363 40.488 90.5284 44.7487 82.8483 46.7753C79.8677 47.5615 77.4153 47.344 75.1833 47.0963L70.3815 43.9978L71.338 42.7294C71.4129 42.6301 71.4277 42.5432 71.4086 42.4485C71.3919 42.3654 71.2561 42.2452 71.2561 42.2452L65.3952 38.6858C65.3952 38.6858 65.2151 38.5724 65.1167 38.5832C65.0264 38.593 64.8872 38.7304 64.8872 38.7304L63.769 39.6953L59.7165 37.1117C58.0455 33.3439 58.1938 28.7483 61.668 23.2576C63.5093 20.3481 66.0679 17.1852 70.159 13.7651C78.4049 6.87125 86.6932 3.0014 94.0872 2.9532C94.2259 2.95224 94.3643 2.95142 94.5023 2.9532L94.5011 2.95392Z" fill="#F4EFFA"/>
<path d="M78.5983 7.78113C79.3723 12.1318 79.7966 16.8138 79.7966 21.694C79.7966 31.2735 78.1754 40.0949 75.4484 47.1246C75.3603 47.115 75.2705 47.1043 75.1831 47.0946L70.3813 43.9961L71.3357 42.7293C71.4106 42.63 71.4275 42.5415 71.4084 42.4468C71.3917 42.3638 71.2543 42.2414 71.2543 42.2414L65.3954 38.6849C65.3954 38.6849 65.2156 38.5715 65.1172 38.5822C65.0269 38.5921 64.8861 38.7277 64.8861 38.7277L63.7691 39.6949L59.7162 37.11C58.0452 33.3422 58.1936 28.7466 61.6678 23.2559C63.5091 20.3464 66.0676 17.1835 70.1588 13.7634C72.9804 11.4048 75.8043 9.39904 78.5984 7.78027L78.5983 7.78113Z" fill="#F4EFFA"/>
</g>
<g filter="url(#filter1_d_2230_1193)">
<path d="M54.4863 21.521C52.6254 18.5805 50.0394 15.3867 45.9047 11.9303C32.5721 0.785009 19.1348 -2.54826 9.44822 5.26401C9.33728 5.36152 9.2295 5.46054 9.12364 5.5601C1.91766 12.3435 6.35996 23.8911 13.1084 31.359C19.956 38.937 25.3212 43.2397 33.0828 45.287C41.2066 47.4299 45.4427 42.197 51.9218 48.8753C52.9787 49.9646 54.1207 51.2017 55.2914 52.5083C53.2192 50.0905 51.4673 48.0984 50.5988 47.2298C47.4965 44.1276 45.0544 41.0915 45.0544 41.0915C45.0544 41.0915 47.9586 39.1443 50.9948 37.4282C52.2135 38.1802 52.8694 39.0055 55.1518 41.6166C54.3408 39.8505 54.6811 38.5756 55.3851 37.4879C58.0951 33.3503 58.6251 28.0622 54.4857 21.5207L54.4863 21.521Z" fill="#826AED"/>
<path d="M55.2915 52.5078C60.6207 58.7262 68.0696 67.7629 68.0696 67.7629C68.0696 67.7629 61.2982 59.2115 55.2915 52.5078Z" fill="#826AED"/>
<path d="M50.9967 37.4277C47.9605 39.1439 45.0564 41.0912 45.0564 41.0912C45.0564 41.0912 47.4965 44.126 50.5987 47.2283C51.4672 48.0968 53.2213 50.0914 55.2935 52.5094C61.3002 59.2136 68.0685 67.7631 68.0685 67.7631L75.4468 61.7843C75.4468 61.7843 69.4079 56.4573 64.2039 51.376C63.8888 51.0683 63.5785 50.8006 63.2752 50.5115L73.1399 60.4191L73.0886 60.4533L62.9542 50.2762C60.5292 47.8249 58.4965 45.4917 57.1722 43.9935C56.3034 43.0108 55.5733 42.1882 54.9467 41.4728L55.1522 41.6183C52.8697 39.0072 52.2154 38.1797 50.9967 37.4277Z" fill="#826AED"/>
<path d="M51.1789 49.8326C50.303 48.9383 49.4674 48.2601 48.6573 47.748C51.0161 49.9412 54.0821 53.5797 57.0689 57.1117C62.076 63.0325 66.7244 69.2577 66.7244 69.2577L67.1673 68.7655C67.1673 68.7655 54.4134 53.1941 51.1796 49.8333L51.1789 49.8326Z" fill="#2C2F38"/>
<path d="M55.2914 52.5078C54.1206 51.2012 52.9786 49.9641 51.9219 48.8748C45.4427 42.1965 41.2066 47.4294 33.0828 45.2865C25.3205 43.2388 19.9553 38.936 13.1084 31.3585C6.35999 23.8903 1.91769 12.3428 9.12353 5.55957C9.10477 5.57422 9.08697 5.58751 9.06779 5.60298C1.40672 12.3421 5.71303 24.7392 12.5606 32.3168C19.4082 39.8947 24.4995 44.1975 32.2611 46.2447C39.2919 48.0993 43.4455 44.4542 48.6569 47.7485C49.467 48.2604 50.3025 48.9386 51.1785 49.833C54.413 53.1952 67.1662 68.7652 67.1662 68.7652L68.0689 67.7623C68.0689 67.7623 60.6206 58.7258 55.2914 52.5078Z" fill="#826AED"/>
<path opacity="0.5" d="M50.9633 37.4297C51.9421 38.0367 52.6039 38.6935 54.0167 40.2975C54.0434 40.4799 54.0563 40.6585 54.0548 40.8316C54.0488 41.5077 53.8144 42.0906 53.2478 42.4117C52.4331 42.8737 51.4019 42.8932 50.0577 42.6199C48.7281 42.3497 47.092 41.7927 45.0547 41.0925C45.0547 41.0925 47.9434 39.1458 50.9633 37.4297Z" fill="#826AED"/>
<path d="M64.2016 51.3766C63.7825 50.9671 63.373 50.6234 62.9731 50.2125L73.1412 60.4194L69.4134 62.9717L50.273 42.7412L50.084 42.6192C48.7473 42.3489 47.1025 41.792 45.0541 41.0918C45.0541 41.0918 47.4962 44.1277 50.5984 47.23C51.467 48.0985 53.2189 50.0903 55.2911 52.5084C61.2978 59.2125 68.0692 67.7634 68.0692 67.7634L75.4453 61.7827C75.4453 61.7827 69.4056 56.4579 64.2016 51.3766Z" fill="#826AED"/>
<path d="M55.1519 41.6172C54.3445 39.8545 54.6821 38.5647 55.3851 37.4782C58.095 33.3406 58.625 28.0576 54.4856 21.5165C52.6247 18.576 50.0388 15.3848 45.9041 11.9284C32.5714 0.783123 19.1341 -2.54877 9.44755 5.26336C9.33662 5.36087 9.22884 5.46043 9.12297 5.56013L9.12229 5.56109C9.1038 5.57547 9.08613 5.58875 9.06723 5.60409C1.40616 12.3421 5.71192 24.739 12.5595 32.3165C19.4071 39.8946 24.4984 44.1973 32.26 46.2445C39.2908 48.0991 43.4444 44.454 48.6558 47.7482C51.0146 49.9414 54.0806 53.5799 57.0674 57.1119C62.0745 63.0327 66.7229 69.2578 66.7229 69.2578C66.7229 69.2578 69.5634 67.6132 73.6503 64.0746C74.3981 63.327 75.4447 61.7821 75.4447 61.7821C75.4447 61.7821 69.4052 56.4567 64.2012 51.3754C63.7835 50.9673 63.374 50.6235 62.9741 50.2127C60.6706 47.8845 58.7382 45.6672 57.481 44.2443C56.5881 43.2336 55.817 42.3612 55.1953 41.6504L55.1528 41.6176L55.1519 41.6172ZM55.2888 52.5062C55.2302 52.4378 55.1728 52.371 55.1147 52.3034C55.1738 52.372 55.2318 52.4396 55.2913 52.5091L55.2888 52.5062Z" stroke="#584999" stroke-miterlimit="10"/>
<path opacity="0.8" d="M62.098 49.2578C62.2176 50.0881 62.3661 50.9314 62.5474 51.7872C63.7855 57.6317 66.2603 62.9445 69.2965 66.882L75.5834 61.7848C75.5834 61.7848 69.5445 56.4578 64.3405 51.3765C64.0254 51.0687 63.7151 50.801 63.4118 50.5119L73.2766 60.4196L73.2252 60.4538L63.0908 50.2767C62.7513 49.9334 62.4213 49.5944 62.098 49.2578Z" fill="url(#paint2_linear_2230_1193)"/>
<path opacity="0.6" d="M21.6699 1.66602C17.4141 1.72106 13.4651 3.06593 10.0015 5.8592C9.89228 5.95517 9.78638 6.05494 9.68219 6.15293C2.58987 12.8292 7.02943 24.1908 13.6713 31.541C20.4108 38.9994 25.8274 43.0319 33.4677 45.0473C36.4324 45.8294 38.8718 45.613 41.0919 45.3666L45.5943 42.4215C45.2772 42.0009 45.0285 41.6488 44.7114 41.2283C44.6369 41.1295 44.6222 41.043 44.6411 40.9489C44.6578 40.8663 44.7928 40.7467 44.7928 40.7467L50.6226 37.2062C50.6226 37.2062 50.8018 37.0934 50.8996 37.1041C50.9895 37.1139 51.1279 37.2505 51.1279 37.2505L52.2402 38.2103L56.2712 35.6404C57.9297 31.8961 57.7818 27.3247 54.3265 21.8644C52.4955 18.9693 49.9509 15.8235 45.8807 12.4219C37.68 5.56593 29.4355 1.71663 22.0799 1.6687C21.942 1.66774 21.8042 1.66693 21.667 1.6687L21.6699 1.66602Z" fill="#826AED"/>
<path d="M21.4111 1.27228C17.132 1.32762 13.1618 2.67959 9.67981 5.48779C9.57005 5.58427 9.46358 5.68457 9.35882 5.78308C2.22871 12.4951 6.62308 23.9182 13.3004 31.3081C20.076 38.8064 25.3838 43.0671 33.0639 45.0937C36.0445 45.8799 38.4969 45.6624 40.729 45.4147L45.5308 42.3161L44.5743 41.0478C44.4994 40.9484 44.4846 40.8615 44.5036 40.7669C44.5203 40.6838 44.6562 40.5635 44.6562 40.5635L50.517 37.0042C50.517 37.0042 50.6971 36.8908 50.7955 36.9015C50.8859 36.9114 51.025 37.0487 51.025 37.0487L52.1432 38.0136L56.1958 35.43C57.8667 31.6622 57.7184 27.0667 54.2442 21.576C52.4029 18.6665 49.8444 15.5036 45.7532 12.0835C37.5073 5.18961 29.219 1.31976 21.825 1.27156C21.6864 1.2706 21.5479 1.26978 21.4099 1.27156L21.4111 1.27228Z" fill="#826AED"/>
<path d="M37.3139 6.10047C36.54 10.4511 36.1156 15.1331 36.1156 20.0134C36.1156 29.5929 37.7368 38.4142 40.4638 45.4439C40.5519 45.4344 40.6417 45.4237 40.7292 45.414L45.531 42.3154L44.5766 41.0486C44.5017 40.9493 44.4848 40.8608 44.5038 40.7662C44.5205 40.6831 44.6579 40.5607 44.6579 40.5607L50.5168 37.0042C50.5168 37.0042 50.6966 36.8908 50.795 36.9015C50.8853 36.9114 51.0261 37.047 51.0261 37.047L52.1431 38.0143L56.196 35.4293C57.867 31.6615 57.7187 27.0659 54.2445 21.5753C52.4032 18.6657 49.8446 15.5028 45.7535 12.0828C42.9319 9.72417 40.1079 7.71838 37.3138 6.09961L37.3139 6.10047Z" fill="#826AED"/>
</g>
<defs>
<filter id="filter0_d_2230_1193" x="35.8068" y="2.18066" width="79.605" height="86.4131" filterUnits="userSpaceOnUse" color-interpolation-filters="sRGB">
<feFlood flood-opacity="0" result="BackgroundImageFix"/>
<feColorMatrix in="SourceAlpha" type="matrix" values="0 0 0 0 0 0 0 0 0 0 0 0 0 0 0 0 0 0 127 0" result="hardAlpha"/>
<feOffset dy="13"/>
<feGaussianBlur stdDeviation="2"/>
<feComposite in2="hardAlpha" operator="out"/>
<feColorMatrix type="matrix" values="0 0 0 0 0 0 0 0 0 0 0 0 0 0 0 0 0 0 0.5 0"/>
<feBlend mode="normal" in2="BackgroundImageFix" result="effect1_dropShadow_2230_1193"/>
<feBlend mode="normal" in="SourceGraphic" in2="effect1_dropShadow_2230_1193" result="shape"/>
</filter>
<filter id="filter1_d_2230_1193" x="0.500488" y="0.5" width="79.605" height="88.4131" filterUnits="userSpaceOnUse" color-interpolation-filters="sRGB">
<feFlood flood-opacity="0" result="BackgroundImageFix"/>
<feColorMatrix in="SourceAlpha" type="matrix" values="0 0 0 0 0 0 0 0 0 0 0 0 0 0 0 0 0 0 127 0" result="hardAlpha"/>
<feOffset dy="15"/>
<feGaussianBlur stdDeviation="2"/>
<feComposite in2="hardAlpha" operator="out"/>
<feColorMatrix type="matrix" values="0 0 0 0 0 0 0 0 0 0 0 0 0 0 0 0 0 0 0.5 0"/>
<feBlend mode="normal" in2="BackgroundImageFix" result="effect1_dropShadow_2230_1193"/>
<feBlend mode="normal" in="SourceGraphic" in2="effect1_dropShadow_2230_1193" result="shape"/>
</filter>
<linearGradient id="paint0_linear_2230_1193" x1="57.8843" y1="54.6332" x2="53.091" y2="49.8399" gradientUnits="userSpaceOnUse">
<stop stop-color="#F4EFFA"/>
<stop offset="1" stop-color="#F4EFFA"/>
</linearGradient>
<linearGradient id="paint1_linear_2230_1193" x1="46.9283" y1="55.0429" x2="49.8043" y2="58.7406" gradientUnits="userSpaceOnUse">
<stop stop-color="white"/>
<stop offset="1" stop-color="white" stop-opacity="0"/>
</linearGradient>
<linearGradient id="paint2_linear_2230_1193" x1="68.984" y1="53.3623" x2="66.108" y2="57.0599" gradientUnits="userSpaceOnUse">
<stop stop-color="white"/>
<stop offset="1" stop-color="white" stop-opacity="0"/>
</linearGradient>
</defs>
</svg>
