<svg width="85" height="86" viewBox="0 0 85 86" fill="none" xmlns="http://www.w3.org/2000/svg">
<path d="M28.7186 54.8354L56.1185 54.8281C54.6486 55.9779 53.0466 56.9515 51.3215 57.6937L51.2328 57.7319L51.153 57.7863C50.6798 58.1093 49.5028 58.9476 48.4333 60.0257C47.8985 60.5649 47.3663 61.1881 46.9626 61.8598C46.5629 62.5251 46.2491 63.3048 46.2489 64.1377C46.2483 66.8782 46.5566 69.7922 46.8586 72.3228C46.9119 72.7698 46.9646 73.2023 47.0154 73.6185C47.2578 75.607 47.4548 77.2227 47.4546 78.265C47.4544 79.2374 47.0351 79.9321 46.2444 80.4307C45.4019 80.9621 44.1024 81.2825 42.4101 81.2828C40.7258 81.2832 39.4257 80.9472 38.5809 80.4066C37.78 79.894 37.3676 79.1943 37.3678 78.2679C37.368 77.2697 37.5619 75.6833 37.8022 73.717C37.8555 73.2814 37.911 72.8271 37.9672 72.3565C38.2706 69.8153 38.5806 66.8805 38.5811 64.1384L38.5811 64.1377C38.5807 63.259 38.2245 62.4378 37.786 61.7473C37.3415 61.0474 36.7599 60.3995 36.1881 59.847C35.0441 58.7415 33.8341 57.9181 33.5254 57.7138L33.4533 57.6661L33.3742 57.6315C31.7022 56.9004 30.1482 55.9511 28.7186 54.8354ZM42.4238 11.6539L42.4241 11.6539C50.0763 11.6515 55.6864 14.8172 59.406 19.5208C63.1473 24.2521 65.0111 30.5902 65.0097 36.9247V36.9251C65.0104 41.3494 63.7309 45.4712 61.5311 48.9525L23.2913 48.9589C21.0941 45.4793 19.8209 41.357 19.8249 36.9307V36.9298C19.8254 30.5983 21.6938 24.2605 25.4389 19.528C29.1623 14.8228 34.775 11.6547 42.4238 11.6539Z" stroke="white" stroke-width="2"/>
</svg>
