<svg width="205" height="205" viewBox="0 0 205 205" fill="none" xmlns="http://www.w3.org/2000/svg">
<path d="M102.044 204.088C158.401 204.088 204.088 158.401 204.088 102.044C204.088 45.6866 158.401 0 102.044 0C45.6866 0 0 45.6866 0 102.044C0 158.401 45.6866 204.088 102.044 204.088Z" fill="#F6EFE9"/>
<mask id="mask0_81_401" style="mask-type:luminance" maskUnits="userSpaceOnUse" x="0" y="0" width="205" height="205">
<path d="M102.044 204.088C158.401 204.088 204.088 158.401 204.088 102.044C204.088 45.6866 158.401 0 102.044 0C45.6866 0 0 45.6866 0 102.044C0 158.401 45.6866 204.088 102.044 204.088Z" fill="white"/>
</mask>
<g mask="url(#mask0_81_401)">
<path d="M197.247 205.026L189.764 189.916C189.764 189.916 184.884 182.221 174.562 178.655C174.562 178.655 151.477 171.711 148.099 170.585L138.152 165.142C137.674 165.609 137.168 166.049 136.661 166.483C134.921 167.975 133.088 169.361 131.192 170.649C128.449 172.512 125.561 174.17 122.543 175.547C119.056 177.138 115.384 178.355 111.6 178.996C109.601 179.335 107.573 179.511 105.545 179.496C104.513 179.489 103.479 179.359 102.452 179.377C101.148 179.399 99.846 179.487 98.542 179.496C97.219 179.505 95.896 179.434 94.581 179.289C90.718 178.863 86.941 177.803 83.351 176.329C80.175 175.025 77.135 173.397 74.247 171.541C72.13 170.18 70.089 168.696 68.15 167.09C68.006 166.971 66.036 165.087 65.938 165.141L55.991 170.584C52.613 171.71 29.528 178.654 29.528 178.654C19.205 182.22 14.326 189.915 14.326 189.915L6.843 205.025H197.247V205.026Z" fill="#FE8783"/>
<path d="M121.896 205.026C136.243 192.917 142.765 175.448 142.765 175.448C95.567 207.556 56.124 170.844 56.124 170.844C52.808 174.259 49.08 175.166 45.791 178.607C44.647 179.804 43.549 181.181 42.521 182.628C41.174 184.523 39.945 186.539 38.882 188.431C36.867 192.017 35.495 196.006 35.28 200.134C35.195 201.762 35.315 203.414 35.628 205.026H121.896Z" fill="#CE4E4D"/>
<path d="M10.89 195.85C14.232 194.307 17.684 192.682 20.074 189.882C21.172 188.595 22.005 187.104 23.049 185.773C26.638 181.201 32.342 178.931 37.773 176.857C31.791 178.459 26.277 179.83 20.837 182.791C20.22 183.127 19.607 183.483 19.083 183.95C18.321 184.63 17.778 185.515 17.247 186.387C15.315 189.558 12.822 192.68 10.89 195.85Z" fill="#CE4E4D"/>
<path d="M193.19 195.85C189.848 194.307 186.396 192.682 184.006 189.882C182.908 188.595 182.076 187.104 181.031 185.773C177.442 181.201 171.738 178.931 166.308 176.857C172.29 178.459 177.804 179.83 183.243 182.791C183.86 183.127 184.473 183.483 184.997 183.95C185.759 184.63 186.302 185.515 186.833 186.387C188.765 189.558 191.258 192.68 193.19 195.85Z" fill="#CE4E4D"/>
<path d="M151.587 78.414C151.157 78.274 150.713 78.203 150.266 78.203C149.992 78.203 149.722 78.23 149.462 78.284L148.888 78.403L148.95 77.82C149.479 72.874 149.702 68.754 149.653 64.853C149.603 61.875 149.399 59.467 149.012 57.278C148.568 54.873 147.93 52.339 146.285 50.114C145.919 49.68 145.593 49.314 145.23 48.927C144.903 48.568 144.548 48.196 144.142 47.788C143.588 47.21 143.003 46.653 142.436 46.115C142.25 45.939 142.065 45.762 141.88 45.585C140.102 43.964 138.581 42.669 137.102 41.515C135.67 40.372 134.107 39.227 132.028 37.797L129.395 36.07L126.697 34.463C122.505 32.081 118.915 30.335 115.407 28.974C113.864 28.306 112.253 27.761 110.695 27.234C110.291 27.097 109.886 26.961 109.483 26.822C108.776 26.56 108.037 26.359 107.323 26.164C107.04 26.087 106.757 26.01 106.475 25.929L103.432 25.087C103.409 25.081 103.38 25.077 103.356 25.077H103.328L102.545 25.075H102.521C102.494 25.075 102.467 25.079 102.44 25.086L99.072 26.001L97.399 26.456L95.754 27.003L92.459 28.114L89.228 29.405C84.59 31.366 80.547 33.432 76.875 35.718C72.872 38.195 69.101 40.953 65.664 43.913C63.57 45.763 62.019 47.248 60.639 48.726C60.57 48.801 60.498 48.879 60.425 48.956C60.299 49.09 60.174 49.223 60.052 49.364C59.993 49.431 59.937 49.495 59.88 49.559C59.739 49.718 59.606 49.868 59.46 50.048C59.057 50.594 58.738 51.099 58.496 51.579C57.99 52.548 57.575 53.636 57.225 54.908C56.675 56.948 56.336 59.146 56.158 61.824C56.016 63.941 55.985 66.216 56.061 68.777C56.15 71.625 56.355 74.56 56.686 77.748L56.739 78.255L56.231 78.219C56.131 78.212 56.03 78.208 55.93 78.208C55.488 78.208 55.058 78.275 54.652 78.408C53.785 78.681 52.988 79.186 52.343 79.87C51.227 81.068 50.639 82.751 50.597 84.871C50.567 86.788 50.937 88.601 51.304 90.122C51.706 91.742 52.222 93.307 52.874 95.157C53.149 95.923 53.422 96.694 53.695 97.465C54.579 99.962 55.493 102.545 56.529 105.04C56.892 105.912 57.238 106.701 57.588 107.45L57.711 107.71C58.038 108.399 58.376 109.112 58.814 109.768C59.375 110.605 60.013 111.173 60.709 111.458C61.106 111.621 61.506 111.704 61.902 111.704L61.953 111.703C62.2 111.698 62.452 111.648 62.702 111.556L63.088 111.413L63.245 111.793C64.673 115.244 66.61 118.741 69.003 122.187C70.571 124.363 71.946 126.114 73.326 127.692C74.908 129.503 76.538 131.204 78.169 132.748C79.2 133.723 80.008 134.439 80.787 135.072L81.213 135.419L81.437 135.601L81.352 135.877C81.332 135.941 81.323 135.993 81.324 136.042L81.645 157.488L81.648 157.686L81.499 157.816C80.514 158.676 79.424 159.543 77.963 160.626C76.716 161.547 75.36 162.504 73.816 163.551C72.075 164.726 70.321 165.867 68.596 166.947L68.597 166.948L68.55 166.977C68.624 167.04 68.698 167.103 68.772 167.166L68.992 167.354L69.012 167.371L69.029 167.39C77.804 176.891 96.859 179.666 97.078 179.689C98.137 179.759 101.981 179.429 103.053 179.429C117.54 179.429 128.324 172.934 133.462 169.063L133.576 168.977H133.718L134.016 168.976C134.103 168.848 134.194 168.738 134.294 168.64C134.916 168.033 135.634 167.437 136.556 166.765C136.613 166.723 136.673 166.685 136.735 166.649C135.199 165.627 133.601 164.51 131.872 163.25C130.489 162.235 129.246 161.287 128.073 160.351C126.728 159.276 125.654 158.362 124.693 157.475L124.553 157.345L124.556 157.154L124.872 136.041C124.87 135.876 124.805 135.739 124.689 135.637L124.304 135.301L124.703 134.982C125.692 134.19 126.632 133.332 127.339 132.672C128.982 131.129 130.625 129.429 132.22 127.62C133.686 125.941 135.152 124.085 136.577 122.104C139.009 118.635 140.978 115.092 142.428 111.576L142.602 111.155L143.011 111.355C143.297 111.495 143.618 111.581 143.964 111.612C144.074 111.623 144.182 111.628 144.29 111.628C144.594 111.628 144.916 111.586 145.248 111.503C145.691 111.383 146.082 111.187 146.373 110.937C146.69 110.677 146.987 110.356 147.262 109.976C147.769 109.273 148.141 108.489 148.501 107.731L148.532 107.665C148.894 106.897 149.246 106.104 149.608 105.243C150.675 102.694 151.61 100.053 152.515 97.498C152.775 96.762 153.036 96.027 153.299 95.293C153.957 93.43 154.479 91.854 154.891 90.225C155.118 89.328 155.297 88.449 155.422 87.614C155.572 86.634 155.638 85.761 155.625 84.945C155.595 82.809 155.015 81.11 153.902 79.893C153.249 79.2 152.448 78.688 151.587 78.414Z" fill="#F9BF9A"/>
<path d="M123.985 135.11C123.985 135.11 119.113 164.867 96.033 159.568C96.033 159.568 85.192 156.541 81.695 145.468C81.524 143.292 81.6 140.708 81.428 138.531C81.383 137.964 81.987 136.395 82.441 136.008C82.962 135.563 84.157 137.275 84.501 137.598C85.294 138.341 86.15 139.017 87.057 139.616C88 140.238 88.999 140.777 90.038 141.221C91.678 141.922 93.41 142.389 95.059 143.07C97.62 144.129 100.482 146.172 103.39 145.323C104.462 145.01 105.534 144.695 106.6 144.363C108.731 143.702 110.847 142.983 112.908 142.124C117.029 140.407 120.64 138.027 123.985 135.11Z" fill="#BF7D5D"/>
<path d="M71.37 74.136L77.668 76.555L95.779 78.713L97.375 85.188L97.031 107.335L98.72 98.389L98.876 84.719L96.874 76.126L91.765 75.387L76.354 73.271L71.37 74.136Z" fill="#BF7D5D"/>
<path d="M107.64 76.341L109.658 78.124L125.709 77.093L133.118 74.277L128.191 73.667L109.708 75.287L107.64 76.341Z" fill="#BF7D5D"/>
<path d="M152.867 85.226C152.084 84.576 150.928 84.265 150.032 84.747C149.55 85.006 149.201 85.455 148.916 85.922C148.494 86.611 148.18 87.367 147.989 88.152C147.514 90.097 147.799 92.135 147.738 94.136C147.584 99.188 145.239 103.885 142.848 108.338C144.984 100.632 146.399 92.727 147.066 84.758C147.226 82.85 147.356 80.886 148.177 79.157C148.268 78.965 148.374 78.769 148.55 78.648C148.745 78.515 148.993 78.495 149.229 78.48C149.769 78.446 150.313 78.412 150.848 78.496C152.665 78.782 154.034 80.416 154.566 82.177C155.098 83.938 154.955 85.822 154.808 87.657C154.8 87.761 154.772 87.843 154.699 87.916C154.074 87.242 153.748 85.957 152.867 85.226Z" fill="#BF7D5D"/>
<path d="M52.637 85.226C53.42 84.576 54.576 84.265 55.472 84.747C55.954 85.006 56.303 85.455 56.588 85.922C57.01 86.611 57.324 87.367 57.515 88.152C57.99 90.097 57.705 92.135 57.766 94.136C57.92 99.188 60.265 103.885 62.656 108.338C60.52 100.632 59.105 92.727 58.438 84.758C58.278 82.85 58.148 80.886 57.327 79.157C57.236 78.965 57.13 78.769 56.954 78.648C56.759 78.515 56.511 78.495 56.275 78.48C55.735 78.446 55.19 78.412 54.656 78.496C52.839 78.782 51.47 80.416 50.938 82.177C50.406 83.938 50.549 85.822 50.696 87.657C50.704 87.761 50.732 87.843 50.806 87.916C51.43 87.242 51.757 85.957 52.637 85.226Z" fill="#BF7D5D"/>
<path d="M99.985 131.32L104.029 129.947L104.252 131.32L101.84 131.84L99.985 131.32Z" fill="#BF7D5D"/>
<path d="M109.147 115.304C109.147 115.304 102.713 122.839 96.631 115.304L99.032 115.89L101.86 116.263L104.857 116.156L106.125 115.783L108.033 115.65L109.147 115.304Z" fill="#BF7D5D"/>
<path d="M145.171 50.597C142.515 47.567 139.377 44.768 136.14 42.236C132.878 39.707 129.462 37.361 125.858 35.341C122.259 33.32 118.559 31.459 114.701 29.984C112.801 29.171 110.827 28.561 108.872 27.898C107.902 27.543 106.894 27.311 105.901 27.032L102.914 26.221L103.131 26.247L102.348 26.249L102.565 26.223C93.731 28.452 85.218 31.959 77.45 36.726C73.576 39.12 69.878 41.802 66.428 44.769C64.724 46.272 63.053 47.821 61.51 49.47C61.13 49.872 60.728 50.316 60.408 50.7C60.144 51.146 59.816 51.531 59.592 52.018C59.107 52.961 58.723 53.984 58.438 55.049C57.291 59.329 57.211 63.95 57.309 68.486C57.447 73.044 57.891 77.606 58.472 82.151C59.656 91.236 61.396 100.284 63.524 109.193L63.502 109.118C65.024 113.406 67.231 117.448 69.826 121.219C72.463 124.964 75.471 128.464 78.789 131.631C79.62 132.423 80.459 133.193 81.344 133.918L82.664 135.011L84.028 136.035C85.879 137.362 87.844 138.543 89.873 139.61C91.899 140.683 93.981 141.666 96.112 142.538C98.24 143.416 100.399 144.243 102.6 144.923L102.603 144.924H102.39C106.868 143.666 111.248 142.017 115.405 139.947C117.48 138.906 119.496 137.75 121.4 136.436L122.797 135.411C123.258 135.063 123.694 134.68 124.144 134.316C125.047 133.583 125.897 132.806 126.743 132.008C130.109 128.807 133.157 125.268 135.826 121.474C138.461 117.661 140.692 113.559 142.232 109.207L142.217 109.258C143.39 104.382 144.412 99.449 145.313 94.507C146.212 89.563 146.981 84.594 147.547 79.608C148.105 74.624 148.475 69.613 148.382 64.626C148.318 62.137 148.142 59.65 147.699 57.233C147.254 54.841 146.525 52.434 145.171 50.597ZM146.424 49.599C148.06 51.857 148.756 54.429 149.225 56.957C149.672 59.5 149.833 62.055 149.881 64.6C149.942 69.692 149.53 74.749 148.934 79.771C148.329 84.793 147.522 89.783 146.585 94.744C145.645 99.707 144.589 104.638 143.372 109.55L143.357 109.602C141.741 114.069 139.431 118.242 136.723 122.104C133.98 125.946 130.868 129.51 127.429 132.736C126.568 133.538 125.684 134.334 124.765 135.07C124.303 135.438 123.856 135.825 123.381 136.178L121.941 137.219C119.983 138.551 117.922 139.713 115.808 140.755C111.573 142.828 107.143 144.46 102.604 145.702C102.535 145.721 102.466 145.721 102.402 145.705L102.391 145.702L102.388 145.701C97.844 144.582 93.429 142.973 89.213 140.894C87.115 139.837 85.071 138.656 83.125 137.311L81.687 136.269L80.316 135.152C79.402 134.41 78.526 133.612 77.674 132.807C74.262 129.576 71.176 126.016 68.451 122.18C65.77 118.318 63.469 114.155 61.865 109.691L61.842 109.616C59.655 100.622 57.875 91.564 56.64 82.389C56.028 77.804 55.586 73.187 55.438 68.539C55.341 63.899 55.391 59.19 56.624 54.544C56.934 53.387 57.357 52.24 57.925 51.136C58.185 50.577 58.595 50.06 58.93 49.526C59.346 49.025 59.721 48.618 60.129 48.181C61.732 46.466 63.441 44.88 65.188 43.337C68.719 40.295 72.495 37.552 76.452 35.103C80.405 32.642 84.588 30.568 88.872 28.756L92.114 27.461L95.422 26.346L97.078 25.795L98.762 25.337L102.13 24.422C102.194 24.404 102.259 24.396 102.323 24.396H102.348L103.131 24.398H103.159C103.223 24.398 103.289 24.408 103.348 24.424L106.395 25.267C107.408 25.557 108.435 25.8 109.424 26.166C111.416 26.852 113.428 27.486 115.363 28.324C119.293 29.849 123.059 31.765 126.718 33.844C130.382 35.923 133.853 38.33 137.168 40.926C140.479 43.555 143.595 46.338 146.424 49.599Z" fill="#02020C"/>
<path d="M56.821 79.14C55.538 78.568 53.838 79.124 52.778 80.234C51.703 81.327 51.233 83.001 51.178 84.649C51.101 88.02 52.134 91.422 53.221 94.725C54.344 98.052 55.399 101.404 56.676 104.654C57.332 106.258 57.974 107.933 58.842 109.371C59.294 110.073 59.867 110.692 60.601 111.008C61.325 111.331 62.199 111.371 62.837 110.955L63.166 111.453C62.312 112.027 61.215 111.971 60.347 111.604C59.445 111.235 58.764 110.51 58.258 109.756C57.746 108.99 57.379 108.177 56.999 107.382C56.626 106.58 56.272 105.77 55.933 104.955C54.577 101.69 53.458 98.356 52.27 95.05C51.116 91.732 49.965 88.308 49.969 84.613C50.005 82.789 50.451 80.81 51.831 79.327C52.507 78.61 53.355 78.056 54.318 77.752C55.272 77.44 56.382 77.437 57.371 77.839L56.821 79.14Z" fill="#02020C"/>
<path d="M53.308 85.867C52.626 84.494 52.915 82.708 54.033 81.581C54.568 81.039 55.399 80.574 56.297 80.806C57.154 81.037 57.783 81.756 57.987 82.608C58.039 82.826 57.905 83.046 57.687 83.098C57.469 83.15 57.249 83.016 57.197 82.798C57.195 82.788 57.192 82.776 57.191 82.767C57.1 82.201 56.666 81.637 56.112 81.462C55.569 81.268 54.902 81.537 54.411 81.982C53.409 82.865 53.018 84.461 53.568 85.748C53.6 85.82 53.567 85.904 53.495 85.936C53.424 85.964 53.342 85.933 53.308 85.867Z" fill="#02020C"/>
<path d="M59.008 92.389C57.941 92.901 57.368 94.101 57.324 95.238C57.288 96.401 57.74 97.526 58.335 98.532C58.935 99.546 59.696 100.474 60.362 101.504C61.058 102.525 61.439 103.759 62.287 104.333C62.473 104.459 62.521 104.711 62.396 104.897C62.27 105.083 62.018 105.132 61.832 105.006C61.826 105.002 61.817 104.995 61.811 104.991C61.247 104.562 60.899 103.978 60.621 103.431C60.343 102.873 60.11 102.351 59.806 101.845C59.212 100.828 58.485 99.856 57.906 98.772C57.333 97.698 56.898 96.477 56.993 95.217C57.096 93.987 57.77 92.732 58.938 92.232C58.981 92.214 59.031 92.234 59.05 92.277C59.068 92.32 59.049 92.369 59.008 92.389Z" fill="#02020C"/>
<path d="M148.447 77.841C149.443 77.435 150.56 77.444 151.52 77.759C152.487 78.07 153.339 78.63 154.015 79.358C155.396 80.86 155.824 82.855 155.851 84.691C155.836 88.408 154.663 91.851 153.5 95.19C152.305 98.518 151.175 101.877 149.801 105.161C149.457 105.981 149.097 106.795 148.717 107.6C148.337 108.4 147.952 109.222 147.407 109.978C147.135 110.354 146.819 110.71 146.451 111.013C146.077 111.334 145.61 111.545 145.151 111.669C144.23 111.894 143.206 111.881 142.336 111.331L142.665 110.833C143.311 111.237 144.211 111.259 144.981 111.047C145.769 110.849 146.354 110.269 146.842 109.575C147.321 108.885 147.679 108.09 148.041 107.287C148.4 106.486 148.74 105.675 149.065 104.858C150.361 101.588 151.423 98.215 152.554 94.864C153.652 91.537 154.706 88.117 154.646 84.719C154.599 83.057 154.143 81.366 153.065 80.257C152.005 79.132 150.293 78.563 149 79.139L148.447 77.841Z" fill="#02020C"/>
<path d="M152.253 85.746C152.803 84.46 152.412 82.863 151.41 81.98C150.919 81.535 150.252 81.267 149.709 81.46C149.155 81.636 148.72 82.199 148.63 82.765C148.595 82.987 148.387 83.138 148.165 83.103C147.943 83.068 147.792 82.86 147.827 82.638C147.829 82.628 147.831 82.616 147.833 82.607C148.037 81.755 148.666 81.036 149.523 80.805C150.421 80.573 151.252 81.038 151.787 81.58C152.904 82.707 153.193 84.493 152.512 85.866C152.477 85.936 152.391 85.965 152.321 85.93C152.252 85.897 152.224 85.815 152.253 85.746Z" fill="#02020C"/>
<path d="M146.881 92.233C148.049 92.733 148.723 93.988 148.826 95.218C148.921 96.477 148.486 97.698 147.913 98.773C147.334 99.857 146.606 100.829 146.013 101.846C145.709 102.352 145.476 102.874 145.198 103.432C144.92 103.979 144.572 104.564 144.008 104.992C143.83 105.129 143.575 105.097 143.438 104.919C143.301 104.741 143.333 104.486 143.511 104.349C143.517 104.345 143.526 104.338 143.532 104.334C144.38 103.76 144.762 102.526 145.457 101.505C146.123 100.475 146.884 99.547 147.484 98.533C148.08 97.527 148.531 96.402 148.495 95.239C148.451 94.102 147.878 92.902 146.811 92.39C146.768 92.37 146.75 92.319 146.77 92.276C146.79 92.234 146.839 92.216 146.881 92.233Z" fill="#02020C"/>
<path d="M102.347 116.644C102.332 116.644 102.317 116.644 102.303 116.644C100.192 116.63 98.141 115.635 96.95 114.046C96.796 113.841 96.837 113.551 97.043 113.397C97.248 113.242 97.538 113.285 97.692 113.49C98.713 114.851 100.482 115.704 102.309 115.717C103.999 115.734 105.821 115.013 107.203 113.757C107.392 113.585 107.686 113.598 107.859 113.788C108.032 113.978 108.018 114.271 107.828 114.444C106.287 115.843 104.292 116.644 102.347 116.644Z" fill="#02020C"/>
<path d="M96.1 110.154C95.797 110.827 95.436 111.495 95.184 112.165C95.067 112.498 95.019 112.827 95.107 113.124C95.19 113.427 95.389 113.72 95.608 113.978C96.512 115.017 98.02 115.379 99.362 115.23H99.368L98.94 115.716L98.931 115.53C98.918 115.274 99.115 115.056 99.371 115.043C99.627 115.03 99.845 115.227 99.858 115.483L99.867 115.669L99.868 115.696C99.88 115.937 99.695 116.142 99.453 116.154L99.438 116.155H99.431C98.623 116.184 97.818 116.056 97.07 115.765C96.324 115.477 95.631 114.999 95.147 114.345C94.912 114.018 94.702 113.666 94.615 113.238C94.524 112.803 94.636 112.366 94.793 112.013C95.121 111.311 95.522 110.693 95.882 110.032C95.915 109.972 95.991 109.949 96.051 109.982C96.108 110.013 96.132 110.083 96.105 110.142L96.1 110.154Z" fill="#02020C"/>
<path d="M96.936 76.015C97.389 77.488 97.787 78.974 98.176 80.461C98.571 81.947 98.926 83.443 99.281 84.938C99.286 84.961 99.289 84.986 99.29 85.009C99.328 86.895 99.327 88.773 99.301 90.656C99.268 92.537 99.228 94.419 99.104 96.298C98.987 98.177 98.834 100.056 98.586 101.928C98.313 103.793 97.999 105.668 97.328 107.461C97.293 107.555 97.188 107.603 97.093 107.568C97.001 107.533 96.953 107.433 96.984 107.34L96.986 107.334C97.571 105.58 97.816 103.712 98.017 101.859C98.225 100.002 98.349 98.134 98.431 96.263C98.596 92.523 98.659 88.769 98.584 85.027L98.593 85.098C98.256 83.598 97.919 82.099 97.622 80.59C97.319 79.083 97.025 77.573 96.786 76.051C96.779 76.009 96.808 75.969 96.85 75.963C96.888 75.956 96.925 75.979 96.936 76.015Z" fill="#02020C"/>
<path d="M109.724 110.033C110.084 110.694 110.485 111.312 110.813 112.014C110.97 112.367 111.082 112.804 110.991 113.239C110.905 113.667 110.694 114.019 110.459 114.346C109.976 115 109.282 115.478 108.536 115.766C107.788 116.057 106.983 116.186 106.175 116.156H106.168C105.927 116.152 105.734 115.954 105.738 115.712V115.699L105.739 115.67L105.748 115.484C105.761 115.228 105.979 115.031 106.235 115.044C106.491 115.057 106.688 115.275 106.675 115.531L106.666 115.717L106.238 115.231H106.244C107.586 115.381 109.094 115.018 109.998 113.979C110.217 113.721 110.417 113.429 110.499 113.125C110.587 112.828 110.539 112.5 110.422 112.166C110.169 111.496 109.809 110.827 109.506 110.155L109.501 110.144C109.473 110.081 109.501 110.007 109.563 109.979C109.623 109.952 109.693 109.976 109.724 110.033Z" fill="#02020C"/>
<path d="M92.099 148.74C93.006 154.459 94.895 160.025 97.662 165.119C97.718 165.223 97.68 165.353 97.576 165.409C97.473 165.465 97.343 165.427 97.287 165.324C94.463 160.205 92.518 154.6 91.564 148.826C91.54 148.678 91.64 148.539 91.787 148.514C91.935 148.49 92.074 148.59 92.099 148.737V148.74Z" fill="#02020C"/>
<path d="M125.098 135.799L124.665 164.778C124.661 165.067 124.423 165.298 124.134 165.293C123.851 165.289 123.623 165.059 123.619 164.778L123.186 135.799C123.178 135.271 123.6 134.836 124.128 134.828C124.656 134.82 125.091 135.242 125.099 135.77C125.098 135.778 125.098 135.791 125.098 135.799Z" fill="#02020C"/>
<path d="M136.243 166.976C131.82 164.206 127.565 161.124 123.801 157.483C123.638 157.325 123.634 157.066 123.791 156.903C123.945 156.743 124.2 156.738 124.363 156.886C128.183 160.34 132.481 163.239 136.935 165.823C137.257 166.008 137.368 166.419 137.182 166.742C136.997 167.064 136.586 167.175 136.263 166.989C136.259 166.986 136.249 166.98 136.243 166.976Z" fill="#02020C"/>
<path d="M82.609 135.799L82.176 164.778C82.172 165.067 81.934 165.298 81.645 165.293C81.361 165.289 81.134 165.059 81.129 164.778L80.696 135.799C80.688 135.271 81.11 134.836 81.638 134.828C82.166 134.82 82.601 135.242 82.609 135.77C82.609 135.778 82.609 135.791 82.609 135.799Z" fill="#02020C"/>
<path d="M67.334 165.989C69.784 164.573 72.243 163.214 74.636 161.75C77.02 160.283 79.369 158.74 81.43 156.885L81.434 156.881C81.603 156.729 81.862 156.743 82.014 156.912C82.163 157.077 82.152 157.33 81.993 157.483C79.918 159.469 77.58 161.106 75.216 162.665C72.846 164.218 70.414 165.662 68.027 167.142C67.712 167.339 67.297 167.242 67.1 166.927C66.903 166.612 67 166.197 67.315 166C67.319 165.998 67.328 165.992 67.334 165.989Z" fill="#02020C"/>
<path d="M114.284 148.827C113.33 154.601 111.384 160.206 108.561 165.325C108.504 165.428 108.374 165.466 108.271 165.409C108.168 165.352 108.131 165.223 108.186 165.12C110.953 160.026 112.842 154.46 113.749 148.741C113.772 148.593 113.911 148.492 114.059 148.516C114.207 148.539 114.308 148.679 114.284 148.827Z" fill="#02020C"/>
<path d="M133.124 74.237C131.795 74.696 130.462 74.97 129.128 75.18C128.461 75.302 127.793 75.357 127.126 75.445C126.458 75.518 125.79 75.565 125.122 75.606L125.268 75.596C123.825 75.804 122.381 76.003 120.93 76.142C119.481 76.298 118.023 76.381 116.565 76.459L112.188 76.676C110.729 76.749 109.265 76.778 107.76 76.464C107.595 76.43 107.489 76.268 107.523 76.103C107.543 76.006 107.608 75.929 107.691 75.889C109.08 75.231 110.51 74.915 111.946 74.644L116.252 73.828C117.688 73.562 119.124 73.301 120.57 73.112C122.013 72.906 123.463 72.761 124.915 72.624L124.999 72.616L125.062 72.614C125.731 72.628 126.401 72.648 127.071 72.694C127.741 72.755 128.411 72.782 129.082 72.878C130.423 73.034 131.766 73.254 133.113 73.659C133.274 73.707 133.365 73.877 133.317 74.038C133.287 74.134 133.212 74.206 133.124 74.237Z" fill="#02020C"/>
<path d="M71.415 73.659C72.762 73.255 74.104 73.034 75.446 72.878C76.117 72.782 76.787 72.755 77.457 72.694C78.127 72.648 78.797 72.628 79.466 72.614L79.529 72.616L79.613 72.624C81.064 72.761 82.515 72.906 83.958 73.112C85.403 73.301 86.84 73.562 88.275 73.828L92.581 74.644C94.016 74.915 95.446 75.232 96.836 75.889C96.988 75.961 97.053 76.143 96.981 76.296C96.939 76.385 96.857 76.445 96.767 76.464C95.262 76.777 93.798 76.749 92.339 76.676L87.962 76.459C86.504 76.381 85.046 76.297 83.597 76.142C82.146 76.003 80.702 75.804 79.259 75.596L79.405 75.606C78.737 75.565 78.068 75.518 77.401 75.445C76.734 75.357 76.065 75.303 75.399 75.18C74.065 74.97 72.732 74.696 71.403 74.237C71.244 74.182 71.16 74.009 71.215 73.851C71.248 73.756 71.325 73.687 71.415 73.659Z" fill="#02020C"/>
<path d="M7.592 205.026L14.905 190.259C17.045 187.2 19.972 184.551 23.158 182.486C24.772 181.461 26.485 180.589 28.247 179.863L29.577 179.355C30.027 179.193 30.507 179.065 30.97 178.918L33.774 178.063L56.202 171.223C56.234 171.213 56.268 171.199 56.299 171.182L56.312 171.175L61.312 168.439L63.812 167.071L65.062 166.387L65.687 166.045L65.886 165.936C65.959 165.998 66.035 166.064 66.097 166.119L66.616 166.589L67.671 167.566C68.441 168.208 69.173 168.783 69.946 169.367C71.48 170.522 73.065 171.608 74.696 172.621C77.956 174.649 81.41 176.387 85.035 177.7C88.659 178.985 92.458 179.941 96.339 180.055C97.301 180.08 98.286 180.212 99.23 180.148L102.083 180.061C103.015 180.014 103.903 180.106 104.89 180.151C105.882 180.19 106.836 180.164 107.808 180.108C111.679 179.877 115.483 178.994 119.103 177.68C122.726 176.362 126.177 174.621 129.437 172.592C132.552 170.635 135.501 168.464 138.239 165.957L147.773 171.174L147.789 171.183C147.819 171.199 147.85 171.212 147.884 171.222L170.313 178.062L173.116 178.917C173.58 179.064 174.059 179.192 174.509 179.354L175.839 179.862C177.601 180.589 179.314 181.46 180.928 182.485C182.534 183.523 184.052 184.701 185.451 186.004C186.146 186.66 186.821 187.339 187.449 188.057C188.069 188.75 188.71 189.559 189.174 190.245L196.493 205.026H197.994L190.347 189.586C189.724 188.649 189.133 187.935 188.458 187.167C187.799 186.414 187.095 185.706 186.37 185.022C184.91 183.663 183.329 182.436 181.654 181.353C179.969 180.282 178.188 179.375 176.339 178.614L174.931 178.078C174.462 177.91 173.996 177.786 173.529 177.638L170.727 176.783L148.359 169.962L138.472 164.552C138.225 164.417 137.908 164.448 137.69 164.651L137.679 164.662C134.965 167.197 131.903 169.46 128.726 171.452C125.536 173.438 122.165 175.138 118.644 176.418C115.126 177.695 111.449 178.545 107.728 178.767C106.804 178.821 105.855 178.845 104.949 178.809C104.039 178.769 103.031 178.669 102.062 178.718L99.218 178.805C98.741 178.833 98.273 178.823 97.81 178.787L96.415 178.714C92.688 178.609 89.013 177.686 85.492 176.437C81.97 175.161 78.597 173.466 75.406 171.481C73.809 170.489 72.256 169.425 70.755 168.295C70.012 167.735 69.25 167.134 68.561 166.56L67.526 165.6L66.988 165.114C66.781 164.94 66.674 164.818 66.331 164.585C66.304 164.57 66.34 164.586 66.26 164.546C66.156 164.497 66.01 164.465 65.872 164.48C65.515 164.558 65.624 164.567 65.589 164.567L65.511 164.61L65.355 164.696L65.042 164.867L64.417 165.209L63.167 165.893L60.667 167.261L55.727 169.964L33.359 176.785L30.557 177.64C30.09 177.788 29.624 177.912 29.155 178.08L27.747 178.616C25.898 179.377 24.118 180.285 22.433 181.355C19.086 183.541 16.096 186.21 13.757 189.557L13.732 189.6L13.723 189.619L6.092 205.028H7.592V205.026ZM66.226 165.75L66.236 165.745C66.23 165.736 66.271 165.731 66.226 165.75Z" fill="#02020C"/>
<path d="M102.609 188.807C95.356 188.807 88.865 187.619 83.406 186.017C66.528 181.065 55.643 171.179 55.536 171.079C55.262 170.828 55.245 170.402 55.496 170.129C55.746 169.854 56.173 169.837 56.446 170.088C56.552 170.185 67.244 179.886 83.838 184.741C99.116 189.214 122.688 190.369 148.231 170.491C148.524 170.264 148.947 170.316 149.174 170.609C149.402 170.902 149.349 171.324 149.056 171.553C132.15 184.709 116.072 188.807 102.609 188.807Z" fill="#02020C"/>
<path d="M176.714 205.026C175.346 199.225 175.606 193.011 176.157 187.05C176.408 184.324 176.746 181.699 178.091 179.54C178.17 179.413 178.131 179.245 178.004 179.166C177.876 179.086 177.71 179.127 177.631 179.252C176.223 181.513 175.875 184.207 175.617 186.999C175.066 192.966 174.806 199.188 176.158 205.025H176.714V205.026Z" fill="#02020C"/>
<path d="M29.371 187.05C29.922 193.012 30.182 199.226 28.814 205.026H29.37C30.722 199.19 30.462 192.968 29.911 187C29.654 184.208 29.306 181.513 27.897 179.253C27.818 179.128 27.651 179.087 27.523 179.167C27.396 179.246 27.357 179.414 27.436 179.541C28.783 181.699 29.12 184.324 29.371 187.05Z" fill="#02020C"/>
<path d="M59.651 173.764C59.561 173.764 59.472 173.719 59.421 173.637C59.341 173.511 59.38 173.343 59.506 173.263L68.327 167.726C68.454 167.646 68.621 167.684 68.701 167.812C68.781 167.938 68.742 168.106 68.616 168.186L59.795 173.723C59.75 173.751 59.7 173.764 59.651 173.764Z" fill="#02020C"/>
<path d="M65.844 177.799C65.761 177.799 65.679 177.761 65.626 177.69C65.537 177.569 65.563 177.4 65.683 177.311L73.66 171.398C73.781 171.308 73.95 171.334 74.039 171.455C74.128 171.576 74.103 171.745 73.982 171.835L66.005 177.747C65.957 177.783 65.9 177.799 65.844 177.799Z" fill="#02020C"/>
<path d="M73.257 181.647C73.186 181.647 73.115 181.62 73.063 181.565C72.959 181.457 72.961 181.286 73.069 181.181L79.732 174.706C79.838 174.602 80.011 174.604 80.115 174.712C80.219 174.82 80.217 174.991 80.109 175.096L73.446 181.571C73.394 181.622 73.326 181.647 73.257 181.647Z" fill="#02020C"/>
<path d="M82.266 185.119C82.213 185.119 82.158 185.103 82.111 185.071C81.989 184.985 81.958 184.816 82.044 184.693L86.83 177.843C86.916 177.72 87.084 177.691 87.208 177.775C87.331 177.861 87.361 178.03 87.275 178.153L82.489 185.003C82.435 185.079 82.351 185.119 82.266 185.119Z" fill="#02020C"/>
<path d="M92.026 187.371C91.988 187.371 91.949 187.364 91.912 187.346C91.776 187.284 91.717 187.122 91.779 186.987L95.157 179.668C95.22 179.532 95.382 179.471 95.517 179.535C95.653 179.597 95.712 179.759 95.65 179.894L92.272 187.213C92.226 187.312 92.128 187.371 92.026 187.371Z" fill="#02020C"/>
<path d="M144.107 173.764C144.058 173.764 144.008 173.751 143.963 173.723L135.142 168.186C135.015 168.106 134.977 167.938 135.057 167.812C135.137 167.685 135.303 167.648 135.431 167.726L144.252 173.263C144.379 173.343 144.417 173.511 144.337 173.637C144.286 173.719 144.197 173.764 144.107 173.764Z" fill="#02020C"/>
<path d="M137.914 177.799C137.858 177.799 137.801 177.782 137.752 177.746L129.775 171.834C129.655 171.745 129.629 171.575 129.718 171.454C129.807 171.333 129.977 171.307 130.097 171.397L138.074 177.31C138.194 177.399 138.22 177.569 138.131 177.689C138.079 177.761 137.996 177.799 137.914 177.799Z" fill="#02020C"/>
<path d="M130.5 181.647C130.432 181.647 130.364 181.622 130.311 181.571L123.648 175.096C123.54 174.991 123.538 174.82 123.642 174.712C123.745 174.604 123.918 174.603 124.025 174.706L130.688 181.181C130.796 181.286 130.798 181.457 130.694 181.565C130.642 181.62 130.571 181.647 130.5 181.647Z" fill="#02020C"/>
<path d="M121.492 185.119C121.406 185.119 121.322 185.079 121.269 185.003L116.483 178.153C116.397 178.031 116.427 177.862 116.55 177.775C116.673 177.69 116.842 177.719 116.928 177.843L121.714 184.693C121.8 184.815 121.77 184.984 121.647 185.071C121.6 185.103 121.545 185.119 121.492 185.119Z" fill="#02020C"/>
<path d="M111.732 187.371C111.63 187.371 111.532 187.313 111.486 187.213L108.108 179.894C108.045 179.759 108.105 179.597 108.241 179.535C108.377 179.472 108.538 179.531 108.601 179.668L111.979 186.987C112.042 187.122 111.982 187.284 111.846 187.346C111.809 187.363 111.77 187.371 111.732 187.371Z" fill="#02020C"/>
<path d="M102.536 188.684C102.386 188.684 102.265 188.563 102.265 188.413V179.377C102.265 179.228 102.386 179.106 102.536 179.106C102.686 179.106 102.807 179.228 102.807 179.377V188.413C102.807 188.563 102.686 188.684 102.536 188.684Z" fill="#02020C"/>
<path d="M134.996 164.993L138.068 164.437L136.663 166.006L134.996 164.993Z" fill="#02020C"/>
<path d="M69.144 164.993L66.072 164.437L67.477 166.006L69.144 164.993Z" fill="#02020C"/>
<path d="M118.832 84.721C120.05 84.302 121.555 83.646 122.861 83.511C124.685 84.766 125.928 87.246 125.928 90.105C125.928 94.229 123.344 97.571 120.156 97.571C116.968 97.571 114.384 94.228 114.384 90.105C114.384 88.597 114.77 87.089 115.365 85.915C116.531 85.479 117.652 85.126 118.832 84.721Z" fill="#02020C"/>
<path d="M130.429 83.49L129.769 83.404L129.162 83.352C128.754 83.332 128.344 83.32 127.933 83.328C127.11 83.333 126.285 83.397 125.461 83.485C123.813 83.665 122.178 83.992 120.563 84.397C118.942 84.787 117.354 85.305 115.772 85.843L113.424 86.721L111.107 87.685C111.077 87.698 111.042 87.685 111.029 87.656C111.016 87.627 111.03 87.592 111.058 87.578L113.345 86.532L115.67 85.57C117.239 84.976 118.82 84.399 120.442 83.948C122.059 83.482 123.704 83.094 125.379 82.852C126.217 82.734 127.06 82.639 127.912 82.604C128.337 82.582 128.765 82.579 129.194 82.585L129.84 82.617L130.165 82.645C130.263 82.658 130.417 82.671 130.427 82.679L130.678 82.862C130.834 82.976 130.869 83.194 130.755 83.35C130.679 83.456 130.552 83.506 130.429 83.49Z" fill="#02020C"/>
<path d="M128.145 96.246C127.023 96.769 125.904 97.068 124.749 97.31C123.599 97.543 122.435 97.672 121.27 97.733C120.105 97.771 118.94 97.758 117.783 97.646C116.625 97.551 115.481 97.36 114.345 97.14C114.308 97.133 114.284 97.097 114.291 97.06C114.298 97.024 114.334 97.001 114.37 97.006C115.511 97.169 116.654 97.303 117.803 97.341C118.95 97.395 120.098 97.352 121.237 97.259C122.375 97.144 123.503 96.962 124.605 96.683C125.695 96.403 126.805 96.035 127.755 95.534L127.783 95.519C127.981 95.414 128.227 95.49 128.332 95.689C128.437 95.887 128.361 96.133 128.162 96.238C128.157 96.24 128.15 96.244 128.145 96.246Z" fill="#02020C"/>
<path d="M126.092 79.586C123.884 79.401 121.65 79.69 119.513 80.285C117.371 80.881 115.321 81.781 113.351 82.824C113.239 82.883 113.101 82.84 113.042 82.729C112.983 82.617 113.026 82.479 113.137 82.42H113.138C115.132 81.374 117.214 80.468 119.398 79.869C121.577 79.271 123.861 78.984 126.127 79.182C126.239 79.192 126.321 79.29 126.312 79.402C126.301 79.513 126.203 79.596 126.092 79.586Z" fill="#02020C"/>
<path d="M85.281 84.721C84.063 84.302 82.558 83.646 81.253 83.511C79.429 84.766 78.186 87.246 78.186 90.105C78.186 94.229 80.77 97.571 83.958 97.571C87.146 97.571 89.73 94.228 89.73 90.105C89.73 88.597 89.344 87.089 88.749 85.915C87.582 85.479 86.46 85.126 85.281 84.721Z" fill="#02020C"/>
<path d="M73.683 82.678C73.693 82.671 73.848 82.657 73.946 82.644L74.271 82.616L74.917 82.584C75.346 82.578 75.773 82.58 76.199 82.603C77.051 82.638 77.894 82.733 78.732 82.851C80.408 83.093 82.052 83.482 83.669 83.947C85.291 84.398 86.872 84.974 88.441 85.569L90.766 86.531L93.053 87.577C93.083 87.591 93.096 87.626 93.082 87.655C93.069 87.684 93.033 87.696 93.004 87.684L90.687 86.72L88.339 85.842C86.757 85.305 85.169 84.786 83.548 84.396C81.933 83.99 80.297 83.664 78.65 83.484C77.827 83.396 77.001 83.333 76.179 83.327C75.767 83.319 75.358 83.332 74.95 83.351L74.343 83.403L73.683 83.489C73.492 83.514 73.316 83.379 73.291 83.188C73.274 83.057 73.332 82.933 73.431 82.86L73.683 82.678Z" fill="#02020C"/>
<path d="M76.358 95.533C77.308 96.034 78.417 96.4019 79.508 96.6819C80.61 96.9609 81.738 97.143 82.876 97.258C84.015 97.351 85.163 97.394 86.31 97.34C87.458 97.302 88.602 97.168 89.743 97.005C89.78 96.999 89.815 97.024 89.822 97.061C89.828 97.097 89.803 97.132 89.768 97.14C88.632 97.36 87.488 97.55 86.33 97.646C85.174 97.757 84.009 97.771 82.843 97.733C81.679 97.672 80.515 97.543 79.365 97.31C78.21 97.068 77.091 96.77 75.969 96.246C75.766 96.151 75.678 95.909 75.772 95.706C75.867 95.503 76.109 95.415 76.312 95.51C76.318 95.512 76.323 95.5149 76.329 95.5179L76.358 95.533Z" fill="#02020C"/>
<path d="M77.986 79.182C80.251 78.984 82.536 79.272 84.715 79.869C86.899 80.468 88.981 81.374 90.975 82.42C91.087 82.479 91.13 82.617 91.071 82.729C91.012 82.841 90.874 82.884 90.762 82.825C88.792 81.782 86.741 80.882 84.599 80.286C82.462 79.691 80.228 79.403 78.02 79.587C77.908 79.596 77.81 79.513 77.801 79.401C77.792 79.289 77.875 79.191 77.986 79.182Z" fill="#02020C"/>
<path d="M127.091 89.444C127.091 90.48 126.402 91.321 125.552 91.321C124.702 91.321 124.013 90.481 124.013 89.444C124.013 88.407 124.702 87.567 125.552 87.567C126.402 87.567 127.091 88.407 127.091 89.444Z" fill="#F4EFE9"/>
<path d="M90.847 89.444C90.847 90.48 90.158 91.321 89.308 91.321C88.458 91.321 87.769 90.481 87.769 89.444C87.769 88.407 88.458 87.567 89.308 87.567C90.158 87.567 90.847 88.407 90.847 89.444Z" fill="#F4EFE9"/>
<path d="M82.387 107.487C72.932 107.487 65.239 99.794 65.239 90.339C65.239 80.884 72.932 73.191 82.387 73.191C91.842 73.191 99.535 80.884 99.535 90.339C99.535 99.794 91.842 107.487 82.387 107.487ZM82.387 74.41C73.603 74.41 66.457 81.555 66.457 90.339C66.457 99.123 73.603 106.268 82.387 106.268C91.171 106.268 98.317 99.123 98.317 90.339C98.317 81.555 91.17 74.41 82.387 74.41Z" fill="#02020C"/>
<path d="M66.212 87.229L64.043 87.199V83.544L67.015 83.574L66.212 87.229Z" fill="#02020C"/>
<path d="M65.432 85.4C64.041 85.034 62.758 84.441 61.506 83.782C60.261 83.108 59.042 82.381 57.921 81.447L58.016 81.248C59.447 81.53 60.781 82.017 62.088 82.559C63.389 83.115 64.658 83.737 65.819 84.587L65.432 85.4Z" fill="#02020C"/>
<path d="M123.415 107.487C113.96 107.487 106.267 99.794 106.267 90.339C106.267 80.884 113.959 73.191 123.415 73.191C132.87 73.191 140.563 80.884 140.563 90.339C140.563 99.794 132.871 107.487 123.415 107.487ZM123.415 74.41C114.631 74.41 107.485 81.555 107.485 90.339C107.485 99.123 114.631 106.268 123.415 106.268C132.199 106.268 139.345 99.123 139.345 90.339C139.345 81.555 132.199 74.41 123.415 74.41Z" fill="#02020C"/>
<path d="M139.59 87.229L141.759 87.199V83.544L138.787 83.574L139.59 87.229Z" fill="#02020C"/>
<path d="M139.983 84.586C141.144 83.737 142.413 83.115 143.714 82.558C145.021 82.016 146.355 81.5289 147.786 81.2469L147.881 81.446C146.76 82.38 145.541 83.107 144.296 83.781C143.044 84.44 141.761 85.033 140.37 85.399L139.983 84.586Z" fill="#02020C"/>
<path d="M106.966 87.999C106.897 87.999 106.827 87.987 106.759 87.962C102.299 86.347 99.169 87.914 99.138 87.93C98.838 88.082 98.473 87.967 98.317 87.669C98.162 87.371 98.276 87.005 98.574 86.849C98.72 86.774 102.185 85.007 107.174 86.816C107.49 86.93 107.654 87.28 107.54 87.596C107.449 87.845 107.215 87.999 106.966 87.999Z" fill="#02020C"/>
<path d="M97.345 122.176C99.968 123.584 103.157 124.014 106.13 123.31C106.2 123.293 106.271 123.337 106.288 123.407C106.304 123.474 106.264 123.542 106.199 123.563C103.217 124.485 99.869 124.29 96.953 122.973C96.729 122.873 96.63 122.61 96.73 122.386C96.83 122.162 97.093 122.063 97.317 122.163C97.326 122.166 97.336 122.172 97.345 122.176Z" fill="#02020C"/>
<path d="M61.191 100.678C61.161 100.665 61.134 100.633 61.104 100.615C61.14 100.687 61.171 100.725 61.191 100.678Z" fill="#02020C"/>
<path d="M144.063 100.615C144.034 100.633 144.006 100.665 143.976 100.678C143.996 100.725 144.027 100.687 144.063 100.615Z" fill="#02020C"/>
<path d="M152.756 42.86C152.283 40.672 151.664 38.546 150.59 36.388C148.496 32.178 145.987 28.141 142.78 24.702C136.602 18.077 128.04 13.962 119.162 12.162C110.284 10.362 101.079 10.759 92.132 12.178C86.438 13.081 80.835 14.983 75.541 17.253C70.344 19.481 65.472 22.474 61.168 26.144C62.944 25.853 64.719 25.562 66.495 25.271C66.398 25.37 66.301 25.468 66.205 25.568C62.676 27.163 59.578 29.706 57.356 32.878C55.256 35.876 53.948 39.361 52.997 42.896C51.423 48.752 50.778 54.858 51.096 60.914C51.716 59.03 52.763 57.289 54.13 55.852C54.55 67.492 56.536 79.049 58.518 90.543C58.811 92.242 59.557 99.67 61.104 100.615C60.742 99.871 59.687 93.457 59.476 93.943C61.476 86.229 63.967 66.901 64.519 65.211C65.071 63.521 66.286 61.931 68 61.458C66.575 57.695 68.084 61.436 66.427 57.62C68.448 53.038 70.406 50.787 75.123 49.107C77.537 48.247 80.048 47.75 82.596 47.455C82.921 47.489 83.246 47.523 83.571 47.558C76.82 52.339 71.35 58.877 67.717 66.302C65.705 70.414 64.246 74.801 63.432 79.308C62.607 83.877 61.753 88.384 61.757 93.043C61.767 104.468 64.473 115.716 67.92 126.544C70.532 134.749 73.969 143.328 81.051 148.225C72.504 133.028 67.503 115.851 66.556 98.441C66.035 88.86 66.789 78.968 70.842 70.27C74.112 63.253 79.8 57.06 87.044 54.093C88.647 53.436 90.366 52.918 92.122 52.475C94.708 51.822 97.378 51.332 99.884 50.8C100.836 50.598 101.792 50.415 102.748 50.233C103.704 50.415 104.66 50.598 105.612 50.8C108.119 51.332 110.788 51.822 113.374 52.475C115.13 52.918 116.849 53.436 118.452 54.093C125.696 57.06 131.384 63.253 134.654 70.27C138.707 78.968 139.461 88.859 138.94 98.441C137.993 115.851 132.992 133.028 124.445 148.225C131.527 143.328 134.964 134.749 137.575 126.544C141.022 115.716 143.729 104.469 143.738 93.043C143.742 88.385 142.888 83.877 142.063 79.308C141.25 74.801 139.791 70.415 137.778 66.302C135.402 61.446 132.232 56.974 128.444 53.114C128.536 53.164 128.625 53.217 128.717 53.266C131.591 54.82 134.546 56.219 137.554 57.494C137.698 57.821 137.844 58.153 137.996 58.496C137.313 61.502 138.035 58.614 137.165 61.458C138.879 61.931 140.094 63.521 140.646 65.211C141.198 66.901 143.689 86.229 145.689 93.943C145.478 93.457 144.423 99.871 144.061 100.615C145.609 99.67 146.355 92.242 146.647 90.543C148.372 80.535 150.098 70.48 150.794 60.364C151.067 58.851 151.28 57.326 151.406 55.793C152.799 57.241 153.862 59.005 154.491 60.914C154.725 56.446 154.435 51.952 153.636 47.55C153.344 45.935 153.085 44.383 152.756 42.86ZM130.164 49.154C133.44 50.355 135.005 52.274 136.352 54.911C134.144 53.155 132.078 51.227 130.164 49.154Z" fill="#02020C"/>
</g>
</svg>
