<svg width="205" height="205" viewBox="0 0 205 205" fill="none" xmlns="http://www.w3.org/2000/svg">
<path d="M102.044 204.088C158.401 204.088 204.088 158.401 204.088 102.044C204.088 45.6866 158.401 0 102.044 0C45.6867 0 0 45.6866 0 102.044C0 158.401 45.6867 204.088 102.044 204.088Z" fill="#F6EFE9"/>
<mask id="mask0_81_272" style="mask-type:luminance" maskUnits="userSpaceOnUse" x="0" y="0" width="205" height="205">
<path d="M102.044 204.088C158.401 204.088 204.088 158.401 204.088 102.044C204.088 45.6866 158.401 0 102.044 0C45.6867 0 0 45.6866 0 102.044C0 158.401 45.6867 204.088 102.044 204.088Z" fill="white"/>
</mask>
<g mask="url(#mask0_81_272)">
<path d="M204.647 204.705C204.555 204.154 201.803 188.088 192.479 184.057C192.479 184.057 173.863 176.747 169.746 175.677C169.746 175.677 163.919 173.459 159.623 171.402C157.471 170.371 156.196 169.341 155.344 168.251C154.566 167.256 150.593 163.909 150.593 163.909C150.593 163.909 124.817 181.917 101.905 181.204C101.905 181.204 78.635 181.739 52.859 163.731L48.026 167.653L48.921 168.901C48.921 168.901 36.749 176.033 24.756 178.707C24.756 178.707 6.49797 184.947 4.17097 189.583L-0.623016 204.703H204.647V204.705Z" fill="#3A6A83"/>
<path d="M112.739 186.927C105.586 188.353 98.23 188.268 91.057 187.021C77.983 185.212 64.959 180.2 54.631 172.117C53.236 171.203 51.864 170.251 50.478 169.322C50.356 169.241 50.253 169.15 50.157 169.057C49.811 168.827 49.4659 168.595 49.1229 168.361C45.1179 171.073 40.756 173.255 36.187 174.84C34.998 175.252 33.7949 175.625 32.5799 175.955C31.1729 176.337 31.091 176.763 30.652 178.164C29.925 180.488 29.575 182.932 29.627 185.367C29.683 187.985 30.1859 190.643 31.4819 192.919C33.5019 196.465 37.216 198.718 41.004 200.236C47.051 202.66 53.6029 203.588 60.1109 203.879C68.3149 204.245 76.558 203.566 84.604 201.932C98.924 199.025 112.629 193.104 124.561 184.671C125.3 184.149 126.031 183.617 126.756 183.075C122.164 184.694 117.391 185.999 112.739 186.927Z" fill="#224656"/>
<path d="M177.73 180.932C180.525 184.093 184.527 185.871 188.43 187.474C189.171 187.778 189.915 188.08 190.691 188.276C193.358 188.948 196.231 188.325 198.882 189.053C199.282 189.163 199.722 189.349 199.858 189.741C195.9 187.038 193.961 184.837 189.618 182.81C187.447 181.796 182.994 180.694 180.748 179.859C178.746 179.115 176.228 177.874 174.111 177.763C175.618 178.583 176.591 179.643 177.73 180.932Z" fill="#224656"/>
<path d="M27.818 180.884C24.892 183.924 20.818 185.531 16.851 186.967C16.098 187.239 15.341 187.51 14.558 187.672C11.865 188.23 9.02197 187.486 6.34097 188.102C5.93697 188.195 5.48898 188.362 5.33698 188.748C9.40597 186.215 13.682 184.016 18.107 182.174C20.319 181.253 22.569 180.422 24.849 179.683C26.881 179.024 29.449 177.891 31.569 177.869C30.027 178.627 29.01 179.645 27.818 180.884Z" fill="#224656"/>
<path d="M143.586 112.941C144.088 112.718 144.393 112.302 144.647 111.886C145.151 111.057 145.459 110.144 145.717 109.281C146.004 108.29 146.237 107.412 146.429 106.599C146.697 105.491 146.943 104.363 147.181 103.271C147.714 100.824 148.266 98.294 149.09 95.911C149.371 95.083 149.709 94.23 150.095 93.378C150.38 92.755 150.696 92.126 151.001 91.517C151.103 91.315 151.204 91.111 151.306 90.907C152.113 89.285 152.926 87.542 153.232 85.62C153.396 84.598 153.399 83.624 153.239 82.724C153.025 81.524 152.573 80.645 151.858 80.035C151.652 79.859 151.428 79.736 151.178 79.603C150.932 79.487 150.677 79.399 150.427 79.344C150.195 79.293 149.947 79.268 149.692 79.268C149.424 79.268 149.146 79.296 148.864 79.352C148.127 79.501 147.478 79.775 146.905 80.016L146.527 80.175L146.612 79.774L146.998 77.964C147.156 77.199 147.231 76.479 147.311 75.717L147.346 75.389C147.425 74.533 147.485 73.67 147.523 72.827C147.678 69.45 147.516 66 147.043 62.574C146.564 59.1 145.707 55.747 144.496 52.607C143.205 49.293 141.515 46.262 139.473 43.598C137.337 40.825 134.824 38.431 132.005 36.482C129.352 34.671 126.343 33.167 122.809 31.885C122.483 31.785 122.147 31.679 121.812 31.573C120.535 31.17 119.215 30.753 117.886 30.494L116.626 30.205L116.564 30.19C116.18 30.1 115.783 30.007 115.39 29.961L112.845 29.587C112.697 29.567 112.546 29.544 112.395 29.521C112.131 29.48 111.857 29.438 111.59 29.417L110.314 29.316L107.764 29.115C107.483 29.085 107.241 29.082 106.997 29.082H106.91H106.822C106.74 29.082 106.657 29.082 106.572 29.08L105.394 29.092L103.29 29.143C103.293 29.169 103.295 29.196 103.294 29.221L103.277 29.709L102.93 29.365L102.588 29.026C102.525 29.027 102.463 29.028 102.4 29.028C102.326 29.028 102.252 29.027 102.178 29.026L101.992 29.022V29.037L101.782 29.04C94.374 29.158 87.959 30.2 82.17 32.225C78.7 33.529 75.734 35.04 73.107 36.843C70.342 38.758 67.864 41.122 65.743 43.871C61.834 48.94 59.213 55.425 58.165 62.626C57.674 66.029 57.493 69.457 57.627 72.815C57.701 74.427 57.8 76.151 58.117 77.921L58.454 79.571L58.534 79.96L58.165 79.812C57.779 79.657 57.263 79.465 56.694 79.35C56.414 79.295 56.135 79.266 55.867 79.266C55.612 79.266 55.364 79.292 55.132 79.343C54.883 79.398 54.627 79.487 54.373 79.606C54.132 79.734 53.908 79.857 53.702 80.033C52.987 80.643 52.535 81.523 52.321 82.723C52.161 83.623 52.163 84.597 52.328 85.618C52.634 87.54 53.447 89.284 54.254 90.905C54.356 91.11 54.458 91.313 54.56 91.516C54.865 92.124 55.181 92.753 55.465 93.375C55.851 94.228 56.189 95.081 56.471 95.91C57.294 98.292 57.846 100.822 58.379 103.269C58.617 104.36 58.863 105.489 59.131 106.595C59.324 107.409 59.557 108.287 59.844 109.28C60.102 110.141 60.41 111.054 60.914 111.883C61.168 112.298 61.473 112.714 61.977 112.938C62.233 113.049 62.493 113.085 62.713 113.106L63.41 113.153L65.314 113.273L65.476 113.283L65.51 113.442L66.409 117.658C66.783 119.365 67.462 120.971 68.427 122.429C68.906 123.148 69.456 123.827 70.061 124.448C70.336 124.736 70.646 125.025 71.01 125.336C71.224 125.52 71.433 125.692 71.643 125.863C71.759 125.958 71.875 126.053 71.991 126.15L73.384 127.291L73.44 127.337L73.457 127.407L73.515 127.649C73.86 129.082 74.186 130.435 74.367 131.826C74.525 133.016 74.593 134.202 74.665 135.457C74.684 135.785 74.703 136.114 74.723 136.445C74.772 137.28 74.822 138.115 74.873 138.949C75.009 141.193 75.149 143.514 75.256 145.797C75.325 147.2 75.383 148.658 75.429 150.132L75.431 150.202L75.391 150.26C73.086 153.6 70.42 156.517 67.466 158.93C65.893 160.221 64.181 161.422 62.378 162.497C60.611 163.539 58.795 164.458 56.975 165.231L57.099 165.606C57.604 166.018 62.184 169.679 69.655 173.295C76.934 176.818 88.525 181.017 102.41 181.017C118.004 181.017 133.265 175.828 147.766 165.597L147.888 165.23C146.068 164.456 144.251 163.537 142.486 162.496C140.682 161.42 138.97 160.22 137.397 158.928C134.393 156.473 131.688 153.501 129.359 150.094L129.319 150.036L129.322 149.966C129.374 148.497 129.445 147.022 129.531 145.582C129.624 143.946 129.75 142.284 129.872 140.678C129.98 139.256 130.091 137.786 130.18 136.338C130.214 135.8 130.235 135.255 130.255 134.728C130.292 133.748 130.33 132.735 130.458 131.766C130.582 130.623 130.848 129.502 131.129 128.314C131.199 128.02 131.268 127.725 131.336 127.428L131.352 127.357L131.408 127.311L132.853 126.125C132.968 126.029 133.084 125.934 133.2 125.839C133.409 125.667 133.618 125.496 133.831 125.312C134.216 124.982 134.518 124.701 134.779 124.428C135.386 123.809 135.937 123.132 136.418 122.415C137.385 120.962 138.068 119.36 138.446 117.654L139.348 113.485L139.382 113.327L139.543 113.317L142.155 113.152L142.856 113.104C143.068 113.089 143.328 113.053 143.586 112.941Z" fill="#A87059"/>
<path d="M131.224 127.83C131.224 127.83 124.092 165.51 93.9 161.35C93.9 161.35 80.587 158.854 75.595 143.045L74.406 127.949C74.406 127.949 85.321 136.574 86.985 138C88.649 139.426 96.97 144.775 102.319 145.132C102.319 145.132 112.749 143.706 121.843 134.702L131.224 127.83Z" fill="#724B3D"/>
<path d="M53.781 86.719C55.087 87.845 57.416 87.276 58.479 88.633C58.718 88.937 58.8569 89.306 58.9849 89.671C60.4179 93.754 60.8979 98.323 63.5679 101.727C61.6689 95.814 61.5659 89.471 60.0369 83.452C59.9159 82.976 59.783 82.495 59.522 82.08C58.84 80.993 57.431 80.588 56.147 80.612C55.601 80.622 55.041 80.699 54.566 80.968C52.824 81.955 52.222 85.375 53.781 86.719Z" fill="#724B3D"/>
<path d="M151.463 86.719C150.157 87.845 147.828 87.276 146.765 88.633C146.526 88.937 146.387 89.306 146.259 89.671C144.826 93.754 144.346 98.323 141.676 101.727C143.575 95.814 143.678 89.471 145.207 83.452C145.328 82.976 145.461 82.495 145.722 82.08C146.404 80.993 147.813 80.588 149.097 80.612C149.643 80.622 150.203 80.699 150.678 80.968C152.421 81.955 153.022 85.375 151.463 86.719Z" fill="#724B3D"/>
<path d="M113.473 79.977C114.812 79.865 116.147 79.68 117.478 79.495C118.199 79.395 118.921 79.295 119.642 79.195C120.23 79.114 120.713 78.865 121.28 78.693C122.65 78.278 124.019 77.839 125.431 77.585C127.13 77.28 128.865 77.249 130.591 77.219C132.226 77.19 135.282 77.868 136.914 77.966C134.106 76.891 129.878 75.11 127.07 74.035C126.682 73.886 126.287 73.736 125.873 73.699C125.395 73.656 124.918 73.766 124.451 73.875C119.887 74.942 115.312 76.012 110.886 77.554C110.504 77.687 109.993 77.778 109.722 78.081C109.432 78.405 109.254 78.972 109.43 79.384C109.555 79.679 109.841 79.882 110.146 79.98C110.451 80.078 110.777 80.086 111.097 80.085C111.89 80.084 112.682 80.044 113.473 79.977Z" fill="#724B3D"/>
<path d="M99.096 104.304L97.469 85.16L95.092 79.655L79.139 75.838L68.816 77.277L80.577 72.147L97.156 78.278L99.471 83.471L99.659 98.611L99.096 104.304Z" fill="#724B3D"/>
<path d="M101.052 135.156L104.789 133.177L104.173 136.255L101.621 136.456L101.052 135.156Z" fill="#724B3D"/>
<path d="M109.992 116.031C109.992 116.031 107.314 116.242 106.559 115.926L102.474 116.345L98.389 115.926C97.634 116.243 94.956 116.031 94.956 116.031C99.454 118.896 102.147 118.525 102.474 118.465C102.8 118.524 105.493 118.895 109.992 116.031Z" fill="#724B3D"/>
<path d="M121.516 185.399C121.516 185.399 132.333 181.595 136.493 176.008C136.493 176.008 101.665 193.838 63.747 173.75L51.028 165.667L53.524 163.527C53.524 163.527 77.297 181.713 103.567 181.238C103.567 181.238 132.244 179.268 150.593 163.909L156.288 167.868C156.288 167.868 141.366 180.168 121.516 185.399Z" fill="#02020C"/>
<path d="M97.177 177.422C98.616 178.392 100.41 178.824 102.166 178.793C103.922 178.75 105.696 178.244 107.094 177.217C107.238 177.111 107.441 177.142 107.547 177.286C107.653 177.43 107.622 177.633 107.478 177.739C107.453 177.758 107.422 177.773 107.394 177.783C105.674 178.404 103.933 178.763 102.167 178.793C100.401 178.835 98.647 178.549 96.902 178C96.731 177.948 96.635 177.767 96.687 177.596C96.739 177.425 96.92 177.329 97.091 177.381C97.12 177.39 97.151 177.406 97.177 177.422Z" fill="#02020C"/>
<path d="M118.215 175.224C119.457 175.097 120.699 175.035 121.94 174.974C123.182 174.934 124.424 174.893 125.665 174.881C126.907 174.886 128.149 174.857 129.39 174.891C130.632 174.911 131.874 174.944 133.115 175.022C133.292 175.033 133.426 175.186 133.415 175.363C133.405 175.526 133.274 175.653 133.115 175.663C131.873 175.741 130.631 175.774 129.39 175.794C128.148 175.828 126.906 175.799 125.665 175.804C124.423 175.792 123.181 175.751 121.94 175.711C120.698 175.65 119.456 175.588 118.215 175.461C118.15 175.454 118.102 175.396 118.109 175.33C118.114 175.274 118.16 175.23 118.215 175.224Z" fill="#02020C"/>
<path d="M87.385 175.461C86.342 175.587 85.3 175.65 84.257 175.711C83.214 175.765 82.171 175.795 81.129 175.807C79.043 175.826 76.958 175.81 74.872 175.663C74.695 175.651 74.562 175.497 74.574 175.32C74.585 175.158 74.715 175.033 74.872 175.022C76.958 174.876 79.043 174.859 81.129 174.878C82.172 174.89 83.215 174.919 84.257 174.974C85.3 175.035 86.343 175.097 87.385 175.224C87.45 175.232 87.497 175.292 87.489 175.357C87.483 175.413 87.438 175.455 87.385 175.461Z" fill="#02020C"/>
<path d="M95.973 124.144L106.511 123.65L106.25 123.702L109.619 122.828C109.732 122.799 109.848 122.867 109.877 122.98C109.901 123.074 109.859 123.169 109.779 123.216L106.774 124.973C106.705 125.013 106.63 125.03 106.556 125.027L106.513 125.025L95.974 124.562C95.859 124.557 95.77 124.46 95.775 124.344C95.779 124.235 95.866 124.149 95.973 124.144Z" fill="#02020C"/>
<path d="M74.119 127.055C74.712 128.509 75.273 130.02 75.576 131.617C75.891 133.206 76.04 134.795 76.147 136.352C76.392 139.479 76.53 142.617 76.588 145.758C76.74 152.035 76.509 158.351 75.585 164.567C75.568 164.679 75.464 164.757 75.352 164.74C75.247 164.725 75.173 164.631 75.177 164.528C75.3 161.401 75.349 158.281 75.33 155.163C75.278 152.044 75.208 148.928 75.056 145.812L74.508 136.464C74.403 134.899 74.366 133.358 74.162 131.857C73.953 130.363 73.597 128.869 73.22 127.349C73.157 127.095 73.312 126.838 73.566 126.775C73.798 126.716 74.032 126.84 74.119 127.055Z" fill="#02020C"/>
<path d="M56.708 165.116C58.63 164.296 60.496 163.385 62.268 162.321C64.047 161.271 65.745 160.09 67.33 158.771C68.945 157.487 70.411 156.027 71.801 154.5C73.183 152.963 74.44 151.311 75.604 149.579L76.226 149.933C75.308 151.861 74.131 153.666 72.788 155.338C71.453 157.019 69.902 158.521 68.262 159.907C66.592 161.258 64.797 162.457 62.897 163.453C60.99 164.434 58.988 165.233 56.914 165.738L56.708 165.116Z" fill="#02020C"/>
<path d="M93.368 144.804C94.055 147.003 94.915 149.141 95.992 151.169C97.055 153.204 98.331 155.12 99.739 156.941C99.813 157.037 99.796 157.174 99.7 157.248C99.609 157.318 99.48 157.305 99.404 157.222C97.829 155.495 96.514 153.535 95.429 151.463C94.358 149.383 93.514 147.182 92.991 144.906C92.967 144.801 93.033 144.696 93.138 144.672C93.238 144.649 93.338 144.708 93.368 144.804Z" fill="#02020C"/>
<path d="M97.397 114.534C98.202 115.013 99.056 115.396 99.928 115.672C100.801 115.945 101.7 116.112 102.595 116.108C103.488 116.143 104.379 115.999 105.222 115.708C106.083 115.459 106.863 114.994 107.655 114.537L107.689 114.518C107.84 114.431 108.033 114.483 108.12 114.634C108.201 114.774 108.162 114.951 108.035 115.045C107.646 115.335 107.263 115.645 106.838 115.891C106.401 116.117 105.97 116.361 105.492 116.506C104.563 116.86 103.549 116.969 102.563 116.923C101.576 116.851 100.607 116.618 99.72 116.219C98.836 115.814 98.012 115.296 97.327 114.619C97.305 114.598 97.305 114.563 97.326 114.541C97.344 114.522 97.376 114.522 97.397 114.534Z" fill="#02020C"/>
<path d="M93.799 108.417C93.264 109.38 92.796 110.378 92.4 111.403C92.204 111.928 91.968 112.417 92.181 112.857C92.375 113.301 92.749 113.744 93.085 114.153C93.777 114.966 94.646 115.654 95.642 115.827C96.641 116.006 97.688 115.716 98.737 115.408C98.953 115.344 99.18 115.467 99.244 115.682C99.308 115.897 99.185 116.125 98.969 116.189C98.962 116.191 98.953 116.193 98.947 116.195C97.879 116.448 96.705 116.738 95.509 116.468C94.307 116.192 93.388 115.352 92.702 114.467C92.365 114.006 92.021 113.583 91.792 113.001C91.683 112.712 91.678 112.353 91.773 112.067C91.863 111.776 91.981 111.533 92.091 111.276C92.542 110.258 93.063 109.273 93.649 108.33C93.674 108.289 93.728 108.277 93.769 108.302C93.809 108.325 93.822 108.376 93.799 108.417Z" fill="#02020C"/>
<path d="M99.487 83.308C99.697 85.063 99.812 86.822 99.91 88.583C99.993 90.344 100.037 92.107 100.053 93.871C100.038 95.635 100.034 97.4 99.926 99.164C99.825 100.926 99.689 102.695 99.343 104.436C99.332 104.492 99.278 104.528 99.222 104.517C99.171 104.507 99.136 104.459 99.139 104.408C99.242 102.655 99.257 100.9 99.265 99.144C99.258 97.388 99.286 95.632 99.25 93.874L99.236 88.599C99.246 86.839 99.251 85.079 99.312 83.315C99.313 83.266 99.354 83.227 99.404 83.229C99.446 83.231 99.482 83.265 99.487 83.308Z" fill="#02020C"/>
<path d="M58.933 81.4259C58.042 81.0649 57.242 80.6619 56.467 80.5049C55.705 80.3339 54.991 80.4829 54.429 80.9259C53.898 81.3519 53.56 82.1169 53.412 82.9279C53.254 83.7469 53.261 84.6059 53.386 85.4599C53.883 88.9159 56.261 91.9919 57.336 95.6229C58.509 99.1889 59.055 102.862 59.867 106.428C60.303 108.191 60.65 110.047 61.496 111.54C61.709 111.909 61.957 112.214 62.242 112.34C62.525 112.475 62.991 112.48 63.455 112.521L66.209 112.734L66.152 113.544L63.395 113.37C62.948 113.325 62.464 113.369 61.89 113.136C61.32 112.883 60.984 112.41 60.731 111.997C60.219 111.153 59.906 110.235 59.638 109.342C59.379 108.447 59.136 107.55 58.922 106.648C58.05 103.047 57.452 99.4079 56.267 95.9809C55.702 94.2559 54.901 92.6609 54.061 91.0019C53.239 89.3499 52.424 87.5929 52.115 85.6529C51.96 84.6889 51.932 83.6809 52.109 82.6859C52.285 81.7049 52.66 80.6409 53.562 79.8709C54.432 79.1279 55.702 78.9029 56.736 79.1399C57.775 79.3499 58.634 79.7949 59.451 80.1099L58.933 81.4259Z" fill="#02020C"/>
<path d="M53.644 85.838C53.226 85.109 52.829 84.231 53.047 83.305C53.143 82.856 53.432 82.415 53.836 82.162C54.232 81.904 54.674 81.766 55.127 81.698C56.037 81.569 56.96 81.766 57.78 82.128C58.604 82.49 59.334 83 60.027 83.511C60.208 83.644 60.246 83.899 60.113 84.079C59.98 84.26 59.725 84.298 59.545 84.165C59.538 84.16 59.531 84.154 59.525 84.149C58.877 83.606 58.223 83.091 57.5 82.718C56.784 82.347 55.98 82.127 55.184 82.19C54.399 82.25 53.573 82.599 53.374 83.391C53.135 84.161 53.43 85.006 53.803 85.754C53.825 85.798 53.807 85.852 53.763 85.874C53.72 85.896 53.667 85.879 53.644 85.838Z" fill="#02020C"/>
<path d="M61.529 90.9849C60.654 91.6949 60.116 92.7839 60.031 93.8899C59.93 95.0079 60.379 96.0799 61.029 97.0059C61.672 97.9459 62.483 98.7959 63.153 99.8049C63.82 100.816 64.3 101.953 64.56 103.145C64.608 103.364 64.469 103.581 64.25 103.629C64.031 103.677 63.814 103.538 63.766 103.319C63.765 103.315 63.764 103.308 63.763 103.304C63.565 102.204 63.16 101.135 62.574 100.173C61.986 99.2079 61.206 98.3259 60.562 97.3129C59.912 96.3219 59.44 95.0839 59.601 93.8489C59.741 92.6319 60.369 91.4799 61.341 90.7459C61.408 90.6949 61.504 90.7089 61.554 90.7759C61.604 90.8399 61.592 90.9329 61.529 90.9849Z" fill="#02020C"/>
<path d="M56.67 87.116C56.606 86.83 56.523 86.497 56.67 86.166C56.82 85.839 57.145 85.655 57.453 85.565C58.083 85.391 58.761 85.487 59.345 85.782C59.928 86.066 60.421 86.615 60.661 87.218C60.906 87.813 61.075 88.361 61.283 88.93C61.36 89.141 61.252 89.375 61.041 89.452C60.83 89.529 60.596 89.421 60.519 89.21C60.515 89.198 60.511 89.187 60.508 89.175L60.506 89.166C60.355 88.595 60.22 87.984 60.056 87.455C59.895 86.929 59.574 86.504 59.107 86.209C58.65 85.92 58.074 85.785 57.534 85.883C57.27 85.935 57.015 86.059 56.891 86.277C56.762 86.495 56.791 86.796 56.834 87.086C56.841 87.131 56.81 87.173 56.765 87.18C56.72 87.186 56.68 87.158 56.67 87.116Z" fill="#02020C"/>
<path d="M146.108 80.1129C146.925 79.7979 147.785 79.3529 148.824 79.1429C149.857 78.9059 151.128 79.1309 151.998 79.8739C152.899 80.6429 153.275 81.7069 153.451 82.6889C153.628 83.6839 153.6 84.6919 153.445 85.6559C153.136 87.5959 152.321 89.3529 151.499 91.0049C150.659 92.6629 149.858 94.2579 149.293 95.9839C148.108 99.4109 147.51 103.05 146.638 106.651C146.425 107.553 146.181 108.45 145.922 109.345C145.655 110.238 145.342 111.156 144.829 112C144.576 112.413 144.24 112.886 143.67 113.139C143.096 113.371 142.612 113.328 142.165 113.373L139.408 113.547L139.351 112.737L142.105 112.524C142.568 112.483 143.035 112.478 143.317 112.343C143.603 112.217 143.85 111.912 144.063 111.543C144.909 110.05 145.256 108.193 145.692 106.431C146.504 102.865 147.05 99.1919 148.223 95.6259C149.298 91.9949 151.676 88.9189 152.173 85.4629C152.298 84.6089 152.305 83.7499 152.147 82.9309C151.999 82.1209 151.661 81.3549 151.13 80.9289C150.567 80.4849 149.854 80.3359 149.092 80.5079C148.317 80.6649 147.517 81.0679 146.626 81.4289L146.108 80.1129Z" fill="#02020C"/>
<path d="M151.759 85.7549C152.133 85.0069 152.428 84.1619 152.189 83.3919C151.99 82.5999 151.164 82.2519 150.379 82.1909C149.583 82.1279 148.779 82.3479 148.063 82.7189C147.34 83.0919 146.686 83.6069 146.038 84.1499C145.866 84.2939 145.61 84.2719 145.466 84.0999C145.322 83.9279 145.344 83.6719 145.516 83.5279C145.522 83.5229 145.53 83.5169 145.536 83.5119C146.229 83.0009 146.959 82.4909 147.783 82.1289C148.603 81.7669 149.526 81.5699 150.436 81.6989C150.889 81.7669 151.332 81.9049 151.727 82.1629C152.131 82.4159 152.42 82.8569 152.516 83.3059C152.734 84.2319 152.337 85.1099 151.919 85.8389C151.895 85.8819 151.84 85.8979 151.797 85.8739C151.753 85.8499 151.738 85.7969 151.759 85.7549Z" fill="#02020C"/>
<path d="M144.219 90.7449C145.191 91.4789 145.819 92.6309 145.959 93.8479C146.12 95.0829 145.648 96.3209 144.998 97.3119C144.355 98.3249 143.575 99.2069 142.986 100.172C142.4 101.134 141.995 102.202 141.797 103.303C141.757 103.524 141.546 103.671 141.325 103.631C141.104 103.591 140.957 103.38 140.997 103.159C140.998 103.155 140.999 103.148 141 103.144C141.259 101.953 141.739 100.815 142.407 99.8039C143.077 98.7959 143.888 97.9449 144.531 97.0049C145.181 96.0789 145.63 95.0069 145.529 93.8889C145.444 92.7829 144.906 91.6939 144.031 90.9839C143.966 90.9309 143.955 90.8349 144.008 90.7699C144.061 90.7069 144.154 90.6959 144.219 90.7449Z" fill="#02020C"/>
<path d="M148.729 87.0859C148.772 86.7949 148.8 86.4939 148.671 86.2769C148.548 86.0589 148.292 85.9339 148.028 85.8829C147.489 85.7849 146.912 85.9199 146.455 86.2089C145.988 86.5039 145.667 86.9289 145.506 87.4549C145.342 87.9839 145.207 88.5949 145.056 89.1659L145.054 89.1749C144.996 89.3919 144.774 89.5209 144.557 89.4639C144.34 89.4069 144.21 89.1839 144.268 88.9669C144.271 88.9549 144.275 88.9429 144.279 88.9319C144.487 88.3629 144.656 87.8149 144.901 87.2199C145.141 86.6159 145.634 86.0679 146.217 85.7839C146.8 85.4879 147.479 85.3929 148.109 85.5669C148.416 85.6569 148.742 85.8399 148.892 86.1679C149.039 86.4989 148.956 86.8319 148.892 87.1179C148.882 87.1619 148.838 87.1899 148.793 87.1799C148.75 87.1689 148.723 87.1279 148.729 87.0859Z" fill="#02020C"/>
<path d="M68.938 76.7039L78.629 70.4519C78.997 70.2149 79.431 70.1629 79.822 70.2729L80.096 70.3519C81.497 70.7539 82.884 71.2009 84.266 71.6679C85.647 72.1359 87.02 72.6309 88.387 73.1479C89.757 73.6549 91.115 74.1969 92.475 74.7389C93.835 75.2769 95.171 75.8969 96.373 76.9679C96.558 77.1329 96.574 77.4169 96.409 77.6009C96.337 77.6819 96.241 77.7309 96.141 77.7459C94.549 77.9849 93.092 77.7729 91.659 77.4789C90.225 77.1889 88.791 76.8989 87.367 76.5739C85.94 76.2589 84.52 75.9219 83.108 75.5579C81.696 75.1929 80.29 74.8079 78.898 74.3779L80.365 74.2779L69.275 77.4439C69.057 77.5059 68.83 77.3799 68.767 77.1619C68.715 76.9829 68.791 76.7989 68.938 76.7039Z" fill="#02020C"/>
<path d="M102.388 29.513C102.319 29.447 102.267 29.322 102.27 29.224L102.676 29.625C102.512 29.628 102.348 29.628 102.184 29.623L102.589 29.22V29.227L102.586 29.629L102.186 29.63C95.463 29.651 88.697 30.5189 82.37 32.7729C79.236 33.9569 76.222 35.458 73.486 37.379C70.757 39.308 68.352 41.6729 66.343 44.3289C62.309 49.6599 60.018 56.155 59.095 62.762C58.639 66.074 58.475 69.4319 58.63 72.7729C58.715 74.4339 58.836 76.131 59.135 77.726L60.183 82.6889C61.598 89.3029 62.946 95.9299 64.295 102.557L66.324 112.497L67.339 117.464C67.672 119.05 68.301 120.574 69.185 121.935C69.629 122.614 70.137 123.252 70.698 123.838C71.252 124.427 71.886 124.939 72.542 125.491L76.437 128.737C79.04 130.893 81.652 133.038 84.297 135.138C86.949 137.216 89.591 139.361 92.42 141.113C95.288 142.805 98.463 143.994 101.73 144.641L101.652 144.633L103.211 144.634L103.133 144.642C106.401 144 109.579 142.817 112.451 141.128C115.278 139.371 117.924 137.232 120.577 135.154C123.223 133.055 125.837 130.912 128.44 128.757L132.333 125.509C133.667 124.447 134.796 123.327 135.681 121.94C136.559 120.574 137.18 119.048 137.505 117.462L138.498 112.49L140.483 102.542L144.462 82.6489L145.469 77.679C145.753 76.11 145.865 74.412 145.939 72.762C146.073 69.438 145.89 66.0999 145.417 62.8139C144.951 59.5259 144.104 56.302 142.921 53.221C141.744 50.138 140.168 47.211 138.185 44.586C136.192 41.974 133.858 39.6029 131.168 37.6769C128.474 35.7579 125.503 34.238 122.404 33.019C120.825 32.489 119.261 31.894 117.626 31.53C116.813 31.336 116.014 31.077 115.186 30.943L112.711 30.504C111.889 30.335 111.054 30.2469 110.219 30.1619L107.714 29.889C105.97 29.768 104.118 29.666 102.388 29.513ZM102.963 28.9389C104.612 28.9249 106.144 28.8759 107.777 28.9679L110.322 29.1899C111.171 29.2579 112.02 29.33 112.861 29.484L115.39 29.878C116.235 30 117.059 30.2409 117.896 30.4119C119.579 30.7349 121.202 31.293 122.844 31.791C126.075 32.946 129.211 34.43 132.081 36.374C134.937 38.328 137.509 40.73 139.62 43.489C141.741 46.241 143.429 49.313 144.694 52.534C145.945 55.763 146.785 59.138 147.256 62.548C147.727 65.959 147.895 69.4049 147.738 72.84C147.648 74.566 147.535 76.253 147.21 78.012L146.152 82.976L141.872 102.823L139.727 112.744L138.653 117.707C138.271 119.429 137.568 121.077 136.594 122.541C136.104 123.271 135.547 123.956 134.932 124.583C134.318 125.218 133.63 125.765 132.988 126.297L129.063 129.517C126.438 131.653 123.802 133.778 121.131 135.861C118.444 137.927 115.8 140.037 112.864 141.83C109.906 143.574 106.655 144.791 103.289 145.458L103.251 145.465H103.21L101.651 145.466H101.611L101.573 145.459C98.206 144.797 94.952 143.585 91.989 141.844C89.054 140.046 86.406 137.942 83.719 135.875C81.047 133.793 78.41 131.67 75.783 129.535L71.86 126.313C71.219 125.781 70.529 125.233 69.918 124.594C69.305 123.963 68.75 123.276 68.263 122.543C67.294 121.074 66.599 119.424 66.225 117.703L65.173 112.736L63.073 102.806C61.669 96.187 60.264 89.567 58.926 82.934L57.909 77.962C57.599 76.23 57.494 74.54 57.416 72.826C57.279 69.409 57.467 65.983 57.955 62.597C58.938 55.845 61.372 49.192 65.575 43.742C67.67 41.027 70.17 38.619 72.988 36.668C75.815 34.726 78.908 33.224 82.105 32.033C88.565 29.81 95.393 28.89 102.184 28.82L101.782 29.223V29.216V28.804L102.187 28.813C102.351 28.817 102.515 28.816 102.679 28.812L103.085 29.213C103.084 29.121 103.032 29.0009 102.963 28.9389Z" fill="#02020C"/>
<path d="M131.577 127.328C131.228 128.844 130.831 130.328 130.666 131.799C130.472 133.274 130.488 134.809 130.39 136.357L129.741 145.601C129.37 151.765 129.303 157.946 129.681 164.122C129.688 164.235 129.602 164.333 129.489 164.34C129.381 164.347 129.286 164.267 129.272 164.162C128.47 158.001 128.269 151.768 128.316 145.554C128.354 142.447 128.402 139.336 128.63 136.241C128.751 134.702 128.915 133.136 129.244 131.555C129.595 129.967 130.2 128.506 130.799 127.077C130.887 126.868 131.127 126.77 131.335 126.858C131.524 126.934 131.621 127.137 131.577 127.328Z" fill="#02020C"/>
<path d="M147.945 165.738C145.87 165.233 143.869 164.434 141.962 163.453C140.062 162.458 138.266 161.259 136.596 159.907C134.957 158.521 133.405 157.019 132.07 155.338C130.727 153.666 129.55 151.86 128.632 149.933L129.254 149.579C130.418 151.311 131.675 152.963 133.057 154.5C134.447 156.028 135.912 157.487 137.528 158.771C139.113 160.09 140.811 161.271 142.59 162.321C144.362 163.385 146.228 164.296 148.15 165.116L147.945 165.738Z" fill="#02020C"/>
<path d="M111.21 108.328C111.793 109.267 112.312 110.247 112.762 111.261C112.872 111.518 112.988 111.76 113.08 112.046C113.175 112.328 113.18 112.686 113.074 112.976C112.854 113.561 112.507 113.982 112.175 114.442C111.494 115.324 110.587 116.167 109.397 116.456C108.23 116.749 107.038 116.537 105.961 116.277C105.742 116.225 105.607 116.005 105.659 115.786C105.711 115.567 105.931 115.432 106.15 115.484C106.156 115.485 106.165 115.488 106.171 115.49C107.203 115.795 108.251 116.021 109.253 115.819C110.246 115.634 111.103 114.941 111.791 114.131C112.123 113.722 112.498 113.281 112.683 112.838C112.889 112.401 112.645 111.91 112.453 111.389C112.059 110.369 111.592 109.375 111.059 108.416C111.036 108.374 111.051 108.321 111.093 108.297C111.134 108.276 111.185 108.289 111.21 108.328Z" fill="#02020C"/>
<path d="M112.032 145.224C111.51 147.5 110.665 149.701 109.594 151.781C108.509 153.853 107.194 155.814 105.619 157.54C105.538 157.629 105.399 157.636 105.31 157.554C105.225 157.477 105.216 157.347 105.284 157.258C106.693 155.437 107.969 153.522 109.031 151.486C110.107 149.458 110.967 147.32 111.655 145.121C111.687 145.018 111.797 144.961 111.9 144.993C111.998 145.025 112.055 145.126 112.032 145.224Z" fill="#02020C"/>
<path d="M102.885 182.277C100.566 182.134 98.441 181.832 96.233 181.504C94.047 181.165 91.873 180.763 89.71 180.304C85.384 179.387 81.109 178.23 76.916 176.813C72.725 175.393 68.615 173.708 64.665 171.688C60.713 169.674 56.933 167.302 53.435 164.547L54.342 164.556L49.035 168.37L49.069 167.513C52.768 170.629 56.877 173.353 61.099 175.782C65.332 178.214 69.761 180.297 74.311 182.05C76.592 182.911 78.906 183.682 81.244 184.37C83.591 185.024 85.954 185.622 88.347 186.077C93.126 187.015 97.991 187.477 102.853 187.508L102.847 188.986C97.887 188.924 92.933 188.421 88.078 187.437C85.647 186.958 83.249 186.336 80.869 185.657C78.499 184.943 76.155 184.147 73.846 183.259C69.242 181.452 64.769 179.314 60.498 176.825C56.227 174.328 52.125 171.581 48.328 168.343L47.811 167.902L48.361 167.485L53.447 163.381L53.868 163.041L54.354 163.39C57.763 166.074 61.46 168.396 65.338 170.372C69.214 172.354 73.258 174.013 77.39 175.413C81.524 176.81 85.745 177.953 90.018 178.859C92.154 179.313 94.302 179.71 96.459 180.044C98.595 180.365 100.829 180.669 102.897 180.799L102.885 182.277Z" fill="#02020C"/>
<path d="M-0.115021 204.705C0.363979 203 1.05099 201.323 1.72499 199.629C2.25699 198.303 2.80098 196.981 3.30998 195.645C3.83698 194.308 4.30099 192.982 4.93599 191.786C6.13899 189.392 8.325 187.675 10.709 186.178C13.054 184.653 15.566 183.364 18.179 182.287C23.391 180.094 28.886 178.51 34.304 176.615C37.012 175.66 39.711 174.645 42.316 173.393C44.916 172.135 47.425 170.677 49.758 168.962L49.246 168.261C46.918 169.865 44.427 171.214 41.845 172.37C39.252 173.507 36.574 174.454 33.877 175.359C28.473 177.142 22.92 178.62 17.577 180.851C14.898 181.935 12.289 183.247 9.83199 184.821C8.59899 185.598 7.384 186.414 6.269 187.433C5.146 188.423 4.16599 189.69 3.49599 191.04C2.80499 192.382 2.34199 193.771 1.83499 195.096C1.32499 196.432 0.849983 197.781 0.363983 199.125C-0.280017 200.915 -0.949022 202.772 -1.33502 204.706L-0.115021 204.705Z" fill="#02020C"/>
<path d="M102.653 180.8C104.687 180.734 106.89 180.446 108.997 180.137C111.125 179.818 113.243 179.429 115.348 178.975C119.559 178.073 123.713 176.905 127.778 175.493C131.838 174.069 135.808 172.385 139.608 170.382C143.411 168.386 147.033 166.054 150.39 163.393L150.876 163.04L151.299 163.382L156.385 167.486L156.935 167.903L156.418 168.344C152.621 171.582 148.519 174.329 144.248 176.826C139.977 179.315 135.504 181.453 130.9 183.26C128.591 184.148 126.248 184.945 123.877 185.658C121.497 186.337 119.099 186.96 116.668 187.438C111.813 188.422 106.859 188.925 101.899 188.987L101.893 187.509C106.755 187.478 111.62 187.016 116.399 186.078C118.791 185.623 121.155 185.024 123.502 184.371C125.84 183.682 128.153 182.912 130.435 182.051C134.985 180.297 139.414 178.215 143.647 175.783C147.868 173.354 151.977 170.63 155.677 167.514L155.711 168.371L150.404 164.557L151.313 164.546C147.873 167.273 144.172 169.655 140.297 171.689C136.424 173.73 132.388 175.442 128.266 176.888C124.139 178.321 119.928 179.505 115.659 180.419C113.525 180.879 111.377 181.274 109.216 181.598C107.035 181.912 104.929 182.204 102.628 182.277L102.653 180.8Z" fill="#02020C"/>
<path d="M169.906 176.436C175.148 178.275 180.453 179.837 185.541 181.859C188.069 182.9 190.544 184.054 192.876 185.44C195.151 186.886 197.505 188.369 198.995 190.442C199.741 191.477 200.291 192.687 200.788 193.949L202.282 197.796C203.132 200.066 203.894 202.355 204.347 204.705H205.422C205.156 202.16 204.453 199.691 203.65 197.308C203.201 195.982 202.753 194.689 202.256 193.379C201.756 192.068 201.177 190.726 200.318 189.502C199.458 188.277 198.375 187.262 197.237 186.398C196.671 185.957 196.086 185.563 195.489 185.186C194.893 184.808 194.31 184.408 193.703 184.05C191.268 182.626 188.71 181.457 186.119 180.411C180.916 178.361 175.562 176.906 170.336 175.18C167.73 174.3 165.157 173.345 162.644 172.257C160.153 171.123 157.753 169.806 155.498 168.26L154.986 168.961C157.244 170.617 159.661 172.043 162.169 173.279C164.691 174.481 167.287 175.506 169.906 176.436Z" fill="#02020C"/>
<path d="M136.83 78.006L125.74 74.84L127.207 74.94C125.814 75.37 124.409 75.755 122.997 76.12C121.585 76.484 120.165 76.821 118.738 77.137C117.314 77.462 115.88 77.752 114.446 78.042C113.013 78.335 111.556 78.548 109.964 78.309C109.719 78.272 109.55 78.044 109.587 77.799C109.603 77.691 109.657 77.598 109.732 77.531C110.933 76.46 112.27 75.84 113.63 75.302C114.989 74.761 116.348 74.218 117.718 73.711C119.085 73.194 120.458 72.699 121.839 72.231C123.22 71.764 124.608 71.317 126.009 70.915L126.277 70.838C126.698 70.717 127.134 70.797 127.476 71.015L137.167 77.267C137.357 77.39 137.412 77.644 137.289 77.835C137.188 77.99 136.999 78.054 136.83 78.006Z" fill="#02020C"/>
<path d="M79.331 95.5679C80.368 95.2999 81.311 95.2549 82.295 95.2169C83.269 95.1909 84.239 95.2109 85.204 95.2749C87.135 95.3899 89.049 95.6419 90.947 95.9589C90.984 95.9649 91.009 95.9999 91.003 96.0379C90.997 96.0739 90.964 96.0979 90.928 96.0949C89.018 95.8899 87.101 95.7519 85.189 95.7499C84.233 95.7419 83.279 95.7789 82.333 95.8599C81.403 95.9439 80.416 96.0719 79.602 96.3349L79.557 96.3489C79.343 96.4179 79.114 96.3009 79.046 96.0869C78.977 95.8729 79.094 95.6439 79.308 95.5749C79.315 95.5729 79.324 95.5699 79.331 95.5679Z" fill="#02020C"/>
<path d="M90.432 88.4439C90.432 92.4159 88.011 95.6349 85.024 95.6349C82.037 95.6349 79.616 92.4149 79.616 88.4439C79.616 84.4719 82.037 81.2529 85.024 81.2529C88.011 81.2519 90.432 84.4719 90.432 88.4439Z" fill="#02020C"/>
<path d="M91.205 84.3129C91.205 85.6419 90.314 86.7199 89.214 86.7199C88.114 86.7199 87.223 85.6419 87.223 84.3129C87.223 82.9839 88.114 81.9059 89.214 81.9059C90.313 81.9059 91.205 82.9839 91.205 84.3129Z" fill="#F4EFE9"/>
<path d="M115.258 95.5679C116.295 95.2999 117.238 95.2549 118.222 95.2169C119.196 95.1909 120.165 95.2109 121.131 95.2749C123.062 95.3899 124.975 95.6419 126.874 95.9589C126.911 95.9649 126.936 95.9999 126.93 96.0379C126.924 96.0739 126.891 96.0979 126.855 96.0949C124.945 95.8899 123.028 95.7519 121.116 95.7499C120.16 95.7419 119.206 95.7789 118.26 95.8599C117.33 95.9439 116.343 96.0719 115.529 96.3349L115.484 96.3489C115.27 96.4179 115.041 96.3009 114.972 96.0869C114.903 95.8729 115.02 95.6439 115.234 95.5749C115.242 95.5729 115.251 95.5699 115.258 95.5679Z" fill="#02020C"/>
<path d="M120.951 95.6349C123.938 95.6349 126.359 92.4154 126.359 88.4439C126.359 84.4725 123.938 81.2529 120.951 81.2529C117.964 81.2529 115.543 84.4725 115.543 88.4439C115.543 92.4154 117.964 95.6349 120.951 95.6349Z" fill="#02020C"/>
<path d="M127.132 84.3129C127.132 85.6419 126.241 86.7199 125.141 86.7199C124.041 86.7199 123.15 85.6419 123.15 84.3129C123.15 82.9839 124.041 81.9059 125.141 81.9059C126.241 81.9059 127.132 82.9839 127.132 84.3129Z" fill="#F4EFE9"/>
<path d="M99.456 86.297L98.951 82.915L99.006 83.092L95.765 77.55C95.652 77.356 95.717 77.108 95.911 76.994C96.105 76.881 96.353 76.946 96.467 77.14L99.708 82.682L99.722 82.706C99.75 82.754 99.763 82.808 99.763 82.859L99.724 86.278C99.723 86.352 99.663 86.411 99.589 86.41C99.52 86.41 99.465 86.361 99.456 86.297Z" fill="#02020C"/>
<path d="M48.264 173.368C49.935 175.096 51.891 176.559 53.889 177.904C55.874 179.281 57.994 180.452 60.14 181.556C64.436 183.775 69.008 185.404 73.638 186.778L77.139 187.729C78.317 188.002 79.506 188.23 80.689 188.483C81.872 188.738 83.057 188.986 84.259 189.14L87.849 189.695C90.248 190.034 92.671 190.176 95.082 190.448L102.355 190.796H102.363C102.442 190.8 102.504 190.867 102.5 190.947C102.496 191.024 102.432 191.085 102.355 191.084L95.049 191.008L91.402 190.747C90.189 190.633 88.964 190.619 87.759 190.423C85.346 190.074 82.907 189.863 80.525 189.309C79.329 189.063 78.128 188.841 76.936 188.574L73.392 187.639C68.689 186.315 64.099 184.551 59.759 182.289C55.471 179.955 51.325 177.227 48.03 173.566C47.974 173.503 47.979 173.407 48.041 173.351C48.102 173.296 48.196 173.3 48.252 173.358L48.264 173.368Z" fill="#02020C"/>
<path d="M177.497 204.705C179.067 196.346 182.763 188.475 188.203 181.935C188.316 181.799 188.298 181.596 188.162 181.484C188.026 181.37 187.824 181.389 187.711 181.525C182.176 188.18 178.418 196.195 176.842 204.706L177.497 204.705Z" fill="#02020C"/>
<path d="M27.445 204.705H28.101C26.525 196.194 22.767 188.18 17.232 181.524C17.117 181.388 16.916 181.369 16.781 181.483C16.645 181.595 16.6269 181.797 16.7399 181.934C22.1789 188.474 25.876 196.346 27.445 204.705Z" fill="#02020C"/>
<path d="M139.541 96.984L135.693 112.937L116.362 125.136L113.828 119.599L102.379 119.787V121.382L112.514 121.194L114.766 125.511L113.734 136.678C113.734 136.678 108.291 141.464 102.473 139.118V145.132C102.473 145.132 105.834 144.781 110.455 142.575C114.946 140.431 120.618 136.508 126.215 131.236L135.599 123.072C135.599 123.072 137.664 119.318 138.227 116.409L141.605 99.705L139.541 96.984Z" fill="#02020C"/>
<path d="M65.782 96.984L69.63 112.937L88.961 125.136L91.495 119.599L102.944 119.787V121.382L92.809 121.194L90.557 125.511L91.589 136.678C91.589 136.678 97.032 141.464 102.85 139.118V145.132C102.85 145.132 99.489 144.781 94.868 142.575C90.377 140.431 84.705 136.508 79.109 131.236L69.725 123.072C69.725 123.072 67.66 119.318 67.097 116.409L63.719 99.705L65.782 96.984Z" fill="#02020C"/>
<path d="M161.717 71.708C157.848 69.205 156.278 64.561 154.787 60.305C152.198 52.914 148.605 44.969 144.445 38.303C140.98 32.75 135.444 28.857 129.94 25.313C125.724 22.598 121.365 19.963 116.532 18.625C111.312 17.179 105.784 17.318 100.394 17.866C94.834 18.431 89.211 19.456 84.276 22.079C79.525 24.604 73.361 30.162 71.033 36.187C65.478 40.959 62.161 46.837 60.193 52.385C58.459 53.179 56.597 53.811 54.204 54.165C55.721 59.489 57.214 74.656 57.959 77.297C58.265 78.381 58.43 79.39 58.59 80.463C58.661 80.941 59.275 81.93 59.627 82.626L63.443 103.223L65.372 97.348L63.332 74.923L67.554 59.072L70.432 58.446L67.804 52.69L74.185 51.064C76.033 51.521 78.013 51.806 80.037 51.965C81.219 52.338 82.422 52.66 83.606 52.96C86.583 53.715 89.561 54.47 92.538 55.225L95.255 56.729C108.91 65.021 124.598 70.13 140.651 71.699L141.51 74.923L139.47 97.348L141.399 103.223L147.159 72.13C152.015 72.313 156.882 72.189 161.717 71.708Z" fill="#02020C"/>
</g>
</svg>
