<svg width="205" height="205" viewBox="0 0 205 205" fill="none" xmlns="http://www.w3.org/2000/svg">
<path d="M102.882 204.926C159.239 204.926 204.926 159.239 204.926 102.882C204.926 46.5247 159.239 0.838013 102.882 0.838013C46.5247 0.838013 0.838013 46.5247 0.838013 102.882C0.838013 159.239 46.5247 204.926 102.882 204.926Z" fill="#F6EFE9"/>
<mask id="mask0_81_130" style="mask-type:luminance" maskUnits="userSpaceOnUse" x="0" y="0" width="205" height="205">
<path d="M102.882 204.926C159.239 204.926 204.926 159.239 204.926 102.882C204.926 46.5247 159.239 0.838013 102.882 0.838013C46.5247 0.838013 0.838013 46.5247 0.838013 102.882C0.838013 159.239 46.5247 204.926 102.882 204.926Z" fill="white"/>
</mask>
<g mask="url(#mask0_81_130)">
<path d="M199.772 206.377L190.601 187.858C190.601 187.858 185.721 180.163 175.399 176.597C175.399 176.597 152.314 169.653 148.936 168.527L138.989 163.084C138.511 163.551 138.005 163.991 137.498 164.425C135.758 165.917 133.925 167.303 132.029 168.591C129.286 170.454 126.398 172.112 123.38 173.489C119.893 175.08 116.221 176.297 112.437 176.938C110.438 177.277 108.41 177.453 106.382 177.438C105.35 177.431 104.316 177.302 103.289 177.319C101.986 177.341 100.683 177.429 99.379 177.438C98.056 177.447 96.733 177.376 95.418 177.231C91.555 176.805 87.778 175.745 84.188 174.271C81.012 172.967 77.972 171.339 75.085 169.483C72.968 168.122 70.927 166.638 68.987 165.032C68.843 164.913 66.873 163.029 66.775 163.083L56.828 168.526C53.45 169.652 30.365 176.596 30.365 176.596C20.042 180.162 15.163 187.857 15.163 187.857L5.992 206.376H199.772V206.377Z" fill="#363F20"/>
<path d="M118.242 206.377C135.725 194.481 143.603 173.39 143.603 173.39C96.405 205.498 57.894 167.824 57.894 167.824C54.578 171.239 49.917 173.108 46.628 176.548C45.484 177.745 44.386 179.122 43.358 180.569C42.011 182.464 40.782 184.48 39.719 186.372C37.705 189.958 36.332 193.947 36.117 198.075C35.971 200.879 36.426 203.751 37.44 206.376H118.242V206.377Z" fill="#232818"/>
<path d="M11.728 193.792C15.07 192.249 18.522 190.624 20.912 187.824C22.01 186.537 22.843 185.046 23.887 183.716C27.476 179.144 33.18 176.874 38.61 174.8C32.628 176.402 27.114 177.773 21.675 180.734C21.058 181.07 20.445 181.426 19.921 181.893C19.159 182.573 18.616 183.458 18.085 184.331C16.152 187.5 13.66 190.622 11.728 193.792Z" fill="#232818"/>
<path d="M194.028 193.792C190.686 192.249 187.234 190.624 184.844 187.824C183.746 186.537 182.914 185.046 181.869 183.716C178.28 179.144 172.576 176.874 167.145 174.8C173.127 176.402 178.641 177.773 184.081 180.734C184.698 181.07 185.311 181.426 185.835 181.893C186.597 182.573 187.14 183.458 187.671 184.331C189.603 187.5 192.096 190.622 194.028 193.792Z" fill="#232818"/>
<path d="M152.425 76.356C151.995 76.216 151.551 76.145 151.104 76.145C150.83 76.145 150.56 76.172 150.3 76.226L149.726 76.345L149.788 75.762C150.317 70.816 150.54 66.696 150.491 62.795C150.441 59.817 150.237 57.409 149.85 55.22C149.406 52.815 148.768 50.28 147.123 48.056C146.757 47.622 146.431 47.255 146.068 46.869C145.741 46.509 145.387 46.138 144.98 45.73C144.426 45.152 143.841 44.595 143.274 44.057C143.088 43.881 142.903 43.704 142.718 43.527C140.94 41.906 139.419 40.611 137.94 39.457C136.508 38.314 134.945 37.168 132.866 35.739L130.232 34.012L127.534 32.405C123.342 30.023 119.752 28.277 116.244 26.916C114.701 26.248 113.09 25.703 111.532 25.176C111.128 25.039 110.723 24.903 110.32 24.764C109.613 24.502 108.874 24.301 108.16 24.106C107.877 24.029 107.594 23.952 107.312 23.871L104.269 23.029C104.246 23.023 104.217 23.019 104.193 23.019H104.165L103.382 23.017H103.358C103.331 23.017 103.304 23.021 103.277 23.028L99.909 23.943L98.236 24.398L96.591 24.945L93.296 26.056L90.065 27.347C85.427 29.308 81.383 31.374 77.712 33.66C73.709 36.138 69.938 38.895 66.501 41.855C64.407 43.705 62.856 45.19 61.476 46.668C61.407 46.743 61.335 46.82 61.262 46.898C61.137 47.032 61.011 47.165 60.889 47.306C60.83 47.373 60.774 47.437 60.717 47.501C60.576 47.66 60.443 47.81 60.297 47.99C59.894 48.536 59.575 49.041 59.333 49.521C58.827 50.49 58.413 51.577 58.062 52.85C57.512 54.89 57.173 57.088 56.996 59.766C56.854 61.883 56.822 64.158 56.899 66.719C56.988 69.567 57.193 72.502 57.524 75.69L57.577 76.197L57.069 76.161C56.969 76.154 56.868 76.15 56.768 76.15C56.326 76.15 55.896 76.217 55.49 76.35C54.623 76.623 53.826 77.128 53.181 77.812C52.065 79.01 51.477 80.693 51.435 82.813C51.405 84.73 51.775 86.543 52.142 88.064C52.544 89.685 53.06 91.249 53.711 93.099C53.986 93.865 54.259 94.636 54.532 95.407C55.416 97.904 56.329 100.487 57.366 102.982C57.729 103.854 58.076 104.643 58.425 105.392L58.548 105.652C58.875 106.341 59.213 107.054 59.651 107.71C60.212 108.546 60.85 109.115 61.546 109.4C61.943 109.564 62.343 109.646 62.738 109.646H62.789C63.036 109.641 63.288 109.591 63.538 109.499L63.924 109.356L64.081 109.736C65.509 113.187 67.446 116.684 69.839 120.13C71.407 122.306 72.782 124.057 74.162 125.634C75.744 127.445 77.374 129.146 79.005 130.69C80.036 131.665 80.844 132.381 81.623 133.014L82.049 133.361L82.273 133.543L82.188 133.819C82.168 133.883 82.159 133.935 82.16 133.984L82.481 155.43L82.484 155.628L82.335 155.758C81.35 156.618 80.26 157.485 78.799 158.568C77.552 159.489 76.196 160.446 74.652 161.493C72.911 162.668 71.157 163.809 69.432 164.889L69.433 164.89L69.386 164.919C69.46 164.982 69.534 165.045 69.608 165.108L69.828 165.296L69.848 165.313L69.865 165.332C78.64 174.833 97.695 177.608 97.914 177.632C98.973 177.702 102.817 177.372 103.889 177.372C118.376 177.372 129.16 170.877 134.298 167.006L134.412 166.92H134.554L134.852 166.919C134.939 166.791 135.03 166.681 135.13 166.583C135.752 165.976 136.47 165.38 137.392 164.708C137.449 164.666 137.509 164.628 137.571 164.592C136.035 163.57 134.437 162.453 132.708 161.193C131.325 160.178 130.082 159.23 128.909 158.294C127.564 157.218 126.49 156.305 125.529 155.418L125.389 155.288L125.392 155.097L125.708 133.984C125.706 133.819 125.641 133.681 125.525 133.58L125.14 133.244L125.539 132.925C126.528 132.133 127.467 131.275 128.175 130.615C129.818 129.072 131.461 127.372 133.056 125.562C134.522 123.883 135.988 122.027 137.413 120.046C139.845 116.577 141.814 113.034 143.264 109.518L143.438 109.097L143.847 109.297C144.133 109.437 144.454 109.523 144.8 109.554C144.91 109.565 145.018 109.57 145.126 109.57C145.43 109.57 145.752 109.528 146.083 109.445C146.526 109.325 146.917 109.129 147.208 108.879C147.525 108.619 147.822 108.298 148.097 107.918C148.604 107.215 148.976 106.431 149.336 105.673L149.367 105.607C149.729 104.839 150.081 104.046 150.443 103.185C151.51 100.636 152.445 97.995 153.35 95.44C153.61 94.704 153.871 93.969 154.134 93.235C154.792 91.372 155.314 89.796 155.726 88.167C155.953 87.27 156.132 86.391 156.257 85.556C156.407 84.576 156.473 83.703 156.46 82.887C156.43 80.751 155.85 79.052 154.737 77.835C154.086 77.142 153.286 76.63 152.425 76.356Z" fill="#F9BF9A"/>
<path d="M124.822 133.052C124.822 133.052 119.95 162.809 96.87 157.51C96.87 157.51 86.029 154.483 82.532 143.41C82.361 141.234 82.437 138.65 82.265 136.474C82.22 135.907 82.824 134.338 83.278 133.951C83.8 133.506 84.994 135.218 85.338 135.541C86.131 136.284 86.987 136.96 87.894 137.559C88.837 138.181 89.836 138.72 90.875 139.164C92.515 139.865 94.247 140.332 95.896 141.013C98.457 142.072 101.319 144.115 104.227 143.266C105.299 142.953 106.371 142.637 107.437 142.306C109.568 141.645 111.684 140.926 113.745 140.067C117.867 138.349 121.478 135.969 124.822 133.052Z" fill="#BF7D5D"/>
<path d="M153.705 83.168C152.922 82.518 151.766 82.207 150.87 82.689C150.388 82.948 150.039 83.397 149.754 83.864C149.332 84.553 149.018 85.309 148.827 86.094C148.352 88.039 148.637 90.077 148.576 92.078C148.422 97.13 146.077 101.827 143.686 106.28C145.822 98.574 147.237 90.668 147.904 82.7C148.064 80.792 148.194 78.828 149.015 77.099C149.106 76.907 149.212 76.711 149.388 76.59C149.583 76.456 149.831 76.437 150.067 76.422C150.607 76.388 151.152 76.354 151.686 76.438C153.503 76.724 154.872 78.358 155.404 80.119C155.936 81.88 155.793 83.764 155.646 85.599C155.638 85.702 155.61 85.785 155.537 85.858C154.912 85.184 154.585 83.899 153.705 83.168Z" fill="#BF7D5D"/>
<path d="M53.475 83.168C54.258 82.518 55.414 82.207 56.31 82.689C56.792 82.948 57.141 83.397 57.426 83.864C57.848 84.553 58.162 85.309 58.353 86.094C58.828 88.039 58.543 90.077 58.604 92.078C58.758 97.13 61.103 101.827 63.494 106.28C61.358 98.574 59.943 90.668 59.276 82.7C59.116 80.792 58.986 78.828 58.165 77.099C58.074 76.907 57.968 76.711 57.792 76.59C57.597 76.456 57.349 76.437 57.113 76.422C56.573 76.388 56.029 76.354 55.494 76.438C53.677 76.724 52.308 78.358 51.776 80.119C51.244 81.88 51.387 83.764 51.534 85.599C51.542 85.702 51.57 85.785 51.644 85.858C52.268 85.184 52.594 83.899 53.475 83.168Z" fill="#BF7D5D"/>
<path d="M100.822 129.262L104.867 127.889L105.09 129.262L102.678 129.782L100.822 129.262Z" fill="#BF7D5D"/>
<path d="M109.985 113.246C109.985 113.246 103.551 120.781 97.469 113.246L99.87 113.832L102.698 114.205L105.695 114.098L106.963 113.725L108.871 113.592L109.985 113.246Z" fill="#BF7D5D"/>
<path d="M98.047 105.058L97.485 82.624L93.944 74.394L79.023 70.546L69.387 73.33L78.119 66.7159L93.146 70.874L98.026 74.8149L99.776 83.012C99.776 83.012 100.64 96.542 98.047 105.058Z" fill="#BF7D5D"/>
<path d="M108.609 75.075L111.049 74.324L129.723 70.195L124.656 67.943L109.36 72.635L108.609 75.075Z" fill="#BF7D5D"/>
<path d="M146.009 48.539C143.353 45.509 140.215 42.71 136.978 40.178C133.716 37.649 130.3 35.303 126.696 33.283C123.097 31.262 119.397 29.401 115.539 27.926C113.639 27.113 111.665 26.503 109.711 25.84C108.741 25.485 107.733 25.253 106.74 24.974L103.753 24.163L103.97 24.189L103.187 24.191L103.405 24.165C94.571 26.394 86.058 29.901 78.29 34.668C74.416 37.062 70.718 39.745 67.268 42.711C65.564 44.214 63.893 45.763 62.35 47.412C61.97 47.814 61.568 48.258 61.248 48.642C60.984 49.088 60.656 49.473 60.432 49.96C59.947 50.904 59.563 51.926 59.278 52.991C58.131 57.271 58.051 61.892 58.149 66.428C58.287 70.986 58.731 75.548 59.312 80.093C60.496 89.178 62.236 98.226 64.364 107.136L64.341 107.061C65.863 111.349 68.07 115.391 70.665 119.161C73.302 122.906 76.31 126.407 79.628 129.574C80.459 130.366 81.298 131.136 82.183 131.861L83.503 132.955L84.867 133.979C86.718 135.306 88.683 136.487 90.712 137.554C92.738 138.627 94.82 139.61 96.952 140.482C99.08 141.36 101.239 142.187 103.44 142.867L103.443 142.868H103.23C107.708 141.61 112.088 139.961 116.245 137.891C118.32 136.85 120.336 135.694 122.24 134.38L123.637 133.356C124.098 133.008 124.534 132.625 124.984 132.261C125.887 131.528 126.737 130.751 127.583 129.953C130.949 126.752 133.997 123.213 136.666 119.419C139.301 115.606 141.531 111.504 143.072 107.152L143.057 107.203C144.23 102.327 145.252 97.394 146.153 92.452C147.052 87.507 147.821 82.539 148.387 77.553C148.944 72.569 149.315 67.558 149.221 62.571C149.157 60.082 148.981 57.595 148.538 55.178C148.092 52.783 147.362 50.376 146.009 48.539ZM147.261 47.541C148.897 49.798 149.593 52.371 150.062 54.899C150.509 57.442 150.67 59.997 150.718 62.542C150.778 67.634 150.367 72.691 149.771 77.713C149.166 82.735 148.359 87.724 147.422 92.686C146.482 97.649 145.426 102.58 144.209 107.492L144.193 107.544C142.577 112.011 140.267 116.184 137.559 120.046C134.817 123.888 131.704 127.452 128.266 130.678C127.405 131.48 126.521 132.276 125.602 133.011C125.14 133.38 124.693 133.766 124.218 134.119L122.778 135.16C120.82 136.492 118.759 137.654 116.645 138.696C112.41 140.769 107.98 142.401 103.441 143.643C103.373 143.662 103.303 143.662 103.239 143.646L103.228 143.643L103.225 143.642C98.681 142.523 94.266 140.914 90.05 138.836C87.952 137.779 85.908 136.598 83.962 135.253L82.524 134.211L81.154 133.094C80.24 132.352 79.364 131.554 78.512 130.749C75.1 127.518 72.014 123.958 69.289 120.122C66.608 116.26 64.307 112.097 62.703 107.633L62.68 107.558C60.493 98.564 58.713 89.506 57.478 80.331C56.866 75.746 56.424 71.129 56.276 66.481C56.179 61.84 56.229 57.132 57.462 52.486C57.772 51.329 58.194 50.182 58.762 49.078C59.022 48.52 59.432 48.002 59.767 47.468C60.183 46.967 60.558 46.56 60.966 46.123C62.569 44.408 64.277 42.822 66.025 41.279C69.556 38.238 73.332 35.494 77.289 33.045C81.242 30.584 85.425 28.51 89.709 26.698L92.951 25.403L96.259 24.288L97.915 23.737L99.599 23.279L102.967 22.364C103.032 22.347 103.096 22.338 103.16 22.338H103.185L103.968 22.34H103.996C104.06 22.34 104.126 22.35 104.185 22.366L107.232 23.209C108.245 23.499 109.272 23.742 110.261 24.108C112.253 24.794 114.265 25.428 116.2 26.266C120.13 27.791 123.896 29.707 127.555 31.786C131.22 33.865 134.69 36.272 138.005 38.868C141.317 41.497 144.433 44.28 147.261 47.541Z" fill="#02020C"/>
<path d="M57.659 77.082C56.376 76.511 54.676 77.066 53.616 78.176C52.541 79.269 52.071 80.943 52.016 82.591C51.939 85.962 52.972 89.364 54.059 92.667C55.182 95.994 56.237 99.346 57.514 102.596C58.17 104.2 58.812 105.875 59.68 107.313C60.132 108.015 60.705 108.634 61.439 108.95C62.163 109.273 63.037 109.314 63.676 108.897L64.005 109.395C63.151 109.969 62.053 109.913 61.186 109.546C60.284 109.177 59.603 108.452 59.097 107.698C58.585 106.932 58.218 106.119 57.839 105.323C57.466 104.521 57.112 103.711 56.773 102.896C55.417 99.631 54.298 96.297 53.11 92.991C51.956 89.673 50.805 86.249 50.809 82.554C50.845 80.73 51.291 78.751 52.671 77.268C53.348 76.551 54.195 75.997 55.158 75.694C56.112 75.382 57.222 75.379 58.211 75.781L57.659 77.082Z" fill="#02020C"/>
<path d="M54.145 83.809C53.463 82.436 53.752 80.65 54.87 79.523C55.405 78.981 56.236 78.516 57.134 78.748C57.991 78.979 58.62 79.698 58.824 80.55C58.876 80.768 58.742 80.988 58.524 81.04C58.306 81.092 58.086 80.958 58.034 80.74C58.032 80.73 58.029 80.718 58.028 80.709C57.937 80.143 57.503 79.579 56.949 79.404C56.406 79.21 55.739 79.479 55.248 79.924C54.246 80.807 53.855 82.403 54.405 83.69C54.437 83.762 54.404 83.846 54.332 83.878C54.261 83.906 54.18 83.875 54.145 83.809Z" fill="#02020C"/>
<path d="M59.845 90.331C58.778 90.844 58.205 92.043 58.161 93.18C58.125 94.343 58.577 95.468 59.172 96.474C59.772 97.488 60.533 98.416 61.199 99.446C61.895 100.468 62.276 101.701 63.124 102.276C63.31 102.402 63.358 102.654 63.233 102.84C63.107 103.026 62.855 103.074 62.669 102.949C62.663 102.945 62.654 102.938 62.648 102.934C62.084 102.505 61.736 101.921 61.458 101.374C61.18 100.816 60.947 100.294 60.643 99.788C60.049 98.771 59.322 97.798 58.743 96.715C58.17 95.641 57.735 94.42 57.83 93.16C57.933 91.93 58.607 90.675 59.775 90.175C59.818 90.156 59.869 90.176 59.887 90.22C59.906 90.262 59.886 90.311 59.845 90.331Z" fill="#02020C"/>
<path d="M149.284 75.782C150.28 75.376 151.397 75.385 152.357 75.701C153.324 76.012 154.176 76.572 154.852 77.3C156.232 78.802 156.661 80.798 156.688 82.632C156.673 86.349 155.5 89.792 154.337 93.131C153.142 96.459 152.012 99.818 150.638 103.102C150.293 103.922 149.934 104.736 149.554 105.542C149.174 106.342 148.789 107.164 148.244 107.92C147.972 108.296 147.657 108.653 147.288 108.955C146.914 109.276 146.447 109.487 145.988 109.611C145.067 109.836 144.043 109.824 143.173 109.273L143.502 108.775C144.148 109.179 145.048 109.201 145.818 108.99C146.606 108.792 147.191 108.212 147.679 107.519C148.158 106.829 148.516 106.034 148.878 105.231C149.237 104.43 149.577 103.619 149.902 102.802C151.197 99.532 152.26 96.159 153.391 92.808C154.489 89.481 155.543 86.061 155.483 82.663C155.436 81.001 154.98 79.31 153.902 78.201C152.842 77.076 151.13 76.507 149.837 77.083L149.284 75.782Z" fill="#02020C"/>
<path d="M153.091 83.688C153.641 82.402 153.25 80.805 152.248 79.922C151.757 79.477 151.09 79.209 150.547 79.402C149.993 79.578 149.558 80.141 149.468 80.707C149.433 80.929 149.225 81.08 149.003 81.045C148.781 81.01 148.63 80.802 148.665 80.58C148.666 80.57 148.669 80.558 148.671 80.549C148.875 79.697 149.504 78.978 150.361 78.747C151.259 78.515 152.09 78.98 152.625 79.522C153.742 80.649 154.031 82.435 153.35 83.808C153.315 83.878 153.229 83.907 153.159 83.872C153.09 83.839 153.062 83.757 153.091 83.688Z" fill="#02020C"/>
<path d="M147.719 90.1751C148.887 90.6751 149.561 91.93 149.664 93.16C149.759 94.419 149.324 95.6401 148.751 96.7151C148.172 97.7991 147.445 98.7711 146.851 99.7881C146.547 100.294 146.314 100.815 146.036 101.374C145.758 101.921 145.41 102.506 144.846 102.934C144.668 103.071 144.413 103.038 144.276 102.861C144.139 102.683 144.172 102.428 144.349 102.291C144.355 102.287 144.364 102.28 144.37 102.276C145.218 101.702 145.6 100.468 146.295 99.4461C146.961 98.4161 147.722 97.488 148.322 96.474C148.918 95.468 149.369 94.3431 149.333 93.1801C149.289 92.0431 148.716 90.8431 147.649 90.3311C147.606 90.3111 147.588 90.2601 147.608 90.2181C147.627 90.1761 147.677 90.1581 147.719 90.1751Z" fill="#02020C"/>
<path d="M103.185 114.586C103.17 114.586 103.155 114.586 103.141 114.586C101.031 114.573 98.98 113.578 97.788 111.988C97.634 111.783 97.675 111.493 97.881 111.338C98.086 111.183 98.377 111.226 98.531 111.431C99.553 112.793 101.322 113.646 103.147 113.658C104.908 113.692 106.66 112.954 108.041 111.698C108.229 111.526 108.524 111.539 108.696 111.729C108.868 111.919 108.855 112.212 108.665 112.385C107.125 113.785 105.13 114.586 103.185 114.586Z" fill="#02020C"/>
<path d="M96.938 108.096C96.635 108.768 96.274 109.437 96.022 110.107C95.905 110.441 95.857 110.769 95.945 111.066C96.027 111.369 96.227 111.662 96.446 111.92C97.35 112.959 98.858 113.322 100.2 113.172L100.206 113.171L99.778 113.657L99.769 113.471C99.756 113.215 99.953 112.997 100.209 112.984C100.465 112.971 100.683 113.168 100.696 113.424L100.705 113.61L100.706 113.637C100.718 113.878 100.532 114.083 100.291 114.095L100.276 114.096H100.269C99.461 114.125 98.656 113.996 97.908 113.706C97.162 113.418 96.468 112.94 95.985 112.286C95.75 111.959 95.539 111.607 95.453 111.179C95.362 110.744 95.474 110.307 95.631 109.954C95.959 109.252 96.36 108.634 96.72 107.973C96.753 107.913 96.828 107.89 96.889 107.923C96.946 107.954 96.969 108.024 96.943 108.083L96.938 108.096Z" fill="#02020C"/>
<path d="M97.773 73.958C98.226 75.431 98.624 76.917 99.013 78.404C99.408 79.89 99.763 81.386 100.118 82.881C100.123 82.904 100.126 82.929 100.127 82.952C100.165 84.838 100.164 86.716 100.138 88.599C100.105 90.48 100.065 92.362 99.941 94.241C99.824 96.12 99.671 97.999 99.423 99.871C99.15 101.736 98.836 103.612 98.165 105.404C98.13 105.498 98.025 105.546 97.93 105.511C97.838 105.476 97.79 105.375 97.821 105.283L97.823 105.277C98.408 103.523 98.654 101.655 98.854 99.802C99.062 97.946 99.186 96.077 99.268 94.206C99.433 90.466 99.496 86.712 99.421 82.97L99.43 83.041C99.093 81.541 98.756 80.042 98.459 78.533C98.156 77.025 97.862 75.516 97.623 73.994C97.616 73.952 97.645 73.912 97.687 73.906C97.726 73.898 97.762 73.921 97.773 73.958Z" fill="#02020C"/>
<path d="M110.562 107.975C110.922 108.636 111.323 109.253 111.651 109.956C111.808 110.309 111.92 110.746 111.829 111.181C111.743 111.609 111.532 111.961 111.297 112.288C110.814 112.942 110.12 113.42 109.374 113.708C108.625 113.999 107.821 114.128 107.013 114.098H107.006C106.765 114.094 106.572 113.896 106.576 113.654V113.641L106.577 113.612L106.586 113.426C106.599 113.17 106.817 112.973 107.073 112.986C107.329 112.999 107.526 113.217 107.513 113.473L107.504 113.659L107.076 113.173L107.082 113.174C108.424 113.324 109.932 112.961 110.836 111.922C111.055 111.665 111.255 111.372 111.337 111.068C111.425 110.771 111.377 110.443 111.26 110.109C111.007 109.439 110.646 108.77 110.344 108.098L110.339 108.087C110.311 108.024 110.339 107.95 110.401 107.922C110.461 107.894 110.531 107.918 110.562 107.975Z" fill="#02020C"/>
<path d="M92.936 146.682C93.843 152.401 95.732 157.967 98.499 163.061C98.555 163.165 98.517 163.295 98.413 163.351C98.31 163.407 98.181 163.369 98.124 163.266C95.3 158.147 93.355 152.542 92.401 146.768C92.377 146.62 92.477 146.481 92.624 146.456C92.772 146.432 92.911 146.532 92.936 146.679V146.682Z" fill="#02020C"/>
<path d="M125.935 133.741L125.502 162.72C125.498 163.009 125.26 163.24 124.971 163.235C124.688 163.231 124.46 163.001 124.456 162.72L124.023 133.741C124.015 133.213 124.437 132.778 124.965 132.77C125.493 132.762 125.928 133.184 125.936 133.712C125.936 133.72 125.936 133.733 125.935 133.741Z" fill="#02020C"/>
<path d="M137.081 164.918C132.658 162.148 128.402 159.066 124.639 155.425C124.476 155.267 124.472 155.008 124.629 154.845C124.783 154.685 125.038 154.68 125.201 154.827C129.021 158.281 133.319 161.18 137.773 163.765C138.095 163.95 138.206 164.361 138.02 164.684C137.835 165.006 137.424 165.117 137.102 164.931C137.097 164.928 137.087 164.922 137.081 164.918Z" fill="#02020C"/>
<path d="M83.446 133.741L83.013 162.72C83.009 163.009 82.771 163.24 82.482 163.235C82.198 163.231 81.971 163.001 81.967 162.72L81.534 133.741C81.526 133.213 81.948 132.778 82.476 132.77C83.004 132.762 83.439 133.184 83.447 133.712C83.446 133.72 83.446 133.733 83.446 133.741Z" fill="#02020C"/>
<path d="M68.171 163.931C70.621 162.515 73.08 161.156 75.473 159.692C77.857 158.225 80.206 156.682 82.267 154.827L82.271 154.823C82.439 154.671 82.699 154.685 82.851 154.854C83 155.019 82.989 155.272 82.83 155.425C80.755 157.41 78.417 159.048 76.053 160.607C73.683 162.16 71.251 163.604 68.864 165.084C68.549 165.281 68.134 165.184 67.937 164.869C67.74 164.554 67.837 164.139 68.152 163.942C68.157 163.94 68.166 163.934 68.171 163.931Z" fill="#02020C"/>
<path d="M115.122 146.769C114.168 152.543 112.222 158.148 109.399 163.267C109.342 163.37 109.212 163.408 109.109 163.351C109.006 163.294 108.968 163.165 109.024 163.062C111.791 157.968 113.68 152.402 114.587 146.683C114.61 146.535 114.749 146.434 114.897 146.458C115.045 146.481 115.146 146.62 115.122 146.768V146.769Z" fill="#02020C"/>
<path d="M6.742 206.377L15.743 188.201C17.883 185.142 20.81 182.493 23.996 180.428C25.61 179.402 27.323 178.531 29.085 177.805L30.415 177.297C30.865 177.135 31.345 177.007 31.808 176.86L34.612 176.005L57.04 169.165C57.072 169.155 57.106 169.141 57.137 169.124L57.15 169.117L64.65 165.013L66.525 163.987L66.724 163.878C66.797 163.94 66.873 164.006 66.935 164.061L67.454 164.531L68.509 165.508C69.279 166.15 70.011 166.724 70.784 167.309C72.318 168.464 73.903 169.55 75.534 170.563C78.794 172.591 82.248 174.329 85.873 175.642C89.497 176.927 93.296 177.883 97.177 177.996C98.139 178.022 99.124 178.153 100.068 178.09L102.921 178.003C103.853 177.956 104.741 178.048 105.728 178.093C106.721 178.132 107.674 178.106 108.646 178.05C112.517 177.819 116.321 176.937 119.941 175.623C123.564 174.305 127.015 172.564 130.275 170.534C133.39 168.577 136.339 166.406 139.077 163.899L148.611 169.116L148.627 169.125C148.657 169.141 148.688 169.154 148.722 169.164L171.151 176.004L173.955 176.859C174.418 177.006 174.898 177.134 175.348 177.296L176.678 177.804C178.44 178.53 180.153 179.402 181.767 180.427C183.373 181.465 184.891 182.643 186.29 183.946C186.985 184.602 187.66 185.281 188.288 185.999C188.908 186.692 189.549 187.5 190.013 188.187L199.02 206.376H200.521L191.185 187.527C190.562 186.59 189.97 185.876 189.295 185.108C188.636 184.355 187.932 183.647 187.207 182.963C185.747 181.604 184.166 180.377 182.491 179.294C180.806 178.223 179.025 177.316 177.176 176.555L175.768 176.019C175.299 175.851 174.833 175.727 174.366 175.579L171.564 174.725L149.196 167.903L139.309 162.493C139.062 162.358 138.745 162.389 138.527 162.592L138.515 162.603C135.801 165.138 132.739 167.401 129.562 169.393C126.372 171.379 123.001 173.078 119.48 174.359C115.962 175.636 112.285 176.486 108.564 176.708C107.64 176.762 106.691 176.786 105.785 176.75C104.875 176.709 103.867 176.61 102.898 176.659L100.054 176.746C99.577 176.774 99.109 176.764 98.646 176.728L97.251 176.655C93.524 176.55 89.849 175.627 86.328 174.379C82.805 173.103 79.433 171.408 76.242 169.422C74.645 168.43 73.092 167.366 71.591 166.236C70.848 165.676 70.087 165.075 69.397 164.501L68.362 163.541L67.824 163.055C67.617 162.881 67.51 162.759 67.167 162.526C67.14 162.511 67.176 162.527 67.096 162.487C66.992 162.438 66.846 162.406 66.708 162.421C66.351 162.499 66.46 162.508 66.425 162.508L66.347 162.551L66.191 162.636L65.878 162.807L65.253 163.149L64.003 163.833L61.503 165.201L56.563 167.904L34.195 174.726L31.393 175.58C30.926 175.728 30.46 175.852 29.991 176.02L28.583 176.556C26.734 177.317 24.954 178.225 23.268 179.295C19.92 181.481 16.931 184.15 14.592 187.497L14.567 187.54L14.558 187.559L5.23901 206.377H6.742ZM67.064 163.692L67.073 163.687C67.068 163.679 67.108 163.673 67.064 163.692Z" fill="#02020C"/>
<path d="M103.447 186.749C96.194 186.749 89.703 185.561 84.244 183.959C67.366 179.007 56.481 169.121 56.373 169.022C56.099 168.771 56.082 168.345 56.333 168.072C56.584 167.797 57.011 167.78 57.283 168.031C57.389 168.128 68.081 177.829 84.675 182.684C99.952 187.157 123.525 188.311 149.068 168.434C149.361 168.206 149.784 168.259 150.012 168.552C150.24 168.845 150.187 169.267 149.894 169.495C132.988 182.651 116.91 186.749 103.447 186.749Z" fill="#02020C"/>
<path d="M178.574 206.377C176.09 199.652 176.334 192.14 176.994 184.992C177.246 182.265 177.584 179.639 178.928 177.482C179.007 177.355 178.968 177.187 178.841 177.108C178.714 177.029 178.547 177.068 178.468 177.194C177.061 179.453 176.713 182.148 176.454 184.941C175.794 192.087 175.545 199.6 177.993 206.376H178.574V206.377Z" fill="#02020C"/>
<path d="M30.209 184.992C30.869 192.141 31.113 199.652 28.63 206.377H29.211C31.658 199.601 31.41 192.089 30.75 184.942C30.492 182.149 30.145 179.455 28.736 177.195C28.657 177.069 28.491 177.03 28.363 177.109C28.236 177.188 28.197 177.356 28.276 177.483C29.62 179.641 29.958 182.266 30.209 184.992Z" fill="#02020C"/>
<path d="M60.488 171.706C60.398 171.706 60.31 171.662 60.258 171.579C60.178 171.453 60.217 171.285 60.343 171.205L69.164 165.669C69.291 165.589 69.458 165.627 69.538 165.755C69.618 165.881 69.579 166.049 69.453 166.129L60.632 171.665C60.587 171.693 60.538 171.706 60.488 171.706Z" fill="#02020C"/>
<path d="M66.682 175.741C66.599 175.741 66.517 175.703 66.464 175.632C66.375 175.511 66.401 175.342 66.521 175.252L74.498 169.34C74.618 169.251 74.788 169.277 74.877 169.397C74.966 169.518 74.941 169.687 74.82 169.776L66.843 175.689C66.794 175.725 66.738 175.741 66.682 175.741Z" fill="#02020C"/>
<path d="M74.095 179.589C74.025 179.589 73.954 179.562 73.901 179.507C73.797 179.399 73.799 179.228 73.907 179.123L80.57 172.648C80.676 172.543 80.849 172.545 80.953 172.653C81.057 172.761 81.055 172.932 80.947 173.037L74.284 179.512C74.231 179.564 74.163 179.589 74.095 179.589Z" fill="#02020C"/>
<path d="M83.103 183.061C83.05 183.061 82.995 183.045 82.948 183.013C82.826 182.927 82.795 182.758 82.881 182.635L87.667 175.785C87.752 175.662 87.921 175.633 88.045 175.717C88.167 175.803 88.198 175.972 88.112 176.095L83.326 182.945C83.273 183.021 83.189 183.061 83.103 183.061Z" fill="#02020C"/>
<path d="M92.864 185.313C92.826 185.313 92.787 185.305 92.75 185.288C92.614 185.226 92.555 185.064 92.617 184.929L95.995 177.61C96.058 177.474 96.219 177.412 96.355 177.477C96.491 177.539 96.55 177.701 96.488 177.836L93.11 185.155C93.064 185.254 92.966 185.313 92.864 185.313Z" fill="#02020C"/>
<path d="M144.945 171.706C144.896 171.706 144.846 171.693 144.801 171.665L135.98 166.129C135.853 166.049 135.815 165.881 135.895 165.755C135.974 165.628 136.142 165.59 136.269 165.669L145.09 171.205C145.217 171.285 145.255 171.453 145.175 171.579C145.123 171.661 145.035 171.706 144.945 171.706Z" fill="#02020C"/>
<path d="M138.752 175.741C138.696 175.741 138.639 175.724 138.591 175.688L130.614 169.775C130.494 169.686 130.468 169.516 130.557 169.396C130.647 169.276 130.816 169.25 130.936 169.339L138.913 175.251C139.033 175.34 139.059 175.51 138.97 175.631C138.916 175.703 138.834 175.741 138.752 175.741Z" fill="#02020C"/>
<path d="M131.338 179.589C131.27 179.589 131.202 179.564 131.149 179.513L124.486 173.038C124.378 172.933 124.376 172.762 124.481 172.654C124.584 172.546 124.757 172.544 124.864 172.649L131.527 179.124C131.635 179.229 131.637 179.4 131.533 179.508C131.48 179.562 131.409 179.589 131.338 179.589Z" fill="#02020C"/>
<path d="M122.33 183.061C122.244 183.061 122.16 183.021 122.107 182.945L117.321 176.095C117.235 175.973 117.265 175.804 117.388 175.717C117.512 175.633 117.68 175.661 117.766 175.785L122.552 182.635C122.638 182.757 122.608 182.926 122.485 183.013C122.437 183.045 122.383 183.061 122.33 183.061Z" fill="#02020C"/>
<path d="M112.57 185.313C112.467 185.313 112.37 185.254 112.324 185.155L108.946 177.836C108.883 177.701 108.943 177.539 109.079 177.477C109.216 177.413 109.376 177.474 109.439 177.61L112.817 184.929C112.88 185.064 112.82 185.226 112.684 185.288C112.647 185.305 112.608 185.313 112.57 185.313Z" fill="#02020C"/>
<path d="M103.374 186.627C103.224 186.627 103.103 186.505 103.103 186.356V177.319C103.103 177.17 103.224 177.048 103.374 177.048C103.524 177.048 103.645 177.169 103.645 177.319V186.356C103.645 186.506 103.524 186.627 103.374 186.627Z" fill="#02020C"/>
<path d="M135.834 162.935L138.906 162.379L137.501 163.948L135.834 162.935Z" fill="#02020C"/>
<path d="M69.982 162.935L66.91 162.379L68.315 163.948L69.982 162.935Z" fill="#02020C"/>
<path d="M79.328 96.813C81.064 96.558 82.791 96.498 84.526 96.473C86.259 96.455 87.992 96.5 89.722 96.592C89.946 96.604 90.118 96.795 90.106 97.019C90.094 97.243 89.903 97.415 89.679 97.403C89.674 97.403 89.667 97.402 89.662 97.402C87.952 97.238 86.237 97.121 84.52 97.066C82.808 97.016 81.075 97.007 79.387 97.182L79.374 97.183C79.271 97.194 79.18 97.119 79.169 97.016C79.159 96.917 79.23 96.828 79.328 96.813Z" fill="#02020C"/>
<path d="M115.353 96.813C117.089 96.558 118.816 96.498 120.551 96.473C122.284 96.455 124.017 96.5 125.747 96.592C125.971 96.604 126.143 96.795 126.131 97.019C126.119 97.243 125.928 97.415 125.704 97.403C125.699 97.403 125.692 97.402 125.687 97.402C123.977 97.238 122.262 97.121 120.545 97.066C118.833 97.016 117.1 97.007 115.412 97.182L115.399 97.183C115.296 97.194 115.205 97.119 115.194 97.016C115.184 96.917 115.254 96.828 115.353 96.813Z" fill="#02020C"/>
<path d="M84.903 97.12C87.8898 97.12 90.311 93.5584 90.311 89.165C90.311 84.7716 87.8898 81.21 84.903 81.21C81.9163 81.21 79.495 84.7716 79.495 89.165C79.495 93.5584 81.9163 97.12 84.903 97.12Z" fill="#02020C"/>
<path d="M88.845 89.546C89.8816 89.546 90.722 88.4536 90.722 87.106C90.722 85.7584 89.8816 84.666 88.845 84.666C87.8084 84.666 86.968 85.7584 86.968 87.106C86.968 88.4536 87.8084 89.546 88.845 89.546Z" fill="#F4EFE9"/>
<path d="M120.177 97.12C123.164 97.12 125.585 93.5584 125.585 89.165C125.585 84.7716 123.164 81.21 120.177 81.21C117.19 81.21 114.769 84.7716 114.769 89.165C114.769 93.5584 117.19 97.12 120.177 97.12Z" fill="#02020C"/>
<path d="M125.996 87.106C125.996 88.454 125.156 89.546 124.119 89.546C123.083 89.546 122.242 88.454 122.242 87.106C122.242 85.758 123.082 84.666 124.119 84.666C125.155 84.666 125.996 85.759 125.996 87.106Z" fill="#F4EFE9"/>
<path d="M98.183 120.118C100.806 121.526 103.995 121.956 106.968 121.252C107.039 121.235 107.109 121.279 107.126 121.349C107.142 121.416 107.102 121.484 107.037 121.505C104.055 122.427 100.707 122.232 97.791 120.914C97.567 120.814 97.468 120.551 97.568 120.327C97.668 120.103 97.931 120.003 98.155 120.104C98.164 120.108 98.174 120.114 98.183 120.118Z" fill="#02020C"/>
<path d="M136.574 73.701C134.489 72.365 132.493 71.284 130.406 70.516C129.912 70.33 129.301 70.112 128.823 69.954C128.329 69.8 127.925 69.713 127.618 69.722C127.282 69.721 127.208 69.756 126.499 69.988C125.931 70.179 125.367 70.34 124.784 70.517C122.46 71.216 120.098 71.789 117.721 72.311L114.156 73.095C112.965 73.346 111.785 73.637 110.57 73.808L111.114 73.434C110.398 74.113 109.654 74.77 108.775 75.324C108.59 75.441 108.345 75.385 108.228 75.2C108.164 75.098 108.152 74.977 108.185 74.871C108.494 73.879 108.939 72.991 109.412 72.125C109.471 72.017 109.56 71.937 109.663 71.888L109.956 71.75C111.067 71.228 112.213 70.826 113.348 70.384L116.761 69.089C119.036 68.225 121.327 67.413 123.655 66.726C124.235 66.556 124.833 66.368 125.428 66.212C125.745 66.131 125.949 66.052 126.481 65.95C126.946 65.868 127.425 65.852 127.875 65.892C128.782 65.983 129.553 66.258 130.182 66.558C130.828 66.859 131.32 67.148 131.915 67.497C134.174 68.892 136.079 70.862 137.142 73.221C137.23 73.416 137.143 73.645 136.948 73.733C136.825 73.788 136.688 73.774 136.582 73.707L136.574 73.701Z" fill="#02020C"/>
<path d="M69.085 73.22C70.147 70.86 72.053 68.89 74.312 67.496C74.907 67.147 75.4 66.858 76.045 66.557C76.674 66.258 77.445 65.982 78.352 65.891C78.803 65.851 79.281 65.866 79.746 65.949C80.278 66.052 80.482 66.13 80.799 66.211C81.393 66.368 81.992 66.556 82.572 66.725C84.9 67.412 87.19 68.224 89.466 69.088L92.879 70.383C94.014 70.825 95.16 71.227 96.271 71.749L96.564 71.887C96.675 71.939 96.761 72.024 96.816 72.124C97.289 72.99 97.733 73.878 98.042 74.87C98.107 75.079 97.99 75.301 97.782 75.366C97.667 75.402 97.547 75.382 97.453 75.323C96.574 74.77 95.829 74.113 95.113 73.433L95.658 73.807C94.443 73.636 93.263 73.345 92.071 73.094L88.506 72.31C86.129 71.788 83.767 71.215 81.443 70.516C80.86 70.34 80.296 70.178 79.728 69.987C79.02 69.755 78.945 69.72 78.61 69.721C78.303 69.712 77.899 69.799 77.405 69.953C76.927 70.111 76.316 70.329 75.822 70.515C73.735 71.283 71.739 72.364 69.654 73.7L69.648 73.704C69.468 73.819 69.229 73.767 69.113 73.587C69.039 73.474 69.034 73.334 69.085 73.22Z" fill="#02020C"/>
<path d="M156.167 43.403C155.828 42.058 154.711 41.07 153.633 40.196C147.078 34.878 139.818 30.433 132.107 27.001C132.956 26.557 133.873 26.226 134.804 26.014C137.005 25.513 139.289 25.568 141.546 25.625C137.461 23.475 132.638 22.789 128.105 23.639C127.884 22.526 127.248 21.471 126.419 20.673C125.195 19.496 123.618 18.768 122.074 18.063C121.595 17.844 121.103 17.622 120.578 17.584C121.243 17.633 121.902 19.83 122.349 21.72C122.331 21.705 122.316 21.688 122.298 21.674C121.175 20.756 119.864 20.097 118.526 19.536C118.505 19.527 118.483 19.52 118.462 19.511C115.559 16.627 111.41 14.823 107.351 13.814C91.387 9.84304 73.651 15.026 61.765 26.399C55.43 32.46 50.77 40.173 48.033 48.484C46.729 52.442 45.878 56.902 45.015 61.016C43.983 65.938 43.524 70.981 43.659 76.008C43.632 75.022 47.854 72.748 48.65 72.296C50.387 71.31 52.586 70.124 54.577 69.971C54.254 71.379 53.132 72.75 52.661 74.211C54.386 73.826 56.162 73.397 57.831 72.779C57.877 73.122 57.921 73.466 57.968 73.81C58.081 74.645 58.332 76.28 58.669 78.389C55.191 84.163 50.74 89.353 45.535 93.636C49.524 94.143 53.542 93.112 57.37 91.883C58.497 91.521 59.616 91.14 60.73 90.744C61.966 97.882 63.273 104.93 63.887 106.944C64.576 106.281 63.939 97.5 63.27 89.797C70.469 87.051 77.404 83.642 84.139 79.852C91.444 78.622 98.373 75.396 104.425 71.088C108.993 67.836 113.099 63.975 116.852 59.818C118.127 58.405 120.15 56.659 120.358 54.599C120.848 54.125 121.321 53.624 121.672 53.053C124.028 53.08 125.999 54.986 127.44 56.905C133.408 64.854 136.037 75.23 134.576 85.061C136.746 76.78 137.226 68.061 135.978 59.592C136.552 59.667 137.115 59.797 137.671 59.953C137.678 60.007 137.683 60.062 137.702 60.114C137.792 60.373 138.016 60.56 138.233 60.727C139.333 61.578 140.529 62.308 141.552 63.251C143.354 64.911 144.493 67.127 145.247 69.482C145.372 82.004 144.292 97.334 143.966 104.691C149.686 91.749 154.806 59.78 156.206 45.7C156.282 44.935 156.356 44.15 156.167 43.403ZM61.113 73.909C61.052 73.475 61.059 72.969 61.191 72.317C61.293 71.813 61.412 71.309 61.541 70.807C62.112 70.373 62.655 69.9 63.128 69.339C62.524 70.891 61.847 72.414 61.113 73.909Z" fill="#02020C"/>
<path d="M61.081 116.87C62.0486 116.87 62.833 116.086 62.833 115.118C62.833 114.15 62.0486 113.366 61.081 113.366C60.1134 113.366 59.329 114.15 59.329 115.118C59.329 116.086 60.1134 116.87 61.081 116.87Z" fill="#02020C"/>
<path d="M61.021 115.536C60.785 115.536 60.593 115.344 60.593 115.108V107.175C60.593 106.939 60.785 106.747 61.021 106.747C61.257 106.747 61.449 106.939 61.449 107.175V115.108C61.449 115.344 61.257 115.536 61.021 115.536Z" fill="#02020C"/>
<path d="M147.602 115.118C147.602 116.085 146.818 116.87 145.85 116.87C144.883 116.87 144.098 116.086 144.098 115.118C144.098 114.151 144.882 113.366 145.85 113.366C146.818 113.366 147.602 114.15 147.602 115.118Z" fill="#02020C"/>
<path d="M145.79 115.536C145.554 115.536 145.362 115.344 145.362 115.108V107.175C145.362 106.939 145.554 106.747 145.79 106.747C146.026 106.747 146.218 106.939 146.218 107.175V115.108C146.218 115.344 146.026 115.536 145.79 115.536Z" fill="#02020C"/>
</g>
</svg>
