<svg width="159" height="159" viewBox="0 0 159 159" fill="none" xmlns="http://www.w3.org/2000/svg">
<mask id="mask0_53_545" style="mask-type:luminance" maskUnits="userSpaceOnUse" x="0" y="0" width="159" height="159">
<path d="M79.5 158.437C123.096 158.437 158.437 123.096 158.437 79.4999C158.437 35.9042 123.096 0.562988 79.5 0.562988C35.9044 0.562988 0.563126 35.9042 0.563126 79.4999C0.563126 123.096 35.9044 158.437 79.5 158.437Z" fill="white"/>
</mask>
<g mask="url(#mask0_53_545)">
<path d="M118.67 66.9256C118.436 66.5597 118.149 66.2301 117.909 65.8681C117.749 65.6275 117.677 65.4581 117.394 65.3313C117.128 65.2121 116.827 65.1773 116.537 65.1719C115.552 65.1526 114.562 65.4303 113.73 65.9594C113.553 66.0723 112.894 66.586 112.761 66.3601C112.741 66.3253 112.763 66.2108 112.763 66.1698C112.765 65.9741 112.766 65.7776 112.768 65.5819C112.777 64.4394 112.787 63.2968 112.796 62.1543C112.81 60.4764 112.824 58.7986 112.839 57.1207C112.844 56.4957 112.85 55.8707 112.854 55.2449C112.882 54.5293 112.907 53.8138 112.923 53.0975C112.95 51.8629 112.953 50.6151 112.904 49.3705C112.912 48.3176 112.922 47.2648 112.93 46.212C112.941 44.9163 112.952 43.6206 112.963 42.3249C112.967 41.819 112.971 41.3139 112.975 40.808L111.189 40.6842C111.016 40.2812 110.832 39.882 110.625 39.4914C108.928 36.285 106.13 33.7469 102.972 31.9615C99.8137 30.1762 96.2986 29.104 92.748 28.3606C83.6316 26.4507 74.0797 26.6495 65.05 28.9385C60.6121 30.0632 56.175 31.7627 52.8448 34.9049C50.1814 37.4174 48.4069 40.7066 47.2179 44.1373C46.4065 46.4789 45.6523 48.9466 45.6848 51.4351C45.7095 53.3373 45.7343 55.2387 45.759 57.1409C45.8 60.2606 45.8402 63.3811 45.8812 66.5009C45.8812 66.5009 42.1805 63.4569 41.1641 65.199C40.1476 66.9411 39.1312 67.2319 39.5675 69.6996C40.003 72.168 42.6161 77.685 43.0516 79.2816C43.4871 80.879 44.7936 85.9597 44.7936 86.8307C44.7936 87.7018 46.1002 89.5893 46.1002 89.5893C46.1002 89.5893 46.1002 89.8793 47.4067 90.3148C48.7132 90.7504 51.3263 91.1859 51.3263 91.1859L52.4882 95.6864L56.9888 100.042L57.8598 102.511L58.7308 120.223C58.7308 120.223 54.5203 125.74 53.0684 126.611C51.6164 127.482 45.3738 132.128 43.6317 132.563C41.95 132.984 61.5063 146.795 79.319 146.578C97.1317 146.795 116.688 132.983 115.006 132.563C113.264 132.128 107.021 127.482 105.57 126.611C104.118 125.74 99.9073 120.223 99.9073 120.223L100.778 102.511L101.649 100.042L106.15 95.6864L107.312 91.1859C107.312 91.1859 109.925 90.7504 111.231 90.3148C112.538 89.8793 112.538 89.5893 112.538 89.5893C112.538 89.5893 113.844 87.7018 113.844 86.8307C113.844 85.9597 115.151 80.8782 115.587 79.2816C116.022 77.685 118.635 72.168 119.071 69.6996C119.248 68.7195 119.218 67.7819 118.67 66.9256Z" fill="#F9BF9A"/>
<path d="M76.4569 85.1835C76.4569 85.1835 77.56 71.8737 76.5946 69.8052C76.5946 69.8052 75.5604 81.4596 76.4569 85.1835Z" fill="#BF7D5D"/>
<path d="M40.2033 70.3525C40.6148 68.6483 42.2285 66.969 43.7787 68.7149C44.2405 69.2355 44.4981 69.9038 44.6961 70.5714C45.8425 74.4245 45.3328 78.6551 46.7043 82.4339C47.6604 85.0694 49.4643 87.2957 51.2366 89.4686C50.4614 85.9915 49.0528 82.7085 48.3759 79.1749C47.8515 76.4334 47.2133 73.7523 46.9379 70.9652C46.8072 69.6393 46.7213 68.2817 46.2038 67.0548C46.121 66.8583 46.0251 66.6626 45.8828 66.5041C45.7559 66.3625 45.5965 66.255 45.4387 66.149C44.7209 65.6655 43.9574 65.1666 43.0933 65.1132C41.7845 65.032 40.597 66.0476 40.102 67.2621C39.5891 68.5199 39.5814 69.9038 40.0989 71.1508C40.1043 70.8808 40.1399 70.6132 40.2033 70.3525Z" fill="#BF7D5D"/>
<path d="M118.669 70.3525C118.258 68.6483 116.644 66.969 115.094 68.7149C114.631 69.2355 114.374 69.9038 114.176 70.5714C113.03 74.4245 113.54 78.6551 112.168 82.4339C111.212 85.0694 109.408 87.2957 107.636 89.4686C108.411 85.9915 109.82 82.7085 110.497 79.1749C111.021 76.4334 111.659 73.7523 111.935 70.9652C112.065 69.6393 112.151 68.2817 112.669 67.0548C112.751 66.8583 112.847 66.6626 112.99 66.5041C113.117 66.3625 113.276 66.255 113.434 66.149C114.152 65.6655 114.915 65.1666 115.779 65.1132C117.088 65.032 118.275 66.0476 118.771 67.2621C119.283 68.5199 119.291 69.9038 118.774 71.1508C118.767 70.8808 118.733 70.6132 118.669 70.3525Z" fill="#BF7D5D"/>
<path d="M105.885 59.956L98.4028 60.6846L83.634 63.6837L83.8135 60.4541L100.344 58.9248L105.885 59.956Z" fill="#BF7D5D"/>
<path d="M75.5765 61.6508L75.035 60.4541L58.5041 58.9248L53.4358 59.9451L60.4457 60.6846L71.8263 63.0657C72.8683 64.3157 75.5997 67.7495 75.5997 67.7495L76.3292 75.8278L76.9999 68.5664C76.9999 68.5664 76.4785 63.8833 75.5765 61.6508Z" fill="#BF7D5D"/>
<path d="M101.399 100.977C101.399 100.977 95.8818 130.124 72.5265 126.906C72.5265 126.906 62.2282 124.975 58.3666 112.746L57.4468 101.069C57.4468 101.069 66.2739 109.344 67.5611 110.447C68.8483 111.55 74.9168 115.872 79.0546 116.148C79.0546 116.148 87.9737 115.045 94.5938 107.137L101.399 100.977Z" fill="#BF7D5D"/>
<path d="M79.7352 108.188L78.195 105.705L79.9881 106.027L81.0224 105.774L79.7352 108.188Z" fill="#BF7D5D"/>
<path d="M84.1113 92.0832C84.1113 92.0832 82.5193 92.2464 82.0698 92.0012L79.6409 92.3253L77.2119 92.0012C76.7625 92.2464 75.1705 92.0832 75.1705 92.0832C77.8454 94.2995 79.4467 94.0125 79.6409 93.9661C79.8358 94.0125 81.4371 94.2995 84.1113 92.0832Z" fill="#BF7D5D"/>
<path d="M159.684 164.838C159.684 164.838 156.503 149.68 149.164 146.508C149.164 146.508 134.764 140.854 131.579 140.026C131.579 140.026 127.072 138.31 123.748 136.719C122.084 135.921 121.097 135.125 120.438 134.281C119.836 133.512 116.763 130.923 116.763 130.923C116.763 130.923 96.8239 144.853 79.1001 144.301C79.1001 144.301 61.0994 144.715 41.1602 130.785L37.4216 133.82L38.114 134.785C38.114 134.785 28.6982 140.302 19.421 142.37C19.421 142.37 5.29735 147.197 3.49728 150.784L-0.527542 164.986L159.684 164.838Z" fill="#B85530"/>
<path d="M55.765 161.795C50.7307 161.571 45.6624 160.852 40.9847 158.977C38.0544 157.803 35.1807 156.06 33.6189 153.317C32.6163 151.556 32.2272 149.501 32.1839 147.475C32.0748 142.376 34.2586 137.147 38.3438 134.093C44.6003 139.165 52.0373 142.561 59.5539 145.453C64.5264 147.367 69.6458 149.1 74.9601 149.485C80.6628 149.898 86.3554 148.742 91.9211 147.432C96.8951 146.261 101.898 144.937 106.37 142.465C109.133 140.937 111.634 139.001 114.19 137.16C115.441 136.258 116.723 135.217 118.104 134.519C119.488 133.82 118.921 134.919 118.329 135.724C116.725 137.902 114.388 139.815 112.37 141.598C110.22 143.499 107.965 145.28 105.621 146.937C96.39 153.46 85.7884 158.04 74.7118 160.289C68.4885 161.553 62.1113 162.078 55.765 161.795Z" fill="#9B3923"/>
<path d="M135.411 142.127C137.675 144.479 140.826 145.722 143.895 146.833C144.477 147.043 145.062 147.253 145.669 147.378C147.752 147.81 149.951 147.234 152.025 147.711C152.337 147.783 152.684 147.912 152.802 148.21C149.654 146.251 146.346 144.55 142.923 143.125C141.212 142.413 139.472 141.77 137.708 141.198C136.136 140.688 134.15 139.812 132.51 139.795C133.702 140.381 134.488 141.169 135.411 142.127Z" fill="#9B3923"/>
<path d="M25.1128 142.127C22.8494 144.479 19.6979 145.722 16.6292 146.833C16.0467 147.043 15.4619 147.253 14.8554 147.378C12.7722 147.81 10.573 147.234 8.49911 147.711C8.18659 147.783 7.84004 147.912 7.72246 148.21C10.8701 146.251 14.1778 144.55 17.6008 143.125C19.3119 142.413 21.0524 141.77 22.8161 141.198C24.388 140.688 26.3745 139.812 28.0144 139.795C26.8224 140.381 26.0357 141.169 25.1128 142.127Z" fill="#9B3923"/>
<path d="M94.2703 147.545C94.2703 147.545 102.638 144.603 105.856 140.282C105.856 140.282 78.9144 154.074 49.5827 138.534L39.7438 132.282L41.6746 130.626C41.6746 130.626 60.0644 144.695 80.3849 144.327C80.3849 144.327 102.567 142.803 116.762 130.922L121.168 133.985C121.169 133.985 109.625 143.5 94.2703 147.545Z" fill="#02020C"/>
<path d="M109.658 79.7786C108.321 82.3592 106.984 84.939 105.647 87.5196C104.586 89.5672 103.328 91.7919 101.129 92.5515C100.374 92.8122 99.5429 92.8826 98.8614 93.2957C98.0917 93.7622 97.6384 94.5868 97.117 95.3155C96.2042 96.5911 94.9913 97.6562 93.6004 98.4004C92.3743 97.7027 91.149 97.0041 89.9229 96.3064C89.5029 96.0674 89.0774 95.826 88.6102 95.6991C88.1786 95.5823 87.7253 95.5669 87.2781 95.5529C85.3868 95.4926 83.4962 95.4323 81.6056 95.372C81.1268 95.3565 80.0547 95.1337 79.4234 95.2288C78.7922 95.1345 77.7201 95.3565 77.2412 95.372C75.3499 95.4323 73.4593 95.4926 71.5687 95.5529C71.1208 95.5669 70.6683 95.5823 70.2359 95.6991C69.7687 95.826 69.3432 96.0674 68.9232 96.3064C67.6971 97.0041 66.4718 97.7027 65.2457 98.4004C63.8548 97.6555 62.6419 96.5911 61.7291 95.3155C61.2077 94.5868 60.7544 93.7622 59.9847 93.2957C59.304 92.8834 58.4716 92.8122 57.7174 92.5515C55.5182 91.7911 54.2604 89.5672 53.1991 87.5196C51.8624 84.939 50.5249 82.3592 49.1882 79.7786C49.8906 83.2101 50.6664 86.6277 51.515 90.0267C51.9351 91.7084 52.2422 93.3607 52.8084 94.9032L51.8794 94.4182L54.0113 106.775C54.0113 106.775 62.0215 120.236 79.1813 122.112L79.172 122.165C79.2563 122.157 79.3383 122.147 79.4219 122.138C79.5054 122.146 79.5874 122.156 79.6717 122.165L79.6625 122.112C96.8223 120.236 104.832 106.775 104.832 106.775L106.964 94.4182L106.035 94.9032C106.602 93.3607 106.909 91.7084 107.329 90.0267C108.18 86.6277 108.956 83.2108 109.658 79.7786ZM73.4717 98.067C73.5506 97.8187 73.6774 97.5688 73.9018 97.4335C74.0867 97.3221 74.3125 97.3035 74.5284 97.2896C76.019 97.1913 77.5143 97.1527 79.0088 97.1681C79.0196 97.172 79.0297 97.1782 79.0405 97.1782C79.1682 97.1751 79.2958 97.1759 79.4234 97.1735C79.5511 97.1759 79.6787 97.1751 79.8064 97.1782C79.818 97.1782 79.828 97.172 79.8381 97.1681C81.3326 97.1527 82.8271 97.1913 84.3185 97.2896C84.5351 97.3035 84.7602 97.3221 84.9451 97.4335C85.1702 97.5688 85.2963 97.8195 85.3752 98.067C85.8424 99.536 84.9606 101.159 83.6912 102.053C82.4511 102.927 80.9172 103.259 79.4234 103.561C77.9289 103.259 76.395 102.927 75.155 102.053C73.8863 101.159 73.0045 99.536 73.4717 98.067ZM79.4002 120.612C79.408 120.608 79.4157 120.606 79.4234 120.602C79.4312 120.606 79.4389 120.608 79.4466 120.612L79.4234 120.745L79.4002 120.612Z" fill="#02020C"/>
<path d="M76.4322 141.389C77.5453 142.14 78.9331 142.474 80.2914 142.45C81.6498 142.417 83.0213 142.025 84.1035 141.231C84.2149 141.149 84.3719 141.173 84.4539 141.284C84.5359 141.396 84.512 141.553 84.4006 141.635C84.3812 141.649 84.3572 141.661 84.3356 141.669C83.0051 142.149 81.6575 142.427 80.2914 142.45C78.9253 142.482 77.5693 142.261 76.2194 141.837C76.0871 141.796 76.0129 141.656 76.0531 141.524C76.0933 141.392 76.2333 141.317 76.3664 141.358C76.3888 141.365 76.4128 141.377 76.4322 141.389Z" fill="#02020C"/>
<path d="M92.7062 139.69C93.4612 139.591 94.2162 139.543 94.9712 139.496C95.7262 139.454 96.4812 139.431 97.2362 139.422C98.7461 139.407 100.256 139.42 101.766 139.533C101.903 139.543 102.006 139.663 101.995 139.799C101.986 139.924 101.887 140.02 101.766 140.028C100.256 140.141 98.7461 140.155 97.2362 140.14C96.4812 140.131 95.7262 140.108 94.9712 140.066C94.2162 140.018 93.4612 139.97 92.7062 139.872C92.6559 139.866 92.6196 139.82 92.6265 139.769C92.6319 139.727 92.666 139.695 92.7062 139.69Z" fill="#02020C"/>
<path d="M68.8582 139.873C68.0321 139.971 67.2051 140.019 66.379 140.066C65.5528 140.108 64.7259 140.131 63.8997 140.14C62.2466 140.155 60.5943 140.143 58.9412 140.029C58.8043 140.02 58.7014 139.901 58.7107 139.764C58.7192 139.639 58.8198 139.542 58.9412 139.534C60.5943 139.421 62.2466 139.408 63.8997 139.422C64.7259 139.432 65.5528 139.454 66.379 139.497C67.2051 139.544 68.0321 139.592 68.8582 139.69C68.9085 139.696 68.9449 139.742 68.9387 139.793C68.9333 139.835 68.8992 139.868 68.8582 139.873Z" fill="#02020C"/>
<path d="M77.1654 100.54L82.2663 99.6541L81.9476 99.8034L83.9302 98.3777C84.0037 98.3251 84.1066 98.3414 84.1592 98.4149C84.2017 98.4744 84.1986 98.5534 84.1568 98.609L82.691 100.562C82.6206 100.656 82.5146 100.707 82.4063 100.711L82.3723 100.712L77.1979 100.861C77.109 100.863 77.0339 100.793 77.0316 100.704C77.0285 100.623 77.0873 100.554 77.1654 100.54Z" fill="#02020C"/>
<path d="M45.7234 66.8825C44.9816 66.5809 44.331 66.2188 43.6789 66.0239C43.0423 65.8228 42.3608 65.8026 41.7822 66.0076C41.2051 66.2049 40.8145 66.669 40.5398 67.308C40.2629 67.9276 40.1345 68.6207 40.1159 69.3231C40.0757 70.7372 40.5081 72.1543 41.0349 73.5444L42.6996 77.7557C43.2442 79.1728 43.7602 80.6124 44.1454 82.0976C44.3388 82.8395 44.5012 83.5914 44.6227 84.3518C44.7403 85.1099 44.823 85.8564 44.9661 86.5758C45.1108 87.2921 45.315 87.9883 45.6747 88.5839C46.0313 89.1788 46.5496 89.6538 47.1739 89.9903C48.4263 90.6803 49.9331 90.7909 51.43 90.8783L51.3959 91.5056C49.9022 91.4329 48.2886 91.3579 46.849 90.5944C46.1373 90.2262 45.4945 89.6576 45.0652 88.9575C44.632 88.2598 44.4014 87.4839 44.2374 86.7258C44.0765 85.9647 43.9837 85.2089 43.86 84.4763C43.7339 83.7461 43.5675 83.022 43.3711 82.305C42.9796 80.8692 42.4567 79.4652 41.8998 78.0705L40.1786 73.8747C39.6239 72.4599 39.1188 70.9321 39.1405 69.3053C39.1521 68.5 39.2882 67.6754 39.6185 66.9088C39.7794 66.5282 39.9898 66.1461 40.2931 65.8065C40.5955 65.4623 41.0032 65.1977 41.4225 65.0399C42.2703 64.7266 43.1777 64.7692 43.9799 65.0059C44.7813 65.2395 45.4635 65.6139 46.1249 65.8684L45.7234 66.8825Z" fill="#02020C"/>
<path d="M41.632 70.2959C41.3087 69.732 41.0016 69.0528 41.1702 68.3365C41.2445 67.9892 41.468 67.648 41.7806 67.4523C42.0869 67.2527 42.4288 67.146 42.7792 67.0934C43.4832 66.9936 44.1972 67.146 44.8315 67.426C45.4689 67.7061 46.0336 68.1006 46.5697 68.4959C46.7097 68.5987 46.7391 68.796 46.6362 68.9352C46.5333 69.0752 46.3368 69.1046 46.1968 69.0018C46.1914 68.9979 46.186 68.9933 46.1813 68.9894C45.6801 68.5693 45.1742 68.171 44.6149 67.8824C44.061 67.5954 43.4391 67.4253 42.8233 67.474C42.2161 67.5204 41.5771 67.7904 41.4232 68.403C41.2383 68.9987 41.4657 69.6523 41.755 70.231C41.7721 70.265 41.7581 70.3068 41.7241 70.3238C41.6901 70.3408 41.6498 70.3276 41.632 70.2959Z" fill="#02020C"/>
<path d="M47.7316 74.2766C47.0548 74.8258 46.6386 75.6682 46.5729 76.5238C46.4947 77.3886 46.8421 78.2179 47.3449 78.9342C47.8423 79.6613 48.4696 80.3189 48.9879 81.0994C49.5039 81.8814 49.8752 82.761 50.0763 83.6823C50.1134 83.8517 50.0059 84.0196 49.8365 84.0567C49.6671 84.0938 49.4992 83.9863 49.4621 83.8169C49.4613 83.8138 49.4606 83.8084 49.4598 83.8053C49.3066 82.9544 48.9933 82.1274 48.54 81.3833C48.0852 80.6368 47.4818 79.9553 46.9836 79.1709C46.4816 78.4043 46.1157 77.4466 46.2402 76.4913C46.3485 75.5499 46.8343 74.6587 47.5862 74.0909C47.638 74.0515 47.7115 74.0623 47.751 74.1142C47.7897 74.1644 47.7804 74.2371 47.7316 74.2766Z" fill="#02020C"/>
<path d="M57.4707 100.294C58.4323 102.736 58.7193 105.36 58.949 107.899C59.1617 110.446 59.3056 112.999 59.3629 115.558C59.4217 118.116 59.4534 120.679 59.3188 123.238C59.2159 125.797 58.9831 128.353 58.6048 130.883C58.5916 130.97 58.5112 131.03 58.4238 131.017C58.3433 131.004 58.2853 130.932 58.2884 130.853C58.3859 128.305 58.43 125.764 58.4013 123.223C58.3549 120.683 58.2938 118.144 58.1553 115.605L57.702 107.988C57.5698 105.451 57.3973 102.945 56.7746 100.522C56.7235 100.326 56.8403 100.125 57.036 100.074C57.2178 100.026 57.4035 100.125 57.4707 100.294Z" fill="#02020C"/>
<path d="M44.0023 131.622C45.4891 130.987 46.9326 130.283 48.3033 129.46C49.6803 128.647 50.993 127.734 52.2191 126.714C53.4684 125.72 54.6016 124.591 55.6777 123.41C56.7467 122.221 57.7191 120.943 58.6195 119.603L59.1006 119.877C58.3905 121.368 57.48 122.765 56.4412 124.058C55.4085 125.358 54.2087 126.52 52.94 127.592C51.6482 128.637 50.2597 129.565 48.7899 130.335C47.3147 131.094 45.7661 131.712 44.1617 132.103L44.0023 131.622Z" fill="#02020C"/>
<path d="M72.3609 115.909C72.8924 117.61 73.5576 119.264 74.3907 120.833C75.213 122.407 76.2001 123.889 77.2893 125.298C77.3465 125.372 77.3334 125.478 77.2591 125.535C77.1887 125.589 77.0889 125.579 77.0301 125.515C75.8118 124.179 74.7945 122.663 73.9552 121.06C73.1267 119.451 72.4739 117.749 72.0693 115.988C72.0507 115.907 72.1018 115.826 72.183 115.807C72.2604 115.789 72.3377 115.835 72.3609 115.909Z" fill="#02020C"/>
<path d="M76.7029 91.3122C77.1446 91.5442 77.6026 91.7337 78.0644 91.866C78.527 91.9975 78.9965 92.0795 79.4614 92.0672C79.9255 92.0842 80.385 92.0037 80.8229 91.8552C81.27 91.7283 81.6777 91.4901 82.1031 91.2642L82.124 91.2534C82.2431 91.1899 82.3909 91.2348 82.4543 91.3547C82.5092 91.4576 82.4822 91.5829 82.3971 91.6556C81.9979 91.996 81.5477 92.2992 81.0325 92.471C80.5281 92.6674 79.9735 92.7224 79.4374 92.6961C78.9006 92.6481 78.3769 92.5158 77.9035 92.2876C77.4324 92.0556 76.9976 91.7624 76.6488 91.3779C76.6325 91.3601 76.6341 91.3331 76.6519 91.3176C76.665 91.3044 76.6874 91.3044 76.7029 91.3122Z" fill="#02020C"/>
<path d="M74.7991 88.061C74.5206 88.5777 74.2785 89.1122 74.075 89.6599C73.9721 89.9461 73.8584 90.1937 73.966 90.4041C74.0634 90.6245 74.2661 90.8636 74.444 91.0771C74.8122 91.5033 75.2679 91.8553 75.7738 91.9373C76.282 92.0239 76.825 91.8684 77.3812 91.6967C77.5468 91.6449 77.7231 91.7377 77.775 91.9032C77.8268 92.0688 77.734 92.2451 77.5684 92.297C77.5607 92.2993 77.5522 92.3016 77.5444 92.3032C76.9736 92.4323 76.3307 92.5878 75.6693 92.4308C75.0041 92.2683 74.5113 91.7988 74.1478 91.3176C73.9691 91.0647 73.7888 90.8411 73.665 90.5131C73.6063 90.3507 73.607 90.1434 73.6612 89.9871C73.7122 89.827 73.7764 89.7001 73.8368 89.5617C74.0828 89.0186 74.3659 88.4949 74.6831 87.9937C74.7032 87.9619 74.7442 87.9527 74.7759 87.9728C74.806 87.9913 74.8161 88.03 74.7991 88.061Z" fill="#02020C"/>
<path d="M77.0433 71.2514C77.1795 72.4241 77.2383 73.5992 77.2839 74.775C77.3172 75.9508 77.3218 77.1281 77.2994 78.3055C77.2514 79.4821 77.2212 80.6602 77.1006 81.8337C76.9876 83.0072 76.8453 84.1822 76.5707 85.334C76.5606 85.3766 76.5173 85.4037 76.4748 85.3936C76.4361 85.3843 76.4106 85.3479 76.4136 85.3093C76.5011 84.1397 76.549 82.9716 76.5892 81.802C76.6209 80.6323 76.6705 79.4627 76.6774 78.2916L76.761 74.7765C76.7989 73.6038 76.8321 72.4303 76.9064 71.2553C76.9087 71.2174 76.9412 71.188 76.9791 71.1903C77.0124 71.1926 77.0387 71.2189 77.0433 71.2514Z" fill="#02020C"/>
<path d="M43.973 71.2839C43.9235 71.0627 43.8593 70.8051 43.973 70.549C44.089 70.2961 44.3404 70.1537 44.5787 70.0841C45.066 69.9495 45.5905 70.0238 46.0422 70.252C46.4932 70.4724 46.8746 70.8963 47.0602 71.3628C47.2498 71.8231 47.3805 72.247 47.5414 72.6871C47.6009 72.8503 47.5174 73.0314 47.3534 73.0909C47.1902 73.1505 47.0099 73.0669 46.9496 72.9037C46.9465 72.8944 46.9434 72.8859 46.9411 72.8766L46.9396 72.8697C46.8227 72.428 46.7183 71.9553 46.5915 71.5461C46.4669 71.1392 46.2186 70.8105 45.8573 70.5823C45.5038 70.3587 45.0583 70.2543 44.6405 70.3301C44.4363 70.3703 44.2391 70.4663 44.1431 70.6349C44.0434 70.8035 44.0658 71.0364 44.0991 71.2607C44.1045 71.2955 44.0805 71.328 44.0457 71.3334C44.0116 71.338 43.9799 71.3164 43.973 71.2839Z" fill="#02020C"/>
<path d="M79.3384 26.7251C79.285 26.6741 79.2448 26.5774 79.2463 26.5016L79.5604 26.8118C79.4335 26.8141 79.3067 26.8141 79.1798 26.811L79.4923 26.4993V26.5047L79.49 26.8156L79.1806 26.8164C74.0062 26.8319 68.7979 27.4956 63.926 29.2229C61.5117 30.1272 59.1872 31.2721 57.0723 32.7395C54.9767 34.2302 53.107 36.0264 51.5506 38.0647C48.4154 42.146 46.6339 47.1362 45.8781 52.2138C45.5184 54.7619 45.373 57.3448 45.479 59.9177C45.5308 61.1972 45.6314 62.5022 45.8217 63.7383L46.6826 67.5357C47.8507 72.6079 48.9677 77.691 50.0848 82.774L51.7649 90.3982C52.0488 91.6552 52.3172 92.9703 52.6127 94.1801C52.9523 95.3644 53.6021 96.418 54.5149 97.2914C58.163 100.997 61.8444 104.679 65.658 108.205C66.6103 109.089 67.5819 109.948 68.5658 110.789C69.5606 111.623 70.5539 112.428 71.6585 113.074C73.8678 114.373 76.3115 115.286 78.8263 115.784L78.7659 115.778L79.9719 115.779L79.9116 115.785C82.4272 115.29 84.8732 114.382 87.0863 113.086C88.1887 112.435 89.1858 111.634 90.1806 110.799C91.1653 109.958 92.1369 109.099 93.0899 108.216C96.9043 104.69 100.597 101.019 104.226 97.2937C105.135 96.4165 105.779 95.359 106.112 94.1762C106.401 92.9664 106.665 91.6498 106.943 90.3912L108.589 82.7601L111.888 67.5016L112.717 63.7027C112.896 62.4867 112.99 61.1794 113.033 59.9092C113.123 57.3495 112.963 54.782 112.59 52.2541C111.795 47.2197 110.016 42.296 106.93 38.2627C105.386 36.2584 103.572 34.4576 101.506 32.9685C99.4246 31.5018 97.1325 30.343 94.7445 29.4109C93.5301 28.9978 92.3241 28.5507 91.0655 28.2692C89.8278 27.9071 88.553 27.7068 87.282 27.4824C86.6493 27.3517 86.0064 27.2883 85.3636 27.221L83.4359 27.0113C82.0938 26.9224 80.6704 26.8419 79.3384 26.7251ZM79.7832 26.2811C81.0518 26.2703 82.233 26.2339 83.4877 26.3012L85.4464 26.4722C86.1 26.5263 86.7537 26.5774 87.4004 26.6957L89.3474 26.999C89.9996 27.0856 90.6323 27.2759 91.2775 27.4066C92.5724 27.6557 93.8248 28.075 95.0872 28.4625C97.5765 29.3436 99.9947 30.4753 102.212 31.959C104.406 33.4682 106.404 35.2915 108.04 37.4087C109.685 39.5159 111 41.8721 111.989 44.346C112.973 46.8245 113.619 49.4205 114.015 52.0406C114.387 54.6652 114.537 57.3162 114.429 59.9602C114.374 61.2908 114.279 62.5849 114.07 63.9433L113.197 67.7662L109.664 82.9914L107.894 90.6024C107.589 91.8819 107.326 93.1157 106.988 94.4315C106.601 95.7543 105.812 96.9757 104.831 97.8893C101.133 101.561 97.4288 105.227 93.5602 108.731C92.5956 109.609 91.6093 110.467 90.6076 111.307C89.6027 112.137 88.5553 112.964 87.4081 113.629C85.1292 114.967 82.6268 115.902 80.0361 116.416L80.0067 116.422H79.975L78.769 116.423H78.7381L78.7087 116.417C76.1173 115.907 73.6117 114.976 71.3297 113.64C70.1841 112.971 69.1336 112.148 68.1288 111.317C67.1262 110.477 66.1392 109.62 65.1745 108.742C61.306 105.237 57.5906 101.583 53.9108 97.8924C52.9338 96.975 52.1502 95.7497 51.7696 94.4276C51.4369 93.1118 51.1786 91.8757 50.88 90.5954L49.1441 82.9774C47.9838 77.899 46.8234 72.8206 45.7142 67.7322L44.8733 63.9077C44.6753 62.5694 44.5871 61.273 44.5407 59.9525C44.4494 57.3216 44.6134 54.6861 44.9986 52.0816C45.8016 46.8918 47.6945 41.7801 50.9612 37.6075C52.5841 35.5251 54.5273 33.6956 56.6917 32.1888C58.8762 30.7058 61.2619 29.5602 63.7241 28.6513C68.6989 26.9479 73.9544 26.2432 79.1806 26.1906L78.8696 26.5023V26.4969V26.1782L79.1829 26.1852C79.3098 26.1875 79.4366 26.1875 79.5635 26.1844L79.8775 26.4946C79.8768 26.4219 79.8366 26.3291 79.7832 26.2811Z" fill="#02020C"/>
<path d="M112.648 65.9551C113.247 65.7455 113.918 65.2984 114.716 65.0292C115.547 64.7577 116.432 64.7291 117.289 65.0292C117.712 65.1816 118.119 65.4423 118.428 65.7842C118.735 66.1222 118.95 66.5036 119.112 66.885C119.446 67.6516 119.586 68.4762 119.6 69.2822C119.625 70.9105 119.123 72.4407 118.569 73.8578L116.846 78.0574C116.288 79.4537 115.764 80.8585 115.372 82.295C115.175 83.0129 115.009 83.7369 114.882 84.4679C114.757 85.2013 114.664 85.9578 114.504 86.719C114.34 87.4771 114.111 88.2545 113.678 88.953C113.25 89.6539 112.607 90.224 111.895 90.593C110.455 91.3572 108.84 91.433 107.344 91.5057L107.309 90.8784C108.808 90.791 110.316 90.6804 111.569 89.9888C112.193 89.6515 112.711 89.1758 113.068 88.5794C113.428 87.9837 113.63 87.286 113.775 86.5689C113.917 85.8487 114 85.1015 114.118 84.3426C114.24 83.5814 114.403 82.8288 114.597 82.0869C114.983 80.6001 115.5 79.1598 116.045 77.7418L117.711 73.5275C118.238 72.1366 118.667 70.7179 118.624 69.3031C118.602 68.6007 118.471 67.9076 118.191 67.2895C117.913 66.6529 117.52 66.1934 116.938 66.0023C116.365 65.802 115.654 65.8252 115.058 66.0356C114.418 66.2522 113.824 66.6738 113.002 66.9886L112.648 65.9551Z" fill="#02020C"/>
<path d="M116.986 70.2312C117.275 69.6526 117.503 68.9989 117.319 68.4033C117.165 67.7906 116.526 67.5206 115.918 67.4742C115.303 67.4255 114.681 67.5957 114.127 67.8827C113.568 68.1712 113.062 68.5696 112.56 68.9896C112.427 69.101 112.229 69.084 112.118 68.951C112.006 68.8179 112.024 68.6199 112.157 68.5085C112.161 68.5046 112.167 68.5 112.172 68.4961C112.709 68.1008 113.273 67.7063 113.91 67.4263C114.545 67.1462 115.259 66.9939 115.962 67.0936C116.313 67.1462 116.655 67.253 116.961 67.4526C117.274 67.6483 117.496 67.9894 117.571 68.3368C117.74 69.0531 117.433 69.7322 117.11 70.2962C117.091 70.3294 117.049 70.3418 117.015 70.3232C116.982 70.3047 116.97 70.2637 116.986 70.2312Z" fill="#02020C"/>
<path d="M111.154 74.0915C111.906 74.6593 112.392 75.5504 112.5 76.4918C112.624 77.4472 112.259 78.4048 111.757 79.1714C111.259 79.955 110.656 80.6373 110.2 81.3838C109.747 82.128 109.434 82.9541 109.28 83.8058C109.249 83.9767 109.086 84.0905 108.915 84.0595C108.744 84.0286 108.631 83.8654 108.662 83.6944C108.662 83.6913 108.663 83.6859 108.664 83.6828C108.864 82.7615 109.236 81.882 109.752 81.0999C110.271 80.3194 110.898 79.6618 111.395 78.9347C111.897 78.2184 112.245 77.3891 112.167 76.5243C112.101 75.6687 111.685 74.8263 111.008 74.2771C110.957 74.2361 110.949 74.1626 110.99 74.1116C111.032 74.0621 111.104 74.0536 111.154 74.0915Z" fill="#02020C"/>
<path d="M101.918 100.505C101.311 102.943 101.167 105.451 101.066 107.989C100.972 110.534 100.709 113.066 100.555 115.604C100.22 120.677 100.142 125.767 100.453 130.852C100.458 130.939 100.391 131.015 100.304 131.021C100.22 131.026 100.148 130.964 100.136 130.883C99.4763 125.81 99.3409 120.674 99.4075 115.559C99.4531 113.001 99.5011 110.44 99.7641 107.897C100.025 105.36 100.34 102.738 101.318 100.31C101.383 100.147 101.568 100.069 101.73 100.134C101.877 100.194 101.956 100.354 101.918 100.505Z" fill="#02020C"/>
<path d="M114.579 132.102C112.974 131.711 111.426 131.093 109.951 130.334C108.481 129.565 107.092 128.637 105.801 127.591C104.533 126.519 103.333 125.357 102.3 124.057C101.261 122.764 100.351 121.367 99.6404 119.876L100.122 119.602C101.022 120.942 101.994 122.22 103.063 123.409C104.139 124.59 105.273 125.719 106.522 126.713C107.748 127.733 109.062 128.646 110.438 129.459C111.808 130.282 113.252 130.986 114.739 131.621L114.579 132.102Z" fill="#02020C"/>
<path d="M84.0571 87.993C84.3742 88.4942 84.6574 89.0187 84.9034 89.561C84.9637 89.6987 85.0271 89.8263 85.079 89.9864C85.1331 90.1427 85.1339 90.35 85.0751 90.5124C84.9513 90.8404 84.7711 91.0648 84.5924 91.317C84.2296 91.7989 83.7368 92.2684 83.0708 92.4301C82.4086 92.5871 81.7666 92.4316 81.1957 92.3025C81.0263 92.2638 80.9203 92.0959 80.9582 91.9265C80.9969 91.7571 81.1647 91.6511 81.3342 91.689C81.3419 91.6906 81.3512 91.6929 81.3581 91.6952C81.9151 91.8669 82.4581 92.0224 82.9656 91.9358C83.4715 91.8546 83.9271 91.5026 84.2953 91.0756C84.4733 90.8629 84.6759 90.6238 84.7734 90.4026C84.8809 90.1922 84.7672 89.9439 84.6643 89.6584C84.4609 89.1108 84.2188 88.5762 83.9403 88.0595C83.9225 88.027 83.9349 87.986 83.9674 87.9682C83.9998 87.9527 84.0385 87.9636 84.0571 87.993Z" fill="#02020C"/>
<path d="M114.643 71.2608C114.676 71.0357 114.698 70.8036 114.599 70.635C114.503 70.4664 114.305 70.3697 114.101 70.3302C113.684 70.2544 113.238 70.3588 112.884 70.5824C112.523 70.8106 112.275 71.1393 112.15 71.5462C112.023 71.9554 111.919 72.4281 111.802 72.8698L111.801 72.8767C111.757 73.0446 111.584 73.1444 111.416 73.1003C111.248 73.0562 111.149 72.8837 111.193 72.7158C111.195 72.7066 111.198 72.6973 111.201 72.6888C111.362 72.2486 111.493 71.8247 111.682 71.3645C111.868 70.8972 112.249 70.4733 112.7 70.2536C113.151 70.0246 113.677 69.9512 114.164 70.0857C114.401 70.1554 114.654 70.2969 114.77 70.5507C114.883 70.8067 114.819 71.0643 114.77 71.2855C114.762 71.3196 114.728 71.3412 114.694 71.3335C114.659 71.325 114.638 71.2933 114.643 71.2608Z" fill="#02020C"/>
<path d="M105.762 59.8528L98.1079 60.0524L98.6448 60.0531L84.7664 61.5747L85.5492 61.0131L84.1011 61.953C83.9828 62.0295 83.8242 61.9963 83.7476 61.8779C83.7213 61.8377 83.7082 61.7913 83.7066 61.7472L83.6517 60.0214C83.644 59.787 83.8079 59.5874 84.03 59.5426L84.4345 59.4598L98.1118 56.6595L98.2464 56.6317C98.3849 56.603 98.5249 56.6162 98.6487 56.6595L105.86 59.2316C106.026 59.2912 106.113 59.4737 106.053 59.64C106.008 59.7677 105.889 59.8489 105.762 59.8528Z" fill="#02020C"/>
<path d="M53.5031 59.2316L60.7142 56.6595C60.8472 56.6123 60.9842 56.6046 61.1134 56.6301L61.251 56.6587L74.9283 59.459L75.3329 59.5418C75.5619 59.5889 75.7189 59.7947 75.7112 60.0206L75.6562 61.7464C75.6516 61.8872 75.534 61.9986 75.3924 61.9939C75.3445 61.9924 75.2989 61.9769 75.2617 61.9529L73.8136 61.013L74.5965 61.5747L60.7181 60.0531L61.2549 60.0523L53.6013 59.8527C53.425 59.8481 53.2857 59.7011 53.2904 59.5247C53.2942 59.3894 53.3824 59.2749 53.5031 59.2316Z" fill="#02020C"/>
<path d="M86.7985 116.234C86.3939 117.995 85.7411 119.697 84.9126 121.306C84.0733 122.909 83.056 124.426 81.8377 125.761C81.7743 125.83 81.6675 125.836 81.5979 125.772C81.5321 125.713 81.5252 125.612 81.5785 125.543C82.6677 124.135 83.6548 122.653 84.4771 121.078C85.3094 119.509 85.9747 117.856 86.5061 116.154C86.5309 116.075 86.6159 116.031 86.6956 116.055C86.7722 116.08 86.8155 116.158 86.7985 116.234Z" fill="#02020C"/>
<path d="M62.1824 76.0699C62.9846 75.8626 63.714 75.8278 64.4752 75.7984C65.2287 75.7782 65.979 75.7937 66.7255 75.8432C68.2192 75.9329 69.699 76.1271 71.168 76.3723C71.1967 76.377 71.216 76.404 71.2114 76.4334C71.2067 76.4613 71.1812 76.4799 71.1533 76.4775C69.6758 76.319 68.1929 76.2122 66.7139 76.2107C65.9744 76.2045 65.2364 76.2331 64.5046 76.2958C63.7852 76.3607 63.0217 76.4598 62.392 76.6632L62.3572 76.674C62.1917 76.7274 62.0145 76.6369 61.9612 76.4713C61.9078 76.3058 61.9983 76.1287 62.1638 76.0753C62.17 76.0737 62.177 76.0714 62.1824 76.0699Z" fill="#02020C"/>
<path d="M66.5863 76.1221C68.8967 76.1221 70.7697 73.6316 70.7697 70.5595C70.7697 67.4873 68.8967 64.9968 66.5863 64.9968C64.2758 64.9968 62.4029 67.4873 62.4029 70.5595C62.4029 73.6316 64.2758 76.1221 66.5863 76.1221Z" fill="#02020C"/>
<path d="M71.3677 67.3637C71.3677 68.3917 70.6784 69.2256 69.8275 69.2256C68.9766 69.2256 68.2874 68.3917 68.2874 67.3637C68.2874 66.3356 68.9766 65.5017 69.8275 65.5017C70.6784 65.5017 71.3677 66.3356 71.3677 67.3637Z" fill="#F4EFE9"/>
<path d="M88.1043 76.0699C88.9065 75.8626 89.636 75.8278 90.3972 75.7984C91.1506 75.7782 91.9002 75.7937 92.6474 75.8432C94.1412 75.9329 95.621 76.1271 97.09 76.3723C97.1186 76.377 97.138 76.404 97.1333 76.4334C97.1287 76.4613 97.1031 76.4799 97.0753 76.4775C95.5978 76.319 94.1149 76.2122 92.6358 76.2107C91.8963 76.2045 91.1583 76.2331 90.4266 76.2958C89.7071 76.3607 88.9437 76.4598 88.314 76.6632L88.2792 76.674C88.1136 76.7274 87.9365 76.6369 87.8839 76.4713C87.8305 76.3058 87.921 76.1287 88.0866 76.0753C88.0927 76.0737 88.0989 76.0714 88.1043 76.0699Z" fill="#02020C"/>
<path d="M92.5082 76.1221C94.8186 76.1221 96.6916 73.6316 96.6916 70.5595C96.6916 67.4873 94.8186 64.9968 92.5082 64.9968C90.1977 64.9968 88.3248 67.4873 88.3248 70.5595C88.3248 73.6316 90.1977 76.1221 92.5082 76.1221Z" fill="#02020C"/>
<path d="M97.2895 67.3637C97.2895 68.3917 96.6003 69.2256 95.7494 69.2256C94.8985 69.2256 94.2092 68.3917 94.2092 67.3637C94.2092 66.3356 94.8985 65.5017 95.7494 65.5017C96.6003 65.5017 97.2895 66.3356 97.2895 67.3637Z" fill="#F4EFE9"/>
<path d="M120.246 47.5753C119.995 47.3695 119.699 47.2164 119.518 46.9301C119.162 46.3647 119.408 45.5857 119.633 44.939C120.328 42.9409 120.723 40.7192 120.257 38.636C119.887 36.983 119.005 35.5921 117.872 34.5292C117.182 33.126 115.859 32.0918 115.579 30.5122C115.35 29.2288 115.883 27.9285 115.876 26.6189C115.862 24.3338 114.23 22.4819 112.512 21.3084C110.793 20.1349 108.844 19.3265 107.411 17.7307C106.652 16.8867 106.069 15.8533 105.308 15.0116C103.886 13.4398 101.929 12.6376 99.9729 12.2895C98.4212 12.0133 96.871 11.9963 95.3208 12.1363C94.6099 11.9739 93.8905 11.8594 93.1687 11.7982C89.9422 11.5236 78.0936 12.2067 75.0311 13.3987C72.3198 14.4539 69.6882 15.9167 66.843 16.2957C64.3939 16.6222 61.8265 16.1263 59.437 16.9579C57.271 17.7113 54.9882 19.5253 53.1959 21.0833C52.0572 22.0727 51.409 23.4612 49.9075 23.8008C49.3444 23.9284 48.7596 23.8944 48.1995 24.0375C46.3058 24.521 45.2352 26.8269 44.7889 28.9828C44.5352 30.212 44.3503 31.5773 43.5164 32.4081C43.1087 32.8143 42.592 33.0394 42.1046 33.3086C40.1924 34.3637 38.5935 36.2891 38.069 38.6376C37.6033 40.7208 37.9986 42.9425 38.6933 44.9406C38.9184 45.588 39.1636 46.367 38.8077 46.9317C38.6275 47.2179 38.3312 47.3711 38.0806 47.5768C36.9017 48.5438 36.8445 50.5264 37.1601 52.1439C37.5074 53.9277 38.1641 55.6327 39.0808 57.1311C39.7608 58.2419 40.0083 59.7263 40.6179 60.9346C41.417 62.5204 42.6523 62.7154 43.7848 63.8208C44.2265 64.2524 45.0326 65.3872 45.5609 64.9432C46.0475 67.8827 46.534 70.8222 47.0206 73.7618L48.471 53.8086L54.0298 49.855L54.2719 41.4874L73.2713 44.6141L78.8626 46.5457L78.9461 46.637L79.0296 46.5457L85.5685 44.6141L103.87 41.5129C103.92 41.5508 103.971 41.5887 104.022 41.6251L104.259 49.8557L109.818 53.8094L111.268 73.7625L112.741 64.872C113.496 65.2387 115.958 62.7293 116.494 62.2303C117.926 60.8983 118.252 58.7547 119.245 57.1334C120.162 55.635 120.819 53.9301 121.166 52.1455C121.482 50.5241 121.425 48.5422 120.246 47.5753Z" fill="#02020C"/>
<path d="M79.7228 144.897C77.929 144.786 76.2851 144.552 74.5771 144.299C72.8861 144.036 71.2036 143.725 69.5312 143.37C66.1856 142.662 62.8779 141.766 59.6343 140.67C56.3923 139.571 53.213 138.268 50.1575 136.705C47.1004 135.147 44.1763 133.313 41.4704 131.181L42.172 131.188L38.0668 134.139L38.0931 133.476C40.9545 135.886 44.133 137.993 47.399 139.872C50.6734 141.754 54.0995 143.365 57.6192 144.721C59.3837 145.388 61.1737 145.983 62.9823 146.516C64.7978 147.022 66.6257 147.484 68.4769 147.836C72.1737 148.562 75.937 148.919 79.6981 148.943L79.6934 150.086C75.8566 150.039 72.0244 149.649 68.2688 148.888C66.3883 148.518 64.5333 148.036 62.6922 147.51C60.8589 146.958 59.0456 146.342 57.2595 145.655C53.698 144.258 50.2379 142.604 46.9341 140.678C43.6302 138.747 40.4571 136.622 37.5199 134.117L37.1199 133.776L37.5454 133.453L41.4797 130.279L41.8054 130.016L42.1813 130.286C44.8184 132.362 47.6774 134.158 50.6781 135.687C53.6764 137.22 56.8047 138.503 60.001 139.586C63.1981 140.667 66.4641 141.551 69.7695 142.252C71.4218 142.603 73.0834 142.91 74.752 143.168C76.4043 143.417 78.1324 143.652 79.7321 143.752L79.7228 144.897Z" fill="#02020C"/>
<path d="M38.6261 134.596C36.8252 135.92 34.8882 137.046 32.8809 138.019C30.8696 138.984 28.7864 139.77 26.6963 140.508C22.5129 141.971 18.2715 143.196 14.2451 144.884C12.2261 145.712 10.2883 146.71 8.47281 147.879C6.63251 149.033 4.93146 150.352 3.98772 152.186C3.49419 153.105 3.12443 154.124 2.73069 155.158C2.34855 156.19 1.94862 157.211 1.58814 158.243C0.87183 160.306 0.265362 162.397 -0.0633995 164.546L-0.813751 164.464C-0.660587 162.22 -0.141528 160.018 0.52141 157.891C0.851719 156.827 1.20369 155.772 1.58892 154.734C1.96873 153.703 2.3385 152.635 2.87766 151.6C3.40368 150.559 4.17183 149.592 5.04053 148.832C5.90537 148.052 6.84601 147.427 7.79749 146.826C9.69812 145.62 11.7117 144.604 13.781 143.772C17.9079 142.056 22.1942 140.913 26.366 139.536C28.4476 138.837 30.5146 138.104 32.5165 137.227C34.51 136.335 36.4323 135.293 38.23 134.054L38.6261 134.596Z" fill="#02020C"/>
<path d="M79.5426 143.754C81.116 143.703 82.8201 143.48 84.45 143.241C86.0962 142.994 87.7353 142.693 89.3629 142.342C92.6203 141.644 95.8337 140.741 98.9782 139.648C102.119 138.547 105.19 137.244 108.129 135.695C111.071 134.151 113.873 132.347 116.47 130.288L116.846 130.016L117.173 130.281L121.107 133.455L121.533 133.778L121.133 134.119C118.196 136.624 115.023 138.749 111.719 140.68C108.415 142.606 104.955 144.26 101.393 145.657C99.6071 146.344 97.7947 146.961 95.9606 147.512C94.1195 148.038 92.2645 148.52 90.384 148.89C86.6284 149.651 82.7962 150.04 78.9593 150.088L78.9547 148.945C82.7157 148.921 86.4791 148.564 90.1759 147.838C92.0263 147.486 93.8549 147.023 95.6705 146.518C97.4791 145.985 99.2683 145.389 101.034 144.723C104.553 143.367 107.979 141.756 111.254 139.874C114.519 137.995 117.698 135.888 120.559 133.478L120.585 134.141L116.48 131.19L117.183 131.182C114.522 133.291 111.659 135.133 108.662 136.707C105.666 138.286 102.544 139.611 99.3549 140.729C96.1625 141.838 92.905 142.754 89.6027 143.461C87.9519 143.816 86.2903 144.122 84.6187 144.373C82.9315 144.615 81.3024 144.841 79.5225 144.898L79.5426 143.754Z" fill="#02020C"/>
<path d="M120.422 134.053C122.204 135.28 124.108 136.315 126.082 137.203C128.068 138.071 130.112 138.805 132.175 139.499C136.311 140.863 140.555 142.003 144.654 143.679C146.709 144.495 148.703 145.499 150.605 146.664L152.01 147.576C152.468 147.899 152.922 148.239 153.358 148.61C154.232 149.339 155.029 150.252 155.596 151.275C156.166 152.292 156.554 153.348 156.929 154.383C157.309 155.426 157.62 156.485 157.931 157.536L159.812 163.825L159.091 164.048C158.316 162.026 157.532 159.957 156.86 157.874C156.513 156.838 156.153 155.814 155.784 154.801C155.405 153.786 155.018 152.786 154.505 151.898C153.503 150.137 151.76 148.859 149.939 147.723C148.121 146.592 146.201 145.605 144.194 144.793C140.193 143.144 135.991 141.921 131.844 140.47C129.771 139.738 127.71 138.95 125.716 137.995C123.727 137.027 121.81 135.907 120.024 134.596L120.422 134.053Z" fill="#02020C"/>
</g>
</svg>
