<svg width="159" height="156" viewBox="0 0 159 156" fill="none" xmlns="http://www.w3.org/2000/svg">
<mask id="path-1-inside-1_192_1493" fill="white">
<path d="M74.4962 0.375206C73.9724 0.784087 73.9724 1.26111 74.2343 5.69065C74.4307 8.34837 74.6599 10.6994 74.7581 10.8698C75.0527 11.3468 76.1002 11.2787 76.493 10.7676C76.9512 10.2224 76.3948 1.12482 75.871 0.443353C75.4127 -0.135894 75.2163 -0.135894 74.4962 0.375206Z"/>
<path d="M104.873 10.7335C96.5917 13.8001 87.7208 17.1052 85.1675 18.0593L80.5193 19.797L80.0283 21.3985C77.9987 27.8042 59.6022 94.7924 59.7331 95.2013C59.8313 95.4739 60.2241 95.7806 60.5514 95.8828C60.9115 96.0191 65.6907 95.1673 71.1573 93.9747C76.6566 92.8162 81.2067 91.9303 81.2722 91.9984C81.3704 92.0666 77.7369 105.321 73.2196 121.404C67.131 143.108 65.1015 150.809 65.3306 151.218C65.7562 151.899 67.1965 152.104 67.622 151.525C67.8184 151.286 71.9757 143.96 76.8858 135.238C81.7632 126.515 85.8549 119.325 85.9531 119.223C86.0186 119.121 86.2478 119.325 86.4114 119.632C87.1316 120.995 89.9794 124.096 92.0417 125.799C101.109 133.295 119.178 136.226 134.563 132.682C146.053 130.024 154.302 123.039 157.412 113.328C158.787 109.069 159.147 106.003 158.95 100.244C158.754 94.3836 158.132 91.6577 156.037 87.4326C153.615 82.5942 148.475 77.7558 142.911 75.0981C139.408 73.4285 134.989 71.9974 129.293 70.7026C119.571 68.4538 118.622 68.3856 118.851 69.8848C118.982 70.8389 119.538 71.0433 127.296 72.7129C139.081 75.2684 145.595 78.3009 150.439 83.5142C155.186 88.6252 156.953 94.2132 156.659 103.14C156.495 109.035 155.971 111.318 153.942 115.713C150.047 124.027 142.19 129.104 130.079 131.183C128.508 131.455 124.841 131.626 120.913 131.626C115.578 131.626 113.614 131.489 110.275 130.842C98.4249 128.627 90.9287 123.823 86.8697 115.782C85.3967 112.817 83.7927 107.843 83.5636 105.287C83.3672 103.345 83.3999 103.209 84.12 102.902C84.5456 102.697 88.9974 102.152 94.0057 101.675C100.814 100.994 103.204 100.857 103.531 101.13C103.793 101.369 104.088 102.084 104.219 102.8C104.644 105.151 106.248 108.115 108.147 109.989C111.289 113.056 115.185 114.453 120.75 114.453C126.282 114.453 129.555 113.362 132.436 110.602C134.825 108.32 135.316 107.025 135.316 103.038C135.316 100.21 135.185 99.3923 134.596 98.2679C132.665 94.5199 130.177 93.2251 120.193 90.6696C113.352 88.9318 112.828 88.8296 112.304 89.3748C111.158 90.5673 112.108 91.0103 119.866 93.0547C128.704 95.3376 130.635 96.2235 132.01 98.5746C133.156 100.483 133.516 103.652 132.861 105.798C132.239 107.672 130.21 109.785 127.853 110.909C125.889 111.863 125.627 111.897 120.913 111.897C116.56 111.897 115.774 111.795 114.105 111.08C110.209 109.478 107.95 106.923 106.641 102.766C105.921 100.483 105.594 99.8353 104.677 99.1879C103.63 98.4383 103.368 98.4042 100.487 98.6427C98.5885 98.779 97.4756 98.7449 97.541 98.5405C97.6065 98.3701 101.927 90.6696 107.132 81.4698C116.756 64.3649 117.149 63.479 115.708 62.8998C115.479 62.7976 110.536 63.5472 104.71 64.5694C98.9159 65.5916 94.1039 66.3753 94.0385 66.3071C93.9403 66.239 100.16 52.9163 107.82 36.7315C115.479 20.5466 121.732 6.98543 121.732 6.57655C121.732 5.75879 121.142 5.07732 120.455 5.07732C120.16 5.11139 113.155 7.63282 104.873 10.7335Z"/>
<path d="M45.0027 17.1734C44.1844 18.0252 44.7081 18.6044 48.8326 21.5688C52.597 24.2265 53.4154 24.4991 53.8409 23.3066C54.1355 22.5229 53.5136 21.9436 49.7819 19.32C45.7556 16.4919 45.6901 16.4919 45.0027 17.1734Z"/>
<path d="M0.680691 31.7567C-0.301334 32.8471 -0.235865 34.1419 0.975298 37.1403C2.35013 40.6499 28.4065 117.383 30.0432 122.835C31.5163 127.673 32.2691 128.832 34.3641 129.445C35.9354 129.922 58.3583 129.888 59.995 129.411C62.0572 128.832 62.8428 127.639 64.2177 122.937C64.9378 120.62 66.9346 114.351 68.735 109.035C72.1066 98.9494 72.2375 98.2679 70.5354 98.5064C69.9789 98.5746 69.4879 99.6309 67.8184 104.571C66.6727 107.843 64.6432 114.112 63.2356 118.473C60.977 125.595 60.6169 126.481 59.8313 126.924C59.0784 127.298 56.6888 127.401 46.9995 127.401C32.9893 127.401 33.8404 127.639 32.6619 123.55C31.2871 118.712 7.39119 48.0097 3.8559 38.3329C2.97208 35.9137 2.25193 33.8011 2.25193 33.6308C2.25193 33.4945 7.39119 33.3582 13.7089 33.3582H25.1658L25.3295 34.1078C25.395 34.5508 25.8205 36.5611 26.2788 38.6396C26.7043 40.684 30.8943 55.6422 35.5753 71.8611C40.289 88.08 44.5444 103.004 45.1009 105.014C45.6574 107.025 46.1812 108.831 46.2794 109.001C46.6067 109.58 48.0143 109.376 48.2107 108.728C48.3089 108.422 48.8981 106.139 49.5528 103.72C50.2075 101.266 54.2992 87.0919 58.6201 72.2018C65.7562 47.5327 68.3094 38.1966 68.8659 34.6189C69.0623 33.4263 69.1278 33.3582 70.2735 33.3582C71.8447 33.3582 72.4012 32.9493 72.2375 31.9612C72.1393 31.2116 71.9429 31.1434 70.2735 31.0412C67.7202 30.9049 66.9673 31.6545 66.4436 34.9256C65.7562 39.0144 64.9378 42.0469 56.2633 72.0314C51.615 88.1481 47.6542 101.88 47.4905 102.527L47.1959 103.72L46.4758 101.164C46.0502 99.7672 42.0566 85.9674 37.6048 70.4981C29.3885 42.1832 28.472 38.7759 27.7846 34.7211C27.5554 33.3582 27.1299 32.1997 26.7043 31.7227L26.0497 30.9731H1.36811L0.680691 31.7567Z"/>
<path d="M119.342 31.2116C119.211 31.3138 119.113 31.7908 119.113 32.1997C119.113 33.1878 119.44 33.256 124.023 33.4945C137.575 34.176 147.657 40.0707 152.6 50.2245C153.451 51.9963 155.284 57.8229 155.088 58.0614C154.957 58.1636 137.902 60.1399 135.185 60.3784C134.105 60.4465 134.04 60.3784 133.189 58.1977C131.094 52.8482 127.558 50.4971 120.913 50.1564C117.214 49.9519 114.923 50.3267 112.239 51.6215C109.26 53.0526 106.707 56.0511 107.361 57.3118C107.885 58.2658 108.474 57.9932 110.504 55.9148C112.828 53.4615 114.53 52.78 118.785 52.5415C122.321 52.3371 125.201 52.9163 127.525 54.3133C129.195 55.3355 130.079 56.5962 131.224 59.5265C132.697 63.3428 131.945 63.2065 144.482 61.7754C150.407 61.0939 155.611 60.4124 156.004 60.2421C157.379 59.6969 157.608 58.5043 156.954 55.7444C156.135 52.4393 154.662 48.7934 153.156 46.3401C151.356 43.4439 147.559 39.3892 144.875 37.5492C139.179 33.5967 130.046 30.9731 122.026 30.9731C120.684 30.9731 119.44 31.0753 119.342 31.2116Z"/>
<path d="M110.929 142.87C110.7 143.177 110.602 143.62 110.7 143.858C111.093 144.914 115.839 152.274 116.134 152.274C116.92 152.274 117.476 151.797 117.476 151.116C117.443 150.162 112.566 142.597 111.879 142.461C111.584 142.393 111.158 142.597 110.929 142.87Z"/>
<path d="M85.1675 145.528C84.9711 145.766 84.1855 147.913 83.3999 150.298C82.2869 153.671 82.025 154.796 82.3197 155.239C83.3017 156.908 83.9564 156.022 85.724 150.673C86.9679 146.857 87.0988 146.141 86.7388 145.664C86.215 145.017 85.5931 144.948 85.1675 145.528Z"/>
</mask>
<path d="M74.4962 0.375206C73.9724 0.784087 73.9724 1.26111 74.2343 5.69065C74.4307 8.34837 74.6599 10.6994 74.7581 10.8698C75.0527 11.3468 76.1002 11.2787 76.493 10.7676C76.9512 10.2224 76.3948 1.12482 75.871 0.443353C75.4127 -0.135894 75.2163 -0.135894 74.4962 0.375206Z" fill="black"/>
<path d="M104.873 10.7335C96.5917 13.8001 87.7208 17.1052 85.1675 18.0593L80.5193 19.797L80.0283 21.3985C77.9987 27.8042 59.6022 94.7924 59.7331 95.2013C59.8313 95.4739 60.2241 95.7806 60.5514 95.8828C60.9115 96.0191 65.6907 95.1673 71.1573 93.9747C76.6566 92.8162 81.2067 91.9303 81.2722 91.9984C81.3704 92.0666 77.7369 105.321 73.2196 121.404C67.131 143.108 65.1015 150.809 65.3306 151.218C65.7562 151.899 67.1965 152.104 67.622 151.525C67.8184 151.286 71.9757 143.96 76.8858 135.238C81.7632 126.515 85.8549 119.325 85.9531 119.223C86.0186 119.121 86.2478 119.325 86.4114 119.632C87.1316 120.995 89.9794 124.096 92.0417 125.799C101.109 133.295 119.178 136.226 134.563 132.682C146.053 130.024 154.302 123.039 157.412 113.328C158.787 109.069 159.147 106.003 158.95 100.244C158.754 94.3836 158.132 91.6577 156.037 87.4326C153.615 82.5942 148.475 77.7558 142.911 75.0981C139.408 73.4285 134.989 71.9974 129.293 70.7026C119.571 68.4538 118.622 68.3856 118.851 69.8848C118.982 70.8389 119.538 71.0433 127.296 72.7129C139.081 75.2684 145.595 78.3009 150.439 83.5142C155.186 88.6252 156.953 94.2132 156.659 103.14C156.495 109.035 155.971 111.318 153.942 115.713C150.047 124.027 142.19 129.104 130.079 131.183C128.508 131.455 124.841 131.626 120.913 131.626C115.578 131.626 113.614 131.489 110.275 130.842C98.4249 128.627 90.9287 123.823 86.8697 115.782C85.3967 112.817 83.7927 107.843 83.5636 105.287C83.3672 103.345 83.3999 103.209 84.12 102.902C84.5456 102.697 88.9974 102.152 94.0057 101.675C100.814 100.994 103.204 100.857 103.531 101.13C103.793 101.369 104.088 102.084 104.219 102.8C104.644 105.151 106.248 108.115 108.147 109.989C111.289 113.056 115.185 114.453 120.75 114.453C126.282 114.453 129.555 113.362 132.436 110.602C134.825 108.32 135.316 107.025 135.316 103.038C135.316 100.21 135.185 99.3923 134.596 98.2679C132.665 94.5199 130.177 93.2251 120.193 90.6696C113.352 88.9318 112.828 88.8296 112.304 89.3748C111.158 90.5673 112.108 91.0103 119.866 93.0547C128.704 95.3376 130.635 96.2235 132.01 98.5746C133.156 100.483 133.516 103.652 132.861 105.798C132.239 107.672 130.21 109.785 127.853 110.909C125.889 111.863 125.627 111.897 120.913 111.897C116.56 111.897 115.774 111.795 114.105 111.08C110.209 109.478 107.95 106.923 106.641 102.766C105.921 100.483 105.594 99.8353 104.677 99.1879C103.63 98.4383 103.368 98.4042 100.487 98.6427C98.5885 98.779 97.4756 98.7449 97.541 98.5405C97.6065 98.3701 101.927 90.6696 107.132 81.4698C116.756 64.3649 117.149 63.479 115.708 62.8998C115.479 62.7976 110.536 63.5472 104.71 64.5694C98.9159 65.5916 94.1039 66.3753 94.0385 66.3071C93.9403 66.239 100.16 52.9163 107.82 36.7315C115.479 20.5466 121.732 6.98543 121.732 6.57655C121.732 5.75879 121.142 5.07732 120.455 5.07732C120.16 5.11139 113.155 7.63282 104.873 10.7335Z" fill="black"/>
<path d="M45.0027 17.1734C44.1844 18.0252 44.7081 18.6044 48.8326 21.5688C52.597 24.2265 53.4154 24.4991 53.8409 23.3066C54.1355 22.5229 53.5136 21.9436 49.7819 19.32C45.7556 16.4919 45.6901 16.4919 45.0027 17.1734Z" fill="black"/>
<path d="M0.680691 31.7567C-0.301334 32.8471 -0.235865 34.1419 0.975298 37.1403C2.35013 40.6499 28.4065 117.383 30.0432 122.835C31.5163 127.673 32.2691 128.832 34.3641 129.445C35.9354 129.922 58.3583 129.888 59.995 129.411C62.0572 128.832 62.8428 127.639 64.2177 122.937C64.9378 120.62 66.9346 114.351 68.735 109.035C72.1066 98.9494 72.2375 98.2679 70.5354 98.5064C69.9789 98.5746 69.4879 99.6309 67.8184 104.571C66.6727 107.843 64.6432 114.112 63.2356 118.473C60.977 125.595 60.6169 126.481 59.8313 126.924C59.0784 127.298 56.6888 127.401 46.9995 127.401C32.9893 127.401 33.8404 127.639 32.6619 123.55C31.2871 118.712 7.39119 48.0097 3.8559 38.3329C2.97208 35.9137 2.25193 33.8011 2.25193 33.6308C2.25193 33.4945 7.39119 33.3582 13.7089 33.3582H25.1658L25.3295 34.1078C25.395 34.5508 25.8205 36.5611 26.2788 38.6396C26.7043 40.684 30.8943 55.6422 35.5753 71.8611C40.289 88.08 44.5444 103.004 45.1009 105.014C45.6574 107.025 46.1812 108.831 46.2794 109.001C46.6067 109.58 48.0143 109.376 48.2107 108.728C48.3089 108.422 48.8981 106.139 49.5528 103.72C50.2075 101.266 54.2992 87.0919 58.6201 72.2018C65.7562 47.5327 68.3094 38.1966 68.8659 34.6189C69.0623 33.4263 69.1278 33.3582 70.2735 33.3582C71.8447 33.3582 72.4012 32.9493 72.2375 31.9612C72.1393 31.2116 71.9429 31.1434 70.2735 31.0412C67.7202 30.9049 66.9673 31.6545 66.4436 34.9256C65.7562 39.0144 64.9378 42.0469 56.2633 72.0314C51.615 88.1481 47.6542 101.88 47.4905 102.527L47.1959 103.72L46.4758 101.164C46.0502 99.7672 42.0566 85.9674 37.6048 70.4981C29.3885 42.1832 28.472 38.7759 27.7846 34.7211C27.5554 33.3582 27.1299 32.1997 26.7043 31.7227L26.0497 30.9731H1.36811L0.680691 31.7567Z" fill="black"/>
<path d="M119.342 31.2116C119.211 31.3138 119.113 31.7908 119.113 32.1997C119.113 33.1878 119.44 33.256 124.023 33.4945C137.575 34.176 147.657 40.0707 152.6 50.2245C153.451 51.9963 155.284 57.8229 155.088 58.0614C154.957 58.1636 137.902 60.1399 135.185 60.3784C134.105 60.4465 134.04 60.3784 133.189 58.1977C131.094 52.8482 127.558 50.4971 120.913 50.1564C117.214 49.9519 114.923 50.3267 112.239 51.6215C109.26 53.0526 106.707 56.0511 107.361 57.3118C107.885 58.2658 108.474 57.9932 110.504 55.9148C112.828 53.4615 114.53 52.78 118.785 52.5415C122.321 52.3371 125.201 52.9163 127.525 54.3133C129.195 55.3355 130.079 56.5962 131.224 59.5265C132.697 63.3428 131.945 63.2065 144.482 61.7754C150.407 61.0939 155.611 60.4124 156.004 60.2421C157.379 59.6969 157.608 58.5043 156.954 55.7444C156.135 52.4393 154.662 48.7934 153.156 46.3401C151.356 43.4439 147.559 39.3892 144.875 37.5492C139.179 33.5967 130.046 30.9731 122.026 30.9731C120.684 30.9731 119.44 31.0753 119.342 31.2116Z" fill="black"/>
<path d="M110.929 142.87C110.7 143.177 110.602 143.62 110.7 143.858C111.093 144.914 115.839 152.274 116.134 152.274C116.92 152.274 117.476 151.797 117.476 151.116C117.443 150.162 112.566 142.597 111.879 142.461C111.584 142.393 111.158 142.597 110.929 142.87Z" fill="black"/>
<path d="M85.1675 145.528C84.9711 145.766 84.1855 147.913 83.3999 150.298C82.2869 153.671 82.025 154.796 82.3197 155.239C83.3017 156.908 83.9564 156.022 85.724 150.673C86.9679 146.857 87.0988 146.141 86.7388 145.664C86.215 145.017 85.5931 144.948 85.1675 145.528Z" fill="black"/>
<path d="M74.4962 0.375206C73.9724 0.784087 73.9724 1.26111 74.2343 5.69065C74.4307 8.34837 74.6599 10.6994 74.7581 10.8698C75.0527 11.3468 76.1002 11.2787 76.493 10.7676C76.9512 10.2224 76.3948 1.12482 75.871 0.443353C75.4127 -0.135894 75.2163 -0.135894 74.4962 0.375206Z" stroke="white" stroke-width="162" mask="url(#path-1-inside-1_192_1493)"/>
<path d="M104.873 10.7335C96.5917 13.8001 87.7208 17.1052 85.1675 18.0593L80.5193 19.797L80.0283 21.3985C77.9987 27.8042 59.6022 94.7924 59.7331 95.2013C59.8313 95.4739 60.2241 95.7806 60.5514 95.8828C60.9115 96.0191 65.6907 95.1673 71.1573 93.9747C76.6566 92.8162 81.2067 91.9303 81.2722 91.9984C81.3704 92.0666 77.7369 105.321 73.2196 121.404C67.131 143.108 65.1015 150.809 65.3306 151.218C65.7562 151.899 67.1965 152.104 67.622 151.525C67.8184 151.286 71.9757 143.96 76.8858 135.238C81.7632 126.515 85.8549 119.325 85.9531 119.223C86.0186 119.121 86.2478 119.325 86.4114 119.632C87.1316 120.995 89.9794 124.096 92.0417 125.799C101.109 133.295 119.178 136.226 134.563 132.682C146.053 130.024 154.302 123.039 157.412 113.328C158.787 109.069 159.147 106.003 158.95 100.244C158.754 94.3836 158.132 91.6577 156.037 87.4326C153.615 82.5942 148.475 77.7558 142.911 75.0981C139.408 73.4285 134.989 71.9974 129.293 70.7026C119.571 68.4538 118.622 68.3856 118.851 69.8848C118.982 70.8389 119.538 71.0433 127.296 72.7129C139.081 75.2684 145.595 78.3009 150.439 83.5142C155.186 88.6252 156.953 94.2132 156.659 103.14C156.495 109.035 155.971 111.318 153.942 115.713C150.047 124.027 142.19 129.104 130.079 131.183C128.508 131.455 124.841 131.626 120.913 131.626C115.578 131.626 113.614 131.489 110.275 130.842C98.4249 128.627 90.9287 123.823 86.8697 115.782C85.3967 112.817 83.7927 107.843 83.5636 105.287C83.3672 103.345 83.3999 103.209 84.12 102.902C84.5456 102.697 88.9974 102.152 94.0057 101.675C100.814 100.994 103.204 100.857 103.531 101.13C103.793 101.369 104.088 102.084 104.219 102.8C104.644 105.151 106.248 108.115 108.147 109.989C111.289 113.056 115.185 114.453 120.75 114.453C126.282 114.453 129.555 113.362 132.436 110.602C134.825 108.32 135.316 107.025 135.316 103.038C135.316 100.21 135.185 99.3923 134.596 98.2679C132.665 94.5199 130.177 93.2251 120.193 90.6696C113.352 88.9318 112.828 88.8296 112.304 89.3748C111.158 90.5673 112.108 91.0103 119.866 93.0547C128.704 95.3376 130.635 96.2235 132.01 98.5746C133.156 100.483 133.516 103.652 132.861 105.798C132.239 107.672 130.21 109.785 127.853 110.909C125.889 111.863 125.627 111.897 120.913 111.897C116.56 111.897 115.774 111.795 114.105 111.08C110.209 109.478 107.95 106.923 106.641 102.766C105.921 100.483 105.594 99.8353 104.677 99.1879C103.63 98.4383 103.368 98.4042 100.487 98.6427C98.5885 98.779 97.4756 98.7449 97.541 98.5405C97.6065 98.3701 101.927 90.6696 107.132 81.4698C116.756 64.3649 117.149 63.479 115.708 62.8998C115.479 62.7976 110.536 63.5472 104.71 64.5694C98.9159 65.5916 94.1039 66.3753 94.0385 66.3071C93.9403 66.239 100.16 52.9163 107.82 36.7315C115.479 20.5466 121.732 6.98543 121.732 6.57655C121.732 5.75879 121.142 5.07732 120.455 5.07732C120.16 5.11139 113.155 7.63282 104.873 10.7335Z" stroke="white" stroke-width="162" mask="url(#path-1-inside-1_192_1493)"/>
<path d="M45.0027 17.1734C44.1844 18.0252 44.7081 18.6044 48.8326 21.5688C52.597 24.2265 53.4154 24.4991 53.8409 23.3066C54.1355 22.5229 53.5136 21.9436 49.7819 19.32C45.7556 16.4919 45.6901 16.4919 45.0027 17.1734Z" stroke="white" stroke-width="162" mask="url(#path-1-inside-1_192_1493)"/>
<path d="M0.680691 31.7567C-0.301334 32.8471 -0.235865 34.1419 0.975298 37.1403C2.35013 40.6499 28.4065 117.383 30.0432 122.835C31.5163 127.673 32.2691 128.832 34.3641 129.445C35.9354 129.922 58.3583 129.888 59.995 129.411C62.0572 128.832 62.8428 127.639 64.2177 122.937C64.9378 120.62 66.9346 114.351 68.735 109.035C72.1066 98.9494 72.2375 98.2679 70.5354 98.5064C69.9789 98.5746 69.4879 99.6309 67.8184 104.571C66.6727 107.843 64.6432 114.112 63.2356 118.473C60.977 125.595 60.6169 126.481 59.8313 126.924C59.0784 127.298 56.6888 127.401 46.9995 127.401C32.9893 127.401 33.8404 127.639 32.6619 123.55C31.2871 118.712 7.39119 48.0097 3.8559 38.3329C2.97208 35.9137 2.25193 33.8011 2.25193 33.6308C2.25193 33.4945 7.39119 33.3582 13.7089 33.3582H25.1658L25.3295 34.1078C25.395 34.5508 25.8205 36.5611 26.2788 38.6396C26.7043 40.684 30.8943 55.6422 35.5753 71.8611C40.289 88.08 44.5444 103.004 45.1009 105.014C45.6574 107.025 46.1812 108.831 46.2794 109.001C46.6067 109.58 48.0143 109.376 48.2107 108.728C48.3089 108.422 48.8981 106.139 49.5528 103.72C50.2075 101.266 54.2992 87.0919 58.6201 72.2018C65.7562 47.5327 68.3094 38.1966 68.8659 34.6189C69.0623 33.4263 69.1278 33.3582 70.2735 33.3582C71.8447 33.3582 72.4012 32.9493 72.2375 31.9612C72.1393 31.2116 71.9429 31.1434 70.2735 31.0412C67.7202 30.9049 66.9673 31.6545 66.4436 34.9256C65.7562 39.0144 64.9378 42.0469 56.2633 72.0314C51.615 88.1481 47.6542 101.88 47.4905 102.527L47.1959 103.72L46.4758 101.164C46.0502 99.7672 42.0566 85.9674 37.6048 70.4981C29.3885 42.1832 28.472 38.7759 27.7846 34.7211C27.5554 33.3582 27.1299 32.1997 26.7043 31.7227L26.0497 30.9731H1.36811L0.680691 31.7567Z" stroke="white" stroke-width="162" mask="url(#path-1-inside-1_192_1493)"/>
<path d="M119.342 31.2116C119.211 31.3138 119.113 31.7908 119.113 32.1997C119.113 33.1878 119.44 33.256 124.023 33.4945C137.575 34.176 147.657 40.0707 152.6 50.2245C153.451 51.9963 155.284 57.8229 155.088 58.0614C154.957 58.1636 137.902 60.1399 135.185 60.3784C134.105 60.4465 134.04 60.3784 133.189 58.1977C131.094 52.8482 127.558 50.4971 120.913 50.1564C117.214 49.9519 114.923 50.3267 112.239 51.6215C109.26 53.0526 106.707 56.0511 107.361 57.3118C107.885 58.2658 108.474 57.9932 110.504 55.9148C112.828 53.4615 114.53 52.78 118.785 52.5415C122.321 52.3371 125.201 52.9163 127.525 54.3133C129.195 55.3355 130.079 56.5962 131.224 59.5265C132.697 63.3428 131.945 63.2065 144.482 61.7754C150.407 61.0939 155.611 60.4124 156.004 60.2421C157.379 59.6969 157.608 58.5043 156.954 55.7444C156.135 52.4393 154.662 48.7934 153.156 46.3401C151.356 43.4439 147.559 39.3892 144.875 37.5492C139.179 33.5967 130.046 30.9731 122.026 30.9731C120.684 30.9731 119.44 31.0753 119.342 31.2116Z" stroke="white" stroke-width="162" mask="url(#path-1-inside-1_192_1493)"/>
<path d="M110.929 142.87C110.7 143.177 110.602 143.62 110.7 143.858C111.093 144.914 115.839 152.274 116.134 152.274C116.92 152.274 117.476 151.797 117.476 151.116C117.443 150.162 112.566 142.597 111.879 142.461C111.584 142.393 111.158 142.597 110.929 142.87Z" stroke="white" stroke-width="162" mask="url(#path-1-inside-1_192_1493)"/>
<path d="M85.1675 145.528C84.9711 145.766 84.1855 147.913 83.3999 150.298C82.2869 153.671 82.025 154.796 82.3197 155.239C83.3017 156.908 83.9564 156.022 85.724 150.673C86.9679 146.857 87.0988 146.141 86.7388 145.664C86.215 145.017 85.5931 144.948 85.1675 145.528Z" stroke="white" stroke-width="162" mask="url(#path-1-inside-1_192_1493)"/>
</svg>
