<svg width="92" height="61" viewBox="0 0 92 61" fill="none" xmlns="http://www.w3.org/2000/svg">
<path d="M1.98517 27V9.62976H8.63549C9.6777 9.62976 10.6041 9.83655 11.4147 10.2501C12.2419 10.6472 12.8953 11.2179 13.3751 11.9623C13.8548 12.7068 14.0947 13.6084 14.0947 14.6671V14.9897C14.0947 16.0319 13.8466 16.9335 13.3503 17.6945C12.8705 18.439 12.2171 19.0097 11.3899 19.4067C10.5628 19.8038 9.64462 20.0023 8.63549 20.0023H4.0696V27H1.98517ZM4.0696 18.1164H8.41216C9.52054 18.1164 10.3973 17.8434 11.0425 17.2975C11.6877 16.735 12.0103 15.9492 12.0103 14.9401V14.6919C12.0103 13.6828 11.6877 12.9053 11.0425 12.3594C10.4139 11.7969 9.53709 11.5157 8.41216 11.5157H4.0696V18.1164Z" fill="#FFF5F5"/>
<path d="M53.3067 27V9.62976H57.3515L63.4062 25.6848H63.7288V9.62976H65.7884V27H61.7437L55.7137 10.9201H55.3663V27H53.3067Z" fill="#FFF5F5"/>
<path d="M78.1151 27.3474C76.8248 27.3474 75.6833 27.0827 74.6907 26.5533C73.7147 26.0074 72.9454 25.2133 72.383 24.1711C71.837 23.1289 71.5641 21.8386 71.5641 20.3001V16.3297C71.5641 14.0302 72.1762 12.2849 73.4004 11.0938C74.6246 9.88618 76.2706 9.28236 78.3385 9.28236C80.3898 9.28236 81.9531 9.84482 83.0284 10.9698C84.1037 12.0947 84.6414 13.6001 84.6414 15.486V15.6101H82.5818V15.4364C82.5818 14.6092 82.4329 13.8731 82.1351 13.2279C81.8373 12.5827 81.3741 12.0781 80.7455 11.7142C80.1169 11.3337 79.3145 11.1435 78.3385 11.1435C76.8661 11.1435 75.7164 11.5984 74.8892 12.5083C74.0621 13.4016 73.6485 14.6589 73.6485 16.2801V20.3497C73.6485 21.9709 74.0621 23.2364 74.8892 24.1463C75.7164 25.0396 76.8744 25.4863 78.3633 25.4863C79.8191 25.4863 80.8861 25.0727 81.5644 24.2456C82.2592 23.4184 82.6066 22.3183 82.6066 20.9452V20.5234H77.3459V18.7367H84.6414V27H82.7555V25.1141H82.4081C82.2261 25.478 81.9697 25.8337 81.6388 26.1811C81.308 26.5285 80.8613 26.8098 80.2988 27.0248C79.7364 27.2399 79.0085 27.3474 78.1151 27.3474Z" fill="#FFF5F5"/>
<path d="M1.98517 49.8075V32.4373H8.63549C9.6777 32.4373 10.6041 32.644 11.4147 33.0576C12.2419 33.4547 12.8953 34.0254 13.3751 34.7698C13.8548 35.5143 14.0947 36.4159 14.0947 37.4746V37.7972C14.0947 38.8394 13.8466 39.741 13.3503 40.502C12.8705 41.2465 12.2171 41.8172 11.3899 42.2142C10.5628 42.6113 9.64462 42.8098 8.63549 42.8098H4.0696V49.8075H1.98517ZM4.0696 40.9239H8.41216C9.52054 40.9239 10.3973 40.6509 11.0425 40.105C11.6877 39.5425 12.0103 38.7567 12.0103 37.7476V37.4994C12.0103 36.4903 11.6877 35.7128 11.0425 35.1669C10.4139 34.6044 9.53709 34.3232 8.41216 34.3232H4.0696V40.9239Z" fill="#FFF5F5"/>
<path d="M53.3067 49.8075V32.4373H57.3515L63.4062 48.4923H63.7288V32.4373H65.7884V49.8075H61.7437L55.7137 33.7276H55.3663V49.8075H53.3067Z" fill="#FFF5F5"/>
<path d="M78.1151 50.1549C76.8248 50.1549 75.6833 49.8902 74.6907 49.3608C73.7147 48.8149 72.9454 48.0208 72.383 46.9786C71.837 45.9364 71.5641 44.6461 71.5641 43.1075V39.1372C71.5641 36.8377 72.1762 35.0924 73.4004 33.9013C74.6246 32.6937 76.2706 32.0899 78.3385 32.0899C80.3898 32.0899 81.9531 32.6523 83.0284 33.7772C84.1037 34.9022 84.6414 36.4076 84.6414 38.2935V38.4176H82.5818V38.2439C82.5818 37.4167 82.4329 36.6806 82.1351 36.0354C81.8373 35.3902 81.3741 34.8856 80.7455 34.5217C80.1169 34.1412 79.3145 33.951 78.3385 33.951C76.8661 33.951 75.7164 34.4059 74.8892 35.3158C74.0621 36.2091 73.6485 37.4664 73.6485 39.0876V43.1572C73.6485 44.7784 74.0621 46.0439 74.8892 46.9538C75.7164 47.8471 76.8744 48.2938 78.3633 48.2938C79.8191 48.2938 80.8861 47.8802 81.5644 47.0531C82.2592 46.2259 82.6066 45.1258 82.6066 43.7527V43.3309H77.3459V41.5442H84.6414V49.8075H82.7555V47.9216H82.4081C82.2261 48.2855 81.9697 48.6412 81.6388 48.9886C81.308 49.336 80.8613 49.6172 80.2988 49.8323C79.7364 50.0474 79.0085 50.1549 78.1151 50.1549Z" fill="#FFF5F5"/>
<path d="M47.1309 38.5241C47.1309 45.5936 41.0303 51.3311 33.5135 51.3311C25.9966 51.3311 19.896 45.5936 19.896 38.5241C19.896 32.7567 23.9562 27.8758 29.5332 26.2734V29.7143C25.8922 31.1723 23.3374 34.5693 23.3374 38.5241C23.3374 43.807 27.8963 48.0945 33.5135 48.0945C39.1307 48.0945 43.6895 43.807 43.6895 38.5241C43.6895 34.5693 41.1348 31.1723 37.4938 29.7143V26.2734C43.0708 27.8758 47.1309 32.7567 47.1309 38.5241Z" fill="#913DCE"/>
<path d="M29.2509 15.8214L32.5791 15.2695L36.2112 34.6424L32.883 35.1943L29.2509 15.8214Z" fill="#913DCE"/>
<path d="M33.5135 7.90662C34.9017 7.90662 36.0284 8.96624 36.0284 10.2718C36.0284 11.5775 34.9017 12.6371 33.5135 12.6371C32.1252 12.6371 30.9986 11.5775 30.9986 10.2718C30.9986 8.96624 32.1252 7.90662 33.5135 7.90662Z" fill="#913DCE"/>
</svg>
