<svg width="44" height="44" viewBox="0 0 44 44" fill="none" xmlns="http://www.w3.org/2000/svg">
<path d="M44 22C44 32.3709 44 37.5563 40.7782 40.7782C37.5563 44 32.3709 44 22 44C11.6291 44 6.44365 44 3.22182 40.7782C5.63322e-07 37.5563 1.01665e-06 32.3709 1.9233e-06 22C2.82995e-06 11.6291 3.28328e-06 6.44365 3.22183 3.22182C6.44365 -3.28328e-06 11.6291 -2.82995e-06 22 -1.9233e-06C32.3709 -1.01665e-06 37.5564 -5.63322e-07 40.7782 3.22182C44 6.44365 44 11.6291 44 22Z" fill="#D9D9D9"/>
<path d="M18.3334 14.6667L26.8889 23.2223L18.3334 31.7778" stroke="#4D4EA6" stroke-width="3.5" stroke-linecap="round" stroke-linejoin="round"/>
</svg>
