<svg width="205" height="205" viewBox="0 0 205 205" fill="none" xmlns="http://www.w3.org/2000/svg">
<path d="M102.044 204.088C158.401 204.088 204.088 158.401 204.088 102.044C204.088 45.6867 158.401 0 102.044 0C45.6866 0 0 45.6867 0 102.044C0 158.401 45.6866 204.088 102.044 204.088Z" fill="#F6EFE9"/>
<mask id="mask0_53_179" style="mask-type:luminance" maskUnits="userSpaceOnUse" x="0" y="0" width="205" height="205">
<path d="M102.044 204.088C158.401 204.088 204.088 158.401 204.088 102.044C204.088 45.6867 158.401 0 102.044 0C45.6866 0 0 45.6867 0 102.044C0 158.401 45.6866 204.088 102.044 204.088Z" fill="white"/>
</mask>
<g mask="url(#mask0_53_179)">
<path d="M152.68 85.789C152.377 85.316 152.007 84.89 151.696 84.422C151.489 84.111 151.397 83.892 151.031 83.728C150.687 83.574 150.297 83.529 149.923 83.522C148.649 83.497 147.37 83.856 146.294 84.54C146.065 84.686 145.213 85.35 145.042 85.058C145.015 85.013 145.044 84.865 145.044 84.812C145.046 84.559 145.048 84.305 145.05 84.052C145.062 82.575 145.075 81.098 145.087 79.621C145.105 77.452 145.123 75.283 145.142 73.114C145.149 72.306 145.156 71.498 145.162 70.689C145.198 69.764 145.23 68.839 145.251 67.913C145.286 66.317 145.29 64.704 145.226 63.095C145.237 61.734 145.249 60.373 145.26 59.012C145.274 57.337 145.288 55.662 145.302 53.987C145.308 53.333 145.313 52.68 145.318 52.026L143.009 51.866C142.786 51.345 142.548 50.829 142.28 50.324C140.086 46.179 136.469 42.898 132.387 40.59C128.304 38.282 123.76 36.896 119.17 35.935C107.385 33.466 95.037 33.723 83.364 36.682C77.627 38.136 71.891 40.3329 67.586 44.3949C64.143 47.6429 61.849 51.8949 60.312 56.3299C59.263 59.3569 58.288 62.547 58.33 65.764C58.362 68.223 58.394 70.681 58.426 73.14C58.479 77.173 58.531 81.207 58.584 85.24C58.584 85.24 53.8 81.305 52.486 83.557C51.172 85.809 49.858 86.185 50.422 89.375C50.985 92.566 54.363 99.698 54.926 101.762C55.489 103.827 57.178 110.395 57.178 111.521C57.178 112.647 58.867 115.087 58.867 115.087C58.867 115.087 58.867 115.462 60.556 116.025C62.245 116.588 65.623 117.151 65.623 117.151L67.125 122.969L72.943 128.6L74.069 131.791L75.195 154.688C75.195 154.688 69.752 161.82 67.875 162.946C65.998 164.072 57.928 170.078 55.676 170.641C53.502 171.185 78.783 189.038 101.81 188.758C124.837 189.038 150.118 171.184 147.944 170.641C145.692 170.078 137.621 164.072 135.745 162.946C133.868 161.82 128.425 154.688 128.425 154.688L129.551 131.791L130.677 128.6L136.495 122.969L137.997 117.151C137.997 117.151 141.375 116.588 143.064 116.025C144.753 115.462 144.753 115.087 144.753 115.087C144.753 115.087 146.442 112.647 146.442 111.521C146.442 110.395 148.131 103.826 148.694 101.762C149.257 99.698 152.635 92.566 153.198 89.375C153.427 88.108 153.388 86.896 152.68 85.789Z" fill="#F9BF9A"/>
<path d="M98.11 109.392C98.11 109.392 99.5359 92.186 98.2879 89.512C98.2879 89.512 96.951 104.578 98.11 109.392Z" fill="#BF7D5D"/>
<path d="M51.244 90.218C51.776 88.015 53.862 85.844 55.866 88.101C56.463 88.774 56.796 89.638 57.052 90.501C58.534 95.482 57.875 100.951 59.648 105.836C60.884 109.243 63.216 112.121 65.507 114.93C64.505 110.435 62.684 106.191 61.809 101.623C61.131 98.079 60.306 94.613 59.95 91.01C59.781 89.296 59.67 87.541 59.001 85.955C58.894 85.701 58.77 85.448 58.586 85.243C58.422 85.06 58.216 84.921 58.012 84.784C57.084 84.159 56.097 83.514 54.98 83.445C53.288 83.34 51.753 84.653 51.113 86.223C50.45 87.849 50.44 89.638 51.109 91.25C51.116 90.901 51.162 90.555 51.244 90.218Z" fill="#BF7D5D"/>
<path d="M152.679 90.218C152.148 88.015 150.061 85.844 148.057 88.101C147.459 88.774 147.127 89.638 146.871 90.501C145.389 95.482 146.048 100.951 144.275 105.836C143.039 109.243 140.707 112.121 138.416 114.93C139.418 110.435 141.239 106.191 142.114 101.623C142.792 98.079 143.617 94.613 143.973 91.01C144.142 89.296 144.253 87.541 144.922 85.955C145.029 85.701 145.153 85.448 145.337 85.243C145.501 85.06 145.707 84.921 145.911 84.784C146.839 84.159 147.826 83.514 148.943 83.445C150.635 83.34 152.17 84.653 152.81 86.223C153.473 87.849 153.483 89.638 152.814 91.25C152.806 90.901 152.761 90.555 152.679 90.218Z" fill="#BF7D5D"/>
<path d="M136.153 76.778L126.48 77.7199L107.388 81.5969L107.62 77.4219L128.99 75.4449L136.153 76.778Z" fill="#BF7D5D"/>
<path d="M96.972 78.9689L96.272 77.4219L74.902 75.4449L68.35 76.7639L77.412 77.7199L92.124 80.7979C93.471 82.4139 97.002 86.8529 97.002 86.8529L97.945 97.2959L98.812 87.9089C98.812 87.9089 98.138 81.8549 96.972 78.9689Z" fill="#BF7D5D"/>
<path d="M130.353 129.807C130.353 129.807 123.221 167.487 93.029 163.327C93.029 163.327 79.716 160.831 74.724 145.022L73.535 129.926C73.535 129.926 84.946 140.624 86.61 142.05C88.274 143.476 96.119 149.063 101.468 149.42C101.468 149.42 112.998 147.994 121.556 137.771L130.353 129.807Z" fill="#BF7D5D"/>
<path d="M102.348 139.129L100.357 135.92L102.675 136.336L104.012 136.009L102.348 139.129Z" fill="#BF7D5D"/>
<path d="M108.005 118.311C108.005 118.311 105.947 118.522 105.366 118.205L102.226 118.624L99.086 118.205C98.505 118.522 96.447 118.311 96.447 118.311C99.905 121.176 101.975 120.805 102.226 120.745C102.478 120.805 104.548 121.176 108.005 118.311Z" fill="#BF7D5D"/>
<path d="M205.7 212.362C205.7 212.362 201.588 192.767 192.101 188.667C192.101 188.667 173.485 181.357 169.368 180.287C169.368 180.287 163.541 178.069 159.245 176.012C157.093 174.981 155.818 173.951 154.966 172.861C154.188 171.866 150.215 168.519 150.215 168.519C150.215 168.519 124.439 186.527 101.527 185.814C101.527 185.814 78.257 186.349 52.481 168.341L47.648 172.264L48.543 173.512C48.543 173.512 36.371 180.644 24.378 183.318C24.378 183.318 6.11997 189.558 3.79297 194.194L-1.41003 212.554L205.7 212.362Z" fill="#B85530"/>
<path d="M71.3609 208.429C64.8529 208.139 58.3009 207.21 52.2539 204.786C48.4659 203.268 44.7509 201.015 42.7319 197.469C41.4359 195.193 40.9329 192.536 40.8769 189.917C40.7359 183.325 43.5589 176.566 48.8399 172.618C56.9279 179.174 66.5419 183.564 76.2589 187.303C82.6869 189.777 89.3049 192.017 96.1749 192.515C103.547 193.049 110.906 191.555 118.101 189.861C124.531 188.347 130.999 186.636 136.779 183.44C140.351 181.465 143.585 178.962 146.888 176.582C148.506 175.416 150.163 174.071 151.949 173.169C153.737 172.265 153.005 173.686 152.239 174.726C150.166 177.542 147.145 180.015 144.536 182.32C141.756 184.777 138.841 187.08 135.811 189.221C123.878 197.654 110.173 203.575 95.8539 206.482C87.8089 208.116 79.5649 208.795 71.3609 208.429Z" fill="#9B3923"/>
<path d="M174.322 183.004C177.248 186.044 181.322 187.651 185.289 189.087C186.042 189.359 186.798 189.63 187.582 189.792C190.275 190.35 193.118 189.606 195.799 190.222C196.203 190.315 196.651 190.482 196.803 190.868C192.734 188.335 188.458 186.136 184.033 184.294C181.821 183.373 179.571 182.542 177.291 181.803C175.259 181.144 172.691 180.011 170.571 179.989C172.113 180.746 173.129 181.765 174.322 183.004Z" fill="#9B3923"/>
<path d="M31.7359 183.004C28.8099 186.044 24.7359 187.651 20.7689 189.087C20.0159 189.359 19.2599 189.63 18.4759 189.792C15.7829 190.35 12.9399 189.606 10.2589 190.222C9.85495 190.315 9.40694 190.482 9.25494 190.868C13.3239 188.335 17.5999 186.136 22.0249 184.294C24.2369 183.373 26.4869 182.542 28.7669 181.803C30.7989 181.144 33.3669 180.011 35.4869 179.989C33.9459 180.746 32.9289 181.765 31.7359 183.004Z" fill="#9B3923"/>
<path d="M121.138 190.008C121.138 190.008 131.955 186.204 136.115 180.618C136.115 180.618 101.287 198.448 63.369 178.359L50.65 170.276L53.146 168.136C53.146 168.136 76.919 186.323 103.188 185.847C103.188 185.847 131.864 183.877 150.214 168.518L155.909 172.478C155.911 172.478 140.988 184.778 121.138 190.008Z" fill="#02020C"/>
<path d="M141.03 102.404C139.302 105.74 137.573 109.075 135.845 112.411C134.473 115.058 132.847 117.934 130.004 118.916C129.029 119.253 127.954 119.344 127.073 119.878C126.078 120.481 125.492 121.547 124.818 122.489C123.638 124.138 122.07 125.515 120.272 126.477C118.687 125.575 117.103 124.672 115.518 123.77C114.975 123.461 114.425 123.149 113.821 122.985C113.263 122.834 112.677 122.814 112.099 122.796C109.654 122.718 107.21 122.64 104.766 122.562C104.147 122.542 102.761 122.254 101.945 122.377C101.129 122.255 99.743 122.542 99.124 122.562C96.679 122.64 94.235 122.718 91.791 122.796C91.212 122.814 90.627 122.834 90.068 122.985C89.464 123.149 88.914 123.461 88.371 123.77C86.786 124.672 85.202 125.575 83.617 126.477C81.819 125.514 80.251 124.138 79.071 122.489C78.397 121.547 77.811 120.481 76.816 119.878C75.936 119.345 74.86 119.253 73.885 118.916C71.042 117.933 69.416 115.058 68.044 112.411C66.316 109.075 64.587 105.74 62.859 102.404C63.767 106.84 64.77 111.258 65.867 115.652C66.41 117.826 66.807 119.962 67.539 121.956L66.338 121.329L69.094 137.303C69.094 137.303 79.449 154.704 101.632 157.13L101.62 157.198C101.729 157.188 101.835 157.175 101.943 157.163C102.051 157.174 102.157 157.187 102.266 157.198L102.254 157.13C124.437 154.704 134.792 137.303 134.792 137.303L137.548 121.329L136.347 121.956C137.079 119.962 137.476 117.826 138.019 115.652C139.119 111.258 140.123 106.841 141.03 102.404ZM94.251 126.046C94.353 125.725 94.517 125.402 94.807 125.227C95.046 125.083 95.338 125.059 95.617 125.041C97.544 124.914 99.477 124.864 101.409 124.884C101.423 124.889 101.436 124.897 101.45 124.897C101.615 124.893 101.78 124.894 101.945 124.891C102.11 124.894 102.275 124.893 102.44 124.897C102.455 124.897 102.468 124.889 102.481 124.884C104.413 124.864 106.345 124.914 108.273 125.041C108.553 125.059 108.844 125.083 109.083 125.227C109.374 125.402 109.537 125.726 109.639 126.046C110.243 127.945 109.103 130.043 107.462 131.199C105.859 132.328 103.876 132.758 101.945 133.148C100.013 132.758 98.03 132.328 96.427 131.199C94.787 130.043 93.647 127.945 94.251 126.046ZM101.915 155.191C101.925 155.186 101.935 155.183 101.945 155.178C101.955 155.183 101.965 155.186 101.975 155.191L101.945 155.362L101.915 155.191Z" fill="#02020C"/>
<path d="M98.078 182.05C99.517 183.02 101.311 183.452 103.067 183.421C104.823 183.378 106.596 182.872 107.995 181.845C108.139 181.739 108.342 181.77 108.448 181.914C108.554 182.058 108.523 182.261 108.379 182.367C108.354 182.385 108.323 182.401 108.295 182.411C106.575 183.032 104.833 183.391 103.067 183.421C101.301 183.463 99.548 183.177 97.803 182.628C97.632 182.576 97.536 182.395 97.588 182.224C97.64 182.053 97.821 181.957 97.993 182.009C98.022 182.018 98.053 182.034 98.078 182.05Z" fill="#02020C"/>
<path d="M119.116 179.852C120.092 179.725 121.068 179.663 122.044 179.602C123.02 179.548 123.996 179.518 124.972 179.506C126.924 179.487 128.876 179.503 130.828 179.65C131.005 179.663 131.138 179.817 131.124 179.994C131.112 180.155 130.984 180.279 130.828 180.29C128.876 180.436 126.924 180.453 124.972 180.434C123.996 180.422 123.02 180.393 122.044 180.338C121.068 180.277 120.092 180.215 119.116 180.088C119.051 180.08 119.004 180.02 119.013 179.954C119.02 179.9 119.064 179.859 119.116 179.852Z" fill="#02020C"/>
<path d="M88.287 180.089C87.219 180.216 86.15 180.278 85.082 180.339C84.014 180.393 82.945 180.423 81.877 180.435C79.74 180.454 77.604 180.438 75.467 180.291C75.29 180.279 75.157 180.126 75.169 179.949C75.18 179.787 75.31 179.661 75.467 179.651C77.604 179.505 79.74 179.488 81.877 179.507C82.945 179.519 84.014 179.548 85.082 179.603C86.15 179.664 87.219 179.726 88.287 179.853C88.352 179.861 88.399 179.92 88.391 179.986C88.384 180.04 88.34 180.083 88.287 180.089Z" fill="#02020C"/>
<path d="M99.0259 129.243L105.62 128.098L105.208 128.291L107.771 126.448C107.866 126.38 107.999 126.401 108.067 126.496C108.122 126.573 108.118 126.675 108.064 126.747L106.169 129.272C106.078 129.393 105.941 129.459 105.801 129.464L105.757 129.465L99.0679 129.658C98.9529 129.661 98.8559 129.57 98.8529 129.455C98.8489 129.35 98.9249 129.261 99.0259 129.243Z" fill="#02020C"/>
<path d="M58.38 85.733C57.421 85.343 56.58 84.875 55.737 84.623C54.914 84.363 54.0329 84.337 53.2849 84.602C52.5389 84.857 52.034 85.457 51.679 86.283C51.321 87.084 51.155 87.98 51.131 88.888C51.079 90.716 51.638 92.548 52.319 94.345L54.471 99.789C55.175 101.621 55.8419 103.482 56.3399 105.402C56.5899 106.361 56.8 107.333 56.957 108.316C57.109 109.296 57.216 110.261 57.401 111.191C57.588 112.117 57.8519 113.017 58.3169 113.787C58.7779 114.556 59.448 115.17 60.255 115.605C61.874 116.497 63.8219 116.64 65.7569 116.753L65.713 117.564C63.782 117.47 61.696 117.373 59.835 116.386C58.915 115.91 58.084 115.175 57.529 114.27C56.969 113.368 56.671 112.365 56.459 111.385C56.251 110.401 56.131 109.424 55.971 108.477C55.808 107.533 55.593 106.597 55.339 105.67C54.833 103.814 54.1569 101.999 53.4369 100.196L51.212 94.772C50.495 92.943 49.8419 90.968 49.8699 88.865C49.8849 87.824 50.061 86.758 50.488 85.767C50.696 85.275 50.968 84.781 51.36 84.342C51.751 83.897 52.278 83.555 52.82 83.351C53.916 82.946 55.089 83.001 56.126 83.307C57.162 83.609 58.0439 84.093 58.8989 84.422L58.38 85.733Z" fill="#02020C"/>
<path d="M53.091 90.1449C52.673 89.4159 52.276 88.538 52.494 87.612C52.59 87.163 52.879 86.722 53.283 86.469C53.679 86.211 54.121 86.073 54.574 86.005C55.484 85.876 56.407 86.073 57.227 86.435C58.051 86.797 58.781 87.307 59.474 87.818C59.655 87.951 59.693 88.2059 59.56 88.3859C59.427 88.5669 59.173 88.6049 58.992 88.4719C58.985 88.4669 58.978 88.461 58.972 88.456C58.324 87.913 57.67 87.398 56.947 87.025C56.231 86.654 55.427 86.434 54.631 86.497C53.846 86.557 53.02 86.906 52.821 87.698C52.582 88.468 52.876 89.313 53.25 90.061C53.272 90.105 53.254 90.159 53.21 90.181C53.166 90.203 53.114 90.1859 53.091 90.1449Z" fill="#02020C"/>
<path d="M60.976 95.292C60.101 96.002 59.563 97.091 59.478 98.197C59.377 99.315 59.826 100.387 60.476 101.313C61.119 102.253 61.93 103.103 62.6 104.112C63.267 105.123 63.747 106.26 64.007 107.451C64.055 107.67 63.916 107.887 63.697 107.935C63.478 107.983 63.261 107.844 63.213 107.625C63.212 107.621 63.211 107.614 63.21 107.61C63.012 106.51 62.607 105.441 62.021 104.479C61.433 103.514 60.653 102.633 60.009 101.619C59.36 100.628 58.887 99.39 59.048 98.155C59.188 96.938 59.816 95.786 60.788 95.052C60.855 95.001 60.95 95.015 61.001 95.082C61.051 95.147 61.039 95.241 60.976 95.292Z" fill="#02020C"/>
<path d="M73.5659 128.925C74.8089 132.082 75.1799 135.474 75.4769 138.756C75.7519 142.048 75.9379 145.349 76.0119 148.657C76.0879 151.964 76.1289 155.277 75.9549 158.585C75.8219 161.893 75.5209 165.197 75.0319 168.468C75.0149 168.58 74.9109 168.658 74.7979 168.641C74.6939 168.625 74.6189 168.532 74.6229 168.429C74.7489 165.136 74.8059 161.851 74.7689 158.566C74.7089 155.282 74.6299 152 74.4509 148.718L73.8649 138.871C73.6939 135.591 73.4709 132.352 72.6659 129.219C72.5999 128.966 72.7509 128.707 73.0039 128.641C73.2389 128.579 73.4789 128.706 73.5659 128.925Z" fill="#02020C"/>
<path d="M56.155 169.423C58.077 168.603 59.943 167.692 61.715 166.628C63.495 165.578 65.192 164.397 66.777 163.078C68.392 161.794 69.857 160.334 71.248 158.807C72.63 157.27 73.887 155.618 75.051 153.886L75.673 154.24C74.755 156.168 73.578 157.973 72.235 159.645C70.9 161.326 69.349 162.828 67.709 164.214C66.039 165.565 64.244 166.764 62.344 167.76C60.437 168.741 58.435 169.54 56.361 170.045L56.155 169.423Z" fill="#02020C"/>
<path d="M92.815 149.111C93.502 151.31 94.362 153.448 95.439 155.476C96.502 157.511 97.778 159.427 99.186 161.248C99.26 161.344 99.243 161.481 99.147 161.555C99.056 161.625 98.927 161.612 98.851 161.529C97.276 159.802 95.961 157.842 94.876 155.77C93.805 153.69 92.961 151.489 92.438 149.213C92.414 149.108 92.48 149.003 92.585 148.979C92.685 148.956 92.785 149.015 92.815 149.111Z" fill="#02020C"/>
<path d="M98.428 117.314C98.999 117.614 99.591 117.859 100.188 118.03C100.786 118.2 101.393 118.306 101.994 118.29C102.594 118.312 103.188 118.208 103.754 118.016C104.332 117.852 104.859 117.544 105.409 117.252L105.436 117.238C105.59 117.156 105.781 117.214 105.863 117.369C105.934 117.502 105.899 117.664 105.789 117.758C105.273 118.198 104.691 118.59 104.025 118.812C103.373 119.066 102.656 119.137 101.963 119.103C101.269 119.041 100.592 118.87 99.98 118.575C99.371 118.275 98.809 117.896 98.358 117.399C98.337 117.376 98.339 117.341 98.362 117.321C98.379 117.304 98.408 117.304 98.428 117.314Z" fill="#02020C"/>
<path d="M95.967 113.111C95.607 113.779 95.294 114.47 95.031 115.178C94.898 115.548 94.751 115.868 94.89 116.14C95.016 116.425 95.278 116.734 95.508 117.01C95.984 117.561 96.573 118.016 97.227 118.122C97.884 118.234 98.586 118.033 99.305 117.811C99.519 117.744 99.747 117.864 99.814 118.078C99.881 118.292 99.761 118.52 99.547 118.587C99.537 118.59 99.526 118.593 99.516 118.595C98.778 118.762 97.947 118.963 97.092 118.76C96.232 118.55 95.595 117.943 95.125 117.321C94.894 116.994 94.661 116.705 94.501 116.281C94.425 116.071 94.426 115.803 94.496 115.601C94.562 115.394 94.645 115.23 94.723 115.051C95.041 114.349 95.407 113.672 95.817 113.024C95.843 112.983 95.896 112.971 95.937 112.997C95.976 113.021 95.989 113.071 95.967 113.111Z" fill="#02020C"/>
<path d="M98.868 91.3811C99.044 92.8971 99.12 94.416 99.179 95.936C99.222 97.456 99.228 98.978 99.199 100.5C99.137 102.021 99.098 103.544 98.942 105.061C98.796 106.578 98.612 108.097 98.257 109.586C98.244 109.641 98.188 109.676 98.133 109.663C98.083 109.651 98.05 109.604 98.054 109.554C98.167 108.042 98.229 106.532 98.281 105.02C98.322 103.508 98.386 101.996 98.395 100.482L98.503 95.938C98.552 94.422 98.595 92.905 98.691 91.386C98.694 91.337 98.736 91.299 98.785 91.302C98.828 91.305 98.862 91.3391 98.868 91.3811Z" fill="#02020C"/>
<path d="M56.117 91.423C56.053 91.137 55.97 90.804 56.117 90.473C56.267 90.146 56.592 89.962 56.9 89.872C57.53 89.698 58.208 89.794 58.792 90.089C59.375 90.374 59.868 90.922 60.108 91.525C60.353 92.12 60.522 92.668 60.73 93.237C60.807 93.448 60.699 93.682 60.487 93.759C60.276 93.836 60.043 93.728 59.965 93.517C59.961 93.505 59.957 93.494 59.954 93.482L59.952 93.473C59.801 92.902 59.666 92.291 59.502 91.762C59.341 91.236 59.02 90.811 58.553 90.516C58.096 90.227 57.52 90.092 56.98 90.19C56.716 90.242 56.461 90.3661 56.337 90.5841C56.208 90.8021 56.237 91.103 56.28 91.393C56.287 91.438 56.256 91.48 56.211 91.487C56.167 91.493 56.126 91.465 56.117 91.423Z" fill="#02020C"/>
<path d="M101.835 33.82C101.766 33.754 101.714 33.629 101.716 33.531L102.122 33.932C101.958 33.935 101.794 33.935 101.63 33.931L102.034 33.528V33.535L102.031 33.937L101.631 33.938C94.9419 33.958 88.2089 34.816 81.9109 37.049C78.7899 38.218 75.7849 39.698 73.0509 41.595C70.3419 43.522 67.9249 45.844 65.9129 48.479C61.8599 53.755 59.5569 60.206 58.5799 66.77C58.1149 70.064 57.9269 73.403 58.0639 76.729C58.1309 78.383 58.2609 80.07 58.5069 81.668L59.6199 86.577C61.1299 93.134 62.5739 99.705 64.0179 106.276L66.1899 116.132C66.5569 117.757 66.9039 119.457 67.2859 121.021C67.7249 122.552 68.5649 123.914 69.7449 125.043C74.4609 129.834 79.2199 134.593 84.1499 139.152C85.3809 140.294 86.6369 141.405 87.9089 142.492C89.1949 143.57 90.4789 144.61 91.9069 145.446C94.7629 147.125 97.9219 148.305 101.173 148.949L101.095 148.941L102.654 148.942L102.576 148.95C105.828 148.311 108.99 147.136 111.851 145.461C113.276 144.619 114.565 143.584 115.851 142.505C117.124 141.418 118.38 140.307 119.612 139.166C124.543 134.607 129.316 129.862 134.008 125.046C135.183 123.912 136.015 122.545 136.446 121.016C136.82 119.452 137.161 117.75 137.52 116.123L139.648 106.258L143.913 86.533L144.984 81.622C145.216 80.05 145.337 78.36 145.393 76.718C145.509 73.409 145.302 70.09 144.82 66.822C143.792 60.314 141.493 53.949 137.504 48.735C135.508 46.144 133.162 43.816 130.492 41.891C127.801 39.995 124.838 38.497 121.751 37.292C120.181 36.758 118.622 36.18 116.995 35.816C115.395 35.348 113.747 35.089 112.104 34.799C111.286 34.63 110.455 34.548 109.624 34.461L107.132 34.19C105.397 34.075 103.557 33.971 101.835 33.82ZM102.41 33.246C104.05 33.232 105.577 33.185 107.199 33.272L109.731 33.493C110.576 33.563 111.421 33.629 112.257 33.782L114.774 34.174C115.617 34.286 116.435 34.532 117.269 34.701C118.943 35.023 120.562 35.565 122.194 36.066C125.412 37.205 128.538 38.668 131.404 40.586C134.24 42.537 136.824 44.894 138.938 47.631C141.065 50.355 142.765 53.401 144.044 56.599C145.315 59.803 146.151 63.159 146.663 66.546C147.144 69.939 147.337 73.366 147.198 76.784C147.127 78.504 147.004 80.177 146.734 81.933L145.605 86.875L141.038 106.557L138.75 116.396C138.356 118.05 138.015 119.645 137.578 121.346C137.078 123.056 136.058 124.635 134.79 125.816C130.01 130.563 125.221 135.301 120.22 139.831C118.973 140.967 117.698 142.075 116.403 143.162C115.104 144.234 113.75 145.304 112.267 146.163C109.321 147.893 106.086 149.102 102.737 149.766L102.699 149.774H102.658L101.099 149.775H101.059L101.021 149.767C97.6709 149.108 94.4319 147.905 91.4819 146.178C90.0009 145.313 88.6429 144.248 87.3439 143.175C86.0479 142.088 84.7719 140.981 83.5249 139.845C78.5239 135.315 73.7209 130.591 68.9639 125.82C67.7009 124.634 66.6879 123.05 66.1959 121.341C65.7659 119.64 65.4319 118.042 65.0459 116.387L62.8019 106.539C61.3019 99.974 59.8019 93.409 58.3679 86.831L57.2809 81.887C57.0249 80.157 56.9109 78.481 56.8509 76.774C56.7329 73.373 56.9449 69.966 57.4429 66.599C58.4809 59.89 60.9279 53.282 65.1509 47.888C67.2489 45.196 69.7609 42.831 72.5589 40.883C75.3829 38.966 78.4669 37.485 81.6499 36.31C88.0809 34.108 94.8749 33.197 101.631 33.129L101.229 33.532V33.525V33.113L101.634 33.122C101.798 33.125 101.962 33.125 102.126 33.121L102.532 33.522C102.531 33.428 102.479 33.308 102.41 33.246Z" fill="#02020C"/>
<path d="M144.895 84.534C145.67 84.263 146.537 83.685 147.568 83.337C148.643 82.986 149.787 82.949 150.895 83.337C151.441 83.534 151.968 83.871 152.367 84.313C152.764 84.75 153.042 85.243 153.251 85.736C153.683 86.727 153.864 87.793 153.882 88.835C153.915 90.94 153.266 92.918 152.549 94.75L150.322 100.179C149.601 101.984 148.924 103.8 148.417 105.657C148.162 106.585 147.947 107.521 147.783 108.466C147.622 109.414 147.502 110.392 147.295 111.376C147.083 112.356 146.787 113.361 146.227 114.264C145.673 115.17 144.842 115.907 143.922 116.384C142.06 117.372 139.972 117.47 138.039 117.564L137.994 116.753C139.931 116.64 141.881 116.497 143.5 115.603C144.307 115.167 144.977 114.552 145.438 113.781C145.903 113.011 146.165 112.109 146.352 111.182C146.536 110.251 146.643 109.285 146.796 108.304C146.953 107.32 147.164 106.347 147.415 105.388C147.914 103.466 148.582 101.604 149.287 99.771L151.441 94.323C152.122 92.525 152.676 90.691 152.62 88.862C152.592 87.954 152.423 87.058 152.061 86.259C151.702 85.436 151.194 84.842 150.441 84.595C149.7 84.336 148.781 84.366 148.011 84.638C147.184 84.918 146.415 85.463 145.353 85.87L144.895 84.534Z" fill="#02020C"/>
<path d="M150.503 90.0619C150.877 89.3139 151.172 88.4689 150.933 87.6989C150.734 86.9069 149.908 86.5579 149.123 86.4979C148.327 86.4349 147.523 86.6549 146.807 87.0259C146.084 87.3989 145.43 87.9139 144.782 88.4569C144.61 88.6009 144.354 88.5789 144.21 88.4069C144.066 88.2349 144.088 87.9789 144.26 87.8349C144.266 87.8299 144.273 87.8239 144.28 87.8189C144.974 87.3079 145.703 86.7979 146.527 86.4359C147.347 86.0739 148.27 85.8769 149.18 86.0059C149.633 86.0739 150.075 86.2119 150.471 86.4699C150.875 86.7229 151.163 87.1639 151.26 87.6129C151.478 88.5389 151.081 89.4169 150.663 90.1459C150.639 90.1889 150.584 90.2049 150.541 90.1809C150.498 90.1569 150.483 90.1039 150.503 90.0619Z" fill="#02020C"/>
<path d="M142.964 95.052C143.936 95.786 144.564 96.938 144.704 98.155C144.865 99.39 144.393 100.628 143.743 101.619C143.1 102.632 142.32 103.514 141.731 104.479C141.145 105.441 140.74 106.509 140.542 107.61C140.502 107.831 140.291 107.978 140.07 107.938C139.849 107.898 139.702 107.687 139.742 107.466C139.743 107.462 139.744 107.455 139.745 107.451C140.004 106.26 140.484 105.123 141.152 104.112C141.822 103.103 142.633 102.253 143.275 101.313C143.925 100.387 144.374 99.315 144.273 98.197C144.188 97.091 143.65 96.002 142.775 95.292C142.71 95.239 142.699 95.144 142.752 95.078C142.806 95.014 142.899 95.003 142.964 95.052Z" fill="#02020C"/>
<path d="M131.024 129.198C130.24 132.349 130.054 135.591 129.923 138.873C129.801 142.162 129.461 145.435 129.263 148.716C128.829 155.275 128.728 161.855 129.13 168.428C129.137 168.541 129.051 168.639 128.938 168.646C128.83 168.653 128.736 168.573 128.721 168.468C127.868 161.91 127.693 155.271 127.779 148.658C127.838 145.351 127.9 142.041 128.24 138.753C128.577 135.474 128.985 132.084 130.249 128.945C130.333 128.735 130.572 128.634 130.782 128.718C130.972 128.795 131.073 129.003 131.024 129.198Z" fill="#02020C"/>
<path d="M147.392 170.044C145.317 169.539 143.316 168.74 141.409 167.759C139.509 166.764 137.713 165.565 136.044 164.213C134.405 162.827 132.853 161.325 131.518 159.644C130.175 157.972 128.998 156.166 128.08 154.239L128.702 153.885C129.866 155.617 131.123 157.269 132.505 158.806C133.895 160.333 135.361 161.793 136.976 163.077C138.561 164.396 140.259 165.577 142.038 166.627C143.81 167.691 145.676 168.602 147.598 169.422L147.392 170.044Z" fill="#02020C"/>
<path d="M107.935 113.023C108.345 113.671 108.711 114.349 109.029 115.05C109.107 115.228 109.189 115.393 109.256 115.6C109.326 115.802 109.327 116.07 109.251 116.28C109.091 116.704 108.858 116.994 108.627 117.32C108.158 117.943 107.521 118.55 106.66 118.759C105.804 118.962 104.974 118.761 104.236 118.594C104.017 118.544 103.88 118.327 103.929 118.108C103.979 117.889 104.196 117.752 104.415 117.801C104.425 117.803 104.437 117.806 104.446 117.809C105.166 118.031 105.868 118.232 106.524 118.12C107.178 118.015 107.767 117.56 108.243 117.008C108.473 116.733 108.735 116.424 108.861 116.138C109 115.866 108.853 115.545 108.72 115.176C108.457 114.468 108.144 113.777 107.784 113.109C107.761 113.067 107.777 113.014 107.819 112.991C107.861 112.971 107.911 112.985 107.935 113.023Z" fill="#02020C"/>
<path d="M147.474 91.393C147.517 91.102 147.545 90.802 147.417 90.584C147.293 90.366 147.038 90.241 146.774 90.19C146.235 90.092 145.658 90.227 145.201 90.516C144.734 90.811 144.413 91.236 144.252 91.762C144.088 92.291 143.953 92.902 143.802 93.473L143.8 93.482C143.743 93.699 143.52 93.828 143.303 93.771C143.086 93.714 142.957 93.491 143.014 93.274C143.017 93.262 143.021 93.25 143.025 93.239C143.233 92.67 143.402 92.122 143.647 91.527C143.887 90.923 144.38 90.375 144.963 90.091C145.546 89.795 146.225 89.7 146.855 89.874C147.162 89.964 147.488 90.147 147.638 90.475C147.785 90.806 147.702 91.139 147.638 91.425C147.628 91.469 147.584 91.497 147.54 91.487C147.495 91.476 147.468 91.435 147.474 91.393Z" fill="#02020C"/>
<path d="M135.993 76.645L126.099 76.903L126.793 76.904L108.852 78.871L109.864 78.145L107.992 79.36C107.839 79.459 107.634 79.416 107.535 79.263C107.501 79.211 107.484 79.151 107.482 79.094L107.411 76.863C107.401 76.56 107.613 76.302 107.9 76.244L108.423 76.137L126.104 72.517L126.278 72.481C126.457 72.444 126.638 72.461 126.798 72.517L136.12 75.842C136.335 75.919 136.447 76.155 136.37 76.37C136.312 76.535 136.158 76.64 135.993 76.645Z" fill="#02020C"/>
<path d="M68.437 75.842L77.759 72.517C77.931 72.456 78.1079 72.446 78.2749 72.479L78.453 72.516L96.134 76.136L96.657 76.243C96.953 76.304 97.156 76.57 97.146 76.862L97.075 79.093C97.069 79.275 96.9169 79.419 96.7339 79.413C96.6719 79.411 96.613 79.391 96.565 79.36L94.6929 78.145L95.705 78.871L77.764 76.904L78.458 76.903L68.564 76.645C68.336 76.639 68.1559 76.449 68.1619 76.221C68.1669 76.046 68.281 75.898 68.437 75.842Z" fill="#02020C"/>
<path d="M111.479 149.531C110.956 151.807 110.112 154.008 109.041 156.088C107.956 158.16 106.641 160.121 105.066 161.847C104.984 161.936 104.846 161.943 104.756 161.861C104.671 161.784 104.662 161.654 104.731 161.565C106.139 159.745 107.415 157.829 108.478 155.793C109.554 153.765 110.414 151.627 111.101 149.428C111.133 149.325 111.243 149.268 111.346 149.3C111.445 149.332 111.501 149.433 111.479 149.531Z" fill="#02020C"/>
<path d="M79.6569 97.61C80.6939 97.342 81.6369 97.297 82.6209 97.259C83.5949 97.233 84.5649 97.253 85.5299 97.317C87.4609 97.433 89.3739 97.684 91.2729 98.001C91.3099 98.007 91.3349 98.042 91.3289 98.08C91.3229 98.116 91.2899 98.14 91.2539 98.137C89.3439 97.932 87.4269 97.794 85.5149 97.792C84.5589 97.784 83.6049 97.821 82.6589 97.902C81.7289 97.986 80.7419 98.114 79.9279 98.377L79.8829 98.391C79.6689 98.46 79.4399 98.343 79.3709 98.129C79.3019 97.915 79.4189 97.686 79.6329 97.617C79.6409 97.615 79.6499 97.612 79.6569 97.61Z" fill="#02020C"/>
<path d="M85.35 97.677C88.3367 97.677 90.758 94.4574 90.758 90.486C90.758 86.5145 88.3367 83.295 85.35 83.295C82.3632 83.295 79.942 86.5145 79.942 90.486C79.942 94.4574 82.3632 97.677 85.35 97.677Z" fill="#02020C"/>
<path d="M91.5309 86.355C91.5309 87.684 90.6399 88.762 89.5399 88.762C88.4399 88.762 87.549 87.684 87.549 86.355C87.549 85.026 88.4399 83.948 89.5399 83.948C90.6399 83.948 91.5309 85.026 91.5309 86.355Z" fill="#F4EFE9"/>
<path d="M113.167 97.61C114.204 97.342 115.147 97.297 116.131 97.259C117.105 97.233 118.074 97.253 119.04 97.317C120.971 97.433 122.884 97.684 124.783 98.001C124.82 98.007 124.845 98.042 124.839 98.08C124.833 98.116 124.8 98.14 124.764 98.137C122.854 97.932 120.937 97.794 119.025 97.792C118.069 97.784 117.115 97.821 116.169 97.902C115.239 97.986 114.252 98.114 113.438 98.377L113.393 98.391C113.179 98.46 112.95 98.343 112.882 98.129C112.813 97.915 112.93 97.686 113.144 97.617C113.152 97.615 113.16 97.612 113.167 97.61Z" fill="#02020C"/>
<path d="M118.86 97.677C121.847 97.677 124.268 94.4574 124.268 90.486C124.268 86.5145 121.847 83.295 118.86 83.295C115.873 83.295 113.452 86.5145 113.452 90.486C113.452 94.4574 115.873 97.677 118.86 97.677Z" fill="#02020C"/>
<path d="M125.041 86.355C125.041 87.684 124.15 88.762 123.05 88.762C121.95 88.762 121.059 87.684 121.059 86.355C121.059 85.026 121.95 83.948 123.05 83.948C124.15 83.948 125.041 85.026 125.041 86.355Z" fill="#F4EFE9"/>
<path d="M154.717 60.7739C154.393 60.5079 154.011 60.31 153.777 59.94C153.316 59.209 153.634 58.202 153.925 57.366C154.823 54.783 155.334 51.9109 154.732 49.2179C154.254 47.0809 153.113 45.283 151.648 43.909C150.757 42.095 149.046 40.758 148.684 38.716C148.389 37.057 149.078 35.376 149.068 33.683C149.05 30.729 146.941 28.335 144.719 26.818C142.498 25.301 139.978 24.256 138.125 22.193C137.144 21.102 136.391 19.766 135.407 18.678C133.569 16.646 131.039 15.609 128.51 15.159C126.504 14.802 124.5 14.78 122.496 14.961C121.577 14.751 120.647 14.603 119.714 14.524C115.543 14.169 100.226 15.052 96.267 16.593C92.762 17.957 89.36 19.848 85.682 20.338C82.516 20.76 79.197 20.119 76.108 21.194C73.308 22.168 70.357 24.513 68.04 26.527C66.568 27.806 65.73 29.601 63.789 30.04C63.061 30.205 62.305 30.161 61.581 30.346C59.133 30.971 57.749 33.952 57.172 36.739C56.844 38.328 56.605 40.093 55.527 41.167C55 41.692 54.332 41.983 53.702 42.331C51.23 43.695 49.163 46.184 48.485 49.22C47.883 51.913 48.394 54.785 49.292 57.368C49.583 58.205 49.9 59.2119 49.44 59.9419C49.207 60.3119 48.824 60.51 48.5 60.776C46.976 62.026 46.902 64.589 47.31 66.68C47.759 68.986 48.608 71.19 49.793 73.127C50.672 74.563 50.992 76.482 51.78 78.044C52.813 80.094 54.41 80.346 55.874 81.775C56.445 82.333 57.487 83.8 58.17 83.226C58.799 87.026 59.428 90.826 60.057 94.626L61.932 68.832L69.118 63.721L69.431 52.904L93.992 56.946L101.22 59.443L101.328 59.561L101.436 59.443L109.889 56.946L133.548 52.937C133.613 52.986 133.678 53.035 133.744 53.082L134.051 63.7219L141.237 68.833L143.112 94.627L145.015 83.134C145.992 83.608 149.174 80.364 149.867 79.719C151.718 77.997 152.14 75.226 153.423 73.13C154.609 71.193 155.458 68.989 155.907 66.682C156.315 64.586 156.242 62.0239 154.717 60.7739Z" fill="#02020C"/>
<path d="M102.332 186.584C100.013 186.441 97.888 186.139 95.68 185.811C93.494 185.472 91.319 185.07 89.157 184.611C84.832 183.695 80.556 182.537 76.363 181.12C72.172 179.7 68.062 178.015 64.112 175.995C60.16 173.981 56.38 171.609 52.882 168.854L53.789 168.863L48.482 172.677L48.516 171.82C52.215 174.936 56.324 177.659 60.546 180.089C64.779 182.521 69.208 184.604 73.758 186.357C76.039 187.219 78.353 187.989 80.691 188.677C83.038 189.331 85.401 189.929 87.794 190.384C92.573 191.322 97.438 191.784 102.3 191.815L102.294 193.293C97.334 193.232 92.38 192.728 87.525 191.744C85.094 191.265 82.696 190.643 80.316 189.963C77.946 189.249 75.602 188.453 73.293 187.565C68.689 185.758 64.216 183.62 59.945 181.131C55.674 178.634 51.572 175.887 47.775 172.649L47.258 172.208L47.808 171.791L52.894 167.687L53.315 167.347L53.801 167.696C57.21 170.38 60.906 172.702 64.785 174.678C68.661 176.66 72.705 178.319 76.837 179.719C80.97 181.116 85.192 182.259 89.465 183.165C91.601 183.619 93.749 184.016 95.906 184.35C98.042 184.671 100.276 184.975 102.344 185.105L102.332 186.584Z" fill="#02020C"/>
<path d="M49.205 173.268C46.877 174.98 44.373 176.436 41.778 177.693C39.178 178.941 36.485 179.957 33.783 180.911C28.375 182.802 22.892 184.386 17.687 186.568C15.077 187.639 12.572 188.928 10.225 190.44C7.84597 191.931 5.64697 193.636 4.42697 196.008C3.78897 197.196 3.31097 198.513 2.80197 199.85C2.30797 201.183 1.79097 202.503 1.32497 203.837C0.39897 206.504 -0.385028 209.208 -0.810028 211.985L-1.78003 211.88C-1.58203 208.979 -0.911028 206.132 -0.0540276 203.383C0.372972 202.007 0.82797 200.643 1.32597 199.302C1.81697 197.969 2.29497 196.588 2.99197 195.25C3.67197 193.904 4.66497 192.654 5.78797 191.672C6.90597 190.663 8.12197 189.856 9.35197 189.079C11.809 187.519 14.412 186.206 17.087 185.13C22.422 182.912 27.963 181.434 33.356 179.655C36.047 178.751 38.719 177.803 41.307 176.67C43.884 175.516 46.369 174.169 48.693 172.568L49.205 173.268Z" fill="#02020C"/>
<path d="M102.099 185.107C104.133 185.041 106.336 184.753 108.443 184.444C110.571 184.125 112.69 183.736 114.794 183.282C119.005 182.38 123.159 181.212 127.224 179.8C131.284 178.376 135.254 176.692 139.054 174.689C142.857 172.693 146.479 170.361 149.836 167.7L150.322 167.348L150.745 167.69L155.831 171.794L156.381 172.211L155.864 172.652C152.067 175.89 147.965 178.637 143.694 181.134C139.423 183.623 134.95 185.761 130.346 187.568C128.037 188.456 125.694 189.253 123.323 189.966C120.943 190.645 118.545 191.268 116.114 191.747C111.259 192.731 106.305 193.234 101.345 193.296L101.339 191.818C106.201 191.787 111.066 191.325 115.845 190.387C118.237 189.932 120.601 189.333 122.948 188.68C125.286 187.992 127.599 187.221 129.881 186.36C134.431 184.607 138.86 182.524 143.093 180.092C147.314 177.663 151.423 174.939 155.122 171.823L155.156 172.68L149.849 168.866L150.758 168.855C147.318 171.582 143.617 173.963 139.742 175.998C135.869 178.039 131.833 179.751 127.711 181.197C123.584 182.63 119.373 183.814 115.104 184.728C112.97 185.188 110.822 185.583 108.661 185.907C106.48 186.221 104.374 186.513 102.073 186.586L102.099 185.107Z" fill="#02020C"/>
<path d="M154.945 172.567C157.249 174.152 159.71 175.491 162.262 176.639C164.829 177.76 167.472 178.71 170.139 179.607C175.485 181.37 180.971 182.844 186.27 185.01C188.927 186.065 191.505 187.363 193.963 188.869L195.78 190.048C196.372 190.465 196.958 190.905 197.522 191.385C198.652 192.327 199.683 193.507 200.415 194.83C201.152 196.144 201.654 197.51 202.139 198.848C202.63 200.196 203.032 201.565 203.434 202.923L205.865 211.054L204.933 211.342C203.932 208.728 202.918 206.053 202.049 203.36C201.601 202.021 201.136 200.697 200.659 199.388C200.168 198.076 199.668 196.783 199.005 195.635C197.71 193.358 195.457 191.706 193.103 190.238C190.752 188.776 188.27 187.5 185.676 186.45C180.503 184.318 175.072 182.737 169.71 180.862C167.031 179.915 164.366 178.897 161.788 177.662C159.218 176.411 156.739 174.963 154.431 173.268L154.945 172.567Z" fill="#02020C"/>
</g>
</svg>
