<?xml version="1.0" encoding="UTF-8"?>
<!-- Generator: visioncortex VTracer 0.6.3 -->
<svg version="1.1" xmlns="http://www.w3.org/2000/svg" width="1280" height="1280">
<path d="M0 0 C0.86 -0 1.72 -0.01 2.6 -0.01 C3.54 -0.01 4.48 -0 5.44 -0 C6.43 -0 7.42 -0.01 8.44 -0.01 C11.73 -0.01 15.01 -0.01 18.29 -0.01 C20.56 -0.01 22.84 -0.01 25.11 -0.01 C29.88 -0.01 34.66 -0.01 39.43 -0 C45.55 0 51.68 -0 57.8 -0.01 C62.5 -0.01 67.2 -0.01 71.9 -0.01 C74.16 -0.01 76.41 -0.01 78.67 -0.01 C81.82 -0.01 84.98 -0.01 88.13 -0 C89.54 -0.01 89.54 -0.01 90.97 -0.01 C91.83 -0.01 92.69 -0 93.57 0 C94.32 0 95.07 0 95.83 0 C97.79 0.13 97.79 0.13 100.79 1.13 C103.44 1.29 106.07 1.4 108.72 1.5 C116.63 1.85 124.34 2.82 132.15 4.11 C136.07 4.75 139.79 5.31 143.79 5.13 C143.79 5.79 143.79 6.45 143.79 7.13 C144.43 7.09 145.07 7.06 145.74 7.02 C152.25 6.83 157.89 7.67 164.19 9.27 C168.28 10.24 172.39 10.98 176.54 11.69 C193.22 14.56 193.22 14.56 194.79 16.13 C196.28 16.48 197.78 16.78 199.29 17.06 C200.19 17.24 201.1 17.42 202.03 17.6 C202.94 17.77 203.85 17.95 204.79 18.13 C209.86 19.12 214.48 20.36 219.3 22.28 C222.7 23.44 226.17 24.23 229.66 25.06 C235.14 26.38 240.24 27.96 245.43 30.19 C248.02 31.22 250.59 31.93 253.29 32.63 C259.98 34.37 266.21 37 272.54 39.75 C275.68 41.13 275.68 41.13 278.6 42.06 C284.36 43.99 289.97 46.32 295.54 48.75 C298.58 50.04 301.63 51.13 304.79 52.13 C304.79 52.79 304.79 53.45 304.79 54.13 C306.11 54.13 307.43 54.13 308.79 54.13 C308.79 54.79 308.79 55.45 308.79 56.13 C310.27 55.63 310.27 55.63 311.79 55.13 C311.79 55.79 311.79 56.45 311.79 57.13 C312.45 57.21 313.11 57.29 313.79 57.38 C317.78 58.37 321.15 60.17 324.79 62.06 C329.07 64.27 333.3 66.35 337.79 68.13 C339.36 68.96 340.93 69.81 342.47 70.69 C345.6 72.46 345.6 72.46 348.79 74.13 C348.79 74.79 348.79 75.45 348.79 76.13 C349.51 76.23 350.23 76.33 350.97 76.44 C354.06 77.19 356.1 78.45 358.79 80.13 C360.44 80.83 362.1 81.5 363.79 82.13 C363.79 82.79 363.79 83.45 363.79 84.13 C364.65 84.4 365.52 84.66 366.41 84.94 C369.71 86.1 372.7 87.51 375.79 89.13 C375.79 89.79 375.79 90.45 375.79 91.13 C378.26 91.62 378.26 91.62 380.79 92.13 C380.79 92.79 380.79 93.45 380.79 94.13 C381.65 94.31 381.65 94.31 382.54 94.5 C384.81 95.13 386.71 96.02 388.79 97.13 C388.79 97.79 388.79 98.45 388.79 99.13 C389.74 99.44 390.68 99.75 391.66 100.06 C394.79 101.13 394.79 101.13 396.79 102.13 C396.79 102.79 396.79 103.45 396.79 104.13 C397.36 104.42 397.94 104.7 398.54 105 C399.28 105.37 400.02 105.74 400.79 106.13 C401.45 106.44 402.11 106.75 402.79 107.06 C404.98 108.23 406.81 109.63 408.79 111.13 C409.61 111.62 410.44 112.12 411.29 112.63 C417.36 116.27 417.36 116.27 418.79 119.13 C419.78 119.44 420.77 119.75 421.79 120.06 C422.78 120.42 423.77 120.77 424.79 121.13 C425.12 122.12 425.45 123.11 425.79 124.13 C426.45 124.13 427.11 124.13 427.79 124.13 C427.79 124.79 427.79 125.45 427.79 126.13 C428.51 126.37 429.23 126.62 429.97 126.88 C433.65 128.51 436.95 130.45 438.79 134.13 C439.38 134.42 439.98 134.72 440.59 135.03 C443.89 136.68 446.29 139.18 448.98 141.67 C450.66 143.34 450.66 143.34 452.79 143.13 C452.79 143.79 452.79 144.45 452.79 145.13 C453.74 145.37 454.68 145.62 455.66 145.88 C459.31 147.34 459.25 147.76 460.79 151.13 C463.21 153.48 465.75 155.61 468.79 157.13 C468.79 157.79 468.79 158.45 468.79 159.13 C469.36 159.37 469.92 159.61 470.51 159.86 C473.23 161.38 475.05 163.2 477.22 165.44 C478.01 166.25 478.81 167.06 479.62 167.89 C480.33 168.63 481.05 169.37 481.79 170.13 C483.09 171.43 483.09 171.43 484.41 172.75 C485.8 174.14 487.18 175.53 488.54 176.95 C489.16 177.58 489.77 178.22 490.41 178.88 C490.98 179.47 491.55 180.06 492.14 180.67 C493.84 182.36 493.84 182.36 496.79 183.13 C497.48 184.44 498.15 185.78 498.79 187.13 C500.41 189.02 500.41 189.02 502.31 190.84 C503 191.53 503.69 192.21 504.41 192.92 C505.13 193.63 505.85 194.34 506.6 195.06 C507.31 195.77 508.02 196.47 508.76 197.2 C510.15 198.57 511.54 199.93 512.93 201.3 C515.23 203.56 517.51 205.85 519.79 208.13 C520.72 209.04 521.65 209.94 522.61 210.88 C523.57 211.82 524.52 212.75 525.47 213.69 C526.2 214.39 526.2 214.39 526.95 215.11 C529.53 217.65 531.19 219.92 532.79 223.13 C535.24 225.67 537.8 228.07 540.38 230.49 C542.88 233.23 544.25 235.77 545.79 239.13 C548 242.18 549.63 244.03 552.79 246.13 C553.8 247.79 554.8 249.45 555.79 251.13 C556.63 252.14 557.48 253.15 558.35 254.19 C560.79 257.13 560.79 257.13 561.79 259.19 C562.79 261.38 562.79 261.38 565.22 263.56 C567.64 265.98 569.12 268.19 570.79 271.13 C571.45 271.79 572.11 272.45 572.79 273.13 C573.1 273.95 573.41 274.78 573.72 275.63 C574.65 278.43 574.65 278.43 577.79 280.13 C578.47 281.79 579.13 283.45 579.79 285.13 C580.28 285.62 580.78 286.12 581.29 286.63 C582.79 288.13 582.79 288.13 583.79 290.69 C584.65 293.44 584.65 293.44 587.79 295.13 C588.47 296.79 589.13 298.45 589.79 300.13 C590.28 300.62 590.78 301.12 591.29 301.63 C593.79 304.13 594.54 307.39 595.66 310.69 C596.95 313.48 598.59 315 600.79 317.13 C601.85 319.06 601.85 319.06 602.79 321.13 C604.31 323.8 605.61 325.95 607.79 328.13 C608.49 330.06 609.18 331.98 609.87 333.92 C610.81 336.18 611.94 338.08 613.29 340.13 C615.08 342.85 616.38 345.43 617.47 348.5 C618.49 352.12 618.49 352.12 620.79 354.13 C621.51 356.1 622.23 358.07 622.93 360.04 C623.81 362.39 623.81 362.39 625.85 365.19 C628.02 368.48 628.72 371.34 629.79 375.13 C631.85 379.64 634.19 384.01 636.54 388.38 C637.87 391.31 638.27 393.97 638.79 397.13 C639.45 397.46 640.11 397.79 640.79 398.13 C640.79 399.78 640.79 401.43 640.79 403.13 C641.45 403.13 642.11 403.13 642.79 403.13 C642.73 403.89 642.66 404.65 642.6 405.44 C642.53 408.17 642.53 408.17 644.29 409.94 C644.78 410.33 645.28 410.72 645.79 411.13 C644.79 413.13 644.79 413.13 643.79 414.13 C644.78 414.13 645.77 414.13 646.79 414.13 C646.97 414.68 647.15 415.24 647.34 415.81 C648.6 419.64 649.89 423.44 651.35 427.19 C652.84 431.12 653.93 435.01 654.79 439.13 C654.46 439.79 654.13 440.45 653.79 441.13 C654.45 441.13 655.11 441.13 655.79 441.13 C656.2 442.52 656.2 442.52 656.63 443.94 C656.99 445.13 657.35 446.33 657.72 447.56 C658.08 448.76 658.44 449.95 658.81 451.19 C659.5 453.99 659.5 453.99 660.79 455.13 C660.93 456.24 661.08 457.35 661.22 458.5 C661.54 462.21 661.54 462.21 663.79 465.13 C664.18 466.78 664.5 468.45 664.79 470.13 C665.11 471.71 665.45 473.3 665.79 474.88 C665.95 475.66 666.12 476.43 666.29 477.24 C666.62 479.12 666.62 479.12 667.79 480.13 C668.07 482.38 668.23 484.64 668.41 486.9 C668.68 489.41 668.68 489.41 670.79 492.13 C671.15 494.46 671.48 496.79 671.79 499.13 C672.12 500.24 672.45 501.35 672.79 502.5 C673.95 506.71 674.41 510.79 674.79 515.13 C675.12 515.13 675.45 515.13 675.79 515.13 C675.84 515.7 675.89 516.26 675.94 516.85 C676.29 520.52 676.7 523.84 677.79 527.38 C679.26 532.89 679.46 538.45 679.79 544.13 C680.12 544.13 680.45 544.13 680.79 544.13 C680.84 545.14 680.89 546.15 680.94 547.2 C681.01 548.55 681.09 549.9 681.16 551.25 C681.19 551.92 681.22 552.58 681.26 553.27 C681.44 556.43 681.79 559.13 682.83 562.13 C684.2 566.43 683.85 570.58 683.62 575.03 C683.51 578.85 683.78 581.11 685.28 584.75 C687.17 589.61 687.21 594.1 687.18 599.27 C687.18 600.25 687.19 601.24 687.19 602.25 C687.2 605.48 687.2 608.71 687.19 611.94 C687.19 614.2 687.19 616.45 687.19 618.71 C687.2 623.43 687.19 628.15 687.18 632.87 C687.16 638.91 687.17 644.95 687.19 650.99 C687.2 655.64 687.2 660.3 687.19 664.96 C687.19 667.18 687.19 669.41 687.2 671.64 C687.2 674.75 687.19 677.87 687.18 680.98 C687.18 681.89 687.19 682.81 687.19 683.75 C687.14 689.56 686.06 693.77 683.79 699.13 C683.32 701.89 683.32 701.89 683.31 704.47 C683.28 705.38 683.25 706.3 683.22 707.25 C683.2 708.18 683.18 709.11 683.16 710.06 C683.11 711.95 683.06 713.83 683 715.72 C682.98 716.54 682.96 717.36 682.94 718.21 C682.79 720.13 682.79 720.13 681.79 721.13 C681.58 723.57 681.41 725.99 681.29 728.44 C681.08 732.44 680.82 736.24 679.79 740.13 C679.34 743.38 678.93 746.64 678.54 749.9 C677.89 755.02 677.89 755.02 676.79 756.13 C676.5 758.35 676.34 760.57 676.17 762.8 C675.79 765.13 675.79 765.13 674.78 767.08 C673.17 770.39 673.38 773.84 673.23 777.47 C672.73 780.5 671.66 781.76 669.79 784.13 C669.62 787.25 669.62 787.25 669.79 790.13 C669.46 790.46 669.13 790.79 668.79 791.13 C668.63 792.56 668.51 794 668.41 795.44 C668.04 799.33 667.22 801.06 664.79 804.13 C664.79 805.03 664.79 805.94 664.79 806.88 C664.79 810.53 663.87 812.8 662.51 816.13 C661.45 819.05 661.22 822.05 660.79 825.13 C660.11 827.42 659.34 829.66 658.54 831.92 C657.85 833.93 657.27 835.94 656.72 838 C655.79 841.13 655.79 841.13 653.79 844.13 C653.24 846.11 652.74 848.12 652.29 850.13 C651.46 853.78 650.88 855.98 648.79 859.13 C647.96 861.68 647.27 864.26 646.57 866.85 C645.79 869.13 645.79 869.13 643.79 871.13 C643.39 873.12 643.05 875.12 642.79 877.13 C642.13 877.13 641.47 877.13 640.79 877.13 C640.83 877.91 640.87 878.69 640.91 879.5 C640.79 882.13 640.79 882.13 638.79 884.13 C638.14 886.7 638.14 886.7 637.79 889.13 C637.13 889.13 636.47 889.13 635.79 889.13 C635.83 889.91 635.87 890.69 635.91 891.5 C635.79 894.13 635.79 894.13 633.79 896.13 C632.9 898.09 632.9 898.09 632.16 900.25 C631.9 900.98 631.64 901.7 631.37 902.45 C631.08 903.28 631.08 903.28 630.79 904.13 C630.13 904.13 629.47 904.13 628.79 904.13 C629.12 905.12 629.45 906.11 629.79 907.13 C628.85 909.81 628.85 909.81 627.79 912.13 C627.13 912.13 626.47 912.13 625.79 912.13 C625.6 913.21 625.6 913.21 625.41 914.31 C624.8 917.08 623.9 919.52 622.79 922.13 C622.13 922.13 621.47 922.13 620.79 922.13 C620.6 923.21 620.6 923.21 620.41 924.31 C619.8 927.08 618.9 929.52 617.79 932.13 C617.13 932.13 616.47 932.13 615.79 932.13 C615.68 932.83 615.58 933.53 615.47 934.25 C614.46 938.5 612.89 942.03 609.79 945.13 C609.08 946.44 608.42 947.78 607.79 949.13 C606.79 951.13 605.79 953.13 604.79 955.13 C604.39 955.96 604 956.8 603.59 957.67 C603.16 958.56 602.73 959.46 602.29 960.38 C601.88 961.23 601.48 962.08 601.07 962.96 C599.79 965.13 599.79 965.13 596.79 967.13 C596.46 966.14 596.13 965.15 595.79 964.13 C595.85 965.8 595.85 965.8 595.91 967.5 C595.79 971.13 595.79 971.13 593.79 973.13 C593.32 974.33 593.32 974.33 592.85 975.56 C591.79 978.13 590.98 979.46 588.79 981.13 C587.8 981.13 586.81 981.13 585.79 981.13 C586.78 981.62 586.78 981.62 587.79 982.13 C587.47 984 587.47 984 586.79 986.13 C583.79 988.13 583.79 988.13 580.79 988.13 C581.78 988.62 581.78 988.62 582.79 989.13 C582.23 992.36 581.41 994.11 578.79 996.13 C577.8 996.13 576.81 996.13 575.79 996.13 C576.78 996.62 576.78 996.62 577.79 997.13 C576.64 999.59 575.74 1001.17 573.79 1003.13 C573.32 1004.3 573.32 1004.3 572.85 1005.5 C571.42 1009.04 569.47 1011.45 566.79 1014.13 C565.8 1013.47 564.81 1012.81 563.79 1012.13 C564.45 1013.45 565.11 1014.77 565.79 1016.13 C564.8 1016.46 563.81 1016.79 562.79 1017.13 C562.05 1019.14 562.05 1019.14 561.79 1021.13 C560.8 1021.13 559.81 1021.13 558.79 1021.13 C559.12 1022.45 559.45 1023.77 559.79 1025.13 C559.23 1025.46 558.67 1025.79 558.1 1026.13 C555.85 1028.07 554.79 1029.6 553.29 1032.13 C551.47 1035.18 549.91 1037.28 546.79 1039.13 C545.8 1038.47 544.81 1037.81 543.79 1037.13 C544.18 1037.66 544.57 1038.2 544.97 1038.75 C545.79 1041.13 545.79 1041.13 544.41 1044.38 C543.88 1045.28 543.34 1046.19 542.79 1047.13 C542.13 1046.8 541.47 1046.47 540.79 1046.13 C540.54 1046.89 540.29 1047.65 540.04 1048.44 C538.67 1051.39 537.47 1052.39 534.79 1054.13 C533.46 1055.37 533.46 1055.37 531.96 1058.43 C527.95 1064.87 522.35 1069.97 516.99 1075.28 C515.84 1076.44 514.69 1077.59 513.53 1078.75 C511.13 1081.15 508.72 1083.55 506.3 1085.95 C503.2 1089.02 500.12 1092.11 497.03 1095.2 C494.66 1097.58 492.28 1099.95 489.9 1102.33 C488.75 1103.46 487.61 1104.6 486.48 1105.74 C484.89 1107.33 483.3 1108.9 481.71 1110.48 C480.8 1111.38 479.9 1112.28 478.97 1113.21 C476.79 1115.13 476.79 1115.13 474.79 1115.13 C474.13 1116.45 473.47 1117.77 472.79 1119.13 C471.47 1118.47 470.15 1117.81 468.79 1117.13 C468.79 1118.12 468.79 1119.11 468.79 1120.13 C469.45 1120.46 470.11 1120.79 470.79 1121.13 C469.47 1122.12 468.15 1123.11 466.79 1124.13 C466.79 1123.47 466.79 1122.81 466.79 1122.13 C465.8 1122.13 464.81 1122.13 463.79 1122.13 C464.45 1122.46 465.11 1122.79 465.79 1123.13 C465.79 1123.79 465.79 1124.45 465.79 1125.13 C464.47 1125.79 463.15 1126.45 461.79 1127.13 C460.8 1126.47 459.81 1125.81 458.79 1125.13 C458.79 1125.79 458.79 1126.45 458.79 1127.13 C458.13 1127.13 457.47 1127.13 456.79 1127.13 C456.79 1128.12 456.79 1129.11 456.79 1130.13 C457.45 1130.46 458.11 1130.79 458.79 1131.13 C456.79 1132.13 454.79 1133.13 452.79 1134.13 C453.12 1134.79 453.45 1135.45 453.79 1136.13 C452.36 1136.25 452.36 1136.25 450.91 1136.38 C449.37 1136.75 449.37 1136.75 447.79 1137.13 C446.56 1139.08 446.56 1139.08 445.79 1141.13 C444.8 1141.46 443.81 1141.79 442.79 1142.13 C442.46 1142.79 442.13 1143.45 441.79 1144.13 C440.8 1143.47 439.81 1142.81 438.79 1142.13 C439.45 1143.45 440.11 1144.77 440.79 1146.13 C438.81 1147.12 436.83 1148.11 434.79 1149.13 C434.79 1148.47 434.79 1147.81 434.79 1147.13 C433.8 1147.13 432.81 1147.13 431.79 1147.13 C431.79 1148.12 431.79 1149.11 431.79 1150.13 C432.45 1150.46 433.11 1150.79 433.79 1151.13 C431.73 1152.15 429.69 1153.17 427.6 1154.13 C425.62 1155 425.62 1155 424.79 1157.13 C424.13 1157.13 423.47 1157.13 422.79 1157.13 C422.46 1157.79 422.13 1158.45 421.79 1159.13 C420.8 1158.47 419.81 1157.81 418.79 1157.13 C419.45 1158.45 420.11 1159.77 420.79 1161.13 C415.79 1164.13 415.79 1164.13 413.29 1165.56 C410.72 1167.1 410.72 1167.1 408.29 1169.13 C405.12 1171.66 401.75 1173.59 398.22 1175.56 C395.72 1177.04 395.72 1177.04 393.79 1179.19 C391.56 1181.35 389.65 1182.02 386.79 1183.13 C386.08 1183.9 386.08 1183.9 385.35 1184.69 C383.07 1186.78 380.79 1186.79 377.79 1187.13 C377.79 1187.79 377.79 1188.45 377.79 1189.13 C376.47 1189.13 375.15 1189.13 373.79 1189.13 C373.54 1189.77 373.29 1190.41 373.04 1191.06 C371.79 1193.13 371.79 1193.13 369.92 1193.61 C369.22 1193.78 368.51 1193.95 367.79 1194.13 C366.05 1195.19 366.05 1195.19 364.41 1196.5 C359.97 1199.78 356.45 1202.13 350.79 1202.13 C350.79 1202.79 350.79 1203.45 350.79 1204.13 C350.13 1204.13 349.47 1204.13 348.79 1204.13 C348.79 1204.79 348.79 1205.45 348.79 1206.13 C345.47 1207.55 342.34 1208.52 338.79 1209.13 C338.79 1209.79 338.79 1210.45 338.79 1211.13 C335.47 1212.55 332.34 1213.52 328.79 1214.13 C328.79 1214.79 328.79 1215.45 328.79 1216.13 C325.47 1217.55 322.34 1218.52 318.79 1219.13 C318.79 1219.79 318.79 1220.45 318.79 1221.13 C316.15 1222.12 313.51 1223.11 310.79 1224.13 C310.79 1223.47 310.79 1222.81 310.79 1222.13 C307.75 1223.8 307.75 1223.8 306.79 1226.13 C305.15 1226.86 303.47 1227.52 301.79 1228.13 C300.08 1228.79 298.37 1229.46 296.66 1230.13 C295.81 1230.46 294.97 1230.79 294.09 1231.13 C291.58 1232.13 291.58 1232.13 288.79 1234.13 C286.1 1234.25 286.1 1234.25 283.79 1234.13 C283.79 1234.79 283.79 1235.45 283.79 1236.13 C282.8 1236.25 282.8 1236.25 281.79 1236.38 C279.14 1237.04 277.6 1237.74 275.29 1239.06 C269.82 1241.96 263.86 1242.42 257.79 1243.13 C257.46 1244.12 257.13 1245.11 256.79 1246.13 C252.17 1246.79 247.55 1247.45 242.79 1248.13 C242.46 1249.12 242.13 1250.11 241.79 1251.13 C236.03 1252.43 230.7 1253.38 224.79 1253.13 C224.46 1254.12 224.13 1255.11 223.79 1256.13 C218.8 1258.63 213.27 1259.4 207.79 1260.13 C205.77 1260.76 203.77 1261.42 201.79 1262.13 C196.5 1263.89 192.29 1264.32 186.79 1264.13 C186.79 1264.79 186.79 1265.45 186.79 1266.13 C178.4 1267.38 170.29 1268.49 161.79 1268.13 C161.46 1269.12 161.13 1270.11 160.79 1271.13 C158.56 1271.46 156.33 1271.8 154.1 1272.13 C152.86 1272.31 151.62 1272.5 150.34 1272.69 C147.43 1273.05 144.71 1273.13 141.79 1273.13 C141.46 1273.46 141.13 1273.79 140.79 1274.13 C138.75 1274.31 136.71 1274.45 134.66 1274.56 C130.91 1274.82 127.78 1275.13 124.16 1276.19 C120.96 1277.08 118.87 1277.17 115.6 1277.06 C111.65 1276.97 108.62 1277.38 104.88 1278.61 C94.98 1281.18 84.7 1280.54 74.55 1280.49 C72.3 1280.49 70.04 1280.49 67.79 1280.49 C63.09 1280.49 58.39 1280.48 53.69 1280.46 C47.67 1280.44 41.65 1280.44 35.64 1280.45 C30.99 1280.45 26.35 1280.44 21.71 1280.43 C19.49 1280.43 17.27 1280.43 15.05 1280.43 C11.95 1280.43 8.85 1280.42 5.75 1280.4 C4.39 1280.41 4.39 1280.41 3 1280.41 C-2.14 1280.37 -6.33 1279.74 -11.21 1278.13 C-13.04 1277.86 -14.87 1277.65 -16.71 1277.49 C-18.16 1277.37 -18.16 1277.37 -19.65 1277.24 C-21.13 1277.12 -21.13 1277.12 -22.65 1277 C-23.67 1276.92 -24.69 1276.83 -25.73 1276.74 C-28.23 1276.53 -30.72 1276.33 -33.21 1276.13 C-33.21 1275.47 -33.21 1274.81 -33.21 1274.13 C-34.32 1274.14 -35.43 1274.15 -36.57 1274.16 C-38.04 1274.17 -39.5 1274.18 -40.96 1274.19 C-41.69 1274.2 -42.42 1274.21 -43.17 1274.21 C-46.71 1274.23 -49.81 1274.05 -53.21 1273.13 C-56.35 1272.6 -59.49 1272.11 -62.63 1271.63 C-65.21 1271.13 -65.21 1271.13 -66.21 1270.13 C-68.19 1269.92 -70.17 1269.76 -72.15 1269.63 C-77.99 1269.24 -77.99 1269.24 -80.21 1268.13 C-83.58 1267.57 -86.96 1267.1 -90.34 1266.63 C-93.21 1266.13 -93.21 1266.13 -94.21 1265.13 C-95.52 1264.77 -96.83 1264.47 -98.15 1264.19 C-98.95 1264.02 -99.75 1263.85 -100.58 1263.67 C-104.79 1262.8 -109 1261.95 -113.21 1261.13 C-113.21 1260.47 -113.21 1259.81 -113.21 1259.13 C-114.45 1259.19 -115.69 1259.25 -116.96 1259.31 C-120.78 1259.33 -122.26 1258.57 -125.21 1256.13 C-127.84 1255.96 -127.84 1255.96 -130.21 1256.13 C-130.54 1255.8 -130.87 1255.47 -131.21 1255.13 C-132.31 1254.98 -133.4 1254.84 -134.53 1254.69 C-138.21 1254.13 -138.21 1254.13 -140.06 1253.19 C-143.65 1251.42 -147.55 1250.79 -151.44 1249.91 C-154.21 1249.13 -154.21 1249.13 -157.21 1247.13 C-159.2 1246.58 -161.2 1246.08 -163.21 1245.63 C-166.86 1244.8 -169.07 1244.22 -172.21 1242.13 C-174.77 1241.3 -177.34 1240.61 -179.94 1239.91 C-182.21 1239.13 -182.21 1239.13 -184.21 1237.13 C-186.2 1236.73 -188.2 1236.39 -190.21 1236.13 C-190.21 1235.47 -190.21 1234.81 -190.21 1234.13 C-191.86 1234.13 -193.51 1234.13 -195.21 1234.13 C-195.54 1233.47 -195.87 1232.81 -196.21 1232.13 C-198.53 1231.41 -200.87 1230.75 -203.21 1230.13 C-206.85 1228.83 -209.91 1227.11 -213.21 1225.13 C-214.88 1224.45 -216.54 1223.79 -218.21 1223.13 C-219.2 1222.47 -220.19 1221.81 -221.21 1221.13 C-222.87 1220.74 -224.54 1220.4 -226.21 1220.13 C-226.54 1219.14 -226.87 1218.15 -227.21 1217.13 C-227.93 1217.4 -228.66 1217.66 -229.4 1217.94 C-230.33 1218 -231.26 1218.06 -232.21 1218.13 C-234.78 1215.75 -234.78 1215.75 -237.21 1213.13 C-239.18 1212.38 -239.18 1212.38 -241.21 1212.13 C-246.06 1210.44 -246.06 1210.44 -247.21 1208.13 C-248.53 1207.75 -249.87 1207.43 -251.21 1207.13 C-256.06 1205.44 -256.06 1205.44 -257.21 1203.13 C-259.16 1202.54 -259.16 1202.54 -261.21 1202.13 C-261.87 1201.8 -262.53 1201.47 -263.21 1201.13 C-263.21 1200.47 -263.21 1199.81 -263.21 1199.13 C-263.92 1199.02 -264.63 1198.92 -265.35 1198.81 C-268.57 1198.04 -271.06 1196.83 -273.96 1195.25 C-274.93 1194.74 -275.89 1194.23 -276.88 1193.7 C-279.21 1192.13 -279.21 1192.13 -280.21 1189.13 C-280.91 1189.02 -281.62 1188.92 -282.34 1188.81 C-287.24 1187.64 -290.69 1185.65 -294.21 1182.13 C-294.87 1181.98 -295.53 1181.84 -296.21 1181.69 C-298.21 1181.13 -298.21 1181.13 -299.65 1179.19 C-301.58 1176.64 -303.26 1176.23 -306.21 1175.13 C-307.21 1174.13 -308.21 1173.13 -309.21 1172.13 C-309.87 1171.98 -310.53 1171.84 -311.21 1171.69 C-313.21 1171.13 -313.21 1171.13 -314.65 1169.19 C-316.59 1166.62 -318.24 1166.26 -321.21 1165.13 C-322.91 1163.83 -324.58 1162.5 -326.21 1161.13 C-327.2 1160.47 -328.19 1159.81 -329.21 1159.13 C-329.21 1158.47 -329.21 1157.81 -329.21 1157.13 C-330.16 1156.84 -331.11 1156.55 -332.09 1156.25 C-335.21 1155.13 -335.21 1155.13 -337.21 1153.13 C-340.28 1150.35 -343.27 1147.69 -346.84 1145.56 C-349.78 1143.78 -351.92 1141.68 -354.21 1139.13 C-354.21 1138.47 -354.21 1137.81 -354.21 1137.13 C-355.08 1137.09 -355.95 1137.04 -356.84 1137 C-360.79 1135.98 -362.18 1134.56 -364.82 1131.6 C-366.34 1129.88 -366.34 1129.88 -369.21 1128.13 C-370.55 1126.79 -371.88 1125.46 -373.21 1124.13 C-374.24 1123.25 -375.28 1122.38 -376.31 1121.52 C-380.72 1117.76 -384.77 1113.68 -388.84 1109.56 C-389.58 1108.82 -390.31 1108.08 -391.07 1107.32 C-392.45 1105.93 -393.82 1104.55 -395.2 1103.16 C-399.23 1099.1 -403.28 1095.06 -407.35 1091.04 C-410.04 1088.38 -412.72 1085.71 -415.41 1083.04 C-416.83 1081.63 -418.25 1080.23 -419.67 1078.82 C-421.73 1076.79 -423.78 1074.75 -425.83 1072.71 C-426.47 1072.08 -427.11 1071.45 -427.77 1070.8 C-429.29 1069.28 -430.76 1067.71 -432.21 1066.13 C-432.21 1065.47 -432.21 1064.81 -432.21 1064.13 C-432.85 1063.88 -433.49 1063.63 -434.15 1063.38 C-436.21 1062.13 -436.21 1062.13 -436.78 1060.06 C-436.92 1059.43 -437.06 1058.79 -437.21 1058.13 C-438.2 1057.8 -439.19 1057.47 -440.21 1057.13 C-444.9 1052.68 -448.5 1047.4 -451.85 1041.91 C-453.18 1039.83 -453.18 1039.83 -456.21 1039.13 C-457.59 1036.84 -458.37 1034.67 -459.21 1032.13 C-459.87 1031.8 -460.53 1031.47 -461.21 1031.13 C-462.23 1029.91 -463.21 1028.65 -464.15 1027.38 C-464.68 1026.66 -465.21 1025.94 -465.76 1025.21 C-467.21 1023.13 -467.21 1023.13 -468.96 1020.13 C-469.38 1019.47 -469.79 1018.81 -470.21 1018.13 C-470.87 1018.13 -471.53 1018.13 -472.21 1018.13 C-472.5 1017.16 -472.79 1016.19 -473.09 1015.19 C-473.86 1012.02 -473.86 1012.02 -476.21 1011.13 C-477.58 1009.15 -478.91 1007.15 -480.21 1005.13 C-481.65 1003.12 -482.96 1001.36 -484.78 999.69 C-487.27 996.98 -488.07 993.57 -489.21 990.13 C-489.87 990.13 -490.53 990.13 -491.21 990.13 C-492.29 987.47 -493.31 984.84 -494.21 982.13 C-494.87 981.8 -495.53 981.47 -496.21 981.13 C-499.21 977.67 -499.21 977.67 -499.21 974.13 C-499.87 973.8 -500.53 973.47 -501.21 973.13 C-501.84 971.06 -501.84 971.06 -502.21 969.13 C-502.87 969.13 -503.53 969.13 -504.21 969.13 C-505.05 967.5 -505.88 965.88 -506.71 964.25 C-507.41 962.89 -507.41 962.89 -508.12 961.51 C-509.21 959.13 -509.21 959.13 -509.21 957.13 C-509.87 956.8 -510.53 956.47 -511.21 956.13 C-513.1 953.22 -514.7 950.24 -516.21 947.13 C-517.63 944.23 -519.05 941.39 -520.71 938.63 C-522.37 935.86 -523.77 933.01 -525.21 930.13 C-525.73 929.28 -526.24 928.44 -526.78 927.56 C-528.21 925.14 -529.17 922.74 -530.21 920.13 C-530.71 919.3 -531.2 918.48 -531.71 917.63 C-533.2 915.16 -534.18 912.81 -535.21 910.13 C-536.27 907.82 -537.33 905.51 -538.41 903.21 C-539.21 901.13 -539.21 901.13 -539.21 898.13 C-539.87 898.13 -540.53 898.13 -541.21 898.13 C-543.61 892.86 -545.43 887.52 -547.15 881.99 C-548.22 879.11 -549.61 876.74 -551.21 874.13 C-551.9 871.8 -552.57 869.47 -553.21 867.13 C-553.94 865.45 -554.67 863.77 -555.42 862.09 C-557.35 857.32 -559.21 852.3 -559.21 847.13 C-559.87 847.13 -560.53 847.13 -561.21 847.13 C-561.32 846.56 -561.43 845.99 -561.54 845.4 C-562.33 841.6 -563.17 838.22 -564.71 834.63 C-566.19 831.18 -566.94 828.03 -567.68 824.38 C-568.19 822.21 -568.88 820.26 -569.71 818.19 C-571.24 814.34 -572 810.5 -572.75 806.43 C-573.19 803.98 -573.19 803.98 -574.21 801.13 C-575.35 797.71 -576.01 794.32 -576.65 790.79 C-577.2 788 -577.2 788 -578.18 784.81 C-579.45 780.27 -580.26 775.72 -581.07 771.09 C-581.86 766.67 -582.96 762.44 -584.21 758.13 C-585.71 751.07 -586.45 744.33 -586.21 737.13 C-586.87 737.13 -587.53 737.13 -588.21 737.13 C-588.27 736.52 -588.32 735.92 -588.38 735.29 C-588.63 732.53 -588.89 729.77 -589.15 727 C-589.24 726.05 -589.32 725.1 -589.41 724.12 C-589.77 720.37 -590.12 716.67 -590.75 712.96 C-591.46 708.59 -591.6 704.2 -591.82 699.79 C-591.99 696.69 -592.23 694.09 -593.21 691.13 C-593.3 689.73 -593.34 688.34 -593.34 686.94 C-593.34 686.09 -593.35 685.24 -593.35 684.36 C-593.35 683.43 -593.34 682.49 -593.34 681.53 C-593.34 680.55 -593.35 679.57 -593.35 678.55 C-593.35 675.29 -593.35 672.03 -593.35 668.77 C-593.35 666.5 -593.35 664.24 -593.35 661.97 C-593.35 657.22 -593.35 652.46 -593.34 647.71 C-593.34 641.62 -593.34 635.53 -593.35 629.44 C-593.35 624.76 -593.35 620.08 -593.35 615.4 C-593.35 613.15 -593.35 610.91 -593.35 608.67 C-593.35 605.52 -593.35 602.38 -593.34 599.24 C-593.34 598.31 -593.35 597.39 -593.35 596.44 C-593.33 591.56 -593.02 586.94 -592.21 582.13 C-592.1 580.76 -592 579.39 -591.93 578.01 C-591.88 576.98 -591.88 576.98 -591.82 575.92 C-591.75 574.5 -591.68 573.07 -591.61 571.65 C-591.32 566.34 -591.32 566.34 -590.21 564.13 C-590.01 562.66 -589.85 561.18 -589.71 559.7 C-589.63 558.82 -589.55 557.94 -589.46 557.04 C-589.38 556.12 -589.3 555.2 -589.21 554.25 C-589.05 552.44 -588.88 550.63 -588.71 548.82 C-588.64 548.02 -588.57 547.21 -588.49 546.39 C-588.23 544.23 -587.76 542.23 -587.21 540.13 C-587 538.38 -586.81 536.63 -586.65 534.88 C-586.57 533.98 -586.48 533.09 -586.4 532.17 C-586.34 531.5 -586.28 530.82 -586.21 530.13 C-585.55 530.13 -584.89 530.13 -584.21 530.13 C-584.4 529.41 -584.58 528.7 -584.77 527.96 C-585.25 524.9 -584.96 522.82 -584.28 519.81 C-584.08 518.93 -583.89 518.05 -583.69 517.14 C-583.53 516.47 -583.37 515.81 -583.21 515.13 C-582.55 515.13 -581.89 515.13 -581.21 515.13 C-581.71 513.64 -581.71 513.64 -582.21 512.13 C-581.62 505.6 -580.07 499.34 -578.07 493.12 C-576.66 488.2 -575.63 483.2 -574.57 478.19 C-573.31 472.32 -573.31 472.32 -572.21 470.13 C-571.52 467.46 -570.86 464.8 -570.21 462.13 C-568.35 454.4 -568.35 454.4 -567.21 452.13 C-566.59 449.96 -565.99 447.8 -565.4 445.63 C-563.95 440.49 -562.29 435.62 -560.22 430.71 C-558.61 426.58 -557.39 422.35 -556.14 418.11 C-555.29 415.38 -554.31 412.76 -553.21 410.13 C-552.55 410.13 -551.89 410.13 -551.21 410.13 C-551.25 409.18 -551.3 408.23 -551.34 407.25 C-551.21 404.13 -551.21 404.13 -549.21 402.13 C-548.49 400.21 -547.83 398.27 -547.21 396.31 C-546.01 392.52 -544.74 388.81 -543.21 385.13 C-542.55 385.13 -541.89 385.13 -541.21 385.13 C-541.21 383.48 -541.21 381.83 -541.21 380.13 C-540.55 380.13 -539.89 380.13 -539.21 380.13 C-539.11 379.26 -539.01 378.39 -538.9 377.5 C-538.17 373.93 -536.92 371.33 -535.21 368.13 C-534.53 366.47 -533.85 364.8 -533.21 363.13 C-532.55 363.13 -531.89 363.13 -531.21 363.13 C-529.73 358.18 -529.73 358.18 -528.21 353.13 C-527.55 353.13 -526.89 353.13 -526.21 353.13 C-526.09 352.41 -525.97 351.68 -525.84 350.94 C-525.22 348.17 -524.33 345.73 -523.21 343.13 C-522.55 343.13 -521.89 343.13 -521.21 343.13 C-521.04 342.46 -520.87 341.8 -520.7 341.12 C-519.26 335.89 -517.92 332.21 -514.21 328.13 C-513.88 327.14 -513.55 326.15 -513.21 325.13 C-512.55 325.13 -511.89 325.13 -511.21 325.13 C-511.13 324.43 -511.05 323.72 -510.96 323 C-510.04 319.45 -508.3 317.14 -506.21 314.13 C-505.18 312.14 -504.17 310.15 -503.21 308.13 C-502.55 308.13 -501.89 308.13 -501.21 308.13 C-500.9 307.18 -500.59 306.23 -500.28 305.25 C-499.21 302.13 -499.21 302.13 -498.21 300.13 C-497.55 300.13 -496.89 300.13 -496.21 300.13 C-496.13 299.41 -496.05 298.68 -495.96 297.94 C-495.05 294.53 -493.49 292.8 -491.21 290.13 C-490.68 289.2 -490.14 288.27 -489.59 287.31 C-489.13 286.59 -488.68 285.87 -488.21 285.13 C-487.55 285.13 -486.89 285.13 -486.21 285.13 C-486.13 284.41 -486.05 283.68 -485.96 282.94 C-485.05 279.53 -483.49 277.8 -481.21 275.13 C-480.68 274.2 -480.14 273.27 -479.59 272.31 C-479.13 271.59 -478.68 270.87 -478.21 270.13 C-477.55 270.13 -476.89 270.13 -476.21 270.13 C-476.13 269.57 -476.05 269.01 -475.96 268.44 C-474.72 264.6 -472.03 261.94 -469.21 259.13 C-468.92 258.34 -468.64 257.56 -468.34 256.75 C-467.07 253.8 -465.66 252.19 -463.21 250.13 C-462.55 250.13 -461.89 250.13 -461.21 250.13 C-461.03 249.28 -460.84 248.44 -460.65 247.56 C-458.99 243.6 -456.95 241.73 -453.87 238.84 C-452.01 237.09 -452.01 237.09 -450.78 234.19 C-448.49 229.71 -445.06 226.34 -441.21 223.13 C-440.55 223.13 -439.89 223.13 -439.21 223.13 C-439 222.27 -438.79 221.4 -438.57 220.52 C-436.94 216.45 -434.54 213.9 -431.47 210.88 C-430.88 210.29 -430.29 209.69 -429.69 209.08 C-427.75 207.13 -425.8 205.2 -423.85 203.27 C-422.5 201.91 -421.14 200.56 -419.79 199.2 C-416.96 196.37 -414.12 193.54 -411.27 190.72 C-407.63 187.11 -404 183.48 -400.38 179.84 C-397.59 177.04 -394.79 174.25 -391.99 171.47 C-390.65 170.13 -389.31 168.79 -387.98 167.45 C-386.11 165.58 -384.23 163.72 -382.35 161.86 C-381.8 161.3 -381.25 160.75 -380.68 160.18 C-377.7 157.25 -375.17 155.46 -371.21 154.13 C-369.49 152.45 -369.49 152.45 -368.03 150.44 C-364.66 146.38 -360.95 143.69 -356.57 140.8 C-354.4 139.26 -352.7 137.7 -350.9 135.75 C-348.04 132.96 -346.98 132.75 -343.21 132.13 C-342.03 130.26 -342.03 130.26 -341.21 128.13 C-339.52 126.03 -338.37 125.19 -335.84 124.19 C-332.18 122.71 -329.01 120.72 -327.21 117.13 C-325.89 117.13 -324.57 117.13 -323.21 117.13 C-323.21 116.47 -323.21 115.81 -323.21 115.13 C-321.35 113.69 -321.35 113.69 -318.9 112.13 C-318.1 111.61 -317.3 111.1 -316.47 110.56 C-315.73 110.09 -314.98 109.62 -314.21 109.13 C-312.73 108.14 -312.73 108.14 -311.21 107.13 C-310.22 107.13 -309.23 107.13 -308.21 107.13 C-308.21 106.47 -308.21 105.81 -308.21 105.13 C-305.31 103.09 -303.81 102.13 -300.21 102.13 C-299.87 101.17 -299.87 101.17 -299.53 100.19 C-298.21 98.13 -298.21 98.13 -295.59 97.38 C-294.8 97.29 -294.02 97.21 -293.21 97.13 C-293.21 96.47 -293.21 95.81 -293.21 95.13 C-287.46 92.13 -287.46 92.13 -285.21 92.13 C-285.21 91.47 -285.21 90.81 -285.21 90.13 C-284.43 90.04 -283.65 89.96 -282.84 89.88 C-281.97 89.63 -281.11 89.38 -280.21 89.13 C-279.93 88.49 -279.66 87.85 -279.37 87.19 C-278.21 85.13 -278.21 85.13 -275.83 84.08 C-274.93 83.85 -274.02 83.62 -273.09 83.38 C-272.18 83.13 -271.27 82.89 -270.33 82.64 C-269.63 82.47 -268.93 82.3 -268.21 82.13 C-268.21 81.47 -268.21 80.81 -268.21 80.13 C-267.26 79.67 -266.32 79.22 -265.34 78.75 C-262.21 77.32 -262.21 77.32 -260.21 75.13 C-258.53 74.52 -256.81 73.99 -255.09 73.5 C-254.18 73.24 -253.27 72.98 -252.33 72.71 C-251.28 72.42 -251.28 72.42 -250.21 72.13 C-250.21 71.47 -250.21 70.81 -250.21 70.13 C-246.91 69.14 -243.61 68.15 -240.21 67.13 C-240.21 66.47 -240.21 65.81 -240.21 65.13 C-236.91 64.14 -233.61 63.15 -230.21 62.13 C-230.21 61.47 -230.21 60.81 -230.21 60.13 C-229.08 59.71 -227.94 59.3 -226.78 58.88 C-223.63 57.7 -220.58 56.4 -217.53 55 C-214.43 53.6 -211.61 52.57 -208.21 52.13 C-208.21 51.47 -208.21 50.81 -208.21 50.13 C-206.8 49.62 -205.38 49.12 -203.96 48.63 C-203.17 48.35 -202.39 48.07 -201.57 47.78 C-199.21 47.13 -199.21 47.13 -195.21 47.13 C-195.21 46.47 -195.21 45.81 -195.21 45.13 C-193.97 44.62 -192.72 44.12 -191.46 43.63 C-190.77 43.35 -190.07 43.07 -189.35 42.78 C-187.21 42.13 -187.21 42.13 -183.21 42.13 C-183.21 41.47 -183.21 40.81 -183.21 40.13 C-181.56 40.13 -179.91 40.13 -178.21 40.13 C-178.21 39.47 -178.21 38.81 -178.21 38.13 C-177.59 37.93 -176.96 37.73 -176.32 37.53 C-173.45 36.63 -170.58 35.72 -167.71 34.81 C-166.73 34.51 -165.75 34.2 -164.74 33.88 C-160.43 32.51 -156.14 31.14 -151.92 29.52 C-143.16 26.22 -134.03 24.06 -124.95 21.85 C-122.46 21.19 -120.07 20.42 -117.65 19.56 C-113.45 18.1 -109.26 17.38 -104.88 16.66 C-102.44 16.17 -100.29 15.5 -97.96 14.63 C-92.73 12.75 -87.35 12.26 -81.86 11.65 C-78.24 11.22 -78.24 11.22 -74.93 10.17 C-70.11 8.82 -65.29 8.21 -60.34 7.56 C-58.44 7.32 -56.55 7.07 -54.66 6.81 C-53.83 6.7 -53 6.6 -52.14 6.48 C-50.21 6.32 -50.21 6.32 -49.21 5.13 C-47.84 4.91 -46.45 4.76 -45.06 4.63 C-44.22 4.54 -43.38 4.46 -42.52 4.38 C-41.63 4.29 -40.75 4.21 -39.84 4.13 C-38.1 3.96 -36.36 3.8 -34.63 3.63 C-33.47 3.52 -33.47 3.52 -32.28 3.41 C-30.02 3.17 -30.02 3.17 -27.21 2.13 C-25.7 1.99 -24.17 1.9 -22.65 1.85 C-21.77 1.81 -20.89 1.77 -19.99 1.73 C-18.14 1.66 -16.29 1.59 -14.44 1.52 C-13.56 1.48 -12.68 1.45 -11.78 1.41 C-10.97 1.38 -10.17 1.35 -9.34 1.32 C-6.08 1.03 -3.34 0 0 0 Z M590.79 304.13 C591.79 306.13 591.79 306.13 591.79 306.13 Z M610.79 339.13 C611.79 341.13 611.79 341.13 611.79 341.13 Z M613.79 344.13 C614.79 346.13 614.79 346.13 614.79 346.13 Z M618.79 354.13 C619.79 356.13 619.79 356.13 619.79 356.13 Z M623.79 364.13 C624.79 366.13 624.79 366.13 624.79 366.13 Z M625.79 369.13 C626.79 372.13 626.79 372.13 626.79 372.13 Z M638.79 399.13 C639.79 401.13 639.79 401.13 639.79 401.13 Z M655.79 447.13 C656.79 449.13 656.79 449.13 656.79 449.13 Z M660.79 466.13 C661.79 468.13 661.79 468.13 661.79 468.13 Z M663.79 475.13 C664.79 478.13 664.79 478.13 664.79 478.13 Z M665.79 482.13 C666.79 485.13 666.79 485.13 666.79 485.13 Z M668.79 495.13 C669.79 498.13 669.79 498.13 669.79 498.13 Z M673.79 518.13 C673.79 519.78 673.79 521.43 673.79 523.13 C674.12 523.13 674.45 523.13 674.79 523.13 C674.79 521.48 674.79 519.83 674.79 518.13 C674.46 518.13 674.13 518.13 673.79 518.13 Z M670.79 773.13 C671.79 775.13 671.79 775.13 671.79 775.13 Z M660.79 811.13 C661.79 814.13 661.79 814.13 661.79 814.13 Z M658.79 818.13 C659.79 821.13 659.79 821.13 659.79 821.13 Z M655.79 828.13 C656.79 832.13 656.79 832.13 656.79 832.13 Z M648.79 850.13 C649.79 852.13 649.79 852.13 649.79 852.13 Z M643.79 866.13 C644.79 868.13 644.79 868.13 644.79 868.13 Z M640.79 871.13 C641.79 874.13 641.79 874.13 641.79 874.13 Z M598.79 960.13 C599.79 962.13 599.79 962.13 599.79 962.13 Z M560.79 1017.13 C561.79 1019.13 561.79 1019.13 561.79 1019.13 Z M528.79 1058.13 C529.79 1060.13 529.79 1060.13 529.79 1060.13 Z M-129.21 1254.13 C-125.21 1255.13 -125.21 1255.13 -125.21 1255.13 Z M206.79 1257.13 C206.79 1257.46 206.79 1257.79 206.79 1258.13 C208.44 1258.13 210.09 1258.13 211.79 1258.13 C211.79 1257.8 211.79 1257.47 211.79 1257.13 C210.14 1257.13 208.49 1257.13 206.79 1257.13 Z M-101.21 1262.13 C-101.21 1262.46 -101.21 1262.79 -101.21 1263.13 C-99.23 1263.13 -97.25 1263.13 -95.21 1263.13 C-95.21 1262.8 -95.21 1262.47 -95.21 1262.13 C-97.19 1262.13 -99.17 1262.13 -101.21 1262.13 Z M185.79 1262.13 C185.79 1262.46 185.79 1262.79 185.79 1263.13 C188.76 1263.13 191.73 1263.13 194.79 1263.13 C194.79 1262.8 194.79 1262.47 194.79 1262.13 C191.82 1262.13 188.85 1262.13 185.79 1262.13 Z " fill="#7B56C0" transform="translate(593.212890625,-0.126983642578125)"/>
<path d="M0 0 C2.17 0.75 4.34 1.46 6.52 2.17 C16.55 5.49 25.84 9.77 35.15 14.74 C36.12 15.26 37.1 15.77 38.1 16.3 C40.8 17.76 43.47 19.25 46.15 20.74 C47.22 21.32 48.3 21.9 49.41 22.5 C58.55 27.55 66.87 33.38 75.15 39.74 C76.05 40.43 76.96 41.12 77.89 41.83 C96.5 56.36 114.31 73.6 128.15 92.74 C128.98 93.85 129.81 94.97 130.64 96.08 C155.26 129.34 171.63 167.03 179.96 207.49 C180.16 208.42 180.35 209.35 180.55 210.31 C183.74 226.7 184.53 243.27 184.46 259.93 C184.46 261.26 184.46 261.26 184.46 262.62 C184.41 277.18 183.62 291.37 181.15 305.74 C180.99 306.74 180.83 307.74 180.66 308.76 C176.86 331.91 170.3 357.48 158.15 377.74 C157.71 378.78 157.28 379.82 156.83 380.89 C154.98 385.27 152.72 389.4 150.4 393.55 C149.74 394.74 149.74 394.74 149.07 395.94 C145.77 401.81 142.22 407.37 138.15 412.74 C133.75 411.24 132.65 408.43 130.59 404.43 C119.76 384.53 103.76 373.08 82.19 366.54 C60.88 360.96 39.78 365.86 21.15 376.74 C3.33 387.43 -7.03 403.34 -12.82 423.04 C-17.68 442.56 -15.27 463.91 -5.85 481.74 C0.39 491.58 8.09 499.91 17.68 506.51 C18.16 506.92 18.65 507.32 19.15 507.74 C19.15 508.4 19.15 509.06 19.15 509.74 C20.47 510.07 21.79 510.4 23.15 510.74 C-2.39 521.38 -28.11 529 -55.62 532.44 C-57.72 532.72 -59.78 533.08 -61.86 533.46 C-70.38 534.71 -70.38 534.71 -74.24 532.16 C-74.99 531.43 -75.74 530.7 -76.51 529.95 C-77.37 529.13 -78.23 528.3 -79.12 527.45 C-80.47 526.11 -80.47 526.11 -81.85 524.74 C-82.76 523.86 -83.67 522.98 -84.6 522.07 C-87.67 519.1 -90.69 516.08 -93.72 513.07 C-94.89 511.91 -96.06 510.76 -97.23 509.6 C-100.41 506.44 -103.59 503.28 -106.77 500.12 C-109.5 497.4 -112.24 494.68 -114.97 491.97 C-140.88 466.25 -166.74 440.48 -192.59 414.71 C-195.94 411.36 -199.3 408.01 -202.66 404.67 C-203.5 403.83 -204.33 403 -205.19 402.14 C-218.74 388.64 -232.3 375.16 -245.88 361.69 C-259.83 347.85 -273.76 333.99 -287.66 320.1 C-295.46 312.31 -303.28 304.53 -311.12 296.77 C-317.79 290.18 -324.44 283.56 -331.06 276.91 C-334.44 273.52 -337.83 270.15 -341.24 266.79 C-344.37 263.72 -347.47 260.63 -350.55 257.5 C-351.66 256.38 -352.79 255.27 -353.93 254.17 C-362.41 245.94 -362.41 245.94 -363.51 240.45 C-363.53 237.45 -363.32 234.69 -362.85 231.74 C-362.76 230.63 -362.67 229.52 -362.58 228.37 C-362.45 227.5 -362.32 226.63 -362.19 225.73 C-362.04 224.71 -361.89 223.7 -361.74 222.66 C-361.48 221.09 -361.48 221.09 -361.23 219.49 C-361.05 218.37 -360.87 217.25 -360.69 216.09 C-356.33 189.84 -348.25 164.77 -336.85 140.74 C-336.55 140.09 -336.24 139.43 -335.93 138.76 C-325.49 116.3 -311.36 96.81 -295.14 78.23 C-294.08 77.01 -293.04 75.77 -291.99 74.54 C-283.27 64.26 -273.5 54.99 -262.85 46.74 C-262.23 46.25 -261.6 45.76 -260.96 45.26 C-253.4 39.33 -245.77 33.54 -237.79 28.18 C-237.21 27.79 -236.62 27.39 -236.02 26.99 C-232.4 24.6 -228.69 22.6 -224.79 20.7 C-221.92 19.28 -219.15 17.68 -216.35 16.12 C-151.38 -18.93 -69.42 -24.09 0 0 Z " fill="#FBFCFE" transform="translate(804.8515625,303.2587890625)"/>
<path d="M0 0 C3.55 1.51 5.83 3.58 8.55 6.3 C9.92 7.66 9.92 7.66 11.31 9.04 C12.32 10.06 13.33 11.07 14.34 12.08 C15.41 13.16 16.49 14.23 17.56 15.3 C20.52 18.25 23.47 21.2 26.42 24.15 C29.6 27.34 32.78 30.52 35.97 33.7 C42.21 39.93 48.44 46.16 54.67 52.4 C59.74 57.47 64.8 62.54 69.87 67.6 C70.59 68.32 71.31 69.04 72.05 69.78 C73.52 71.25 74.98 72.71 76.44 74.17 C90.17 87.9 103.9 101.63 117.62 115.36 C129.41 127.16 141.19 138.94 152.98 150.72 C166.67 164.4 180.35 178.07 194.03 191.76 C195.48 193.21 196.94 194.67 198.4 196.13 C199.47 197.21 199.47 197.21 200.57 198.31 C205.63 203.37 210.7 208.43 215.76 213.49 C221.93 219.65 228.09 225.82 234.26 231.99 C237.4 235.14 240.55 238.29 243.7 241.43 C246.58 244.31 249.46 247.19 252.33 250.07 C253.37 251.12 254.42 252.16 255.46 253.2 C256.88 254.62 258.29 256.03 259.7 257.45 C260.49 258.24 261.28 259.03 262.09 259.84 C263.85 261.84 264.96 263.56 266 266 C238.28 266.99 211.15 260.75 185 252 C149.34 240.17 115.71 237.22 80.95 253.99 C74.04 257.54 67.68 261.69 61.77 266.75 C60 268 60 268 57 268 C49.59 262.91 43.39 255.52 37.06 249.16 C35.93 248.03 34.8 246.89 33.67 245.76 C30.71 242.8 27.76 239.84 24.81 236.88 C21.79 233.85 18.76 230.82 15.74 227.79 C9.82 221.86 3.91 215.93 -2 210 C-0.48 206.84 1.32 204.02 3.33 201.13 C21.81 174.4 28.81 144.2 23.82 111.88 C21.74 102.02 18.55 92.45 15.26 82.93 C6.01 56.12 0 28.47 0 0 Z " fill="#FBFCFE" transform="translate(441,571)"/>
<path d="M0 0 C6.47 5.34 12.39 11.21 18.33 17.13 C18.86 17.66 19.4 18.19 19.94 18.73 C22.75 21.52 25.55 24.32 28.35 27.11 C31.24 29.99 34.13 32.86 37.03 35.73 C39.27 37.95 41.5 40.18 43.73 42.4 C44.79 43.46 45.86 44.52 46.93 45.58 C48.42 47.06 49.9 48.54 51.39 50.03 C52.65 51.29 52.65 51.29 53.95 52.58 C56.02 55.02 56.9 57.03 58 60 C40.6 77.44 23.2 94.88 5.79 112.31 C-2.29 120.4 -10.37 128.5 -18.45 136.6 C-25.49 143.66 -32.53 150.71 -39.57 157.76 C-43.31 161.5 -47.04 165.23 -50.76 168.97 C-54.27 172.49 -57.78 176.01 -61.29 179.52 C-62.58 180.81 -63.87 182.1 -65.15 183.39 C-66.91 185.16 -68.67 186.92 -70.43 188.67 C-70.94 189.19 -71.45 189.7 -71.98 190.23 C-76.01 194.23 -79.04 196.28 -84.75 196.5 C-85.55 196.55 -86.35 196.6 -87.17 196.66 C-97.96 194.15 -107.66 180.9 -115.21 173.43 C-117.03 171.64 -118.86 169.86 -120.7 168.09 C-123.37 165.51 -126.02 162.91 -128.65 160.3 C-129.89 159.12 -129.89 159.12 -131.15 157.93 C-135.72 153.32 -138.14 149.9 -138.25 143.28 C-137.62 137.59 -134.5 134.13 -130.55 130.26 C-129.7 129.42 -128.86 128.58 -127.98 127.72 C-127.1 126.86 -126.22 126.01 -125.31 125.12 C-124.42 124.25 -123.53 123.37 -122.61 122.46 C-120.41 120.3 -118.21 118.15 -116 116 C-112.79 117.41 -110.71 119.08 -108.29 121.59 C-107.6 122.29 -106.91 122.99 -106.21 123.72 C-104.78 125.19 -103.36 126.67 -101.93 128.15 C-95.73 134.7 -95.73 134.7 -87.38 137.38 C-84.12 137.24 -84.12 137.24 -82.06 135.88 C-80.39 132.93 -80.43 131.37 -81 128 C-84.8 121.71 -90.16 116.6 -95.38 111.5 C-96.11 110.77 -96.85 110.05 -97.61 109.3 C-99.4 107.53 -101.2 105.76 -103 104 C-101.88 100.65 -101.05 99.98 -98.38 97.81 C-94.82 94.8 -91.81 91.61 -88.81 88.07 C-85.72 84.54 -82.36 81.28 -79 78 C-75.69 79.44 -73.57 81.22 -71.07 83.81 C-70.33 84.56 -69.6 85.3 -68.85 86.07 C-67.33 87.65 -65.81 89.22 -64.29 90.79 C-63.55 91.54 -62.82 92.29 -62.07 93.06 C-61.41 93.74 -60.75 94.43 -60.06 95.13 C-56.86 98.03 -54.2 99.86 -49.88 100.38 C-47.06 100.19 -47.06 100.19 -45.12 98.94 C-43.26 95.72 -43.46 93.66 -44 90 C-48.08 83.09 -54.2 77.68 -59.96 72.21 C-60.94 71.26 -60.94 71.26 -61.93 70.29 C-62.52 69.73 -63.11 69.17 -63.72 68.59 C-65 67 -65 67 -65 64 C-63.55 62.47 -63.55 62.47 -61.53 60.84 C-56.93 56.98 -52.72 52.83 -48.5 48.56 C-47.77 47.83 -47.05 47.1 -46.3 46.35 C-44.53 44.57 -42.76 42.78 -41 41 C-37.57 42.47 -35.4 44.39 -32.81 47.06 C-32.03 47.86 -31.25 48.66 -30.45 49.48 C-28.82 51.16 -27.18 52.84 -25.55 54.52 C-24.77 55.32 -23.99 56.12 -23.19 56.94 C-22.48 57.67 -21.77 58.4 -21.04 59.15 C-17.71 62.17 -15.92 63.03 -11.38 62.88 C-8.02 62.34 -8.02 62.34 -6.5 60.31 C-5.78 56.99 -5.93 55.28 -7 52 C-12.59 43.8 -20.96 36.95 -28 30 C-26.2 26.12 -23.9 23.73 -20.81 20.75 C-17.51 17.53 -14.29 14.28 -11.31 10.75 C-7.9 6.74 -4.04 3.36 0 0 Z " fill="#FCFDFF" transform="translate(427,793)"/>
<path d="M0 0 C13.73 11.95 24.05 25.5 26.46 44 C27.38 61.7 24.45 78 12.54 91.89 C2.47 102.98 -10.93 111.87 -26.19 113.23 C-47.95 114.25 -63.43 109.66 -80.24 95.77 C-90.94 85.79 -97.06 72.48 -97.92 57.93 C-98.28 47.32 -97.47 37.95 -93.54 28 C-93.22 27.13 -92.89 26.27 -92.55 25.38 C-85.89 10.16 -72.56 -0.65 -57.54 -7 C-38.96 -13.69 -16 -12.61 0 0 Z " fill="#FCFDFF" transform="translate(903.54296875,694.00390625)"/>
<path d="M0 0 C1.16 -0.01 1.16 -0.01 2.35 -0.03 C27.12 -0.28 58.1 -0.53 78.88 15.24 C81.03 17.96 80.87 19.26 80.75 22.8 C79.88 26.24 79.88 26.24 78.19 28.18 C74.33 29.95 70.96 29.58 66.96 28.32 C65.92 27.9 64.88 27.48 63.81 27.05 C57.6 24.73 51.39 23.01 44.94 21.49 C44.05 21.28 43.16 21.07 42.25 20.85 C31.99 18.48 22.05 18 11.56 17.99 C10.8 17.99 10.04 17.99 9.25 17.99 C-2.16 18 -13 18.54 -24.12 21.24 C-25.36 21.52 -26.59 21.8 -27.86 22.08 C-36.03 24.08 -43.8 26.84 -51.61 29.95 C-55.92 31.63 -59.42 32.79 -64.12 32.24 C-67.54 30.26 -68.85 29.05 -70.12 25.3 C-70.12 21.47 -69.64 20.14 -67.12 17.24 C-60.81 13.7 -54.26 11.42 -47.38 9.24 C-46.28 8.89 -45.19 8.54 -44.07 8.18 C-34.21 5.12 -24.3 2.94 -14.12 1.24 C-13.22 1.06 -12.31 0.89 -11.38 0.71 C-7.58 0.16 -3.83 0.04 0 0 Z " fill="#7B56C1" transform="translate(706.125,331.76171875)"/>
<path d="M0 0 C0 3 0 3 0 3 Z M-6 4 C-4.68 4.33 -3.36 4.66 -2 5 C-18.5 21.5 -35 38 -52 55 C-52.66 54.67 -53.32 54.34 -54 54 C-53.43 53.43 -52.86 52.87 -52.27 52.28 C-46.88 46.93 -41.49 41.57 -36.11 36.21 C-33.34 33.46 -30.58 30.7 -27.8 27.96 C-25.13 25.3 -22.46 22.64 -19.79 19.98 C-18.77 18.97 -17.75 17.95 -16.73 16.94 C-15.3 15.52 -13.87 14.1 -12.45 12.68 C-11.64 11.87 -10.82 11.06 -9.99 10.23 C-8.18 8.2 -7.05 6.49 -6 4 Z " fill="#B3A0D9" transform="translate(217,158)"/>
<path d="M0 0 C0.82 0.16 1.65 0.33 2.5 0.5 C1.86 0.97 1.22 1.45 0.56 1.94 C-3.05 4.96 -6.25 8.28 -9.51 11.67 C-11.5 13.5 -11.5 13.5 -13.5 13.5 C-11.32 7.16 -6.92 0.99 0 0 Z " fill="#8065A8" transform="translate(234.5,143.5)"/>
<path d="M0 0 C0.66 0.33 1.32 0.66 2 1 C-3.94 6.94 -9.88 12.88 -16 19 C-16.66 18.34 -17.32 17.68 -18 17 C-17.5 16.59 -17.01 16.17 -16.5 15.75 C-12.1 12.01 -8.22 8.15 -4.54 3.7 C-3 2 -3 2 0 0 Z " fill="#C3B3E3" transform="translate(1092,1090)"/>
<path d="M0 0 C-1.39 3.16 -3.02 5.24 -5.5 7.62 C-6.41 8.51 -6.41 8.51 -7.34 9.41 C-8.16 10.2 -8.16 10.2 -9 11 C-9.66 11.66 -10.32 12.32 -11 13 C-9.94 7.29 -6.37 0 0 0 Z " fill="#8C6EB9" transform="translate(155,223)"/>
<path d="M0 0 C0.99 0.66 1.98 1.32 3 2 C1.35 2.33 -0.3 2.66 -2 3 C-2 2.34 -2 1.68 -2 1 C-1.34 0.67 -0.68 0.34 0 0 Z M-5 3 C-4.01 3.33 -3.02 3.66 -2 4 C-2.99 4.66 -3.98 5.32 -5 6 C-5 6.66 -5 7.32 -5 8 C-7.98 8.77 -10.98 9.41 -14 10 C-12.34 8.66 -10.67 7.33 -9 6 C-8.3 5.4 -7.6 4.8 -6.88 4.19 C-6.26 3.8 -5.64 3.4 -5 3 Z " fill="#543B85" transform="translate(287,104)"/>
<path d="M0 0 C0.33 0 0.66 0 1 0 C1 4.29 1 8.58 1 13 C0.67 13 0.34 13 0 13 C0 8.71 0 4.42 0 0 Z " fill="#000002" transform="translate(1277,699)"/>
<path d="M0 0 C3.3 0 6.6 0 10 0 C10 0.33 10 0.66 10 1 C6.37 1.33 2.74 1.66 -1 2 C-0.67 1.34 -0.34 0.68 0 0 Z " fill="#B28DE7" transform="translate(755,1268)"/>
<path d="M0 0 C0.33 0 0.66 0 1 0 C1 3.63 1 7.26 1 11 C0.67 11 0.34 11 0 11 C0 7.37 0 3.74 0 0 Z " fill="#000002" transform="translate(1277,570)"/>
<path d="M0 0 C2.97 0 5.94 0 9 0 C9 0.33 9 0.66 9 1 C6.03 1 3.06 1 0 1 C0 0.67 0 0.34 0 0 Z " fill="#000002" transform="translate(703,1277)"/>
<path d="M0 0 C2.31 0 4.62 0 7 0 C7 0.33 7 0.66 7 1 C4.69 1 2.38 1 0 1 C0 0.67 0 0.34 0 0 Z " fill="#000002" transform="translate(568,1277)"/>
<path d="M0 0 C2.31 0 4.62 0 7 0 C7 0.33 7 0.66 7 1 C4.69 1 2.38 1 0 1 C0 0.67 0 0.34 0 0 Z " fill="#BD99EF" transform="translate(818,1253)"/>
<path d="M0 0 C1.98 0 3.96 0 6 0 C6 0.33 6 0.66 6 1 C4.02 1 2.04 1 0 1 C0 0.67 0 0.34 0 0 Z " fill="#000002" transform="translate(721,1275)"/>
<path d="M0 0 C1.98 0 3.96 0 6 0 C6 0.33 6 0.66 6 1 C4.02 1 2.04 1 0 1 C0 0.67 0 0.34 0 0 Z " fill="#000002" transform="translate(553,1275)"/>
<path d="M0 0 C0.33 0 0.66 0 1 0 C1 1.98 1 3.96 1 6 C0.67 6 0.34 6 0 6 C0 4.02 0 2.04 0 0 Z " fill="#000002" transform="translate(1275,721)"/>
<path d="M0 0 C0.33 0 0.66 0 1 0 C1 1.98 1 3.96 1 6 C0.67 6 0.34 6 0 6 C0 4.02 0 2.04 0 0 Z " fill="#000002" transform="translate(1275,553)"/>
<path d="M0 0 C1.65 0 3.3 0 5 0 C5 0.33 5 0.66 5 1 C3.35 1 1.7 1 0 1 C0 0.67 0 0.34 0 0 Z " fill="#000002" transform="translate(522,1270)"/>
<path d="M0 0 C1 4 1 4 1 4 Z " fill="#000002" transform="translate(1262,791)"/>
<path d="M0 0 C1 4 1 4 1 4 Z " fill="#000002" transform="translate(1262,485)"/>
<path d="M0 0 C3 1 3 1 3 1 Z " fill="#000002" transform="translate(756,1270)"/>
<path d="M0 0 C3 1 3 1 3 1 Z " fill="#000002" transform="translate(466,1257)"/>
<path d="M0 0 C3 1 3 1 3 1 Z " fill="#000002" transform="translate(818,1255)"/>
<path d="M0 0 C3 1 3 1 3 1 Z " fill="#A782DF" transform="translate(836,1248)"/>
<path d="M0 0 C3 1 3 1 3 1 Z " fill="#A782DF" transform="translate(851,1243)"/>
<path d="M0 0 C3 1 3 1 3 1 Z " fill="#000002" transform="translate(406,1237)"/>
<path d="M0 0 C3 1 3 1 3 1 Z " fill="#000002" transform="translate(394,1232)"/>
<path d="" fill="#000002" transform="translate(0,0)"/>
<path d="" fill="#000002" transform="translate(0,0)"/>
<path d="" fill="#000002" transform="translate(0,0)"/>
<path d="" fill="#000002" transform="translate(0,0)"/>
<path d="" fill="#000002" transform="translate(0,0)"/>
<path d="" fill="#000002" transform="translate(0,0)"/>
<path d="M0 0 C2 1 2 1 2 1 Z " fill="#000002" transform="translate(485,1262)"/>
<path d="M0 0 C2 1 2 1 2 1 Z " fill="#000002" transform="translate(801,1260)"/>
<path d="M0 0 C2 1 2 1 2 1 Z " fill="#000002" transform="translate(477,1260)"/>
<path d="M0 0 C2 1 2 1 2 1 Z " fill="#000002" transform="translate(812,1257)"/>
<path d="M0 0 C2 1 2 1 2 1 Z " fill="#000002" transform="translate(460,1255)"/>
<path d="M0 0 C2 1 2 1 2 1 Z " fill="#000002" transform="translate(449,1252)"/>
<path d="M0 0 C2 1 2 1 2 1 Z " fill="#000002" transform="translate(434,1247)"/>
<path d="M0 0 C2 1 2 1 2 1 Z " fill="#000002" transform="translate(872,1237)"/>
<path d="M0 0 C2 1 2 1 2 1 Z " fill="#000002" transform="translate(896,1227)"/>
<path d="M0 0 C2 1 2 1 2 1 Z " fill="#BD99EF" transform="translate(901,1223)"/>
<path d="M0 0 C2 1 2 1 2 1 Z " fill="#000002" transform="translate(372,1222)"/>
<path d="M0 0 C2 1 2 1 2 1 Z " fill="#BD99EF" transform="translate(354,1213)"/>
<path d="M0 0 C2 1 2 1 2 1 Z " fill="#000002" transform="translate(928,1212)"/>
<path d="M0 0 C2 1 2 1 2 1 Z " fill="#BD99EF" transform="translate(344,1208)"/>
<path d="M0 0 C2 1 2 1 2 1 Z " fill="#BD99EF" transform="translate(334,1203)"/>
<path d="M0 0 C2 1 2 1 2 1 Z " fill="#000002" transform="translate(290,1177)"/>
<path d="M0 0 C2 1 2 1 2 1 Z " fill="#000002" transform="translate(282,1172)"/>
<path d="M0 0 C2 1 2 1 2 1 Z " fill="#000002" transform="translate(275,1167)"/>
<path d="M0 0 C2 1 2 1 2 1 Z " fill="#BD99EF" transform="translate(1021,1153)"/>
<path d="" fill="#000002" transform="translate(0,0)"/>
<path d="" fill="#000002" transform="translate(0,0)"/>
<path d="" fill="#000002" transform="translate(0,0)"/>
<path d="" fill="#000002" transform="translate(0,0)"/>
<path d="" fill="#000002" transform="translate(0,0)"/>
<path d="" fill="#000002" transform="translate(0,0)"/>
<path d="" fill="#000002" transform="translate(0,0)"/>
<path d="" fill="#000002" transform="translate(0,0)"/>
<path d="" fill="#000002" transform="translate(0,0)"/>
<path d="" fill="#000002" transform="translate(0,0)"/>
<path d="" fill="#000002" transform="translate(0,0)"/>
<path d="" fill="#000002" transform="translate(0,0)"/>
<path d="" fill="#000002" transform="translate(0,0)"/>
<path d="" fill="#000002" transform="translate(0,0)"/>
<path d="" fill="#000002" transform="translate(0,0)"/>
<path d="" fill="#000002" transform="translate(0,0)"/>
<path d="" fill="#000002" transform="translate(0,0)"/>
<path d="" fill="#000002" transform="translate(0,0)"/>
<path d="" fill="#000002" transform="translate(0,0)"/>
<path d="" fill="#BD99EF" transform="translate(0,0)"/>
<path d="" fill="#000002" transform="translate(0,0)"/>
<path d="" fill="#000002" transform="translate(0,0)"/>
<path d="" fill="#000002" transform="translate(0,0)"/>
<path d="" fill="#000002" transform="translate(0,0)"/>
<path d="" fill="#000002" transform="translate(0,0)"/>
<path d="" fill="#000002" transform="translate(0,0)"/>
<path d="" fill="#000002" transform="translate(0,0)"/>
<path d="" fill="#BD99EF" transform="translate(0,0)"/>
<path d="" fill="#000002" transform="translate(0,0)"/>
<path d="" fill="#000002" transform="translate(0,0)"/>
<path d="" fill="#BD99EF" transform="translate(0,0)"/>
<path d="" fill="#000002" transform="translate(0,0)"/>
<path d="" fill="#000002" transform="translate(0,0)"/>
<path d="" fill="#000002" transform="translate(0,0)"/>
<path d="" fill="#000002" transform="translate(0,0)"/>
<path d="" fill="#000002" transform="translate(0,0)"/>
<path d="" fill="#000002" transform="translate(0,0)"/>
<path d="" fill="#000002" transform="translate(0,0)"/>
<path d="" fill="#FCFDFF" transform="translate(0,0)"/>
<path d="" fill="#000002" transform="translate(0,0)"/>
<path d="" fill="#000002" transform="translate(0,0)"/>
<path d="" fill="#000002" transform="translate(0,0)"/>
<path d="" fill="#000002" transform="translate(0,0)"/>
<path d="" fill="#000002" transform="translate(0,0)"/>
<path d="" fill="#000002" transform="translate(0,0)"/>
<path d="" fill="#000002" transform="translate(0,0)"/>
<path d="" fill="#FCFDFF" transform="translate(0,0)"/>
<path d="" fill="#000002" transform="translate(0,0)"/>
<path d="" fill="#000002" transform="translate(0,0)"/>
<path d="" fill="#000002" transform="translate(0,0)"/>
<path d="" fill="#000002" transform="translate(0,0)"/>
<path d="" fill="#000002" transform="translate(0,0)"/>
<path d="" fill="#000002" transform="translate(0,0)"/>
<path d="" fill="#000002" transform="translate(0,0)"/>
<path d="" fill="#000002" transform="translate(0,0)"/>
<path d="" fill="#000002" transform="translate(0,0)"/>
<path d="" fill="#000002" transform="translate(0,0)"/>
<path d="" fill="#000002" transform="translate(0,0)"/>
<path d="" fill="#000002" transform="translate(0,0)"/>
<path d="" fill="#BD99EF" transform="translate(0,0)"/>
<path d="" fill="#000002" transform="translate(0,0)"/>
<path d="" fill="#7B56C1" transform="translate(0,0)"/>
<path d="" fill="#BD99EF" transform="translate(0,0)"/>
<path d="" fill="#000002" transform="translate(0,0)"/>
<path d="" fill="#000002" transform="translate(0,0)"/>
<path d="" fill="#000002" transform="translate(0,0)"/>
<path d="" fill="#BD99EF" transform="translate(0,0)"/>
<path d="" fill="#000002" transform="translate(0,0)"/>
<path d="" fill="#000002" transform="translate(0,0)"/>
<path d="" fill="#BD99EF" transform="translate(0,0)"/>
<path d="" fill="#BD99EF" transform="translate(0,0)"/>
<path d="" fill="#BD99EF" transform="translate(0,0)"/>
<path d="" fill="#FCFDFF" transform="translate(0,0)"/>
<path d="" fill="#000002" transform="translate(0,0)"/>
<path d="" fill="#BD99EF" transform="translate(0,0)"/>
<path d="" fill="#000002" transform="translate(0,0)"/>
<path d="" fill="#BD99EF" transform="translate(0,0)"/>
<path d="" fill="#000002" transform="translate(0,0)"/>
<path d="" fill="#BD99EF" transform="translate(0,0)"/>
<path d="" fill="#000002" transform="translate(0,0)"/>
<path d="" fill="#000002" transform="translate(0,0)"/>
<path d="" fill="#000002" transform="translate(0,0)"/>
<path d="" fill="#BD99EF" transform="translate(0,0)"/>
<path d="" fill="#BD99EF" transform="translate(0,0)"/>
<path d="" fill="#BD99EF" transform="translate(0,0)"/>
<path d="" fill="#BD99EF" transform="translate(0,0)"/>
<path d="" fill="#000002" transform="translate(0,0)"/>
<path d="" fill="#BD99EF" transform="translate(0,0)"/>
<path d="" fill="#000002" transform="translate(0,0)"/>
<path d="" fill="#000002" transform="translate(0,0)"/>
<path d="" fill="#BD99EF" transform="translate(0,0)"/>
<path d="" fill="#FCFDFF" transform="translate(0,0)"/>
<path d="" fill="#BD99EF" transform="translate(0,0)"/>
<path d="" fill="#000002" transform="translate(0,0)"/>
<path d="" fill="#000002" transform="translate(0,0)"/>
<path d="" fill="#000002" transform="translate(0,0)"/>
<path d="" fill="#000002" transform="translate(0,0)"/>
<path d="" fill="#000002" transform="translate(0,0)"/>
<path d="" fill="#000002" transform="translate(0,0)"/>
<path d="" fill="#000002" transform="translate(0,0)"/>
<path d="" fill="#000002" transform="translate(0,0)"/>
<path d="" fill="#000002" transform="translate(0,0)"/>
<path d="" fill="#000002" transform="translate(0,0)"/>
<path d="" fill="#BD99EF" transform="translate(0,0)"/>
<path d="" fill="#000002" transform="translate(0,0)"/>
<path d="" fill="#000002" transform="translate(0,0)"/>
<path d="" fill="#000002" transform="translate(0,0)"/>
<path d="" fill="#000002" transform="translate(0,0)"/>
<path d="" fill="#000002" transform="translate(0,0)"/>
<path d="" fill="#000002" transform="translate(0,0)"/>
<path d="" fill="#000002" transform="translate(0,0)"/>
<path d="" fill="#000002" transform="translate(0,0)"/>
<path d="" fill="#000002" transform="translate(0,0)"/>
<path d="" fill="#BD99EF" transform="translate(0,0)"/>
<path d="" fill="#7B56C1" transform="translate(0,0)"/>
<path d="" fill="#BD99EF" transform="translate(0,0)"/>
<path d="" fill="#7B56C1" transform="translate(0,0)"/>
<path d="" fill="#000002" transform="translate(0,0)"/>
<path d="" fill="#000002" transform="translate(0,0)"/>
<path d="" fill="#000002" transform="translate(0,0)"/>
<path d="" fill="#000002" transform="translate(0,0)"/>
<path d="" fill="#000002" transform="translate(0,0)"/>
<path d="" fill="#FCFDFF" transform="translate(0,0)"/>
<path d="" fill="#000002" transform="translate(0,0)"/>
<path d="" fill="#000002" transform="translate(0,0)"/>
<path d="" fill="#000002" transform="translate(0,0)"/>
<path d="" fill="#000002" transform="translate(0,0)"/>
<path d="" fill="#000002" transform="translate(0,0)"/>
<path d="" fill="#000002" transform="translate(0,0)"/>
<path d="" fill="#000002" transform="translate(0,0)"/>
<path d="" fill="#000002" transform="translate(0,0)"/>
<path d="" fill="#000002" transform="translate(0,0)"/>
<path d="" fill="#000002" transform="translate(0,0)"/>
<path d="" fill="#7B56C1" transform="translate(0,0)"/>
<path d="" fill="#000002" transform="translate(0,0)"/>
<path d="" fill="#FCFDFF" transform="translate(0,0)"/>
<path d="" fill="#000002" transform="translate(0,0)"/>
<path d="" fill="#000002" transform="translate(0,0)"/>
<path d="" fill="#000002" transform="translate(0,0)"/>
<path d="" fill="#000002" transform="translate(0,0)"/>
<path d="" fill="#000002" transform="translate(0,0)"/>
<path d="" fill="#000002" transform="translate(0,0)"/>
<path d="" fill="#000002" transform="translate(0,0)"/>
<path d="" fill="#000002" transform="translate(0,0)"/>
<path d="" fill="#000002" transform="translate(0,0)"/>
<path d="" fill="#BD99EF" transform="translate(0,0)"/>
<path d="" fill="#000002" transform="translate(0,0)"/>
<path d="" fill="#7B56C1" transform="translate(0,0)"/>
<path d="" fill="#7B56C1" transform="translate(0,0)"/>
<path d="" fill="#000002" transform="translate(0,0)"/>
<path d="" fill="#BD99EF" transform="translate(0,0)"/>
<path d="" fill="#BD99EF" transform="translate(0,0)"/>
<path d="" fill="#7B56C1" transform="translate(0,0)"/>
<path d="" fill="#000002" transform="translate(0,0)"/>
<path d="" fill="#7B56C1" transform="translate(0,0)"/>
<path d="" fill="#000002" transform="translate(0,0)"/>
<path d="" fill="#000002" transform="translate(0,0)"/>
<path d="" fill="#000002" transform="translate(0,0)"/>
<path d="" fill="#000002" transform="translate(0,0)"/>
</svg>
