<svg width="16" height="16" viewBox="0 0 16 16" fill="white" xmlns="http://www.w3.org/2000/svg">
<path d="M4.01615 12.5003C4.16727 10.1775 5.38683 8 8 8C10.6132 8 11.8327 10.1775 11.9839 12.5003C12.0018 12.7759 11.7761 13 11.5 13H4.5C4.22386 13 3.99822 12.7759 4.01615 12.5003Z" fill="white"/>
<path d="M10.019 11.5004C10.1586 9.68009 11.0753 8 13 8C14.9247 8 15.8414 9.68009 15.981 11.5004C16.0021 11.7757 15.7761 12 15.5 12H10.5C10.2239 12 9.99787 11.7757 10.019 11.5004Z" fill="white"/>
<path d="M0.0189812 11.5004C0.158586 9.68009 1.07526 8 3 8C4.92474 8 5.84141 9.68009 5.98102 11.5004C6.00214 11.7757 5.77614 12 5.5 12H0.5C0.223858 12 -0.00213484 11.7757 0.0189812 11.5004Z" fill="white"/>
<circle cx="8" cy="5" r="2" fill="white"/>
<circle cx="13" cy="5" r="2" fill="white"/>
<circle cx="3" cy="5" r="2" fill="white"/>
</svg>
