<svg width="16" height="20" viewBox="0 0 16 20" fill="none" xmlns="http://www.w3.org/2000/svg">
<path d="M6 13.5H10" stroke="white" stroke-linecap="round" stroke-linejoin="round"/>
<path d="M8 11.5L8 15.5" stroke="white" stroke-linecap="round" stroke-linejoin="round"/>
<path d="M5.72796 1H3.5C2.25736 1 1.25 2.00736 1.25 3.25V16.75C1.25 17.9926 2.25736 19 3.5 19H12.5C13.7426 19 14.75 17.9926 14.75 16.75V10M5.72796 1C6.9706 1 8 2.00736 8 3.25V5.5C8 6.74264 9.00736 7.75 10.25 7.75H12.5C13.7426 7.75 14.75 8.75736 14.75 10M5.72796 1C9.41787 1 14.75 6.3597 14.75 10" stroke="white" stroke-linecap="round" stroke-linejoin="round"/>
</svg>
