<svg width="32" height="27" viewBox="0 0 32 27" fill="none" xmlns="http://www.w3.org/2000/svg">
<path d="M8.71293 12.9053V17.533M6.39905 15.2192L11.0268 15.2192" stroke="#EAD3D6" stroke-width="1.5" stroke-linecap="round" stroke-linejoin="round"/>
<path d="M15.6546 8.04191C18.7481 8.04191 21.3631 5.12951 24.5804 6.17144C28.0722 7.30223 30.474 11.4361 30.3003 20.813C30.2653 22.7023 29.7811 24.7904 27.9143 25.6056C23.6009 27.4891 21.1322 22.0138 17.1183 22.0138H14.1908C10.1729 22.0138 7.69204 27.482 3.39489 25.6056C1.528 24.7904 1.04385 22.7023 1.00885 20.813C0.835119 11.4361 3.23695 7.30224 6.72869 6.17145C9.9461 5.1295 12.5611 8.04191 15.6546 8.04191Z" stroke="#EAD3D6" stroke-width="1.5" stroke-linecap="round" stroke-linejoin="round"/>
<path d="M15.6545 1L15.6545 7.69675" stroke="#EAD3D6" stroke-width="1.5" stroke-linecap="round" stroke-linejoin="round"/>
<path d="M20.0886 15.2188H24.7164" stroke="#EAD3D6" stroke-width="1.5" stroke-linecap="round" stroke-linejoin="round"/>
</svg>
