<svg width="800" height="800" viewBox="0 0 800 800" fill="none" xmlns="http://www.w3.org/2000/svg">
<rect width="800" height="800" fill="#CCCCCC"/>
<path d="M529.997 399.884C480.291 399.884 439.996 359.428 439.996 309.523C439.996 259.617 480.291 219.161 529.997 219.161C579.703 219.161 619.997 259.617 619.997 309.523C619.997 359.428 579.703 399.884 529.997 399.884Z" fill="white"/>
<path d="M427.499 450.085C462.699 432.139 501.549 424.985 529.999 424.985C585.724 424.985 700 459.297 700 527.897V580.608H512.499V560.44C512.499 536.594 502.499 512.686 484.999 492.756C471.036 476.843 451.486 462.071 427.499 450.085Z" fill="white"/>
<path d="M295.001 440.045C360.089 440.045 490.002 480.407 490.002 560.528V620.769H100V560.528C100 480.407 229.913 440.045 295.001 440.045Z" fill="white"/>
<path d="M294.995 399.885C234.243 399.885 184.994 350.438 184.994 289.442C184.994 228.447 234.243 179 294.995 179C355.746 179 404.995 228.447 404.995 289.442C404.995 350.438 355.746 399.885 294.995 399.885Z" fill="white"/>
</svg>
