<svg width="44" height="40" viewBox="0 0 44 40" fill="none" xmlns="http://www.w3.org/2000/svg">
<path d="M32.9937 8.58958L40.5833 1M32.9937 8.58958C36.9058 11.0901 39.7896 14.445 41.5217 16.8217C42.0879 17.5987 42.371 17.9872 42.5659 18.7388C42.7002 19.2568 42.7002 20.2432 42.5659 20.7612C42.371 21.5128 42.0879 21.9013 41.5217 22.6783C38.4187 26.9361 31.6196 34.3333 21.8333 34.3333C17.5098 34.3333 13.7692 32.8895 10.6729 30.9104M32.9937 8.58958L24.7796 16.8037M3.08329 38.5L10.6729 30.9104M10.6729 30.9104L18.887 22.6963M4.87678 26C3.77496 24.8119 2.86146 23.6614 2.14501 22.6783C1.57875 21.9013 1.29562 21.5128 1.10073 20.7612C0.966422 20.2432 0.966422 19.2568 1.10073 18.7388C1.29562 17.9872 1.57875 17.5987 2.14501 16.8217C5.24796 12.5639 12.0471 5.16667 21.8333 5.16667C23.0634 5.16667 24.2462 5.28353 25.3805 5.49633M24.7796 16.8037C25.5336 17.5577 26 18.5994 26 19.75C26 22.0512 24.1345 23.9167 21.8333 23.9167C20.6827 23.9167 19.641 23.4503 18.887 22.6963M24.7796 16.8037L18.887 22.6963" stroke="white" stroke-width="1.5" stroke-linecap="round" stroke-linejoin="round"/>
</svg>
