<svg width="38" height="40" viewBox="0 0 38 40" fill="none" xmlns="http://www.w3.org/2000/svg">
<path d="M10.375 27.5625V26.5209" stroke="white" stroke-width="1.5" stroke-linecap="round" stroke-linejoin="round"/>
<path d="M27.041 27.5625V26.5209" stroke="white" stroke-width="1.5" stroke-linecap="round" stroke-linejoin="round"/>
<path d="M18.708 27.5625V26.5209" stroke="white" stroke-width="1.5" stroke-linecap="round" stroke-linejoin="round"/>
<path d="M1 31.8342V22.2509C1 19.9173 1 18.7506 1.45414 17.8593C1.85361 17.0753 2.49103 16.4378 3.27504 16.0384C4.16634 15.5842 5.33311 15.5842 7.66667 15.5842H29.75C32.0836 15.5842 33.2503 15.5842 34.1416 16.0384C34.9256 16.4378 35.5631 17.0753 35.9625 17.8593C36.4167 18.7506 36.4167 19.9173 36.4167 22.2509V31.8342C36.4167 34.1678 36.4167 35.3346 35.9625 36.2259C35.5631 37.0099 34.9256 37.6473 34.1416 38.0468C33.2503 38.5009 32.0836 38.5009 29.75 38.5009H7.66667C5.33311 38.5009 4.16634 38.5009 3.27504 38.0468C2.49103 37.6473 1.85361 37.0099 1.45414 36.2259C1 35.3346 1 34.1678 1 31.8342Z" stroke="white" stroke-width="1.5" stroke-linecap="round" stroke-linejoin="round"/>
<path d="M10.375 15.5833V11.4167C10.375 5.6637 12.9554 1 18.7083 1C24.4612 1 27.0417 5.6637 27.0417 11.4167V15.5833" stroke="white" stroke-width="1.5" stroke-linecap="round" stroke-linejoin="round"/>
</svg>
