<svg width="40" height="40" viewBox="0 0 40 40" fill="none" xmlns="http://www.w3.org/2000/svg">
<circle cx="19.75" cy="19.75" r="18.75" stroke="white" stroke-width="1.5" stroke-linecap="round" stroke-linejoin="round"/>
<path d="M3.08301 14.0835C5.33692 14.632 7.42259 15.933 8.92886 17.9291C10.5344 20.0568 11.2 22.6009 10.9952 25.0634C10.8867 26.3676 11.7373 27.684 12.8318 28.4014C13.3606 28.7481 13.8397 29.1902 14.2425 29.7239C16.0259 32.0872 15.67 35.3981 13.4997 37.3349" stroke="white" stroke-width="1.5" stroke-linecap="round" stroke-linejoin="round"/>
<path d="M21.8335 1.1001C21.1085 1.71029 20.4553 2.43039 19.8995 3.25541C16.6854 8.02677 17.9477 14.5003 22.7191 17.7144C23.0957 17.9682 23.483 18.194 23.8784 18.3924C28.0835 20.5024 29.6889 17.6586 31.9657 19.1923C33.4425 20.1871 33.8332 22.1908 32.8384 23.6676C31.7958 25.2153 30.1668 25.9999 30.4486 28.5349C30.6077 29.9656 31.4867 31.1986 32.6257 32.2499" stroke="white" stroke-width="1.5" stroke-linecap="round" stroke-linejoin="round"/>
</svg>
