<svg width="16" height="16" viewBox="0 0 16 16" fill="none" xmlns="http://www.w3.org/2000/svg">
<circle cx="1.84211" cy="1.84211" r="1.84211" transform="matrix(1 0 0 -1 6.4519 10.1361)" stroke="white" stroke-miterlimit="1" stroke-linecap="round" stroke-linejoin="round"/>
<path d="M6.60887 2.13426C7.03719 1.76925 7.25135 1.58674 7.47526 1.47972C7.99316 1.23218 8.59522 1.23218 9.11312 1.47972C9.33703 1.58674 9.55119 1.76925 9.97951 2.13426C10.4205 2.51003 10.8686 2.69968 11.4581 2.74672C12.0191 2.79149 12.2996 2.81387 12.5336 2.89653C13.0748 3.0877 13.5006 3.51342 13.6917 4.05466C13.7744 4.28867 13.7968 4.56915 13.8415 5.13012C13.8886 5.7197 14.0782 6.1678 14.454 6.60875C14.819 7.03707 15.0015 7.25123 15.1085 7.47514C15.3561 7.99304 15.3561 8.5951 15.1085 9.11299C15.0015 9.33691 14.819 9.55107 14.454 9.97938C14.0704 10.4295 13.8876 10.8805 13.8415 11.458C13.7968 12.019 13.7744 12.2995 13.6917 12.5335C13.5006 13.0747 13.0748 13.5004 12.5336 13.6916C12.2996 13.7743 12.0191 13.7966 11.4581 13.8414C10.8686 13.8885 10.4205 14.0781 9.97951 14.4539C9.55119 14.8189 9.33703 15.0014 9.11312 15.1084C8.59522 15.356 7.99316 15.356 7.47527 15.1084C7.25135 15.0014 7.03719 14.8189 6.60887 14.4539C6.15871 14.0703 5.70775 13.8875 5.13025 13.8414C4.56928 13.7966 4.28879 13.7743 4.05478 13.6916C3.51355 13.5004 3.08782 13.0747 2.89665 12.5335C2.814 12.2995 2.79161 12.019 2.74685 11.458C2.6998 10.8684 2.51015 10.4203 2.13438 9.97938C1.76937 9.55107 1.58686 9.33691 1.47984 9.11299C1.23231 8.5951 1.23231 7.99303 1.47984 7.47514C1.58686 7.25123 1.76937 7.03707 2.13438 6.60875C2.518 6.15859 2.70076 5.70763 2.74685 5.13012C2.79161 4.56915 2.814 4.28867 2.89665 4.05466C3.08782 3.51342 3.51355 3.0877 4.05478 2.89653C4.28879 2.81387 4.56928 2.79149 5.13025 2.74672C5.71982 2.69968 6.16793 2.51003 6.60887 2.13426Z" stroke="white" stroke-linecap="round" stroke-linejoin="round"/>
</svg>
